<?xml version="1.0" encoding="UTF-8"?><svg id="Layer_2" xmlns="http://www.w3.org/2000/svg" viewBox="0 0 59.3456115723 26.4389343262"><g id="Layer_1-2"><path d="m4.978012085,3.9204101562v4.4119873047H0v-3.4109802246c1.5820007324-.0700073242,2.6900024414-.1750183105,3.3229980469-.3160095215.6270141602-.1390075684,1.1730041504-.3739929199,1.6550140381-.6849975586m1.7899932861-2.4790039062c-.1849975586.6300048828-.4450073242,1.1499938965-.7729949951,1.5710144043v22.8979797363h5.1319885254V.4214172363h-4.1660003662c0,.2229919434-.0649871826.5629882812-.1929931641,1.0199890137" style="fill:#c0d330; stroke-width:0px;"/><path d="m33.2990112305,18.0880126953l4.4620056152,7.8219909668h-4.8310089111L18.1500091553,0h4.8309936523l10.3180084229,18.0880126953Zm-15.9960021973,7.8219909668h5.0449981689V9.4110107422L17.3030090332.566986084v25.3430175781ZM38.3440093994,0h-5.0449981689v16.0360107422l5.0449981689,8.8450012207V0Z" style="fill:#e63e2f; stroke-width:0px;"/><path d="m49.7966156006,22.3399353027v4.0989990234c-2.200012207-.0850219727-4.0300140381-.7250061035-5.4800109863-1.9340209961-1.5579986572-1.300994873-2.424987793-3.1470031738-2.6009979248-5.5379943848h4.9920043945c.199005127,1.0899963379.5809936523,1.9309997559,1.1429901123,2.5230102539.467010498.4920043945,1.1220092773.766998291,1.9460144043.8500061035m-6.1679992676-16.4360046387l-1.1220092773,8.8089904785,4.5.2109985352c.3979949951-.7609863281.9900054932-1.282989502,1.7750091553-1.5639953613.2969970703-.1019897461.6449890137-.1570129395,1.0149993896-.1900024414v-3.9700012207c-.3510131836.0650024414-.6820068359.1470031738-.9800109863.2579956055-.4329986572.1640014648-1.0359954834.4980163574-1.8099975586,1.0020141602l.7480010986-4.5559997559h-4.1259918213Zm14.7159881592-1.016998291V.6329345703h-14.0459899902l-.5410003662,4.2539978027h14.5869903564Zm-5.1329956055,9.5889892578c.6089935303.8970031738.9140014648,1.9949951172.9140014648,3.2959899902,0,1.324005127-.3249969482,2.4230041504-.9759979248,3.2960205078-.5570068359.7479858398-1.3450012207,1.1559753418-2.3370056152,1.2630004883v4.1040039062c2.7490081787-.1030273438,4.8440093994-1.0150146484,6.2660064697-2.757019043,1.5119934082-1.850982666,2.266998291-3.9549865723,2.266998291-6.3099975586,0-2.7070007324-.7850036621-4.7699890137-2.3540039062-6.1879882812-1.5709991455-1.4179992676-3.4109954834-2.1270141602-5.5209960938-2.1270141602-.2279968262,0-.4450073242.0100097656-.6580047607.0220031738v4.0979919434c1.0550079346.0980224609,1.8650054932.5180053711,2.3990020752,1.3030090332" style="fill:#482f8c; stroke-width:0px;"/></g></svg>