<?xml version="1.0" encoding="UTF-8"?><svg id="b" xmlns="http://www.w3.org/2000/svg" width="120" height="141.18" xmlns:xlink="http://www.w3.org/1999/xlink" viewBox="0 0 120 141.18"><defs><linearGradient id="d" x1="8.25" y1="118.71" x2="113.7" y2="118.71" gradientUnits="userSpaceOnUse"><stop offset="0" stop-color="#005b23"/><stop offset="1" stop-color="#b3d678"/></linearGradient><linearGradient id="e" x1="8.25" y1="129.41" x2="113.7" y2="129.41" xlink:href="#d"/><linearGradient id="f" x1="8.25" y1="93.6" x2="107.7" y2="93.6" gradientUnits="userSpaceOnUse"><stop offset="0" stop-color="#fbad18"/><stop offset="1" stop-color="#ffdeab"/></linearGradient><linearGradient id="g" x1="8.25" y1="117.18" x2="107.7" y2="117.18" xlink:href="#f"/><linearGradient id="h" x1="8.25" y1="49.3" x2="112.7" y2="49.3" gradientUnits="userSpaceOnUse"><stop offset="0" stop-color="#005a70"/><stop offset="1" stop-color="#aededa"/></linearGradient><linearGradient id="i" x1="8.25" y1="81.58" x2="112.7" y2="81.58" xlink:href="#h"/><linearGradient id="j" x1="8.25" y1="66.3" x2="113.7" y2="66.3" gradientUnits="userSpaceOnUse"><stop offset="0" stop-color="#6d245d"/><stop offset="1" stop-color="#e4c8e0"/></linearGradient><linearGradient id="k" x1="8.25" y1="104.58" x2="113.7" y2="104.58" xlink:href="#j"/><linearGradient id="l" x1="8.25" y1="69.32" x2="107.7" y2="69.32" gradientUnits="userSpaceOnUse"><stop offset="0" stop-color="#c7522f"/><stop offset="1" stop-color="#f8a07e"/></linearGradient><linearGradient id="m" x1="8.25" y1="93.63" x2="107.7" y2="93.63" xlink:href="#l"/><clipPath id="n"><rect x="55.62" y="112.66" width="64.38" height="28.52" fill="none"/></clipPath><linearGradient id="o" x1="8.25" y1="129.41" x2="113.7" y2="129.41" xlink:href="#d"/><clipPath id="p"><rect x="4.24" y="63.01" width="38.68" height="12.37" fill="none"/></clipPath><linearGradient id="q" x1="8.25" y1="117.18" x2="107.7" y2="117.18" xlink:href="#f"/><clipPath id="r"><rect x="55.62" y="66.3" width="61.55" height="24.06" fill="none"/></clipPath><linearGradient id="s" x1="8.25" y1="81.58" x2="112.7" y2="81.58" xlink:href="#h"/><clipPath id="t"><rect x="66.35" y="85.84" width="44.61" height="14.96" fill="none"/></clipPath><linearGradient id="u" x1="8.25" y1="93.63" x2="107.7" y2="93.63" xlink:href="#l"/><clipPath id="v"><rect width="45.18" height="36.14" fill="none"/></clipPath><linearGradient id="w" x1="8.25" y1="81.58" x2="112.7" y2="81.58" xlink:href="#h"/><clipPath id="x"><rect x="66.35" y="18.35" width="50.82" height="92.61" fill="none"/></clipPath><linearGradient id="y" x1="8.25" y1="104.58" x2="113.7" y2="104.58" xlink:href="#j"/></defs><g id="c"><path d="M108.44,131.91h-44.01c-2.65-.09-6.45-1.92-6.45-6.59v-13.21c0-.36,0-1.47-1.54-1.59H8.25v-5h48.27c2.65.09,6.45,1.92,6.45,6.59v13.21c0,.36,0,1.47,1.54,1.59h43.93v5Z" fill="url(#d)"/><polygon points="107.63 135.49 107.63 123.34 113.7 129.41 107.63 135.49" fill="url(#e)"/><path d="M102.44,119.68h-48.01c-2.65-.09-6.45-1.92-6.45-6.59v-38.97c0-.36,0-1.47-1.54-1.59H8.25v-5h38.27c2.65.09,6.45,1.92,6.45,6.59v38.97c0,.36,0,1.47,1.54,1.59h47.93v5Z" fill="url(#f)"/><polygon points="101.63 123.25 101.63 111.1 107.7 117.18 101.63 123.25" fill="url(#g)"/><path d="M107.44,84.08H37.43c-2.65-.09-6.45-1.92-6.45-6.59V21.11c0-.36,0-1.47-1.54-1.59H8.25v-5h21.27c2.65.09,6.45,1.92,6.45,6.59v56.38c0,.36,0,1.47,1.54,1.59h69.93v5Z" fill="url(#h)"/><polygon points="106.63 87.65 106.63 75.5 112.7 81.58 106.63 87.65" fill="url(#i)"/><path d="M108.44,107.08h-33.01c-2.65-.09-6.45-1.92-6.45-6.59V32.11c0-.36,0-1.47-1.54-1.59H8.25v-5h59.27c2.65.09,6.45,1.92,6.45,6.59v68.38c0,.36,0,1.47,1.54,1.59h32.93v5Z" fill="url(#j)"/><polygon points="107.63 110.65 107.63 98.5 113.7 104.58 107.63 110.65" fill="url(#k)"/><path d="M102.44,96.13h-38.01c-2.65-.09-6.45-1.92-6.45-6.59v-40.42c0-.36,0-1.47-1.54-1.59H8.25v-5h48.27c2.65.09,6.45,1.92,6.45,6.59v40.42c0,.36,0,1.47,1.54,1.59h37.93v5Z" fill="url(#l)"/><polygon points="101.63 99.7 101.63 87.55 107.7 93.63 101.63 99.7" fill="url(#m)"/><g clip-path="url(#n)"><path d="M108.44,131.91h-44.01c-2.65-.09-6.45-1.92-6.45-6.59v-13.21c0-.36,0-1.47-1.54-1.59H8.25v-5h48.27c2.65.09,6.45,1.92,6.45,6.59v13.21c0,.36,0,1.47,1.54,1.59h43.93v5Z" fill="url(#d)"/><polygon points="107.63 135.49 107.63 123.34 113.7 129.41 107.63 135.49" fill="url(#o)"/></g><g clip-path="url(#p)"><path d="M102.44,119.68h-48.01c-2.65-.09-6.45-1.92-6.45-6.59v-38.97c0-.36,0-1.47-1.54-1.59H8.25v-5h38.27c2.65.09,6.45,1.92,6.45,6.59v38.97c0,.36,0,1.47,1.54,1.59h47.93v5Z" fill="url(#f)"/><polygon points="101.63 123.25 101.63 111.1 107.7 117.18 101.63 123.25" fill="url(#q)"/></g><g clip-path="url(#r)"><path d="M107.44,84.08H37.43c-2.65-.09-6.45-1.92-6.45-6.59V21.11c0-.36,0-1.47-1.54-1.59H8.25v-5h21.27c2.65.09,6.45,1.92,6.45,6.59v56.38c0,.36,0,1.47,1.54,1.59h69.93v5Z" fill="url(#h)"/><polygon points="106.63 87.65 106.63 75.5 112.7 81.58 106.63 87.65" fill="url(#s)"/></g><g clip-path="url(#t)"><path d="M102.44,96.13h-38.01c-2.65-.09-6.45-1.92-6.45-6.59v-40.42c0-.36,0-1.47-1.54-1.59H8.25v-5h48.27c2.65.09,6.45,1.92,6.45,6.59v40.42c0,.36,0,1.47,1.54,1.59h37.93v5Z" fill="url(#l)"/><polygon points="101.63 99.7 101.63 87.55 107.7 93.63 101.63 99.7" fill="url(#u)"/></g><g clip-path="url(#v)"><path d="M107.44,84.08H37.43c-2.65-.09-6.45-1.92-6.45-6.59V21.11c0-.36,0-1.47-1.54-1.59H8.25v-5h21.27c2.65.09,6.45,1.92,6.45,6.59v56.38c0,.36,0,1.47,1.54,1.59h69.93v5Z" fill="url(#h)"/><polygon points="106.63 87.65 106.63 75.5 112.7 81.58 106.63 87.65" fill="url(#w)"/></g><g clip-path="url(#x)"><path d="M108.44,107.08h-33.01c-2.65-.09-6.45-1.92-6.45-6.59V32.11c0-.36,0-1.47-1.54-1.59H8.25v-5h59.27c2.65.09,6.45,1.92,6.45,6.59v68.38c0,.36,0,1.47,1.54,1.59h32.93v5Z" fill="url(#j)"/><polygon points="107.63 110.65 107.63 98.5 113.7 104.58 107.63 110.65" fill="url(#y)"/></g></g></svg>