<svg width="390" height="168" viewBox="0 0 390 168" fill="none" xmlns="http://www.w3.org/2000/svg">
<path d="M196.271 55.6492C195.852 55.5095 195.572 55.23 195.572 55.0903C195.013 54.5313 195.013 54.2518 194.734 53.6929L194.594 53.2737C194.454 52.8544 194.175 52.4352 193.896 52.016L193.476 51.3173C193.337 50.8981 193.057 50.3391 192.917 49.7802C192.778 49.0815 192.638 48.243 192.638 47.4046V46.7059L192.498 46.0072C192.498 45.8675 192.498 45.7277 192.358 45.7277C192.358 45.588 192.358 45.588 192.358 45.588V45.4482C192.358 45.3085 192.358 45.3085 192.219 45.1688C192.219 45.029 192.079 44.8893 192.079 44.8893C191.799 45.1688 191.38 45.8675 191.24 46.2867V46.4264L190.961 46.9854C190.821 47.5443 190.262 47.9636 189.983 48.5225C189.843 48.6622 189.843 48.6622 189.843 48.802C189.843 48.9417 189.703 49.0815 189.703 49.2212V49.3609V49.5007L188.026 51.7365C187.468 52.575 186.769 53.5531 185.93 54.1121C185.511 54.5313 185.371 54.5313 185.092 54.5313C184.812 54.671 184.533 54.671 184.393 54.671C183.974 54.671 183.555 54.5313 183.275 54.5313C182.856 54.3916 182.577 54.2518 182.437 54.1121C182.018 53.8326 181.878 53.6929 181.738 53.4134C181.598 53.2737 181.598 53.1339 181.598 52.9942L181.319 52.7147C181.179 52.4352 181.039 52.2955 180.9 51.8763C180.76 51.7365 180.62 51.457 180.481 51.1776C180.341 50.8981 180.201 50.6186 180.201 50.1994C180.061 49.6404 179.922 48.9417 179.782 48.1033C179.642 47.5443 179.642 46.9854 179.642 46.2867C179.642 46.0072 179.642 45.8675 179.642 45.588C179.642 45.1688 179.642 44.6098 179.642 44.0508L179.782 42.2342L179.922 40.8368C179.922 40.4176 180.061 40.1381 180.061 39.8587C180.061 39.7189 180.061 39.5792 180.061 39.4394C180.061 39.2997 180.061 39.16 180.061 39.0202V38.8805C180.061 38.7407 180.061 38.601 180.061 38.4613V37.7626V36.7844C180.061 36.5049 180.061 36.3652 180.061 36.0857L180.481 34.1293C180.481 33.7101 180.62 33.4306 180.62 33.0114C180.76 32.0333 180.76 31.0551 180.9 30.0769C180.9 29.9372 180.9 29.6577 180.9 29.3782L181.039 28.2603C181.039 27.8411 181.039 27.5616 181.039 27.1424V26.7231V25.8847C181.039 25.4655 181.039 25.186 181.039 24.9065C181.039 24.7668 181.039 24.4873 181.039 24.4873L180.9 23.6489V23.3694V22.9502C180.9 22.8104 180.76 22.6707 180.76 22.531C180.76 22.3912 180.76 22.3912 180.76 22.2515V21.972C180.76 21.8323 180.9 21.5528 181.179 21.2733C181.319 21.1336 181.598 21.1336 181.878 21.1336H182.018C182.297 20.9938 182.437 20.8541 182.716 20.7144C182.996 20.5746 183.275 20.5746 183.695 20.4349C183.834 20.4349 183.834 20.4349 183.974 20.4349C184.114 20.4349 184.114 20.4349 184.114 20.5746L184.253 20.7144H185.232L185.651 21.1336L185.93 21.413C186.07 21.5528 186.21 21.8323 186.35 21.972L186.629 22.531C186.769 22.8104 186.769 22.9502 186.909 23.2297L187.048 23.5091C187.188 23.9284 187.188 24.3476 187.328 24.7668C187.328 25.186 187.328 25.4655 187.467 25.745V26.4437V29.2385L187.328 31.4743V32.173C187.328 32.3127 187.188 32.5922 187.188 32.7319L187.048 34.2691C187.048 34.4088 187.048 34.5486 187.048 34.6883L186.909 35.5267C186.909 36.0857 186.769 36.7844 186.629 37.7626L186.489 39.0202L186.35 39.9984V40.1381V40.4176L186.21 41.1163C186.07 41.3958 186.07 41.815 186.07 42.0945C186.07 42.7932 186.21 43.4919 186.21 44.0508V45.588V46.8456C186.21 47.6841 186.21 48.3828 186.35 48.5225C186.35 48.6622 186.35 48.6622 186.35 48.802C186.35 49.3609 186.489 49.9199 186.909 49.9199C187.328 49.9199 188.026 49.0815 189.144 47.8238L189.284 47.6841C189.284 47.6841 189.284 47.6841 189.284 47.5443L189.703 46.8456L190.262 46.0072L190.821 45.1688C190.961 44.8893 191.101 44.6098 191.24 44.3303C191.24 44.3303 191.24 44.3303 191.24 44.1906L191.799 43.0727C191.939 42.7932 192.079 42.374 192.219 42.0945L192.498 40.9766C192.638 40.5574 192.638 40.2779 192.778 39.8587V39.5792V39.7189C192.778 39.5792 192.778 39.4394 192.917 39.2997L193.057 38.8805C193.337 38.042 193.616 37.3434 193.896 36.9241C194.035 36.7844 194.175 36.5049 194.315 36.5049L194.734 35.946C194.874 35.8062 195.153 35.6665 195.433 35.5267L195.572 35.387C195.712 35.2473 195.712 35.2473 195.992 35.387C196.271 35.387 196.551 35.5267 196.69 35.6665C196.97 35.8062 197.11 35.946 197.389 36.2254C197.529 36.5049 197.808 36.6447 197.948 36.9241C198.227 37.4831 198.507 38.1818 198.647 38.7407C198.786 39.16 198.786 39.5792 198.786 39.8587C198.786 39.9984 198.926 39.9984 198.926 40.1381V40.4176L198.786 41.6753C198.786 41.815 198.786 41.9548 198.786 42.0945L198.926 43.0727L199.066 44.4701L199.206 46.5662C199.206 47.5443 199.206 48.3828 199.345 48.802V49.2212C199.345 49.3609 199.485 49.6404 199.485 49.7802V49.9199C199.485 50.0596 199.485 50.1994 199.485 50.3391C199.625 50.6186 199.765 50.8981 200.044 50.8981C200.463 50.7583 201.022 50.3391 201.861 49.3609C202.14 49.0815 202.28 48.6622 202.559 48.3828C202.699 48.1033 202.979 47.8238 203.118 47.5443L203.677 46.5662L203.817 46.4264L204.096 46.0072C204.236 45.7277 204.376 45.4482 204.516 45.1688V45.029L204.655 44.8893L204.935 44.3303C205.075 43.9111 205.214 43.6316 205.354 43.3521L206.193 41.5355C206.472 40.8368 206.752 40.1381 207.031 39.4394C207.171 39.0202 207.311 38.7407 207.45 38.4613L207.59 38.1818L207.869 37.2036C207.869 37.0639 208.009 37.0639 208.009 36.9241C208.149 36.5049 208.289 36.2254 208.428 35.8062L208.708 34.6883L208.987 33.5704C209.127 33.0114 209.127 32.5922 209.267 32.0332C209.407 31.8935 209.407 31.7538 209.407 31.614V31.4743V31.3346L209.546 30.9153L209.686 30.3564C209.826 29.5179 209.966 28.6795 209.966 27.9808C209.966 27.8411 209.966 27.7013 209.966 27.7013L210.105 26.8629L210.245 26.4437C210.245 26.3039 210.245 26.1642 210.385 26.0245V25.3258C210.385 25.3258 210.385 25.3258 210.385 25.186C210.385 24.4873 210.245 24.0681 210.105 23.6489L209.826 22.9502L209.686 22.2515C209.267 21.8323 209.267 21.8323 209.267 21.6925C209.267 21.5528 209.267 21.5528 209.267 21.413C209.267 21.2733 209.407 21.2733 209.407 21.1336L209.546 20.8541H209.686C209.686 20.8541 209.686 20.8541 209.826 20.8541C209.546 20.2951 209.546 20.2951 209.546 20.0157L209.686 19.8759L209.966 19.7362C210.105 19.7362 210.105 19.5964 210.245 19.5964C210.525 19.5964 210.944 20.0157 211.223 20.7144C211.503 20.8541 211.642 21.1336 211.782 21.2733C211.922 21.413 212.201 21.6925 212.341 21.972C212.481 22.1117 212.621 22.3912 212.76 22.8104L213.04 23.3694V23.5091L213.319 24.3476C213.319 24.4873 213.459 24.7668 213.459 25.0463V26.0245L213.319 26.1642L212.621 27.0026V27.2821L212.481 27.9808V28.2603V28.5398C212.481 28.959 212.481 29.2385 212.341 29.5179C212.341 29.7974 212.201 30.0769 212.201 30.4961C212.201 30.7756 212.062 31.0551 212.062 31.4743C211.922 32.0333 211.782 32.4525 211.503 33.0114C211.363 33.4306 211.223 33.7101 211.083 33.9896L210.664 34.6883L210.525 35.2473C210.385 35.6665 210.105 36.0857 209.826 36.6447C209.686 36.9241 209.546 37.2036 209.407 37.4831L209.267 37.9023L208.708 39.16C208.289 40.1381 207.73 41.2561 207.171 42.2342L206.612 43.3521C206.193 44.3303 205.773 45.1688 205.354 45.8675V46.2867L204.935 46.8456L204.795 47.4046L204.236 48.243C204.236 48.5225 203.957 48.802 203.817 49.0815C203.817 49.5007 203.258 49.7802 203.118 50.3391C202.699 50.8981 202.28 51.5968 201.861 52.1557L201.302 52.9942L200.743 53.8326C200.603 53.9723 200.603 53.9723 200.603 54.1121C200.463 54.2518 200.184 54.5313 200.044 54.8108C199.625 55.23 199.485 55.6492 198.926 55.9287H198.786C198.367 56.2082 197.948 56.3479 197.529 56.2082L196.97 56.0684C196.69 55.789 196.551 55.789 196.271 55.6492Z" fill="white"/>
<path d="M210.804 55.0903C209.686 54.6711 209.127 53.4134 208.848 52.2955C208.708 52.016 208.428 51.5968 208.428 51.3173L208.289 51.1776V50.8981C208.289 49.7802 208.848 46.4265 209.546 45.4483C209.686 45.3085 209.965 44.8893 209.965 44.7496C210.664 43.4919 212.341 41.1164 213.878 40.8369C213.878 40.6971 213.738 40.4177 213.878 40.2779C214.577 39.5792 215.555 39.0203 216.533 39.0203C216.673 39.0203 216.813 39.0203 216.952 39.16C218.629 38.8805 221.005 40.5574 221.005 42.374C221.005 45.7278 216.254 49.9199 213.459 51.3173C213.179 51.5968 213.04 51.8763 213.04 52.2955C213.04 53.5532 213.319 54.1121 214.717 54.1121C216.673 54.1121 220.306 51.3173 221.424 49.7802C221.843 49.361 222.123 48.802 222.402 48.2431C222.961 47.4046 224.918 44.8893 224.918 43.9111V43.7714C225.057 43.7714 225.197 43.6317 225.337 43.6317C225.756 43.6317 225.896 43.9111 225.896 44.1906C225.896 44.6098 223.8 47.6841 223.52 48.1033C223.38 48.3828 223.101 48.6623 223.101 48.9418C222.263 50.0597 219.887 53.134 219.049 53.8326C217.651 54.8108 216.114 55.9287 214.437 55.9287C213.319 55.9287 211.782 55.6493 210.804 55.0903ZM219.747 43.0727L219.328 42.7932C218.35 43.0727 217.931 44.3304 217.092 44.7496C216.114 46.2867 214.717 47.9636 214.018 49.7802C215.974 48.6623 219.328 45.4483 219.747 43.0727Z" fill="white"/>
<path d="M173.214 91.563L172.934 91.4232C172.375 91.4232 169.022 88.4887 168.463 87.79C168.183 87.3708 167.904 86.6721 167.764 85.9734C167.764 85.9734 167.485 85.4144 167.345 84.4363C167.205 83.5978 167.624 81.0825 167.904 79.6851V79.5454C168.044 79.1262 168.044 78.8467 168.183 78.7069C168.323 78.7069 168.323 78.5672 168.323 78.4275C168.463 78.148 168.463 77.7288 168.463 77.4493C168.463 76.8903 168.463 76.1916 168.603 75.7724C169.022 74.934 169.161 73.5366 169.441 72.2789C169.161 72.4187 168.882 72.5584 168.882 72.6981L167.345 74.2353C166.646 75.2135 167.065 75.2135 165.808 76.3314C165.528 76.6108 164.83 78.9864 164.69 79.4056L164.271 80.1043C164.271 80.6633 162.035 84.7157 161.476 84.7157C160.917 84.7157 159.799 84.4363 159.659 82.8991C159.519 81.2223 160.498 78.7069 161.336 76.6108C161.476 75.7724 161.616 75.0737 161.755 74.2353C162.174 72.5584 162.733 71.0213 162.733 70.4623C162.733 70.4623 162.733 69.4841 162.733 69.3444C161.755 70.3226 160.078 72.5584 158.681 74.7942C156.585 77.3095 156.166 81.6415 155.886 83.5978C155.746 84.4363 155.048 84.9952 154.908 85.6939C154.768 86.2529 155.048 86.9516 154.349 86.9516C153.511 86.9516 152.812 85.9734 152.672 84.4363C152.672 84.2965 152.532 84.017 152.672 83.7376V83.5978C152.532 81.5017 152.952 79.2659 153.511 77.0301C153.93 74.6545 154.768 72.4187 155.467 70.4623C155.467 70.3226 155.467 70.1828 155.467 70.1828V69.7636C155.467 69.4841 155.467 69.0649 155.607 68.9252C155.746 67.388 156.026 65.9906 156.305 64.5933V64.4535C156.305 64.3138 156.305 64.174 156.305 64.174V64.0343C156.166 64.0343 156.026 64.0343 155.886 64.174L155.607 64.3138C155.327 64.4535 155.048 64.5933 155.048 64.174C155.327 63.1959 155.886 62.3574 157.284 62.3574C158.262 62.3574 158.96 63.6151 159.38 64.4535L159.799 65.5714C159.799 65.8509 159.939 66.1304 159.939 66.4099C160.078 67.6675 159.659 69.4841 159.38 70.8815C159.1 71.72 158.681 72.4187 158.262 73.1174L157.703 74.934C159.24 72.2789 161.755 68.2265 163.712 68.2265C164.69 68.2265 165.808 69.4841 165.808 70.0431C165.947 71.0213 165.249 73.6763 165.249 73.9558C164.69 75.2135 163.991 77.4493 163.712 78.8467C164.271 78.148 164.969 75.9121 166.227 74.375C169.86 70.4623 169.161 69.2047 170.559 69.2047C171.956 69.2047 173.354 70.4623 173.493 71.72C173.493 71.9994 173.493 72.2789 173.493 72.5584C173.493 73.1174 173.773 73.8161 173.773 74.5148C173.773 74.7942 173.633 75.0737 173.633 75.3532C173.633 75.4929 173.633 75.4929 173.633 75.6327V75.7724C173.633 75.7724 173.633 75.9121 173.493 76.0519L173.074 77.1698L172.934 77.589C172.795 78.0082 172.795 78.4275 172.655 78.5672V78.7069C172.236 79.4056 172.096 81.5017 171.817 81.7812C171.537 82.0607 171.677 82.7594 171.537 83.1786C171.397 83.1786 171.537 84.8555 171.537 85.135C171.537 85.6939 171.677 86.6721 171.677 86.8118L172.934 89.6066C172.934 89.7464 173.913 90.5848 174.611 91.1437C174.891 91.2835 175.31 91.4232 175.589 91.4232C178.245 91.563 178.105 89.7464 178.524 89.7464C178.803 89.7464 179.223 90.0258 179.223 90.4451C179.223 90.7245 179.223 90.8643 179.083 90.8643L178.943 91.004C178.803 91.4232 177.266 91.8424 176.987 92.1219C176.847 92.5411 173.913 91.7027 173.214 91.563Z" fill="white"/>
<path d="M183.974 84.1567C183.694 83.1786 183.834 82.3401 183.694 81.362C183.694 81.2222 183.834 81.0825 183.834 81.0825L183.275 81.9209C182.996 82.4799 181.598 85.4144 180.62 85.4144C180.201 85.6939 179.642 86.2528 179.083 86.2528C176.568 86.2528 174.192 84.576 174.192 81.9209C174.192 78.7069 177.546 72.5584 180.76 71.161C181.598 70.602 183.415 69.9033 184.533 69.9033C185.371 69.9033 187.887 71.5802 187.887 72.5584C187.887 72.8379 187.747 73.1173 187.467 73.1173C184.952 72.6981 181.878 75.2134 181.039 77.3095L180.201 79.1261C179.921 79.6851 179.083 81.362 179.083 81.7812C178.943 82.0607 178.943 82.3401 178.943 82.6196C179.083 83.3183 178.943 84.4362 179.921 84.4362C180.48 84.4362 181.179 83.8773 181.459 83.458C182.297 82.4799 184.533 77.7287 184.952 76.4711C185.092 75.9121 185.511 75.4929 185.651 74.9339C185.651 74.375 187.467 74.375 187.887 74.375C188.446 74.375 189.005 74.5147 189.424 74.9339V75.0737C189.703 75.2134 189.843 75.4929 189.843 75.7724C189.843 76.1916 189.144 77.3095 189.144 77.8685C189.005 78.5672 188.865 79.1261 188.725 79.8248C188.725 80.3838 188.585 80.9427 188.306 81.362C188.166 81.7812 187.188 84.7157 187.188 84.7157C187.188 84.9952 187.607 84.9952 187.747 84.9952C190.262 84.9952 193.895 75.3532 195.153 75.3532C195.293 75.3532 195.572 75.4929 195.572 75.7724C195.572 75.9121 195.572 76.0519 195.572 76.1916C195.572 76.3313 191.101 83.1786 190.681 84.017C189.983 85.2747 188.166 86.6721 186.629 86.6721C185.511 86.8118 184.253 85.2747 183.974 84.1567Z" fill="white"/>
<path d="M206.053 89.0473C204.655 88.7679 203.258 87.2307 202.28 86.2525C202.14 86.1128 201.861 85.6936 201.721 85.6936C200.184 84.1565 199.206 82.2001 198.507 80.2438C198.367 80.3835 198.367 80.3835 198.227 80.5232C198.088 81.0822 198.088 81.6411 197.948 81.9206C197.808 83.318 198.227 86.9512 196.131 86.9512C195.712 86.9512 195.293 86.8115 195.153 86.532C194.874 86.3923 194.734 86.1128 194.594 85.9731C193.756 85.2744 193.895 82.6193 193.895 80.3835C193.895 77.3092 194.175 74.7939 194.315 73.117C194.734 69.7633 195.293 68.9249 195.433 67.9467L195.293 67.8069C195.293 67.248 195.992 65.8506 196.551 65.8506C197.249 65.8506 198.507 67.9467 198.507 69.7633C198.507 71.0209 197.948 73.3965 197.948 75.7721C197.948 75.9118 197.948 76.0516 197.948 76.1913C198.227 76.0516 198.507 75.7721 198.647 75.6323L198.786 75.4926H198.926C200.044 74.235 201.162 73.117 202.14 72.1389C203.118 71.0209 203.817 70.0428 204.376 69.4838C204.935 68.7851 205.354 68.5056 205.773 68.0864C205.913 67.8069 206.193 67.5275 206.332 67.3877C206.472 67.248 206.751 67.1082 206.891 67.1082H207.171C207.73 67.3877 208.289 67.6672 208.289 68.3659C208.289 69.3441 207.31 70.462 207.031 70.7415C206.751 71.1607 206.612 71.1607 206.612 71.3004C206.472 71.4402 205.913 71.9991 205.773 72.2786C204.516 73.676 203.258 75.0734 202.28 75.7721C201.022 76.89 200.044 77.5887 199.345 78.4271C200.463 79.8245 201.302 81.2219 202.699 82.3398C202.839 82.6193 203.118 82.7591 203.258 82.8988C203.258 82.8988 203.258 83.0385 203.398 83.0385C204.096 84.2962 205.354 85.1346 206.332 85.9731C206.612 85.9731 206.751 86.1128 207.031 86.2525C207.45 86.3923 207.869 86.532 207.869 87.091C207.869 87.7897 207.171 88.6281 206.612 88.7679C206.472 89.0473 206.332 89.0473 206.053 89.0473C206.472 89.1871 206.332 89.0473 206.053 89.0473Z" fill="white"/>
<path d="M208.987 85.5529C207.869 84.8542 207.59 83.5966 207.59 82.4786C207.45 82.1992 207.31 81.78 207.45 81.3607C208.289 76.7493 209.267 73.8148 213.18 70.8803C213.599 70.6008 214.856 69.6226 215.136 69.6226C215.695 69.3431 215.835 69.2034 216.394 69.3431L216.952 69.4829C217.232 69.4829 218.07 69.0637 218.21 69.3431C218.49 69.3431 218.629 69.3431 218.769 69.3431C220.306 69.6226 222.123 71.02 221.704 72.8366C221.005 76.1904 215.555 79.4044 212.481 80.1031C211.922 80.5223 211.782 81.6402 211.642 82.3389C211.363 83.7363 210.944 84.994 212.76 85.2734C214.577 85.6927 218.629 83.1773 219.887 82.0594C220.586 81.3607 221.424 80.662 222.123 79.9633C222.542 79.5441 224.079 77.7275 224.498 77.7275C224.778 77.7275 224.918 77.7275 225.057 77.7275H225.197C225.337 77.7275 225.197 78.007 225.197 78.1467C225.057 78.7057 224.359 79.2646 223.939 79.5441C223.381 80.1031 222.682 80.662 222.263 81.3607C222.123 81.5005 222.123 81.78 221.983 81.9197C221.145 82.7581 220.027 83.5966 219.049 84.435C217.511 85.6927 213.878 87.7887 211.922 87.3695C211.223 86.8106 209.826 86.3914 208.987 85.5529ZM220.027 73.1161L219.747 72.6969C218.35 72.8366 214.856 77.0288 214.297 78.2865C216.114 77.8672 219.608 75.0725 220.027 73.1161Z" fill="white"/>
<path d="M248.394 86.8106C248.394 85.1338 247.555 84.0159 247.835 81.9198C247.974 81.2211 248.114 80.2429 248.254 79.2647C248.254 78.9852 248.254 78.7058 248.254 78.2865C246.857 78.7058 245.319 78.7058 243.922 78.9852C243.084 80.2429 241.966 81.3608 241.267 82.7582L240.009 85.1338C239.73 85.4132 239.59 85.8325 239.171 85.9722H238.891L238.193 86.2517C237.913 86.2517 237.913 85.9722 237.773 85.8325V85.6927C237.773 85.2735 238.053 84.7146 238.193 84.2953C238.612 84.0159 239.031 83.0377 239.171 82.4787L239.45 82.0595C240.009 80.3826 240.848 78.7058 241.826 77.3084H241.407C241.127 77.1686 241.127 76.8891 241.127 76.6097C241.267 75.911 242.664 74.6533 243.223 74.0944C243.922 72.138 245.18 70.4611 245.739 69.6227C246.717 68.2253 248.254 65.0113 248.394 64.7318L248.533 64.4523L249.092 64.1729C250.49 65.151 252.865 66.1292 252.586 68.0856C252.586 68.5048 252.306 68.924 252.306 69.3432C252.167 70.1816 252.726 71.0201 252.726 71.7188L252.446 74.0944C252.446 74.0944 252.446 74.2341 252.586 74.2341C252.726 74.2341 252.865 74.0944 252.865 74.0944H253.005C253.424 74.0944 253.564 74.2341 253.564 74.6533C253.145 75.0725 252.865 75.352 252.446 75.7712C252.306 76.0507 252.306 76.3302 252.306 76.3302C252.167 77.8673 252.306 79.2647 252.306 80.5224C252.306 82.4787 252.027 84.5748 251.747 86.5312C251.887 86.8106 251.887 87.3696 251.887 87.6491C251.747 88.767 251.049 88.9067 250.49 88.9067C249.232 89.0465 248.813 87.5093 248.394 86.8106ZM248.394 76.4699C248.394 75.911 248.394 75.4917 248.533 74.793C248.673 73.8149 248.813 72.697 248.953 71.579C249.092 70.8803 249.092 70.3214 248.953 69.7624C248.673 70.0419 248.254 70.1817 247.974 70.3214L247.555 70.6009C247.276 70.8803 245.04 76.4699 244.76 77.1686C246.018 77.1686 247.276 76.8891 248.394 76.4699Z" fill="white"/>
<path d="M104.462 158.777L104.043 157.799C105.999 156.96 106.279 156.261 105.44 153.886L94.5406 121.047C93.5625 118.252 92.3048 117.973 89.9292 118.951L89.51 117.973L107.956 110.567L108.375 111.545C105.161 112.802 105.301 113.641 106.558 116.296L121.231 147.178C122.349 149.414 123.047 149.833 125.004 148.995L127.659 147.877C133.528 145.502 134.925 138.934 132.131 131.947L133.248 131.528L139.397 144.803L104.462 158.777Z" fill="#6AA39F"/>
<path d="M141.214 144.803L140.934 143.685C142.89 143.266 143.449 142.428 142.89 140.052L139.257 119.65C138.698 116.716 137.58 116.297 135.205 116.855L134.925 115.877L150.995 111.965V112.244C150.436 112.663 150.576 113.781 151.554 116.716L157.563 136.559C158.262 138.934 158.96 139.493 160.917 138.934L161.196 140.052L141.214 144.803ZM143.589 111.406C139.956 112.244 136.602 110.427 135.624 106.934C134.786 103.301 137.021 100.226 140.655 99.3881C144.288 98.5496 147.781 100.226 148.62 103.86C149.598 107.353 147.222 110.567 143.589 111.406Z" fill="#6AA39F"/>
<path d="M172.236 138.514L162.314 113.92C161.196 111.125 160.218 110.986 158.402 111.125L158.122 110.007L175.031 108.47V108.61C175.031 108.889 175.031 109.309 175.031 109.728C175.031 110.427 175.31 111.265 175.729 112.103L185.232 130.13L189.703 111.964C190.542 108.61 189.424 108.191 186.489 108.47L186.349 107.352L194.734 106.514L194.874 107.632C191.939 107.911 191.799 108.191 190.961 112.103L186.07 137.117L172.236 138.514Z" fill="#6AA39F"/>
<path d="M198.088 136.698V135.58C200.184 135.72 200.882 135.161 201.022 132.646L203.258 112.104C203.537 109.17 202.699 108.331 200.184 108.192V107.213L216.673 108.052V108.331C216.114 108.471 215.835 109.729 215.835 112.803L215.974 133.484C215.974 136 216.394 136.559 218.629 136.698V137.816L198.088 136.698ZM209.826 105.397C206.193 105.257 203.398 102.602 203.537 98.829C203.677 95.1958 206.751 92.8202 210.524 92.96C214.297 93.0997 217.092 95.7547 216.952 99.5277C216.813 103.301 213.459 105.537 209.826 105.397Z" fill="#6AA39F"/>
<path d="M242.665 141.589L242.944 140.471C244.341 140.611 245.04 140.611 245.879 137.397L250.21 120.488C251.328 116.296 248.813 115.038 247.136 114.759C244.481 114.2 241.826 116.017 241.407 119.79L239.031 136.558C238.752 138.934 239.031 139.493 240.568 140.052L240.289 141.17L220.586 137.257L220.865 136.139C222.961 136.558 223.66 136.139 224.219 133.624L229.389 113.641C230.088 110.846 229.25 109.868 226.874 109.449L227.014 108.471L243.223 111.685V111.964C242.665 111.964 242.245 112.803 241.966 115.038C245.739 112.803 250.63 112.663 253.983 113.362C258.735 114.34 263.625 117.694 262.787 124.122L260.411 141.17C259.992 144.104 260.691 144.244 262.508 144.803L262.228 145.921L242.665 141.589Z" fill="#6AA39F"/>
<path d="M266.141 142.288C266.839 140.052 269.215 138.654 272.988 138.654C270.472 136.139 269.634 133.205 270.752 130.13C272.429 125.239 278.577 119.65 288.359 123.004C290.455 123.702 292.132 124.681 293.529 125.798C295.206 125.938 297.861 125.798 298.7 123.004C299.119 121.606 298.979 120.349 298.141 119.51C298.281 120.349 298.141 121.047 298.001 121.327C297.302 123.563 294.647 124.122 292.691 123.423C290.455 122.584 289.337 120.209 290.036 117.833C290.874 115.318 293.529 114.34 296.045 115.318C299.259 116.436 301.215 120.209 300.237 123.283C299.678 124.96 298.281 126.637 294.787 126.916C298.56 130.829 298.84 136.139 297.722 139.353C295.905 144.803 289.896 146.2 281.372 143.266C278.857 142.427 276.621 141.449 274.804 140.192C272.01 140.052 270.752 140.751 270.333 142.008C269.913 143.266 270.752 144.104 272.149 144.663C275.643 145.781 279.695 143.406 285.145 145.362C291.154 147.458 295.626 153.607 293.809 159.196C291.294 166.463 280.673 163.947 273.826 161.572C262.228 157.659 260.691 153.886 261.669 150.812C262.368 148.855 263.905 147.738 266.979 147.179C265.721 145.641 265.582 143.685 266.141 142.288ZM264.743 151.231C263.485 155.004 266.979 157.939 270.892 159.196C276.062 161.013 279.975 159.336 281.093 155.842C281.931 153.467 281.093 151.511 278.158 150.532C275.224 149.554 272.848 150.393 270.053 149.414C269.215 149.135 268.516 148.716 267.817 148.296C266.699 148.716 265.442 149.414 264.743 151.231ZM288.219 134.462C290.595 127.755 291.154 125.379 287.94 124.261C284.586 123.143 283.748 125.379 281.512 132.087C279.136 138.794 278.577 140.89 281.931 142.008C285.005 143.126 285.844 141.17 288.219 134.462Z" fill="#6AA39F"/>
</svg>
