<?xml version="1.0" encoding="UTF-8"?>
<svg id="Layer_2" data-name="Layer 2" xmlns="http://www.w3.org/2000/svg" viewBox="0 0 658.72 188.22">
  <g id="Layer_5" data-name="Layer 5">
    <path d="m657.75,2.5c-1.09-.84-2.65-.64-3.5.44-.22.28-23.3,27.99-118.4,12.06-32.39-5.43-62.72-7.1-90.14-4.97-26.03,2.02-51.92,11.05-74.85,26.1-6.71,4.4-9.14,4.57-9.71,4.53-.08-.34-.18-1.36.5-3.74.83-2.9,2.06-5.87,4-9.63l5.46-10.6c.62-1.19.18-2.66-.99-3.32-1.17-.66-2.65-.28-3.36.87-.87,1.42-1.59,1.18-1.98,1.06-1.04-.33-2.37-2.03-3.66-4.33.04-.07.07-.12.08-.14.02-.04.04-.08.06-.13.7-1.49,2.79-6.56.23-9.31-1.54-1.65-3.99-1.84-7.31-.56-1.23.48-1.88,1.82-1.48,3.08.33,1.04,1.28,3.9,2.73,6.95-2.14,3.67-6.61,11.03-12.3,18.54-5.42,7.14-11.02,9.71-15.78,7.21-.59-.31-1.16-.69-1.7-1.14,2.43-4.48,4.77-10.03,6.14-16.46,1.78-8.31-1.12-12.2-4.15-13.02-3.34-.9-8.38,1.44-11.51,11.02-2.06,6.31-.51,13.86,3.33,19.1-3.32,5.34-6.36,8.4-6.41,8.45-.05.04-.09.09-.13.14-1.27,1.46-3.76,2.5-6.06,1.66-3.33-1.22-5.28-5.93-5.35-12.92-.12-11.32-3.91-13.95-7.07-14.16-5.34-.34-10.17,6.62-11.59,13.54-1.38-2.89-3.09-4.72-5.15-5.55-1.79-.72-4.68-.97-8.32,1.89-2.29,1.8-3.62,5.21-4.31,9.34-1.92-7.46-3.77-10.28-6.43-10.28-.04,0-.08,0-.12,0-2.6.08-4.31,2.94-5.1,8.48,0,.07-.02.14-.02.21l-.39,7.05c-.58,8.92-3,30.24-13.07,35.67-2.41,1.3-5.03,1.4-7.03.26-.12-.07-.24-.14-.35-.21,3.73-7.35,5.81-14.79,5.33-21.59-.63-8.98-3.01-13.8-7.08-14.31-3.83-.48-7.78,3.53-10.01,10.24-2.95,8.87-2.17,19.94,5.31,27.02-4.63,7.84-11.19,15.54-18.38,21.91,4.16-16.28-11.13-34.34-24.83-46.71-1.13-1.02-2.14-2.05-3.06-3.09,7.36-10.89,10.9-21.66,10.9-28.66,0-8.39-3.69-10.56-5.88-11.11-4.51-1.13-10.13,2.74-13.68,9.4-4.27,8.01-5.35,19.57,2.39,30.51-5.99,8.1-14.35,16.21-25.4,22.46-25.48,14.43-71.22,22.41-144.4-21.5-1.18-.71-2.72-.33-3.43.86-.71,1.18-.33,2.72.86,3.43,75.25,45.15,122.8,36.64,149.44,21.56,11.1-6.29,19.8-14.44,26.21-22.8.83.89,1.73,1.77,2.7,2.65,23.28,21.02,25.46,34.63,23.19,42.35-1.09,3.71-3.51,6.98-6.98,9.62-.03.02-.07.04-.1.06-.06.04-.12.09-.17.13-3.43,2.54-7.83,4.5-12.99,5.68-8.74-14.85-17.09-18.95-22.5-19.8-6.59-1.03-11.19,2.22-13.3,5.6-2.17,3.47-2.17,7.54-.02,10.61,5.34,7.62,18.9,11.37,33.12,9.18,6.14,11.64,10.65,25.68,13.26,34.99-1.1,1.2-1.73,1.96-1.82,2.07-.88,1.06-.74,2.64.32,3.52.89.74,2.13.75,3.03.12.05.19.1.39.15.57.29,1.13,1.3,1.89,2.42,1.89.2,0,.41-.02.61-.08,1.34-.34,2.15-1.7,1.81-3.04-.31-1.25-.63-2.47-.95-3.67,9.15-9.51,34.66-32.99,60.77-29.84,17.08,2.07,31.66,15.23,43.34,39.11.43.89,1.32,1.4,2.25,1.4.37,0,.74-.08,1.1-.25.51-.25.89-.65,1.12-1.12h1.11c2.87,9.43,7.48,17.33,7.8,17.88.47.79,1.3,1.23,2.16,1.23.43,0,.87-.11,1.27-.35,1.19-.7,1.59-2.23.89-3.42-.12-.21-12.22-20.97-8.78-33.71,2-7.4,5.57-12.04,10.98-19.07.1-.13.2-.26.3-.39,1.74,11.13,5.5,17.12,11.43,18.25,6.86,1.31,14.68-5.12,20.37-11.23.15,2.53,1.06,4.21,2.05,5.29,2.11,2.33,5.51,3.08,9.32,2.05,5.42-1.46,9.82-5.45,12.99-9.96.41,8.8,3.86,18.88,14.97,26.55-.2.33-.33.53-.36.58-.71,1.18-.33,2.72.86,3.43.4.24.85.36,1.29.36.85,0,1.68-.43,2.15-1.21.25-.41,24.71-40.64,51.8-40.64.26,0,.52,0,.78.01,13.2.38,25.13,10.56,35.46,30.26.64,1.22,2.15,1.69,3.38,1.05,1.22-.64,1.69-2.15,1.05-3.38-11.24-21.42-24.61-32.5-39.74-32.94-.31,0-.63-.01-.94-.01-12.56,0-25.77,7.19-39.28,21.4-6.08,6.39-10.81,12.76-13.69,16.92-8.64-6-12.95-14.32-12.82-24.74.08-5.97,1.65-11.09,2.56-13.59l.7-1.75c.51-1.26-.08-2.69-1.32-3.23-1.24-.54-2.69,0-3.26,1.23-.02.04-.27.58-.62,1.54l-.37.92c-2.18-1.95-5.19-2.93-8.54-2.7-4.74.33-10.72,3.23-14.78,10.16-2.88,4.31-15.64,20.57-23.31,18.65-3.92-.98-6.66-7.54-7.71-18.47-.02-.17-.03-.35-.04-.55,3.32-4.49,7.11-9.95,11.4-17.09,7.31-12.17,12.46-21.7,15.3-28.31,2.65-6.17,3.85-10.68,1.05-12.64-1.15-.81-4.64-3.26-16.45,11.23-10.16,12.47-15.96,28.07-16.33,43.93-.01.45-.02.88-.02,1.28-1.26,1.69-2.46,3.24-3.57,4.69-5.56,7.24-9.58,12.46-11.84,20.82-1.25,4.63-.86,9.95.29,15.11h-1.05c-12.29-24.03-27.79-37.33-46.08-39.54-14.64-1.77-31.2,3.84-47.89,16.22-6.25,4.64-11.39,9.36-15.01,12.98-3.89-13.59-8.01-23.96-12.1-31.84,5.22-1.36,9.76-3.47,13.42-6.18,11.93-7.33,24.09-19.35,31.71-32.1.1.06.2.12.31.18,3.5,1.99,7.94,1.91,11.87-.21,6.2-3.34,13.95-12.95,15.68-39.77l.39-6.97c.11-.72.26-1.47.44-2.16.66,1.75,1.58,4.83,2.69,10.2,2.31,11.16,3.62,17.48,4.36,21,.37,1.77.6,2.84.73,3.46.04.17.08.34.12.49l.03.17h.02c.52,1.66,1.51,2.36,2.95,2.07.25-.05,2.43-.57,1.89-3.28-2.35-12.89-3.64-32.63.86-36.17,1.42-1.11,2.54-1.51,3.37-1.18,1.7.68,3.98,4.68,5.29,13.86l1.51,10.6c.01.1.02.17.03.2.2,1.36,1.46,2.3,2.83,2.11,1.36-.2,2.31-1.46,2.12-2.83h0s0-.06,0-.06c-.11-.77-1.47-10.89-.03-20.97.9-6.29,4.88-10.67,6.54-10.55.75.05,2.33,2.37,2.4,9.22.14,12.57,5.46,16.39,8.63,17.56,3.94,1.45,8.65.21,11.49-3,.51-.52,3.3-3.41,6.44-8.25.62.46,1.27.88,1.95,1.23,3.35,1.75,12.19,4.42,22.09-8.62,4.81-6.34,8.72-12.48,11.19-16.58,1.44,2.01,3.11,3.62,4.96,4.22.14.05.29.09.43.12l-2.48,4.82c-2.07,4.02-3.46,7.37-4.37,10.55-.48,1.68-1.94,6.79,1.28,9.16,2.86,2.1,7.63.75,15.48-4.4,22.23-14.59,47.3-23.34,72.5-25.3,27.01-2.1,56.93-.45,88.93,4.91,98.69,16.53,122.23-12.69,123.19-13.95.83-1.09.62-2.64-.46-3.48ZM176.66,48.86c-5.29-8.66-4.36-17.49-1.05-23.7,2.52-4.73,5.86-6.95,7.64-6.95.15,0,.29.02.42.05,1.29.32,2.1,2.72,2.1,6.26,0,5.31-2.84,14.55-9.1,24.34Zm-25.87,62.52c-1-1.43-.94-3.33.17-5.1,1.09-1.75,3.37-3.44,6.66-3.44.51,0,1.06.04,1.62.13,6.84,1.07,12.86,7.42,17.93,15.77-11.52,1.31-22.38-1.65-26.38-7.36Zm210.15,20.69c3-7.94,8.64-11.07,12.56-11.34.21-.01.41-.02.62-.02,2.42,0,4.35,1.02,5.35,2.85.03.06.07.11.1.17l-1.12,2.79c-2.21,5.49-7.11,12.52-13.62,14.28-1.9.51-3.52.3-4.31-.58-1.17-1.29-1.01-4.33.43-8.15Zm-18.45-50.2c4-4.92,7.06-7.72,8.88-9.06-.88,3.35-4.29,11.96-16.95,33.04-2.37,3.95-4.59,7.37-6.66,10.4,1.55-12.47,6.66-24.49,14.73-34.39Zm-113.89-5.42c-5.63-6.34-4.78-15.62-3.05-20.83,1.61-4.85,3.92-6.86,4.6-6.86.01,0,.03,0,.04,0,.02,0,2.11.96,2.72,9.7.39,5.54-1.27,11.74-4.31,17.99Zm93.66-45.32c-1.97-3.8-2.65-8.62-1.36-12.56,2.01-6.14,4.61-7.76,5.36-7.76.04,0,.07,0,.1.01.44.12,1.64,2.12.56,7.15-1.07,4.98-2.79,9.42-4.66,13.17Z" style="fill: #2d7f5b; stroke-width: 0px;"/>
  </g>
</svg>