
<?xml version="1.0" encoding="UTF-8"?>
<svg id="Layer_2" data-name="Layer 2" xmlns="http://www.w3.org/2000/svg" viewBox="0 0 520.52 132.98">
  <defs>
    <style>
      .cls-1 {
        fill: #579374;
      }

      .cls-1, .cls-2, .cls-3, .cls-4, .cls-5, .cls-6 {
        fill-rule: evenodd;
      }

      .cls-2 {
        fill: #e3746d;
      }

      .cls-3 {
        fill: #dba510;
      }

      .cls-4 {
        fill: #b4393e;
      }

      .cls-5 {
        fill: #92b8a3;
      }

      .cls-6 {
        fill: #fff;
      }
    </style>
  </defs>
  <g id="Layer_7" data-name="Layer 7">
    <path class="cls-1" d="M.49,54.38c1.04-3.47,2.56-6.5,3.03-9.19,1.57-9.01,2.89-12.37,3.89-13.08-.9,3.54,1.1,5.88,1.69,10.69,.52-7.86,3.16-13.4,5.88-18.12,2.6-4.53,3.47-8.49,4.74-8.63-1.4,5.44,.87,4.89,.66,9.22,2.49-9.97,11.35-10.94,15.14-16.57,1.84,2.57-3.82,8.87-1.64,9.78,.93,.39,1.67-2.23,6.34-6.32,5.27-4.61,11.9-6.39,16.78-12.17-.97,3.75-.28,9.23-1,12.35-1.2,5.25-3.05,8.44-1.49,8.52,.95,.31,3.24-3.03,4.94-1.5-3.98,1.71-3.13,16.62-12.52,25.95,1.83-.76,3.87-1.77,5.61-1.19-6.18,7.6-3.45,15.31-17.22,25.09,1.6,.48,3.98-.36,5.39,.69-3.27,1.68-6.99,9.1-15.11,13.92,1.29,.36,2.72,.55,4.26,.61-8.55,8.33-21.61,7.02-29.38,15.84V54.38Z"/>
    <path class="cls-5" d="M46.12,132.83c-1.87-1.1-3.69-2.24-5.46-3.44,.35-.22,.7-.45,1.05-.67,1.76,1.03,6.16,2.65,11.09,4.11h6.01c-6.46-1.63-13.13-3.81-15.66-5.04,1.05-.69,2.09-1.38,3.12-2.09,4.11,2.46,14.43,5.5,21.17,7.13h6.9c-.38-.19-.91-.27-1.2-.31-3.06-.48-18.05-4.03-25.49-7.76,.17-.12,.35-.24,.52-.36,8.65,3.55,25.71,6.21,27.78,6.28,.44,.02,1.27,.07,1.83,.1,.6,.04,1.16-.17,1.27-.66,.11-.47-.42-.71-.94-.85-1.03-.28-2.06-.48-3.09-.84-1.4-.4-19.57-8.23-20.25-8.9,.31-.24,.61-.47,.92-.71,2.31,1.5,4.88,2.69,7.57,3.69,3.7,1.38,14.92,4.42,17.76,4.4,.6,0,1.03-.24,1.08-.53,.04-.28-.11-.6-.69-.7-5.12-.9-12.66-2.73-17.43-4.5-2.48-.92-4.87-1.99-7.03-3.36,.77-.61,1.53-1.23,2.28-1.85,.41,.21,.81,.51,1.22,.7,1.87,.88,3.95,1.45,5.95,2.03,4.41,1.29,8.99,2.3,13.51,3.02,1.31,.21,2.61,.46,3.92,.65,.32,.05,2.5,.41,3.05,.1,.31-.18,.38-.39,.23-.69-.14-.27-.68-.49-.93-.53-.52-.08-.91-.15-1.6-.23-2.47-.32-4.94-.77-7.34-1.22-4.42-.82-8.75-1.94-13.01-3.29-1.32-.42-2.61-.91-3.78-1.55,.53-.45,1.06-.9,1.58-1.35,.18,.04,3.92,1.25,5.77,1.72,6.67,1.68,13.62,2.33,20.55,3.07,.58,.06,1.17,.09,1.75,.09,.62,0,.98-.37,.96-.75-.02-.32-.26-.57-.97-.65,0,0-.88-.05-1.53-.11-7.48-.8-15.08-1.41-22.13-3.53-1.05-.31-2.08-.67-3.12-.98,1.19-1.05,2.35-2.12,3.5-3.21,6.88,3.73,22.21,7.25,25.07,7.54,0,0,.37,.06,.64-.03,.46-.15,.87-1.14-.3-1.36-.48-.09-.99-.16-1.48-.24-5.6-.98-18.23-4.86-22.61-7.13,.58-.56,.94-.97,1.51-1.54,4.58,2.55,23.06,4.37,28.94,4.16,.48-.02,.99-.5,.86-.85-.16-.43-.51-.46-1-.49-6.21-.33-20.5-1.18-27.68-3.97,.48-.5,.96-1,1.43-1.51,6.44,1.75,21.8,3.07,29.25,2.42,0,0,1.17-.09,1.14-.76-.02-.72-.81-.92-2.05-1.22-.28-.07-.57-.1-.85-.14-2.73-.47-5.29-1.38-7.93-2.26-4.6-1.52-9.15-3.28-13.3-5.38,.57-.74,1.13-1.49,1.67-2.24,2.55,1.24,6.27,2.48,10.78,3.64,2.73,.7,5.76,1.37,9,1.99,.1,.02,1.28,.16,1.49-.47,.25-.76-.73-.85-1.08-.91-1.55-.28-6.16-1.32-9.23-2.15-3.45-.94-6.84-2.01-10.1-3.33,.4-.57,.78-1.14,1.16-1.72,.07,.02,5.33,1.6,7.97,2.2,3.35,.77,6.73,1.38,10.15,1.98,2.85,.49,5.78,.76,8.67,.94,.28,.04,1.05-.11,1.09-.68,.04-.66-.94-.75-1.13-.77h-.01c-4.67-.28-9.31-1.03-13.85-1.91-3.96-.77-11.93-2.99-12.08-3.03,.47-.74,.93-1.49,1.39-2.24,.48,.02,1.01,0,1.51-.03,2.86-.15,5.72-.35,8.56-.64,.92,.3,17.37,.94,19.9,.79,.58-.04,1.17-.25,1.19-.58,.03-.45-.65-.61-.97-.6-.64,.03-11.14-.25-13.11-.53,1.11-.18,2.22-.38,3.33-.6,2.78-.54,5.55-.96,8.36-1.65,.24-.06,.93-.4,.72-.96-.2-.54-.88-.42-1.25-.38,0,0-.77,.15-1.73,.38-2.5,.6-5.07,.95-7.63,1.44-2.97,.56-5.96,.97-9,1.25-.84-.08-1.69-.18-2.52-.28-.97-.12-1.93-.29-2.89-.46,2.48-.34,4.9-1.01,7.32-1.61,4.94-1.22,9.86-2.36,14.59-4.02,.34-.12,.93-.45,.63-1.01-.34-.64-1.23-.34-1.5-.24-5.5,1.92-11.23,3.15-16.93,4.59-1.92,.48-3.91,.72-5.95,1.04,.19-.29,.37-.58,.56-.86,.11-.02,3.63-1.64,5.17-2.35,4.47-2.07,8.69-4.52,12.41-7.46,.98-.78,3.21-2.64,3.67-3.04,.59-.53,1.02-1.17,.39-1.55-.48-.28-1.05,.17-1.55,.53-1.18,1-2.48,2.03-3.86,3.06-3.71,2.75-8.06,5.48-12.57,7.53-.74,.33-1.46,.67-2.17,1.01,2.74-4.24,5.38-8.51,7.35-13.05,.88-2.02,1.51-3.97,2.22-6.03,.16-.46-.13-1.07-.76-1.18-.47-.09-1.03,.14-1.44,1.19-1.25,3.46-2.71,6.87-4.49,10.15-.64,1.18-1.31,2.35-2.01,3.5-.65-2.89-.91-5.85-1.39-8.93-.24-1.56-.9-7.29-1.03-8.18-.12-.8-.46-1.3-.95-1.34-.37-.03-.55,.36-.6,.7-.09,.65,.06,1.3,.12,1.96,.14,1.38,.15,2.74,.39,4.12,.12,.72,.16,1.46,.26,2.19,.46,3.28,1.08,6.52,1.6,9.82,.09,.56,.15,1.15,.35,1.68-.95,1.51-1.93,3.01-2.91,4.5-.07-.12-.13-.23-.2-.35-.71-1.14-1.59-2.2-2.3-3.35-.73-1.18-1.37-2.39-2.02-3.6-1.91-3.55-3.44-7.22-4.48-11.06-.04-.16-.12-.67-.28-1.11-.14-.39-.35-.72-.67-.74-.58-.03-.76,.5-.77,1.14,0,.83,.26,1.83,.31,2,1.08,3.96,2.91,7.75,4.92,11.46,.89,1.65,1.89,3.24,3.02,4.81,.49,.69,1.44,2.25,1.49,2.31-.85,1.3-1.69,2.59-2.51,3.89-.2-.23-4.51-4.68-6.41-6.74-1.89-2.05-3.7-4.14-5.55-6.22-.62-.7-1.19-1.45-1.78-2.15-.69-.81-1.09-1.5-1.43-1.84-.39-.39-.81-.57-1.21-.4-.32,.14-.24,.58,.01,1.11,.39,.81,1.15,1.78,1.29,1.99,1.36,1.9,3.08,3.62,4.66,5.42,2.21,2.5,8.57,9.32,9.59,10.16h0s-.04,.08-.06,.11c-.96-.49-13.32-7.5-17.89-10.99-.39-.29-1.11-.8-1.54-.66-.43,.13-.53,.37-.47,.62,.12,.51,.54,.82,.93,1.14,4.58,3.69,17.29,10.62,18.19,11.15-.5,.78-1.02,1.55-1.55,2.32-.09-.03-9.57-4.59-13-6.67-1.58-.96-3.12-2-4.75-2.89-.24-.46-.96-2.89-1.79-3.28,0,0-.23-.09-.43-.09-.44,0-.67,.23-.69,.63-.02,.37,.42,1.17,.5,1.45-.12-.07-.64-.65-1.24-.73-.07-.01-.15-.01-.23,0-.32,.02-.6,.2-.73,.45-.56-.23-1.66,.49-.98,1.19,0,0,.11,.14,.29,.34-.37,.06-.75,.25-.74,.65,.01,.51,.25,1.18,.46,1.81,.76,2.35,1.94,4.59,3.02,6.85,2.2,4.59,4.34,9.19,7.47,13.4,.26,.34,.54,.67,.85,.98-.9,.88-1.81,1.76-2.74,2.62-3.14-4.6-5.89-9.43-8.3-14.3-.36-2.52-.87-7.73-.83-8.58,.02-.35-.33-.72-.71-.77-.43-.05-.92,.12-1.03,.57-.23,.98-.06,2.13,.05,3.33-.21-.51-.41-1.03-.59-1.56-.25-.68-.51-1.83-1.41-1.65-.88,.18-.49,1.32-.3,1.81,.72,1.83,1.31,3.58,2.24,5.38,.28,.55,.56,1.1,.84,1.65,.09,.57,.18,1.13,.26,1.67,.63,4.24,1.91,8.39,3.12,12.52,.39,1.34,1.51,4.25,1.6,4.4l-.02,.02-.07,.06c-2.38-3.67-4.35-7.52-6.66-11.23-1.47-2.36-2.58-4.87-3.8-7.38-.57-1.19-1.07-2.37-1.57-3.62-.18-.79-.73-1.38-1.34-1.17-.6,.21-.55,.77-.4,1.3,.77,2.55,2.18,4.97,3.33,7.47,1.34,2.88,3.25,5.57,4.8,8.34,1.17,2.09,4.13,6.97,4.38,7.35l-.1,.08-.06,.05c-.45-.37-.91-.76-1.28-1.17-3.19-3.45-6.36-6.93-9.18-10.63-.98-2.26-2.85-8.29-2.85-8.29-.15-.52-.59-.79-.99-.8-.38-.02-.67,.18-.69,.58-.03,.7,.25,1.27,.42,1.91,.07,.24,.14,.49,.21,.73-.15-.26-.91-1.52-1.09-1.94-.23-.55-.76-.75-1.19-.64-.47,.12-.53,.56-.52,.7,.05,1.07,3.9,6.72,5.19,8.38,.97,2.27,2.06,4.53,3.18,6.83,1.17,2.41,2.56,4.76,4.15,6.99,.16,.23,.3,.47,.46,.7-.34,.26-.68,.52-1.02,.78-1.17-1.01-10.56-16.68-12.59-20.27-.14-.25-.62-1.21-1.45-.94-.8,.26-.2,1.39-.11,1.58,1.89,3.75,12.14,20.4,12.86,20.61-.45,.34-.9,.67-1.36,1.01-.78-1.38-7.31-9.33-9.43-12.16-.08-.1-.16-.21-.24-.31-.51-1.89-1.12-3.9-1.74-5.65-.06-.16-.18-.46-.34-.76-.13-.23-.53-.91-1.21-.71-.69,.19-.35,1.27-.29,1.47,.2,.68,.45,1.34,.67,2.01-.2-.27-.9-1.31-1.48-2.03-.23-.29-.99-1.28-1.75-.89-.71,.36,.17,1.58,.54,2.09,1.05,1.41,3.11,3.98,4,5.09,.1,.35,3.7,11.09,5.05,16.22-.51,.34-1.03,.69-1.55,1.03-.07-.21-.14-.43-.21-.64-1.68-5.34-4.41-10.4-6.29-15.67-.51-1.42-1.1-2.81-1.64-4.2-.1-.23-.63-1.54-1.38-1.32-.81,.25-.28,1.69-.17,2,1.73,4.79,3.75,9.36,5.76,14.09,.94,2.21,1.81,4.44,2.43,6.71-.44,.28-.88,.57-1.33,.85-.13-.23-.28-.47-.42-.7-1.68-2.73-3.06-5.57-4.52-8.36-1.17-2.26-2.24-4.55-3.23-6.86-.53-1.24-1.14-2.45-1.83-3.63-.13-.22-.72-1.05-1.33-.74-.8,.41-.18,1.42-.05,1.65,1.27,2.23,2.14,4.61,3.26,6.95,1.55,3.22,3.27,6.34,4.92,9.59,.53,1.03,1.32,1.98,1.78,2.98-.33,.21-.66,.41-.99,.62-.11-.14-.23-.27-.33-.42-.83-1.16-1.67-2.47-2.36-3.64-2.16-3.62-4.37-7.2-6.42-10.91-.34-1.2-.67-2.41-.98-3.62-.11-.42-.22-1.12-.42-1.76-.22-.74-.62-1.34-1.2-1.26-.46,.06-.65,.38-.65,.62,.01,.3,.08,.56,.11,.71-.49-.37-1.3-.03-1.24,.66,.08,.96,2.28,4.3,2.71,5.1,1.19,4.26,2.67,8.45,4.66,12.52,.63,1.28,1.19,2.59,1.77,3.86,.08,.19,.16,.39,.23,.59-.55,.32-1.11,.64-1.66,.96h9.74c-1.02-.53-2.01-1.09-3.03-1.61,.51-.31,1.01-.62,1.52-.94,1.31,.88,2.65,1.73,4.01,2.55h2.86Zm-15.93,0h-1.79c-.95-2.93-3.4-9.35-4.27-11.77-.98-2.74-1.71-5.52-2.54-8.29-.11-.37-.35-1.53,.54-1.64,.45-.06,.82,.16,1.07,.89,.71,2.1,1.22,4.22,1.85,6.34,1,3.37,4.39,12.14,5.15,14.47h0Zm-3.12,0h-1.81c-1.92-4.17-5.45-12.42-6.68-15.83-.33-.91-.95-2.3-.21-2.49,.98-.26,1.44,1.12,1.77,1.87,1.89,4.33,5.28,12.81,6.93,16.45h0Zm-2.74,0h-1.95c-2.08-3.69-5.22-9.12-6.78-11.71-.41-.67-1.09-1.73-1.44-2.61-.13-.31-.19-.65,.1-.84,.29-.19,.75-.17,.98,.08,.7,.78,1.51,2.01,1.96,2.75,2.26,3.68,5.31,9.02,7.13,12.32h0Zm-4.29,0c-2-2.3-4.31-4.97-5.38-6.29-.66-2.52-1.64-4.93-2.44-7.29-.2-.61-.52-1-1-1.04-.45-.03-.83,.3-.72,.76,.19,.81,.41,1.52,.69,2.32-.39-.61-.77-1.23-1.24-1.78-.7-.82-1.25-.83-1.57-.6-.28,.2-.39,.56-.05,1.08,.53,.78,1.12,1.61,1.73,2.57,.91,1.46,1.79,2.91,2.85,4.32,.25,.81,.51,1.61,.79,2.41,.31,.88,.81,2.16,1.36,3.52h1.78c-.17-.4-.3-.71-.37-.91-.17-.43-.32-.87-.48-1.31,.41,.48,1.15,1.3,1.97,2.22h2.08Zm-7.15,0h-1.89c-1.29-2.48-2.58-4.95-3.39-6.55,.02,.95,.04,1.91,.07,2.86,.03,.95,.08,1.89,.14,2.83,.2,.29,.41,.57,.62,.86h-2.21l-.03-.38c-1.4-1.92-2.79-3.84-4.15-5.78-.17,1.05,.06,3.42,.48,6.16H.57c-.68-4.75-.88-9.46,.13-11.76,.22-.51,.65-.65,1.04-.49,.36,.14,.64,.51,.53,1.04-.11,.52-.22,2.02-.22,2.17,0,0,0,.01,.01,.02,1.25,1.88,2.69,3.58,3.89,5.42,.03,.04,.06,.09,.08,.13-.07-1.68-.12-3.37-.16-5.05-.02-.72-.25-1.41-.27-2.08-.19-.39-.39-.78-.57-1.17-.21-.47,0-.81,.34-.95,.41-.17,1.01-.06,1.29,.49,.11,.22,.22,.44,.33,.66h0c.39,.23,.48,.66,.49,.99,.17,.34,.33,.68,.51,1.02,1.19,2.36,3.14,6.15,4.91,9.57h0Zm60.4-30.19c1.47-1.62,2.88-3.27,4.22-4.95,1.73,.86,3.52,1.63,5.32,2.39,4.4,1.85,9.03,3.41,13.6,4.75,.31,.09,.61,.17,.92,.24-6.33,.31-21.17-1.42-24.06-2.44h0Zm11.97-16.3c.05-.08,.1-.16,.16-.24,.05-.07,.09-.14,.14-.22,.03,0,.06,.01,.09,.02,.61,.1,1.22,.2,1.83,.3-.74,.06-1.48,.12-2.22,.14h0Zm-22.74-1.31c1.55,.95,3.07,1.96,4.7,2.85,2.79,1.53,5.69,2.91,8.55,4.36,.76,.39,1.52,.79,2.34,1.1-.48,.67-.98,1.34-1.48,1.99-.52-.24-3.6-2.13-5.03-2.96-3.01-1.74-5.56-3.94-8.33-5.94l-.02-.02c-.25-.46-.49-.92-.73-1.39h0Zm-12.95,38.38c1.32-.95,2.44-1.77,3.73-2.75,1.76,1.21,17.78,7.88,18.09,8-.09,.13-16.96-3.4-21.83-5.25h0Zm15.62-33.6c.61,.46,1.22,.91,1.83,1.36,2.34,1.71,8.59,5.44,8.6,5.46-1.27,1.59-2.59,3.15-3.97,4.68-1.34-2.15-2.26-4.45-3.54-6.63-.96-1.63-1.95-3.24-2.92-4.87h0Zm-8.22-6.39c1.59,1.25,3.18,2.51,4.77,3.75,.26,.5,.53,1,.81,1.49,1.83,3.23,3.97,6.32,5.61,9.62,.71,1.43,1.4,2.87,2.3,4.22,.01,.02,.03,.04,.04,.05-.79,.85-1.6,1.69-2.42,2.52-.49-.53-.88-1.14-1.29-1.73-3.39-4.82-5.72-10.28-8.14-15.44-.68-1.47-1.32-2.95-1.69-4.49h0Zm-.11,16.37c.33,.59,.67,1.18,1.01,1.77,1.58,2.69,3.11,5.36,4.9,7.98,.02,.03,.04,.06,.06,.09,.07,.1,.12,.2,.18,.29-.84,.77-1.7,1.52-2.56,2.27-.71-1.42-3-9.75-3.6-12.4h0Zm-7.11,8.48c1.53,1.74,3.08,3.47,4.56,5.2,.63,.74,1.37,1.41,2.13,2.09-.57,.46-1.14,.92-1.71,1.37-.1-.18-.2-.37-.33-.54-1.82-2.59-3.29-5.33-4.65-8.11h0Zm9.25-25.2c.13,.07,.26,.13,.39,.19,.16,.08,.31,.16,.47,.24,.08,.15,.16,.3,.23,.45-.36-.29-.73-.59-1.09-.88h0Zm-17.68,29.39c1.44,1.84,6.5,7.86,7.1,9.22-1.12,.8-2.25,1.6-3.39,2.38-1.07-3.9-2.51-7.72-3.72-11.59h0Zm-5.13,19.67h0s0,0,0,0h0Zm-5.99-9.97c.89,1.45,1.79,2.9,2.67,4.37,.77,1.28,1.58,2.51,2.51,3.72-.41,.25-.83,.49-1.24,.74-.03-.06-.06-.13-.09-.2,0,0-.28-.6-.5-1.09-.65-1.46-1.36-2.9-2.01-4.33-.48-1.06-.93-2.14-1.34-3.22Z"/>
    <path class="cls-6" d="M112.1,39.99c1.26-1.98,2.33-4.58,3.22-4.46,1.37,.68-.71,3.81-2.06,6.7,2.3-.68,5.88-2.77,6.57-1.47,.38,1.4-2.42,2.21-3.83,2.95,2.14,1.11,5.46,2.95,5,3.72-.55,.91-3.55-1.21-6.32-2.38,1.26,2.38,2.75,5.68,1.71,6.27-1.07,.6-2.9-3.57-4.27-6.26-1.62,3.12-4.3,8.92-5.56,8.26-1.05-.75,.89-4.16,1.96-6.72-1.9,.64-4.93,1.76-5.38,.86-.24-1.39,4.39-2.95,6.51-3.91-3-1.22-6.79-2.66-6.5-3.49,.32-.9,4.44,.67,7.74,2.05-1.14-2.37-3.19-6.03-2.48-6.71,.79-.76,2.3,1.59,3.7,4.59Z"/>
    <path class="cls-1" d="M221.37,62.66c-7.51,10.32-15.24,16.36-22,15.73,2.22,10.99-3.94,16.97-13.59,14.43-4.79,8-3.55,28.06,1.93,40.01h15.92c6.74-4.76,12.05-10.64,15.52-16.66-8.46-7.8-4.7-22.59,5.47-25.26-7.09-9.35-5.82-19.5-3.25-28.25Z"/>
    <path class="cls-1" d="M480.98,132.83c-8.29-12.71-23.21-27.31-33.04-34.35-3.24-8.75-8.6-16.28-15.38-23-3.31-11.5-20.35-20.34-22.27-18.18-1.57,1.77,5.92,12.19,21.24,19.42,5.86,5.45,10.58,12.14,14.17,20.09-15.08-10.91-29.52-16.3-46.1-21.93-2.1-7.78-16.62-22.08-18.85-19.31-1.63,2.02,7.6,12.34,13.75,17.67l-13.6-4.57c-10.97-7.35-32.65-12.61-34.24-9.14-1.57,3.41,21.23,12.81,33.84,10.58l25.74,8.76c-8.3,.17-21.83,1.94-21.65,4.09,.34,3.88,18.73,4.51,29.1-1.02,6.47,2.33,12.82,5.23,18.9,8.62-6.24,1.5-14.84,5.86-19.67,9.61-4.72-1.37-9.6-2.28-14.1-2.59-14.44-5.7-23-2.98-30.4,1.41,5.15,3.67,13.8,4.76,30.17,.13,2.67-.22,7.68,.32,13.35,1.87-1.94,1.67-3,3.15-2.59,4.12,.57,1.34,4.96,.53,9.93-1.62,5.26,2.17,10.47,5.22,14.46,9.34l-19.39-1.74c-9.09-5.64-27.52-4.74-27.32-2.15,.28,3.64,20.78,5.59,27.3,3.63l24.66,2.24,3.11,.32c7.88,.33,17.69,2.53,26.48,5.55,.82,1.04,1.64,2.12,2.48,3.22l5.74,8.93h4.21Zm-47.05-41.49c12.76,7.32,24.26,16.8,33.12,27.67-2.91-1.29-6.81-2.2-13.26-3.83-1.62-5.4-13.25-13.88-14.93-11.14-1.05,1.72,4.55,5.63,11.03,10.4l-14.67-1.52c-2.55-3.76-8.05-7.3-14.62-10.04,5.56-2.64,11.46-6.84,13.32-11.54Z"/>
    <path class="cls-1" d="M441.04,114.03c-10.34,2.32-19.04,16.91-17.22,18.72,1.48,1.48,11.08-4.59,18.27-17.75l-1.05-.98Z"/>
    <path class="cls-2" d="M440.47,121.17c-1.78-.22-2.85,1.65-2.04,3.05,.71,1.22,2.74,1.81,3.5,.38,0,0,.29-.4,.4-.78,.32-1.1-.48-2.37-1.69-2.62-.05,0-.05-.01-.17-.03h0Z"/>
    <path class="cls-2" d="M471.3,107.58c-1.13-.13-2.23,.56-2.64,1.66-.43,1.13,.02,2.57,1.37,3,1.32,.42,2.9-.5,3.06-1.99,.13-1.2-.53-2.49-1.79-2.67h0Zm-18.74-5.11c-2.6-.3-3.95,3.85-1.5,5.14,.7,.37,1.58,.43,2.26,.12,0,0,.84-.26,1.26-.86,1-1.44,.29-3.76-1.58-4.31-.14-.04-.19-.06-.43-.09h0Zm-26.55-6.13c-1.72-.2-3.07,1.25-2.83,3.01l.31,1.1c.44,1.14,1.63,2.02,2.85,1.84,1.71-.24,2.98-2.44,2.16-4.13-.47-.98-1.42-1.66-2.5-1.82h0Zm-23.96-5.26c-2.43-.32-4.11,2.45-3.09,4.49,.62,1.24,2.24,1.85,3.59,1.21,0,0,0,0,.12-.03,1.13-.32,2.01-1.37,2-2.61-.01-1.46-1.14-2.84-2.62-3.05h0Zm41.49,1c-1.34-.17-2.74,.74-2.95,2.18-.23,1.59,.97,3.35,2.58,3.41,.59,.02,1.19-.2,1.64-.58,0,0,.48-.28,.76-.67,1.06-1.48,.11-4.03-2.03-4.34h0Zm-10.28-8.6c-2.49-.31-3.98,2.31-2.84,4.26,1,1.7,3.83,2.53,4.89,.53,0,0,.4-.56,.56-1.09,.45-1.54-.67-3.31-2.36-3.66-.07-.01-.08-.02-.24-.04h0Zm-57.6-11c-.87-.12-1.81,.13-2.39,.81-.41,.48-.61,1.1-.64,1.72,0,0-.17,.9,.05,1.61,.41,1.33,1.92,2.2,3.33,1.82,1.66-.45,2.85-2.43,2.17-4.12-.4-.99-1.43-1.68-2.51-1.84h0Zm81.24,10.78c-3.11-.41-4.36,4.28-1.74,5.56,.55,.27,1.2,.38,1.79,.22,0,0,.79-.13,1.31-.45,2.19-1.37,1.28-4.94-1.36-5.33h0Zm21.08,2.68c-2.09-.27-3.79,1.92-2.17,4.06,.1,.13,.88,1.31,2.11,1.14,1.89-.26,2.93-3.21,1.27-4.65-.34-.3-.77-.48-1.21-.55h0Zm-68.96-11.83c-1.72-.21-3.51,1.42-3.18,3.26,.12,.65,.12,1.1,.73,1.72,1.32,1.32,3.92,1.05,4.75-.68,.79-1.64-.28-4-2.3-4.3h0Zm36.45,3.91c-.99-.13-2.01,.33-2.57,1.21-.87,1.38-.46,3.5,1.06,4.21,1.04,.48,2.37,.14,3.14-.73,.14-.1,.18-.14,.25-.21,1.59-1.51,.43-4.14-1.88-4.47h0Zm-48.58-12.42c-1.64-.19-3.19,1.32-3.16,3.07,.02,1.29,1,2.51,2.32,2.71,.18,.06,.21,.06,.31,.08,2.23,.44,3.72-2.39,2.84-4.22-.43-.9-1.32-1.5-2.3-1.64h0Zm57.73,2.72c-1.59-.21-3.1,1.21-2.92,3.08,.14,1.43,1.36,2.88,3.04,2.6,.48-.08,1.54-.56,1.98-1.11,.77-.97,.8-2.48,.1-3.39-.53-.68-1.38-1.07-2.2-1.18h0Zm-19.83-3.96c-1.9-.25-3.9,1.41-3.47,3.51,.42,2.01,3.03,3.71,5.09,1.6,0,0,.49-.46,.73-.99,.72-1.62-.18-3.8-2.35-4.12Z"/>
    <path class="cls-2" d="M485.92,120.53c-1.72-.21-3.51,1.42-3.18,3.26,.12,.65,.12,1.1,.73,1.72,1.32,1.32,3.92,1.05,4.75-.68,.79-1.64-.28-4-2.3-4.3h0Z"/>
    <path class="cls-2" d="M407.82,120.47c-.44,.76-.57,1.73-.16,2.52,.29,.56,.78,.98,1.35,1.24,0,0,.77,.5,1.51,.57,1.38,.12,2.76-.94,2.94-2.39,.21-1.71-1.18-3.56-3-3.56-1.07,0-2.09,.69-2.65,1.63h0Z"/>
    <g>
      <path class="cls-4" d="M158,67.03c-.89-3.41-.82-7.81,1.36-12.99,1.91-4.54,6.3-14.91,7.6-14.51,1.6,.5,1.72,9.87,.31,15.57-.99,4.01-2.72,8.16-5.25,12.69,7.72-4.77,32.31-7.21,33.52-3.24,1.01,3.32-18.58,10.88-32.9,7.42,11.33,10.65,14.77,29.41,9.61,31.62-4.42,1.89-13.68-16.08-13.73-28.36-3.02,12.75-11.02,22.77-13.8,21.7-2.39-.92-.33-20.06,11.77-27.1-6.81,.78-12.64-.44-18.16-3.04-3.94-1.86-7.2-2.93-7.24-3.88-.09-2.18,16.93-5.68,26.91,4.13Z"/>
      <path class="cls-3" d="M158.06,74.05c-.31,.29-.85,.37-1.11-.09-.14-.17-.19-.42-.11-.64,.09-.23,.27-.39,.53-.48,.39-.12,.85,.18,.92,.58,.14-.18,.34-.32,.57-.4,.67-.22,1.56,.06,1.73,.84,.06,.27,.03,.56-.12,.8,0,0-.21,.42-.55,.58-.77,.35-1.87-.25-1.87-1.17,0,0,0,0,0,0h0Zm3.03-1.5c.04,.59,.74,.85,.74,.85,.51,.2,1.08,0,1.34-.51,.45-.89-.6-1.76-1.38-1.52-.01,0-.02,0-.04,.01-.11,.04-.21,.11-.29,.18-.15-.43-.65-.72-1.08-.59-.15,.05-.23,.11-.31,.21-.03,.04-.06,.07-.09,.12-.23,.26-.34,.68-.18,1.01,.15,.31,.58,.44,.95,.39,.12-.02,.23-.06,.34-.13h0Zm-5.72-.73c-.34,.11-.57,.36-.64,.69-.09,.37,.12,.78,.12,.78,.2,.41,.9,.69,1.37,.42,.21-.12,.34-.36,.34-.36,.13-.15,.2-.34,.2-.54,0-.7-.76-1.19-1.39-.99h0Zm2.23-2.93c-.61-.04-1.2-.47-1.04-1.21,.07-.33,.33-.61,.67-.73t.03-.01c.48-.14,1.05,.01,1.33,.47,.1,.15,.15,.34,.11,.52,.01,.16-.02,.32-.09,.47,.18,0,.35,.03,.52,.08-.04-.11-.06-.23-.05-.35,.02-.19,.14-.36,.3-.48,0,0,.15-.18,.35-.25,.33-.1,.72-.02,.96,.3,0,0,.01,.02,.02,.03,.15,.19,.19,.43,.14,.66,.58-.03,1.25,.33,1.22,1.04,0,.14-.07,.28-.11,.41-.09,.29-.3,.54-.57,.68-.41,.21-.97,.15-1.36-.12,0,0-.01,.01-.02,.02-.02,.06-.03,.06-.04,.09-.18,.35-.57,.56-.97,.59,.05,.03,.09,.06,.13,.09,.24,.21,.35,.5,.29,.81-.09,.49-.47,.67-.84,.65-.32-.02-.64-.12-.77-.44-.18-.43,.07-.98,.54-1.15,0,0,.02,0,.03-.01-.11-.02-.24-.06-.34-.1-.02-.01-.04-.02-.06-.03-.18,.49-.71,.86-1.18,.78-.8-.13-1.29-1.21-.82-1.87,.14-.19,.31-.32,.55-.4,.28-.09,.6-.05,.85,.1,0-.22,.08-.44,.2-.62h0Zm5.32-.75c.61-.19,1.38,.58,.94,1.19-.26,.36-.86,.39-1.2,.07,0,0-.19-.15-.25-.36-.1-.36,.14-.78,.51-.9h0Zm-7.62-.22c-.1,.03-.15,.07-.21,.13-.2,.12-.28,.39-.18,.59,.23,.49,.85,.2,.85,.2,.11-.07,.2-.17,.24-.3,.11-.37-.34-.74-.7-.63h0Zm3.49-2.12c-.2,.07-.31,.18-.38,.35-.27,.68,.71,1.05,1.04,.74,.24-.14,.34-.47,.23-.72-.14-.32-.55-.46-.9-.36Z"/>
    </g>
    <g>
      <path class="cls-3" d="M317.02,62.04c-1.28-.86-4-2.08-3.49-2.89,.4-.88,2.24,.4,3.27,.98-.97-1.23-2.69-3.3-1.99-4.02,.64-.65,2.12,1.55,2.93,2.64-.52-1.39-1.5-3.93-.56-4.13,1.09-.22,1.93,3.37,2.67,5.39-.05-2.03-.85-5.35,.73-5.34,1.19,0,1.06,3.67,.87,4.71l-4.42,2.65Z"/>
      <path class="cls-4" d="M326.15,73.84c-1.79,1.02-3.45,1.58-5.03,1.44-1.82-.17-3.54-1.27-5.24-3.72-1.89-2.72-2.98-5.35-.85-8.58,1.45-2.19,3.59-4.55,6.96-5.04,4.76-.22,6.25,1.99,7.84,4.97,2.56,4.78,.56,8.39-3.69,10.93Z"/>
      <path class="cls-2" d="M321.5,72.06c-1.57,1.07-3.58-.5-4.75-2.56-1.11-1.95-1.28-4.65,.39-5.34,1.18-.49,2.93,.6,3.92,2.7,1.02,2.16,1.63,4.37,.44,5.19Z"/>
    </g>
    <g>
      <path class="cls-4" d="M247.37,59.24c-4.5,1.86-7.73,5.62-4.19,12.53,1.62,3.15,4.96,5.18,10.26,3.97,3.88-.88,5.96-4.38,5.92-8.25-.4-7.57-5.99-10.72-12-8.25Z"/>
      <path class="cls-2" d="M251.12,70.4c-1.52-.2-2.14,.43-2.57,1.41-.44,1,.14,2.3,1.31,2.78,1.08,.45,2.53,.2,3.11-.92,.96-1.83,0-3.03-1.85-3.27Z"/>
      <path class="cls-3" d="M249.98,66.96c-.4-.31-1.09,.17-1.79,.98-.8,.92-1.48,2.18-1.01,2.49,.42,.27,1.37-.57,2.1-1.49,.7-.88,1.02-1.75,.71-1.99h0Zm1.12-.04c.26-.51,1.45-.1,2.23,.37,1.05,.63,1.92,1.42,1.53,1.98-.28,.4-1.36-.1-2.27-.63-1.12-.66-1.7-1.3-1.49-1.71h0Zm-1.56-.96c.13-.36-.9-.92-1.88-1.28-1.08-.39-2.23-.47-2.32-.03-.12,.6,.9,1.12,2.05,1.4,1.03,.25,1.97,.41,2.15-.1h0Zm5.4-3.29c-.3-.38-1.64,.19-2.43,.84-.68,.56-1.46,1.55-1.15,1.99,.23,.33,1.3-.14,2.07-.7,1.12-.81,1.92-1.61,1.51-2.13h0Zm-4.94-2.29c.58-.08,.91,1.16,.95,2.37,.03,1.08-.18,2.15-.66,2.22-.54,.08-.93-1.02-1.02-2.25-.07-1.05,.07-2.24,.73-2.33Z"/>
    </g>
    <g>
      <path class="cls-4" d="M338.67,84.85c11.65,4.17,16.21,14.65,17.4,16.74,2.41,4.25,3.76,7.63,5.01,11.14,1.09,3.06,2.2,6.2,2.53,10.33,.23,2.83-.14,6.65-.96,9.36-.05,.16-.1,.32-.16,.48h-68.46c-2.36-6.28-2.47-11.75-1.75-16.68,1-6.8,2.82-12.07,9.49-19.13,2.8-2.96,11.22-8.77,14.84-10.28,5.49-2.29,14.22-4.76,22.06-1.96Z"/>
      <path class="cls-6" d="M331.39,87.39c8,.95,12.8,4.9,15.05,7.44,2.69,3.05,5.4,6.23,7.25,9.96,3.75,7.57,7.56,12.88,6.75,21.87-.2,2.22-.78,4.28-1.65,6.24h-61.47c-.11-.27-.22-.55-.32-.84-1.45-3.9-2.27-8.09-1.88-12.99,.97-12.35,8.02-21.6,16.68-26.24,1.59-.85,5.24-2.74,9.1-3.99,3.72-1.2,7.63-1.79,10.51-1.44Z"/>
      <path class="cls-2" d="M326.46,132.9c.21-1.18,.38-2.19,.4-2.88,.12-4.35-2.11-7.97-.07-8.77,1.72-.68,4.3,1.66,5.5,3.05,2.36,2.74,4.39,5.77,6.86,8.39,.06,.07,.13,.14,.2,.21h-12.89Zm27.45,0c.1-.42,.23-.88,.4-1.37,.74-2.22,2.2-3.21,2.27-7.31,.03-1.63-.7-3.36-.95-5-.25-1.64-1.14-4.11-2.69-4.79-1.89-.84-4.16,1.43-5.83,2.06-4.47,1.67-5.56-1.21-10.29,.96-2.69,1.23-3.97,.54-5.88,.87-2.44,.43-1.53,2.31-.27,2.93,3.38,1.64,3.9,4.23,6.97,7.29,1.34,1.34,3,1.89,5.87,4.37h10.4Zm-30.64,0h-17.26c.99-1.87,3.1-4.02,7.55-5.82,4.05-1.63,7.27-8.43,9.43-6.62,1.55,1.3,.6,5.46,.7,7.28,.13,2.17-.13,3.81-.43,5.16h0Zm-23.94-15.21c-.12,1.45-.9,3.11-1.04,4.55-.58,6,3.92,8.64,6.74,6.23,4.99-4.28,4.36-2.43,7.78-4.11,.98-.48,1.51-1.49,2.3-2.17,4.46-3.83,7.03-2.35,7.2-3.78,.19-1.65-4.14-2.86-5.5-3.17-1.23-.28-1.78-.4-3.02-.6-2.06-.34-2.73-1.05-4.4-1.95-1.84-.99-6.08-2.59-8.28-1.33-2.13,1.22-1.66,4.9-1.77,6.32h0Zm51.69-8.99c-.56,1.61-3.25,3.94-5.51,4.63-.64,.19-1.27,.44-1.91,.6-2.54,.61-6.72,.14-10.53,2.24-1.34,.74-3.86,1.59-4.49,.42-.45-.84,.45-1.66,1.38-2.77,.33-.39,2.69-3.89,3.09-4.48,2.4-3.58,3.06-7.45,5.66-10.56,1.05-1.25,2.99-3.41,6.13-1.37,.98,.64,2.53,2.87,3.31,3.9,.86,1.14,4.07,3.95,2.87,7.38h0Zm-26.02,6.44s-1.54-.31-2.25-4.38c-.3-1.69-.45-4.04-.3-7.29,.16-3.38-2.71-7.18-.38-11.43,1.23-2.25,3.47-1.75,5.27-1.46,1.52,.24,10.08-.8,10.73,3.81,.29,2.05-1.25,4.77-3.43,6.77-1.61,1.48-5.69,10.54-6.26,11.71-1.27,2.49-2.5,2.58-3.38,2.27h0Zm-3.43,.52c-.84,.46-1.49-.86-3.49-1.84-2.4-1.18-3.93-2.09-6.53-3.01-1.3-.46-6.3-.75-7.58-3.9-.55-1.34-.89-3.44,2.6-6.34,1.99-1.66,2.88-1.5,4.21-2.69,1.2-1.07,3.96-4.59,6.56-2.95,1.3,.82,2.24,1.89,2.81,4.67,.27,1.32,.07,3.1,.12,4.4,.1,2.62,.31,2.81,.57,4.92,.21,1.71,2.05,6.04,.76,6.74Z"/>
      <path class="cls-6" d="M319.71,132.22c-.19,.08-.38,.33-.55,.68h1.52c-.02-.07-.43-.89-.97-.68h0Zm-2.78,.68h-1.41c0-.49,.21-1.23,.69-2.19,1.12-2.22,2.85-1.08,.98,1.82-.09,.14-.18,.26-.26,.37h0Zm-3.79,0h-2.24c.64-1.34,2.04-3.03,2.49-3.23,.48-.19,1.01,.06,.97,.97-.02,.51-.56,1.43-1.22,2.25h0Zm19.76-3.13c.26,1.18,2.28,3.34,2.77,2.25,.43-.95-1.45-2.72-2.17-2.93-.46-.13-.7,.24-.6,.68h0Zm9.13-4.92c1.94,.53,1.33-1.09-.91-1.5-.63-.12-.73,.36-.3,.82,.24,.26,.64,.52,1.2,.67h0Zm-2.56-5.81c-.55,.22-.83,1.06-.35,1.37,.57,.37,2.92,.45,3.77,.15,.44-.15,.7-.78,.36-1.14-.88-.93-2.94-.69-3.78-.38h0Zm-30.58,2.51c-1.89,.72-.29,2.08,1.81,1.54,.58-.15,2.15-.72,1.79-1.57-.44-1.03-2.85-.24-3.59,.04h0Zm33.24-13.69c-.5,.19-2.09,.97-1.96,1.62,.31,1.58,3.1-.7,3.02-1.33-.06-.41-.62-.46-1.06-.29h0Zm-32.64,9.75c-.97,.39-1,2.18,2.03,1.09,.77-.28,1.01-1.02,.6-1.29-.4-.27-2.15,.01-2.63,.2h0Zm18.32-18.33c-.92,.39-1.1,2.95-1.22,3.47-.07,.29,.34,1.54,1.07,.89,.54-.48,1.69-4.93,.15-4.36h0Zm-13.39,3.79c-1.01,.45,1.08,3.97,1.92,3.51,.75-.41-.65-2.53-1.1-3.14-.19-.25-.43-.53-.82-.38Z"/>
    </g>
    <path class="cls-1" d="M125.42,132.83c-3.11-8.02-9.87-12.7-18.6-17.18,10.71,1.04,18.77-.17,23.39-9.58,7.1,13.91,21.1,12.8,26.07,1.44,10.55,5.88,20.21,15.77,24.67,25.32h-55.53Z"/>
    <path class="cls-5" d="M284.28,132.9c-1.03-.86-16.44-14.79-17.73-16.1,.41-6.2,1.57-10.77,3.34-14.78,7.46,.13,18.69-13.93,22.54-20.96,3.61-6.83,6.52-12.35,10.12-19.17,1.18-2.23,2.5-4.08,2.05-4.81-.54-.9-1.93-.44-3.95,.47-6.18,2.81-12.49,6.88-18.5,12.71-1.84,1.78-17.94,17.92-13.5,31.25-1.66,4.27-2.94,8.77-3.17,14.27-1.96-1.83-3.7-3.79-5.41-5.76,.51-4.79-5.29-14.9-13.53-19.56-1.81-1.03-6.99-3.58-11.15-5.99-3.6-2.09-5.67-4.3-6.53-3.98-1.32,.51,.47,6.82,4.19,12.51,3.24,4.96,6.49,7.56,9.13,9.62,5.55,4.31,10.6,7.18,16.61,7.96,2.52,3.1,18.39,19.43,21.71,22.31h3.76Z"/>
    <path class="cls-6" d="M489.82,51.25c1.47-1.31,2.74-2.4,4.37-3.13,.48-.22,.95,.45,.41,.8-1.38,.91-2.31,1.68-3.5,2.64,1.98,.14,3.77,.16,5.01,.63,.58,.22,.62,1.21-.28,1.17-1.72-.1-3.67-.22-5.63-.19,1.18,1.99,1.97,3.38,2.41,4.57,.12,.31,.03,.75-.21,.86-.25,.11-.58,.1-.78-.16-.46-.58-.94-1.28-2.21-3.67,0,1.95-.06,3.62-.45,4.94-.19,.64-1.12,.69-1.2-.08l-.05-5.33c-.68,.44-2.87,2.82-3.42,2.26-.66-.67,2.52-2.83,2.99-3.17-1.4-.02-2.32,.16-4.42,.29-.74,.04-.83-.95-.16-1.16,1.65-.51,3.04-.68,5.11-.79-1.15-1.32-1.69-2.15-2.12-3.45-.12-.37,0-.66,.23-.77,.28-.15,.66,0,.98,.53,.38,.65,.86,1.27,1.53,2.13,.08-1.12,.14-2.38,.46-2.74,.29-.32,.81-.42,1.01,.25,.12,.4,0,2.31-.06,3.56Z"/>
    <path class="cls-1" d="M499.7,112.41c8.03,.12,22.81-6.39,20.59-8.96-1.62-1.88-14.02,3.37-20.53,7.29l.64-11.18c4.11-11.13,3.28-27.41,.05-27.81-3.99,.07-2.89,21.47-1.44,27.75-.27,6.06-.74,12.23-1.17,18.19-1.74-2.43-3.55-5.14-5-7.71,3.33-4.61,3.88-20.78,.92-21.13-2.11-.25-2.57,10.23-2.87,18.04-2.89-5.23-5.77-10.8-8.63-16.71,.42-4.89-4.5-21.44-8.15-20.91-3.4,.49,1.36,14.41,6.75,21.64l4.17,8.2c-5.49-2.25-17.17-6.66-17.68-4.92-.6,2.04,6.98,8.35,19.28,8.08,2.14,4.12,4.58,8.33,7.57,12.68-6.98-1.31-18.9-1.52-18.57,.7,.32,2.18,11.91,4.82,20.38,1.82l1.7,2.52c-.1,1.27-1.2,11.51-1.34,12.85h1.55l.75-8.93c.4-4,.74-7.88,1.02-11.49Z"/>
    <path class="cls-1" d="M501.98,132.9c6.61-4.56,17.21-20.56,13.91-21.37-2.41-.59-12.95,14.33-15.98,21.3l2.07,.07Z"/>
  </g>
</svg>