<svg width="390" height="180" viewBox="0 0 390 180" fill="none" xmlns="http://www.w3.org/2000/svg">
<path d="M122.203 35.9299L122.065 35.6526C121.926 35.3752 121.787 35.2366 121.51 35.0979L120.955 34.6819C121.094 34.5433 121.233 34.4046 121.51 34.266C121.649 34.1273 121.649 34.1273 121.787 33.9886C121.926 33.85 121.926 33.85 122.065 33.7113C122.203 33.434 122.342 33.018 122.342 32.602C122.342 32.0474 122.065 31.6314 121.787 31.0768C121.649 30.7995 121.51 30.6608 121.233 30.5221L121.094 30.3835C121.094 30.3835 120.955 30.2448 120.817 30.2448C120.401 29.9675 119.846 29.8288 119.43 29.8288H119.292C119.153 29.8288 119.014 29.8288 119.014 29.8288C118.598 29.6902 118.182 29.6902 117.905 29.6902C117.766 29.6902 117.628 29.6902 117.489 29.6902H116.241C116.102 29.6902 116.102 29.6902 115.964 29.8288H115.132C114.993 29.8288 114.854 29.8288 114.716 29.8288C114.577 29.8288 114.3 29.9675 114.161 30.2448C114.022 30.3835 114.022 30.6608 114.022 30.9381C114.022 31.0768 114.022 31.3541 114.022 31.6314C114.022 31.9087 114.022 32.1861 114.022 32.4634C114.022 32.602 114.022 32.7407 114.022 32.8794V33.434C114.022 33.5727 114.022 33.5727 114.022 33.7113C114.022 33.85 114.022 33.85 114.022 33.9886C114.022 34.6819 114.022 35.2366 113.884 35.9299C113.884 36.0685 113.884 36.2072 113.884 36.3459C113.884 36.4845 113.884 36.6232 113.884 36.7618V36.9005C113.884 37.1778 113.884 37.3165 113.745 37.5938C113.745 37.8711 113.745 38.1484 113.745 38.4258V38.5644V39.8124C113.745 40.0897 113.884 40.2283 114.022 40.367C114.161 40.367 114.161 40.5056 114.3 40.5056C114.438 40.6443 114.716 40.6443 114.993 40.6443H115.132C115.409 40.6443 115.825 40.6443 116.102 40.6443C116.241 40.6443 116.38 40.6443 116.657 40.6443C116.796 40.6443 116.934 40.6443 117.073 40.6443H117.212C117.35 40.6443 117.628 40.6443 117.766 40.6443C117.905 40.6443 118.044 40.6443 118.182 40.6443C118.737 40.6443 119.292 40.5056 119.846 40.5056C120.123 40.5056 120.401 40.367 120.539 40.2283C120.817 39.951 121.094 39.8124 121.371 39.535C121.51 39.3964 121.649 39.3964 121.649 39.2577C121.787 39.1191 121.926 38.9804 122.065 38.8417C122.203 38.5644 122.342 38.2871 122.481 38.0098C122.481 37.8711 122.481 37.5938 122.481 37.4551C122.619 36.7618 122.481 36.2072 122.203 35.9299ZM118.598 33.85C118.321 33.85 118.044 33.9886 117.766 33.85C117.489 33.85 117.35 33.85 117.073 33.85C116.934 33.85 116.796 33.85 116.657 33.85C116.241 33.85 115.964 33.85 115.548 33.85H115.409C115.409 33.7113 115.409 33.7113 115.409 33.7113C115.409 33.5727 115.409 33.434 115.409 33.2953V32.0474C115.409 31.7701 115.409 31.6314 115.27 31.2154C115.27 31.2154 115.27 31.2154 115.409 31.2154C115.548 31.2154 115.825 31.2154 115.964 31.2154H116.38C116.657 31.2154 116.934 31.2154 117.35 31.2154C117.489 31.2154 117.489 31.2154 117.628 31.2154C117.628 31.2154 117.628 31.2154 117.766 31.2154C118.044 31.2154 118.321 31.2154 118.598 31.2154C118.737 31.2154 118.876 31.2154 118.876 31.2154C119.292 31.2154 119.707 31.3541 120.123 31.4928C120.262 31.4928 120.401 31.6314 120.678 31.9087C120.678 31.9087 120.678 31.9087 120.678 32.0474V32.1861C120.817 32.3247 120.817 32.4634 120.539 32.7407C120.539 32.8794 120.401 32.8794 120.262 33.018C120.123 33.1567 119.846 33.2953 119.569 33.434C119.43 33.7113 119.153 33.85 118.598 33.85ZM115.409 31.2154C115.409 31.2154 115.409 31.0768 115.409 31.2154V31.2154ZM115.409 36.3459C115.409 36.2072 115.409 35.9299 115.548 35.6526C115.825 35.6526 116.102 35.6526 116.241 35.6526C116.38 35.6526 116.657 35.6526 116.796 35.6526C117.073 35.6526 117.35 35.7912 117.628 35.6526C117.628 35.6526 117.766 35.6526 117.905 35.6526H118.044C118.182 35.6526 118.321 35.6526 118.46 35.6526C118.737 35.6526 119.014 35.6526 119.292 35.7912H119.43C120.123 35.9299 120.817 36.2072 121.233 36.7618L121.371 37.0392V37.1778C121.233 37.3165 121.094 37.4551 120.817 37.7325C120.539 37.8711 120.262 38.0098 119.985 38.1484L119.569 38.2871C119.43 38.2871 119.292 38.2871 119.153 38.2871C119.014 38.2871 118.876 38.2871 118.876 38.2871C118.46 38.2871 118.182 38.2871 117.905 38.2871C117.766 38.2871 117.489 38.2871 117.35 38.2871C117.212 38.2871 117.073 38.2871 116.934 38.2871C116.934 38.2871 116.934 38.2871 116.796 38.2871C116.518 38.2871 116.241 38.2871 115.964 38.2871H115.825C115.686 38.2871 115.686 38.2871 115.409 38.2871C115.409 38.2871 115.409 38.2871 115.409 38.1484C115.409 37.8711 115.409 37.5938 115.409 37.4551V37.3165V37.1778V36.3459C115.409 36.3459 115.409 36.4845 115.409 36.3459Z" fill="white"/>
<path d="M132.603 29.8279C132.464 29.6892 132.187 29.6892 131.91 29.8279L131.771 29.9665C131.355 30.5212 130.8 31.0758 130.384 31.6304C130.246 31.7691 130.246 31.9078 130.107 32.0464L129.275 32.8784C128.72 33.433 128.304 33.9877 127.75 34.5423C127.334 34.1263 127.057 33.7103 126.641 33.2944L125.393 31.9078L125.254 31.7691C124.838 31.0758 124.283 30.5212 123.867 29.9665L123.729 29.8279C123.59 29.6892 123.313 29.6892 123.174 29.8279C122.897 29.9665 122.758 30.1052 122.758 30.2439C122.758 30.3825 122.758 30.6598 122.758 30.7985C122.758 30.9371 122.897 30.9371 122.897 31.0758C123.035 31.3531 123.313 31.4918 123.451 31.7691C123.729 32.3237 124.145 32.8784 124.561 33.2944C124.699 33.433 124.838 33.7103 125.115 33.849C125.254 34.1263 125.393 34.265 125.67 34.4036C125.809 34.681 125.947 34.8196 126.086 34.9583C126.086 35.0969 126.225 35.0969 126.225 35.2356C126.225 35.3743 126.363 35.3743 126.363 35.5129C126.502 35.6516 126.641 35.7902 126.641 35.9289V36.0676C126.641 36.2062 126.641 36.3449 126.641 36.3449C126.641 36.4835 126.641 36.6222 126.641 36.7609C126.641 36.7609 126.641 36.8995 126.641 37.0382C126.641 37.3155 126.641 37.5928 126.641 37.8701C126.641 38.0088 126.641 38.2861 126.641 38.4248C126.641 38.5634 126.641 38.8408 126.641 38.9794C126.641 39.1181 126.779 39.3954 127.195 39.6727C127.334 39.6727 127.472 39.8114 127.75 39.8114C127.888 39.8114 127.888 39.8114 128.027 39.8114C128.166 39.8114 128.304 39.8114 128.304 39.6727C128.582 39.5341 128.72 39.3954 128.72 39.1181V37.8701C128.72 37.5928 128.72 37.3155 128.72 37.1768C128.72 37.0382 128.72 36.7609 128.72 36.4835V36.3449C128.72 36.2062 128.72 36.2062 128.72 36.0676C128.859 35.9289 128.998 35.6516 128.998 35.5129L129.414 34.9583C129.552 34.8196 129.552 34.8196 129.552 34.681C129.691 34.4036 129.83 34.265 129.968 34.1263C130.107 33.9877 130.246 33.849 130.246 33.7103C130.384 33.5717 130.523 33.433 130.662 33.2944C131.078 32.8784 131.355 32.4624 131.771 31.9078C131.771 31.7691 131.91 31.7691 131.91 31.6304C132.048 31.3531 132.187 31.2145 132.464 30.9371C132.603 30.7985 132.603 30.6598 132.603 30.6598C133.158 30.2439 132.742 29.9665 132.603 29.8279Z" fill="white"/>
<path d="M132.742 43.0006C133.019 43.1392 133.158 43.2779 133.296 43.5552C133.435 43.8325 133.296 44.2485 133.019 44.3872C132.742 44.5258 132.464 44.5258 132.187 44.5258C131.91 44.5258 131.494 44.3872 131.216 44.5258C129.968 44.6645 128.859 44.5258 127.75 44.3872C127.473 44.3872 127.057 44.3872 126.779 44.3872C126.086 44.3872 125.393 44.3872 124.699 44.3872C124.283 44.3872 124.006 44.2485 123.59 44.3872C122.758 44.5258 121.926 44.2485 121.094 44.3872H120.956C120.401 44.2485 119.985 44.2485 119.43 44.2485H118.737C118.044 44.1098 117.212 44.3872 116.38 44.3872C116.241 44.3872 116.102 44.5258 115.964 44.5258C115.548 44.6645 115.132 44.8031 114.577 44.9418C114.439 44.9418 114.3 44.9418 114.161 45.0805C113.745 45.3578 113.191 45.2191 112.775 45.2191C112.636 45.2191 112.359 45.0805 112.22 44.8031C112.081 44.5258 112.081 44.2485 112.22 43.9712C112.359 43.8325 112.497 43.4165 112.636 43.4165C112.775 43.4165 113.052 43.2779 113.329 43.2779C113.745 43.1392 114.023 43.0006 114.439 43.0006C114.577 43.0006 114.716 42.8619 114.854 42.8619C115.409 42.7232 115.686 42.8619 116.102 42.8619C116.657 42.7232 117.35 42.7232 117.905 42.7232H118.46C119.153 42.7232 119.846 42.5846 120.401 42.5846C121.233 42.5846 122.203 42.7232 123.174 42.5846C123.451 42.5846 123.867 42.5846 124.145 42.5846C124.561 42.5846 124.977 42.5846 125.393 42.5846C125.947 42.4459 126.502 42.5846 126.918 42.5846C127.334 42.7232 127.75 42.7232 128.304 42.7232C128.998 42.7232 129.83 42.7232 130.523 42.5846C131.216 42.5846 131.771 42.5846 132.326 43.0006H132.742Z" fill="white"/>
<path d="M112.497 26.7774C112.22 26.6387 112.497 26.0841 112.359 25.8068C112.22 25.5294 112.359 25.2521 112.497 25.1135C112.775 24.9748 113.052 24.9748 113.329 24.9748C113.607 24.9748 114.023 24.9748 114.3 24.9748C115.548 24.9748 116.657 24.9748 117.766 24.9748C118.044 24.9748 118.46 24.9748 118.737 24.9748C119.43 24.9748 120.124 24.9748 120.817 24.9748C121.233 24.9748 121.51 25.1135 121.926 24.9748C122.758 24.8361 123.59 25.1135 124.422 24.9748H124.561C125.115 25.1135 125.531 25.1135 126.086 25.1135H126.779C127.473 25.1135 128.305 25.1135 129.137 24.9748C129.275 24.9748 129.414 24.9748 129.553 24.8361C129.968 24.6975 130.523 24.5588 130.939 24.5588C131.078 24.5588 131.216 24.5588 131.355 24.4202C131.771 24.2815 132.326 24.2815 132.742 24.2815C133.019 24.2815 133.158 24.4202 133.296 24.5588C133.435 24.6975 133.435 24.9748 133.296 25.1135C133.158 25.2521 133.019 25.5294 132.88 25.5294C132.742 25.5294 131.91 26.0841 131.771 26.0841C131.355 26.2227 131.078 26.2227 130.662 26.3614C130.523 26.3614 130.384 26.3614 130.246 26.5001C129.691 26.6387 129.414 26.5001 128.998 26.5001C128.443 26.5001 127.75 26.6387 127.195 26.6387H126.641C125.947 26.6387 125.254 26.6387 124.699 26.6387C123.867 26.6387 122.897 26.6387 121.926 26.6387C121.649 26.6387 121.233 26.6387 120.956 26.6387C120.54 26.6387 120.124 26.6387 119.708 26.6387C119.153 26.6387 118.598 26.6387 118.182 26.6387C117.766 26.6387 117.35 26.6387 116.796 26.5001C116.103 26.5001 115.271 26.5001 114.577 26.5001C113.884 26.5001 113.329 26.5001 112.775 26.2227L112.497 26.7774Z" fill="white"/>
<path d="M141.616 39.812C141.616 38.98 141.616 38.148 141.616 37.3161C141.616 36.6228 141.477 35.9295 141.477 35.0975C141.477 34.2656 141.616 33.5723 141.616 32.879C141.616 31.631 141.477 30.5217 141.477 29.2738L140.923 28.3032L140.784 27.8872C142.032 26.362 141.755 25.3913 143.696 25.3913C145.637 25.3913 146.746 26.9166 146.746 28.7192C146.746 28.8578 146.746 29.1352 146.746 29.2738C147.162 29.4125 147.301 29.8284 147.301 30.2444C147.301 31.215 147.024 32.3243 147.024 33.4336C147.024 34.6815 147.162 35.9295 147.162 37.1774V40.2279C147.301 40.5053 147.578 40.7826 147.856 40.9212C149.242 39.812 150.629 38.4254 151.738 36.9001C151.738 36.2068 151.599 35.6522 151.599 34.9589C151.599 32.7403 152.709 28.8578 155.482 28.8578C156.037 28.8578 156.452 28.9965 157.007 29.2738C157.562 29.2738 157.562 29.8284 157.562 30.2444C157.562 31.215 157.284 32.3243 157.284 33.4336C157.284 35.7908 157.146 38.0094 157.146 40.3666C157.146 40.5053 157.423 41.0599 157.562 41.0599C160.751 38.8413 164.217 30.7991 164.356 27.0553C164.495 26.6393 164.633 24.9754 164.633 24.4207C164.633 24.0047 164.356 22.3408 164.911 22.3408C165.327 22.3408 166.159 23.5888 166.297 23.8661C166.02 25.114 167.129 26.0846 167.129 27.0553C167.129 30.3831 162.97 36.6228 161.167 39.396C161.167 39.5346 161.167 39.812 161.167 40.0893C160.751 40.2279 160.335 40.5053 160.058 40.6439C159.642 40.9212 157.423 42.8625 157.423 43.2784C157.423 43.2784 157.423 43.2784 157.423 43.4171C157.007 43.8331 156.452 44.2491 155.898 44.2491C153.957 44.2491 152.015 41.8919 151.877 40.0893C149.104 41.8919 147.024 43.4171 147.44 43.6944C146.885 43.9717 146.33 44.3877 145.637 44.3877C143.834 44.2491 141.616 41.6145 141.616 39.812Z" fill="white"/>
<path d="M165.604 45.2199C165.604 44.6653 165.743 44.1106 165.881 43.556C165.743 43.0013 165.743 42.4467 165.604 41.8921C165.743 41.0601 166.297 39.2575 166.297 38.5642C166.297 34.5431 168.655 31.2153 168.793 27.3328C169.486 25.6689 169.902 24.0049 170.457 22.341C170.596 21.7864 170.734 21.0931 171.012 20.6771L172.676 17.4879C172.953 16.9333 174.062 13.4668 174.478 13.4668C176.003 13.4668 176.835 15.1307 177.113 16.3787V16.5173C177.251 16.5173 177.251 16.3787 177.39 16.24L177.806 15.9627C177.945 15.9627 177.945 16.1013 177.945 16.1013V16.24C178.222 16.656 178.777 17.6266 178.777 18.0426C178.777 19.1518 176.142 24.9756 175.31 25.9462C174.478 28.0261 172.537 32.1859 172.121 34.1271C173.23 33.0178 174.34 31.6312 175.588 30.7993C175.865 30.6606 176.281 30.2446 176.558 30.2446C177.806 29.5513 178.638 29.1354 180.163 29.1354C181.966 29.1354 183.214 30.6606 183.214 32.4632C183.214 33.1565 182.936 33.8498 182.798 34.5431C182.798 34.9591 182.936 35.375 182.936 35.791L181.55 38.8415C181.689 39.6735 181.55 40.6441 180.995 41.3374C180.579 41.8921 179.747 43.6946 179.747 44.3879C179.747 44.8039 179.886 44.9426 180.302 44.9426C184.184 44.9426 189.592 32.0472 191.395 32.0472C191.672 32.0472 191.811 32.1859 191.811 32.4632C191.811 33.0178 191.533 33.2952 191.256 33.7111C189.869 36.0683 188.622 38.7029 186.958 40.9214C185.987 42.0307 182.798 46.1905 181.411 46.1905C180.857 46.1905 178.777 45.9132 178.361 45.6359C176.835 45.3586 175.726 42.8627 175.726 41.4761C175.726 39.8122 176.142 38.2869 176.142 36.7616C176.419 35.9297 177.806 32.7405 177.806 31.4926C177.806 31.4926 177.806 31.3539 177.667 31.3539C176.835 31.9086 174.34 33.9885 174.34 34.8204C173.646 35.9297 173.092 37.039 172.398 38.0096C172.537 38.8415 172.537 39.9508 172.676 40.7828C171.982 41.7534 171.428 42.724 170.596 43.556C170.457 44.1106 170.318 45.0812 169.764 45.0812C169.486 45.3586 168.1 47.4385 167.961 47.4385C166.575 47.2998 165.604 46.0519 165.604 45.2199ZM173.646 35.375C173.646 35.5137 173.646 35.5137 173.646 35.375V35.375Z" fill="white"/>
<path d="M197.912 42.169C197.634 41.1984 197.634 40.0891 197.496 38.9798C197.496 38.8412 197.634 38.7025 197.634 38.5638L196.941 39.3958C196.664 40.0891 195 43.2783 194.029 43.4169C193.613 43.6943 192.92 44.3876 192.365 44.3876C189.592 44.3876 186.958 42.585 186.958 39.5345C186.958 35.7906 190.701 28.9963 194.306 27.3324C195.277 26.6391 197.218 25.9458 198.466 25.9458C199.437 25.9458 202.349 27.7484 202.349 28.8577C202.349 29.135 202.071 29.4123 201.794 29.551C199.021 28.9963 195.554 31.9082 194.584 34.2654L193.613 36.3453C193.336 36.8999 192.365 38.8412 192.365 39.3958C192.227 39.6731 192.088 40.0891 192.088 40.2278C192.227 40.9211 192.088 42.3077 193.059 42.3077C193.752 42.3077 194.445 41.6144 194.861 41.1984C195.832 40.0891 198.328 34.82 198.882 33.2948C199.021 32.6015 199.576 32.1855 199.714 31.6309C199.714 30.9376 201.794 30.9376 202.21 30.9376C202.903 30.9376 203.458 31.0762 204.013 31.6309C204.013 31.6309 204.013 31.7695 204.013 31.9082C204.29 32.1855 204.567 32.3242 204.567 32.7401C204.567 33.1561 203.874 34.5427 203.735 35.0973C203.597 35.9293 203.319 36.4839 203.319 37.3159C203.319 38.0092 203.042 38.5638 202.903 39.1185C202.765 39.6731 201.655 42.8623 201.655 43.001C201.655 43.2783 202.21 43.2783 202.349 43.2783C205.261 43.2783 209.282 32.4628 210.668 32.4628C210.946 32.4628 211.084 32.7401 211.084 32.8788C211.084 33.0175 211.084 33.1561 211.084 33.4334C211.084 33.7108 206.093 41.337 205.538 42.169C204.706 43.5556 202.765 45.2195 201.101 45.2195C199.714 45.0809 198.328 43.4169 197.912 42.169Z" fill="white"/>
<path d="M211.084 42.4464C210.114 41.6144 208.589 40.3665 208.589 38.9799C208.589 36.7613 209.559 33.7108 210.252 31.6309V31.215C211.084 28.5804 211.5 25.8072 212.055 23.1727C210.668 23.034 202.072 22.3407 202.072 19.9835C202.072 19.8448 202.21 19.7062 202.488 19.7062C202.626 19.7062 202.765 19.8448 202.765 19.8448L203.458 19.7062C206.509 20.9541 209.42 20.8155 212.61 21.2314V21.5088C213.164 20.1222 214.135 17.9036 214.412 16.3784C214.551 15.5464 214.828 10 215.799 10C217.324 10 218.988 12.0799 218.988 13.4665C218.988 13.7438 218.988 14.0211 218.988 14.2985C219.265 14.8531 219.404 16.101 219.82 16.517C219.404 18.3196 218.849 20.1222 218.433 21.9247L222.177 22.0634C222.455 22.0634 222.732 22.0634 223.009 22.0634C224.673 22.2021 230.219 23.3113 230.219 25.8072C230.219 26.2232 229.942 26.2232 229.665 26.2232H229.388C229.11 24.8366 223.841 23.7273 222.732 23.7273C221.207 23.7273 219.681 23.5887 218.156 23.45C217.601 25.3912 217.601 27.6098 217.047 29.551L217.185 30.5217C216.353 33.1562 214.135 38.4253 214.135 41.0598C214.135 41.4758 214.135 41.8918 214.412 42.3077C215.938 41.7531 220.513 36.2067 221.345 34.5428C221.623 33.9882 223.564 30.2443 223.98 30.2443C224.118 30.2443 224.257 30.383 224.257 30.5217C224.257 30.6603 224.118 30.799 224.118 30.9376C225.089 32.1856 216.631 44.1103 213.719 44.1103C212.332 43.9717 211.639 43.417 211.084 42.4464Z" fill="white"/>
<path d="M237.43 38.1476C237.43 37.7316 237.43 37.3156 237.43 36.8997L237.152 36.6223C237.291 34.4038 237.846 32.1852 237.846 29.9667V28.8574C237.43 27.7481 237.152 26.7775 237.152 25.6682C237.152 25.1136 237.291 24.5589 237.984 24.5589C239.371 24.5589 242.144 26.5002 242.144 28.0254C242.144 28.3027 242.144 28.5801 242.144 28.8574C242.421 29.2734 242.56 29.828 242.837 30.3826C242.837 31.3533 242.837 32.7399 242.56 33.5718C242.283 34.4038 241.035 38.4249 241.035 39.3955C241.035 39.5342 241.035 39.8115 241.312 39.8115C242.283 39.8115 244.363 36.0677 244.779 35.2357C244.917 34.5424 244.917 33.8491 244.917 33.1558V33.0172C245.333 31.6306 246.027 29.6893 247.69 29.6893C249.354 29.6893 249.909 31.2146 249.909 32.6012C249.909 33.0172 249.909 33.4332 249.77 33.7105C250.464 34.9584 250.325 35.2357 250.602 35.929C250.464 37.0383 249.77 38.2862 249.77 39.3955L249.909 39.5342V40.0888C249.909 40.2275 249.909 40.5048 249.909 40.7821C249.909 41.0594 249.77 41.3368 249.77 41.6141C249.77 41.8914 249.909 42.1687 250.186 42.1687C251.712 42.1687 252.96 38.9795 253.237 37.7316C254.069 34.1265 255.178 30.244 255.178 26.6388C255.178 22.6177 252.128 22.895 251.989 21.3698C251.573 21.2311 250.741 21.2311 250.741 20.6765C250.741 20.1218 251.434 19.9832 251.85 19.9832C252.266 19.9832 252.682 20.1218 253.098 20.2605C256.703 20.9538 259.061 23.5883 259.338 27.1935C259.338 27.3321 259.477 27.3321 259.477 27.4708L259.338 27.7481C259.061 31.4919 254.623 43.8326 250.464 43.8326C247.69 43.8326 245.611 40.3661 245.195 37.8703C244.917 38.0089 243.808 40.2275 243.808 40.5048C243.808 40.9208 243.947 41.3368 243.947 41.7527C243.947 42.7234 241.173 43.9713 240.203 43.9713C237.707 43.5553 237.43 40.0888 237.43 38.1476Z" fill="white"/>
<path d="M262.389 45.2192C261.141 44.6645 260.447 43.4166 260.17 42.03C259.893 41.7527 259.754 41.3367 259.754 40.9207C259.754 35.6517 260.17 32.1852 263.914 28.0254C264.33 27.6094 265.439 26.2228 265.855 26.2228C266.41 25.8068 266.548 25.5295 267.242 25.5295H267.935C268.351 25.5295 269.044 24.8362 269.322 25.1135C269.599 24.9749 269.738 24.9749 270.015 24.9749C271.818 24.9749 274.036 26.0841 274.036 28.164C274.036 31.9078 268.628 36.7609 265.439 38.1475C264.885 38.7022 264.885 40.0888 264.885 40.7821C264.885 42.3073 264.607 43.8326 266.687 43.8326C268.906 43.8326 272.788 40.3661 273.897 38.7022C274.591 37.8702 275.284 36.8996 275.839 35.929C276.255 35.3743 277.503 33.1558 278.057 32.8785C278.335 32.7398 278.473 32.7398 278.751 32.7398L278.889 32.6011C279.028 32.6011 279.028 33.0171 279.028 33.0171C279.028 33.5718 278.335 34.4037 278.057 34.8197C277.503 35.513 276.948 36.345 276.532 37.1769C276.393 37.3156 276.393 37.5929 276.255 37.8702C275.423 38.9795 274.452 40.0888 273.62 41.198C272.234 43.0006 268.628 45.9125 266.41 45.9125C265.023 46.1898 263.359 45.9125 262.389 45.2192ZM271.956 29.1346L271.54 28.7187C270.015 29.1346 267.103 34.681 266.687 36.0676C268.628 35.2357 271.818 31.4919 271.956 29.1346Z" fill="white"/>
<path d="M163.108 126.474L161.306 122.176C159.78 118.571 159.364 117.739 158.116 117.739C153.818 117.739 152.709 129.386 125.393 129.386C103.346 129.386 87.3999 122.037 87.3999 96.6624C87.3999 71.565 103.068 55.6191 128.859 55.6191C135.792 55.6191 146.053 56.7284 153.679 62.2748L156.591 57.1444H157.839C158.116 65.6026 158.532 73.9222 159.226 82.3805H157.284C155.621 69.7624 147.994 57.8377 128.721 57.8377C116.518 57.8377 116.102 62.8294 116.102 95.1372C116.102 117.877 116.241 126.89 126.779 126.89C132.326 126.89 136.901 124.256 137.456 114.411L138.427 99.297C138.704 94.8599 136.901 93.6119 132.742 93.6119V91.948H168.655V93.6119C162.692 93.6119 162.692 95.4145 162.969 98.7423L164.633 126.336H163.108V126.474Z" fill="#908FB5"/>
<path d="M169.487 128.276V126.474C172.953 126.474 173.924 125.503 174.201 121.343L177.667 64.2156C177.945 59.3625 176.281 58.1146 171.844 58.1146V56.4507H230.497L232.022 79.7455L229.942 79.8842C229.526 65.0476 221.9 58.8079 211.085 58.8079H204.706C199.021 58.8079 198.605 60.0558 198.882 64.7703L200.269 89.3131H208.034C212.194 89.3131 217.047 87.0945 217.047 77.111C217.047 75.7244 216.908 73.9218 216.908 73.9218H218.849C218.988 84.7373 219.543 95.5528 219.959 106.368H218.018C217.879 104.288 217.879 102.347 217.602 100.406C216.77 94.9981 214.551 91.6703 208.173 91.6703H200.685L202.349 121.066C202.488 125.226 203.458 126.058 207.063 126.058H213.996C224.535 126.058 230.636 116.768 230.774 104.288H232.715L233.825 128.415H169.487V128.276Z" fill="#908FB5"/>
<path d="M249.632 128.277V126.474H250.048C253.514 126.474 253.93 125.088 254.207 120.789L257.674 64.6321C257.951 59.363 257.535 58.6697 253.514 58.6697C243.392 58.6697 236.32 66.712 236.043 80.3006L233.963 80.162L235.35 56.3125H301.074L302.6 80.162L300.52 80.3006C300.104 66.712 293.032 58.6697 283.049 58.6697C279.028 58.6697 278.612 59.363 278.889 64.6321L282.217 120.789C282.494 124.949 282.91 126.474 286.377 126.474H286.793V128.277H249.632Z" fill="#908FB5"/>
</svg>
