<svg width="390" height="168" viewBox="0 0 390 168" fill="none" xmlns="http://www.w3.org/2000/svg">
<path d="M133.264 61.5265L132.809 61.223C131.747 60.7678 131.14 60.0092 130.988 59.2505C130.533 55.4572 138.12 51.3605 143.43 48.3259C144.037 47.7189 145.251 46.3534 145.251 43.9257C145.251 43.4705 145.251 43.0153 145.099 42.5601C144.948 41.498 145.403 39.8289 144.341 39.3737L143.734 38.6151C143.279 38.7668 142.52 38.4633 141.913 38.4633L141.458 38.6151C139.485 39.3737 137.513 39.9806 136.602 40.1324H136.451L136.299 41.1945C136.299 41.6497 136.299 42.1049 136.147 42.5601C136.147 42.8635 136.147 43.0153 136.147 43.3187C136.147 43.3187 136.147 43.9257 135.995 44.5326C136.147 44.6843 136.147 44.6843 136.147 44.9878C136.147 44.9878 136.147 44.9878 136.147 45.1395C136.147 46.0499 136.299 47.112 136.299 48.1741C136.299 50.1466 136.147 51.8157 135.54 51.8157C134.933 51.8157 133.416 51.3605 132.506 50.1466C132.202 49.9949 131.899 49.6914 131.444 49.2362L131.14 48.9328C130.988 48.9328 130.837 48.7811 130.685 48.6293C130.685 48.4776 130.533 48.4776 130.533 48.3259V48.1741C130.381 47.7189 130.533 47.4155 130.533 46.9603C130.533 46.5051 130.533 46.2016 130.533 45.7464C130.533 45.2912 130.533 44.836 130.533 44.3809C130.23 43.7739 129.774 43.167 129.926 42.1049L130.078 40.2841C130.078 39.6772 130.23 39.0703 130.23 38.4633L130.078 37.7047C130.078 37.2495 129.926 36.6426 129.926 36.0356L129.774 34.2149V33.7597C129.623 32.8493 129.623 31.9389 129.623 31.1802C129.471 29.6629 129.926 28.1456 129.774 26.6283C129.774 25.111 131.595 23.5937 132.657 23.442C133.113 23.442 133.568 23.442 133.719 23.5937C133.871 23.5937 134.175 23.442 134.175 23.442C134.326 23.442 134.63 23.2902 134.63 23.5937L135.085 27.6904C135.085 27.9939 135.237 27.9939 135.237 28.1456C135.54 27.387 135.844 26.6283 136.299 26.0214C136.754 25.111 137.361 24.0489 138.12 23.442C139.485 22.0764 141.609 20.8625 142.368 20.8625C142.975 20.5591 143.734 20.4073 144.341 20.4073C145.554 20.2556 146.313 20.7108 147.375 21.3177C149.5 22.3798 150.865 24.2006 151.169 26.1731C151.472 27.6904 151.169 29.056 150.562 30.2699L150.865 30.8768L150.41 32.3941C150.106 33.001 149.651 33.3045 149.196 33.7597L148.741 34.2149C147.375 35.277 146.01 36.6426 145.858 36.6426C145.706 36.7943 145.555 36.7943 145.403 36.946C146.617 37.4012 150.258 38.6151 150.865 42.7118C151.017 43.4705 151.017 44.3808 150.713 45.2912C152.686 44.6843 153.596 42.7118 154.203 41.6497L154.355 41.498C154.507 41.498 154.81 41.6497 154.81 41.9532C154.962 42.5601 154.355 44.2291 152.686 45.2912C152.686 45.443 152.231 45.7464 152.231 45.7464L150.562 46.6568C150.41 47.2637 150.258 49.388 149.5 50.4501C147.83 53.1813 145.251 56.6711 141.761 59.2505C140.547 60.1609 137.968 61.9817 135.54 61.9817C134.782 62.1334 133.871 61.9817 133.264 61.5265ZM132.961 59.554C133.568 59.554 134.326 59.2505 135.085 58.947C136.754 58.3401 139.94 55.3055 141.609 52.8778L142.52 51.3605C142.823 50.9053 142.975 50.6018 143.127 50.1466L142.823 50.2984L141.913 50.6018C140.699 51.5122 139.03 52.2709 137.816 53.0295C135.692 54.3951 132.05 57.8849 132.202 58.947C132.202 59.4022 132.657 59.554 132.961 59.554ZM136.451 35.4287V36.6426C136.451 36.7943 136.451 36.7943 136.451 36.946C136.451 37.0978 136.451 37.4012 136.451 37.553C136.602 38.0081 136.602 38.4633 136.602 38.7668C136.906 38.7668 137.361 38.6151 137.816 38.4633L139.334 38.0081L141.306 37.0978L142.52 36.4908L142.823 36.3391C143.43 35.7322 143.582 34.0631 144.189 33.6079C144.492 33.3045 144.644 32.2424 144.796 31.7872C144.948 30.5733 145.099 29.3595 145.099 28.2974C145.099 27.6904 144.948 27.0835 144.796 26.4766C144.341 24.6558 143.885 24.6558 142.672 23.5937L142.065 23.1385C141.913 23.1385 141.761 22.9868 141.458 22.9868C141.003 23.1385 140.699 23.2902 140.244 23.442C139.789 24.0489 139.182 24.5041 138.727 25.111C137.664 26.6283 136.906 28.6008 136.299 30.2699C136.299 30.4216 136.299 30.5733 136.299 30.5733V30.7251C136.147 31.1802 136.147 31.7872 135.995 32.2424C136.451 33.001 136.451 34.2149 136.451 35.4287Z" fill="white"/>
<path d="M154.052 43.167C154.052 41.6497 154.052 39.222 154.962 37.8564C155.114 36.1874 155.721 28.6008 157.845 28.6008C158.3 28.6008 158.452 29.056 158.755 29.6629C159.362 29.6629 159.362 30.7251 159.362 30.7251C159.362 31.9389 159.21 32.6976 159.21 33.4562C159.21 33.7597 159.21 33.9114 159.21 34.2149V34.0632C159.21 34.6701 159.362 35.277 159.362 35.8839C159.362 36.6426 159.059 37.2495 159.059 37.8564V38.0082L159.21 38.1599L159.059 38.4634V38.6151C159.059 40.2841 158.603 42.1049 158.603 43.7739C158.603 45.443 159.362 50.2984 161.486 50.6018H161.638C162.7 51.057 163.914 48.0224 164.521 47.4155L164.673 47.112V47.2638C164.976 45.8982 165.431 44.5326 165.735 43.0153C166.19 40.8911 166.797 28.9043 168.921 28.9043C169.376 28.9043 169.68 29.2078 169.68 29.6629C169.68 29.9664 169.528 30.4216 169.528 30.8768C169.528 31.332 169.68 31.9389 169.68 32.3941C169.225 32.8493 168.314 41.8014 168.163 43.3188H168.011C168.011 44.2291 166.493 48.7811 165.887 49.2363C165.28 51.057 162.548 52.7261 159.969 52.7261C155.872 52.7261 154.052 47.2638 154.052 43.167Z" fill="white"/>
<path d="M176.053 52.1192L175.749 51.9675C174.687 51.8158 174.384 50.4502 174.384 48.9329C174.384 46.5052 175.142 43.6223 175.142 40.5877C175.142 38.16 175.597 35.884 175.597 33.4563L175.446 33.1529C175.597 32.3942 175.597 31.6355 175.597 30.8769C175.597 30.27 175.597 29.663 175.749 29.0561C175.142 28.9044 174.687 28.9044 174.08 28.9044C173.321 28.9044 172.411 29.0561 171.804 29.0561C171.197 29.0561 170.287 28.9044 170.287 28.4492C170.287 27.3871 174.991 27.2353 175.749 27.2353V26.9319C175.901 26.6284 176.356 26.6284 176.356 26.6284C177.266 26.6284 177.722 26.7801 178.177 27.0836C178.936 26.9319 179.542 26.9319 180.301 26.9319H183.943C184.398 26.9319 186.522 26.9319 186.522 27.8423C186.522 29.3596 181.818 29.0561 180.908 29.0561C180.453 29.0561 180.301 29.0561 179.998 29.0561C179.998 29.3596 179.998 29.663 179.846 29.9665C179.846 30.1182 179.846 30.27 179.846 30.27C179.846 31.4838 179.391 32.5459 179.391 33.608C179.542 34.0632 179.542 34.6702 179.542 35.2771C179.542 37.5531 178.936 45.1396 177.873 47.2638C178.025 47.719 178.025 48.1742 178.329 48.6294C178.177 48.9329 178.025 49.2364 177.873 49.3881C177.722 49.5398 177.418 49.8433 177.418 49.8433L177.266 50.2985L176.66 50.6019H176.508L176.356 51.0571V51.2089L176.204 51.3606L175.901 52.1192H176.053Z" fill="white"/>
<path d="M195.019 45.139C195.019 44.6838 195.019 44.3804 195.019 43.9252L194.715 43.6217C194.867 41.4975 195.474 39.3732 195.474 37.249V36.1869C195.019 35.1248 194.867 34.2144 194.867 33.0005C194.867 32.3936 195.019 31.9384 195.626 31.9384C196.991 31.9384 199.571 33.7592 199.571 35.2765C199.571 35.58 199.571 35.7317 199.571 36.0351C199.874 36.4903 200.026 36.9455 200.178 37.4007C200.178 38.3111 200.178 39.6767 200.026 40.5871C199.874 41.3457 198.66 45.2907 198.66 46.2011C198.66 46.3529 198.66 46.5046 198.812 46.5046C199.874 46.5046 201.695 42.863 202.15 42.1044C202.302 41.4975 202.302 40.7388 202.302 40.1319V39.9802C202.605 38.6146 203.364 36.7938 205.033 36.7938C206.55 36.7938 207.157 38.1594 207.157 39.6767C207.157 39.9802 207.157 40.4354 207.006 40.7388C207.764 41.9527 207.461 42.2561 207.764 42.863C207.612 43.9252 207.006 45.139 207.006 46.2011L207.157 46.3529V46.9598C207.157 47.1115 207.157 47.415 207.157 47.5667C207.157 47.7184 207.006 48.0219 207.006 48.3254C207.006 48.6288 207.157 48.7806 207.461 48.7806C208.978 48.7806 210.192 45.5942 210.495 44.5321C211.254 41.0423 212.316 37.4007 212.316 33.7592C212.316 29.9659 209.433 30.1176 209.13 28.7521C208.826 28.6003 207.916 28.6003 207.916 28.1451C207.916 27.6899 208.675 27.3865 208.978 27.3865C209.282 27.3865 209.737 27.5382 210.192 27.5382C213.682 28.1451 215.958 30.7246 216.261 34.2144C216.261 34.3661 216.413 34.3661 216.413 34.5178L216.261 34.6696C216.109 38.1594 211.709 50.1461 207.764 50.1461C205.185 50.1461 203.061 46.8081 202.757 44.5321C202.605 44.6838 201.392 46.8081 201.392 47.1115C201.392 47.5667 201.543 47.8702 201.543 48.3254C201.543 49.3875 198.812 50.4496 198.053 50.4496C195.322 50.2979 195.019 46.9598 195.019 45.139Z" fill="white"/>
<path d="M218.234 51.8157C217.02 51.3605 216.261 50.1467 216.109 48.7811C215.958 48.4777 215.654 48.0225 215.654 47.719C215.654 42.5601 216.109 39.2221 219.599 35.2771C219.903 34.9736 221.117 33.608 221.42 33.4563C221.875 33.1528 222.179 32.8494 222.786 32.8494H223.544C223.848 32.8494 224.606 32.2424 224.91 32.3942C225.062 32.2424 225.365 32.2424 225.517 32.2424C227.186 32.2424 229.462 33.3045 229.462 35.2771C229.462 38.9186 224.303 43.4705 221.268 44.9878C220.813 45.5948 220.813 46.8086 220.813 47.5673C220.813 49.0846 220.51 50.4502 222.482 50.4502C224.606 50.4502 228.4 47.1121 229.462 45.443C230.069 44.6844 230.827 43.6223 231.434 42.8636C231.738 42.4084 232.952 40.1324 233.559 39.9807C233.71 39.829 234.014 39.829 234.165 39.829L234.317 39.6773C234.469 39.6773 234.469 39.9807 234.469 40.1324C234.469 40.7394 233.71 41.498 233.407 41.8015C232.952 42.5601 232.345 43.3188 231.89 44.0775C231.738 44.2292 231.738 44.5327 231.738 44.6844C230.979 45.7465 229.917 46.8086 229.158 47.8707C227.793 49.5398 224.303 52.4227 222.179 52.4227C220.813 52.7261 219.144 52.5744 218.234 51.8157ZM227.489 36.3392L227.034 36.0357C225.669 36.4909 222.786 41.8015 222.33 43.1671C224.151 42.2567 227.338 38.6151 227.489 36.3392Z" fill="white"/>
<path d="M168.921 89.5964C168.011 89.5964 166.949 87.4722 166.645 86.7135C166.038 85.4997 166.038 84.2858 166.038 82.9203C166.038 78.8235 166.645 76.5476 167.859 72.4508C168.163 71.237 168.466 69.8714 168.77 68.6575C168.921 68.2023 170.59 63.0435 170.59 62.1331V61.9814H170.439C169.983 61.9814 169.376 62.5883 169.073 62.8918L167.556 64.2573C167.101 64.7125 165.431 68.5058 165.28 68.961C164.976 69.7197 164.521 70.4783 164.218 71.237C164.066 71.5404 163.914 71.8439 163.762 72.1474C163.459 73.5129 163.156 74.8785 162.549 76.0924C162.397 76.5476 162.093 77.0027 161.942 77.4579C161.638 78.2166 161.638 78.8235 161.183 79.4304C160.88 79.8856 160.88 81.4029 160.424 81.4029C159.969 81.4029 159.666 81.0995 159.211 81.0995C158.148 81.0995 157.845 80.6443 157.693 79.7339C157.541 79.5822 157.541 79.127 157.541 78.9753C157.541 77.6097 157.997 76.0924 158.3 74.7268C158.907 71.3887 159.514 67.7472 159.514 64.5608C159.514 64.4091 159.514 64.4091 159.514 64.2573C159.514 63.3469 159.514 62.4366 159.514 61.5262C159.514 61.3744 159.514 60.3123 159.211 60.3123C158.755 60.3123 157.693 61.5262 157.39 61.9814C157.238 62.2848 157.086 62.5883 156.935 62.8918C156.176 63.8021 155.569 64.5608 154.962 65.6229C154.659 66.0781 154.507 66.8368 154.203 67.292C153.9 67.7472 153.748 68.3541 153.748 68.8093C153.445 70.4783 152.838 72.7543 152.838 74.4233C152.838 75.0302 152.838 75.4854 152.838 76.0924C152.838 76.3958 152.838 76.851 152.838 77.1545C152.838 77.3062 152.686 77.6097 152.686 77.7614C152.686 78.5201 152.534 80.3408 152.383 81.0995C152.383 81.2512 152.079 81.8581 152.079 82.0099C152.079 82.4651 150.714 85.4997 150.107 85.4997C149.803 85.4997 149.803 85.4997 149.348 85.4997C149.196 85.4997 148.893 84.8928 148.589 84.8928C147.527 84.5893 147.679 84.5893 147.072 83.6789C146.465 82.7685 146.465 81.8581 146.465 80.796C146.465 79.4304 146.92 77.3062 147.072 75.9406C147.072 75.3337 147.072 74.8785 147.224 74.2716C147.375 72.6025 147.831 71.0852 147.982 69.4162C147.982 68.5058 148.134 67.5954 148.286 66.8368C148.286 66.3816 148.741 65.016 148.741 64.4091C148.741 64.2573 148.741 64.1056 148.741 63.9539C148.741 63.3469 148.893 62.8918 148.893 62.2848C148.893 61.9814 148.589 61.8296 148.589 61.5262C148.589 61.2227 148.741 60.9193 148.741 60.7675C148.741 60.3123 148.286 58.9467 148.286 58.4916C148.286 58.4916 148.134 58.3398 148.134 58.1881C148.134 58.0364 148.134 58.0364 148.134 57.8846C148.438 57.7329 148.438 57.5812 148.893 57.5812C149.803 57.4294 150.714 57.4294 150.714 57.4294C150.714 57.5812 150.562 57.7329 150.562 57.7329C150.714 57.7329 151.017 57.5812 151.169 57.5812C151.32 57.5812 151.624 57.7329 151.624 57.7329C151.776 57.7329 151.927 57.8846 152.079 58.0364C152.383 58.3398 152.534 58.6433 152.838 58.9467C153.445 59.8571 153.141 60.9193 153.596 61.6779C153.596 61.8296 153.445 61.9814 153.445 62.1331C153.596 62.2848 153.596 62.4366 153.748 62.5883C153.9 63.1952 154.052 63.6504 154.052 64.2573L154.203 64.1056C155.265 62.2848 158.3 56.8225 160.424 56.8225C160.88 56.8225 161.183 56.9742 161.638 57.2777C163.156 58.0364 163.914 60.1606 164.218 61.6779C164.369 62.4366 164.218 63.347 164.218 64.1056C164.218 64.8643 164.066 65.6229 164.218 66.3816C164.066 66.8368 163.914 67.5954 163.914 68.0506C165.583 65.3195 168.77 58.3398 172.259 58.3398C173.321 58.3398 174.839 59.4019 174.839 60.6158C175.597 61.6779 175.446 61.9814 175.446 63.1952C175.446 66.3816 174.839 69.5679 174.232 72.6025C174.08 73.0577 173.928 73.3612 173.777 73.8164C173.625 74.575 173.473 75.4854 173.018 76.0924C173.018 76.851 172.866 77.0027 172.866 77.4579L172.108 77.9131C172.259 78.0649 172.259 78.2166 172.259 78.3683C172.259 78.5201 172.108 78.8235 172.108 78.9753C172.108 79.8856 171.956 79.5822 171.652 80.3408C171.501 80.9478 171.349 83.2237 171.349 83.9824C171.349 84.8928 171.349 85.8032 171.804 86.7135C171.804 87.017 171.956 87.3205 172.259 87.3205C173.928 87.3205 177.722 79.2787 178.329 79.127C178.329 79.2787 178.48 79.5822 178.48 79.7339C178.48 80.0374 177.418 81.8581 177.267 82.3133C175.901 84.5893 174.839 86.7135 172.866 88.5343C172.563 88.8378 172.108 89.5964 171.501 89.7482C171.197 89.7482 170.287 90.2034 169.832 90.2034C169.528 90.0516 169.225 89.8999 168.921 89.5964Z" fill="white"/>
<path d="M187.432 83.6792C187.129 82.6171 187.28 81.7067 187.129 80.6446C187.129 80.4929 187.28 80.3411 187.28 80.3411L186.674 81.2515C186.37 81.8584 184.853 85.0448 183.791 85.0448C183.335 85.3483 182.729 85.9552 182.122 85.9552C179.39 85.9552 176.811 84.1344 176.811 81.2515C176.811 77.7617 180.453 71.0855 183.942 69.5682C184.853 68.9613 186.825 68.2026 188.039 68.2026C188.95 68.2026 191.681 70.0234 191.681 71.0855C191.681 71.389 191.529 71.6925 191.225 71.6925C188.494 71.2373 185.156 73.9684 184.246 76.2444L183.335 78.2169C183.032 78.8238 182.122 80.6446 182.122 81.0998C181.97 81.4032 181.97 81.7067 181.97 82.0102C182.122 82.7688 181.97 83.9827 183.032 83.9827C183.639 83.9827 184.398 83.3757 184.701 82.9206C185.611 81.8584 188.039 76.6996 188.494 75.334C188.646 74.7271 189.101 74.2719 189.253 73.665C189.253 73.058 191.225 73.058 191.681 73.058C192.288 73.058 192.895 73.2098 193.35 73.665V73.8167C193.653 73.9684 193.805 74.2719 193.805 74.5753C193.805 75.0305 193.046 76.2444 193.046 76.8513C192.895 77.61 192.743 78.2169 192.591 78.9755C192.591 79.5825 192.439 80.1894 192.136 80.6446C191.984 81.0998 190.922 84.2861 190.922 84.2861C190.922 84.5896 191.377 84.5896 191.529 84.5896C194.26 84.5896 198.205 74.1202 199.571 74.1202C199.722 74.1202 200.026 74.2719 200.026 74.5753C200.026 74.7271 200.026 74.8788 200.026 75.0305C200.026 75.1823 195.171 82.6171 194.715 83.5275C193.957 84.8931 191.984 86.4104 190.315 86.4104C189.101 86.5621 187.887 84.8931 187.432 83.6792Z" fill="white"/>
<path d="M211.557 88.9901C210.04 88.6866 208.523 87.0176 207.461 85.9555C207.309 85.8037 207.006 85.3486 206.854 85.3486C205.185 83.6795 204.123 81.5553 203.364 79.431C203.212 79.5828 203.212 79.5828 203.061 79.7345C202.909 80.3414 202.909 80.9484 202.757 81.2518C202.605 82.7691 203.061 86.7141 200.785 86.7141C200.329 86.7141 199.874 86.5624 199.722 86.2589C199.419 86.1072 199.267 85.8037 199.116 85.652C198.205 84.8934 198.357 82.0105 198.357 79.5828C198.357 76.2447 198.66 73.5135 198.812 71.6928C199.267 68.0512 199.874 67.1408 200.026 66.0787L199.874 65.927C199.874 65.32 200.633 63.8027 201.24 63.8027C201.998 63.8027 203.364 66.0787 203.364 68.0512C203.364 69.4168 202.757 71.9962 202.757 74.5756C202.757 74.7274 202.757 74.8791 202.757 75.0308C203.061 74.8791 203.364 74.5756 203.516 74.4239L203.667 74.2722H203.819C205.033 72.9066 206.247 71.6928 207.309 70.6306C208.371 69.4168 209.13 68.3547 209.737 67.7477C210.344 67.1408 210.799 66.6856 211.254 66.2304C211.406 65.927 211.709 65.6235 211.861 65.4718C212.013 65.32 212.316 65.1683 212.468 65.1683H212.771C213.378 65.4718 213.985 65.7752 213.985 66.5339C213.985 67.596 212.923 68.8099 212.62 69.1133C212.316 69.5685 212.164 69.5685 212.164 69.7202C212.013 69.872 211.406 70.4789 211.254 70.7824C209.888 72.2997 208.523 73.817 207.461 74.5756C206.095 75.7895 205.033 76.5481 204.274 77.4585C205.488 78.9758 206.399 80.4932 207.916 81.707C208.068 82.0105 208.371 82.1622 208.523 82.3139C208.523 82.3139 208.523 82.4657 208.675 82.4657C209.433 83.8312 210.799 84.7416 211.861 85.652C212.164 85.652 212.316 85.8037 212.62 85.9555C213.075 86.1072 213.53 86.2589 213.53 86.8659C213.53 87.6245 212.771 88.5349 212.164 88.6866C212.013 88.9901 211.861 88.9901 211.557 88.9901C211.709 88.9901 212.013 89.1418 211.557 88.9901Z" fill="white"/>
<path d="M214.592 85.1958C213.378 84.4372 213.075 83.0716 213.075 81.8578C212.923 81.5543 212.771 81.0991 212.923 80.6439C213.834 75.6368 214.896 72.4504 219.144 69.2641C219.599 68.9606 220.965 67.8985 221.268 67.8985C221.875 67.595 222.027 67.4433 222.634 67.595L223.241 67.7468C223.544 67.7468 224.455 67.2916 224.607 67.595C224.91 67.595 225.062 67.595 225.213 67.595C226.882 67.8985 228.855 69.4158 228.4 71.3883C227.641 75.0299 221.724 78.5197 218.386 79.2783C217.779 79.7335 217.627 80.9474 217.475 81.706C217.172 83.2233 216.716 84.5889 218.689 84.8924C220.661 85.3476 225.062 82.6164 226.427 81.4026C227.186 80.6439 228.096 79.8853 228.855 79.1266C229.31 78.6714 230.979 76.6989 231.434 76.6989C231.738 76.6989 231.89 76.6989 232.041 76.6989H232.193C232.345 76.6989 232.193 77.0024 232.193 77.1541C232.041 77.761 231.283 78.3679 230.827 78.6714C230.221 79.2783 229.462 79.8853 229.007 80.6439C228.855 80.7956 228.855 81.0991 228.703 81.2508C227.793 82.1612 226.579 83.0716 225.517 83.982C223.848 85.3476 219.903 87.6235 217.779 87.1683C217.02 86.5614 215.503 86.1062 214.592 85.1958ZM226.579 71.6918L226.276 71.2366C224.758 71.3883 220.965 75.9402 220.358 77.3058C222.331 76.8506 226.124 73.816 226.579 71.6918Z" fill="white"/>
<path d="M257.532 86.5627C257.684 84.742 256.925 83.3764 257.38 81.2522C257.532 80.4935 257.836 79.4314 257.987 78.521C257.987 78.2175 258.139 77.9141 258.139 77.4589C256.622 77.7623 254.953 77.6106 253.435 77.7623C252.373 79.1279 251.159 80.19 250.249 81.5556L248.732 83.9833C248.277 84.2868 248.125 84.742 247.67 84.8937H247.366L246.608 85.1972C246.304 85.1972 246.304 84.8937 246.152 84.742V84.5902C246.304 84.135 246.456 83.5281 246.608 83.0729C247.063 82.7695 247.67 81.7074 247.821 81.2522L248.277 80.9487C249.035 79.2797 250.097 77.4589 251.311 75.9416H250.856C250.553 75.7898 250.553 75.4864 250.553 75.1829C250.704 74.4243 252.373 73.2104 252.98 72.7552C253.891 70.7827 255.408 69.1137 256.167 68.2033C257.229 66.686 259.353 63.3479 259.505 63.1962L259.656 62.8927L260.263 62.741C261.781 63.8031 264.057 65.1687 263.753 67.2929C263.601 67.7481 263.45 68.2033 263.298 68.6585C263.146 69.5689 263.601 70.4792 263.45 71.2379L262.994 73.6656C262.994 73.6656 262.994 73.8173 263.146 73.8173C263.298 73.8173 263.45 73.6656 263.601 73.6656H263.753C264.208 73.6656 264.208 73.9691 264.208 74.2725C263.753 74.576 263.298 75.0312 262.843 75.3346C262.691 75.6381 262.691 75.9416 262.691 75.9416C262.388 77.6106 262.388 79.1279 262.236 80.4935C262.084 82.6177 261.477 84.742 261.022 86.8662C261.174 87.1697 261.174 87.7766 261.022 88.0801C260.719 89.2939 259.96 89.4456 259.353 89.2939C258.291 88.9904 257.836 87.3214 257.532 86.5627ZM258.443 75.4864C258.443 74.8795 258.594 74.4243 258.746 73.6656C258.898 72.6035 259.353 71.3896 259.505 70.3275C259.656 69.5689 259.808 68.9619 259.656 68.355C259.353 68.6585 258.898 68.8102 258.594 68.8102L258.139 69.1137C257.836 69.2654 254.801 75.1829 254.498 75.9416C255.863 75.9416 257.229 75.6381 258.443 75.4864Z" fill="white"/>
<path d="M117.94 160L117.636 158.786C120.064 158.179 120.519 157.269 120.064 154.386L112.477 113.418C111.87 109.928 110.353 109.322 107.318 110.08L107.015 108.866L130.23 103.101L130.533 104.314C126.588 105.377 126.436 106.287 127.499 109.625L139.789 149.075C140.699 151.958 141.458 152.565 143.886 151.958L147.224 151.048C154.658 149.227 157.39 141.64 155.265 132.688L156.631 132.385L161.638 149.227L117.94 160Z" fill="#DBA510"/>
<path d="M169.376 148.923L169.224 147.558C171.652 147.406 172.411 146.647 172.411 143.613L172.259 118.577C172.259 115.087 171.045 114.177 168.011 114.48L167.859 113.267L187.736 111.901V112.204C187.129 112.508 186.977 113.873 187.432 117.667L190.619 142.399C190.922 145.434 191.681 146.04 194.26 145.889L194.412 147.254L169.376 148.923ZM179.087 109.625C174.687 109.928 170.894 107.046 170.59 102.645C170.287 98.2452 173.625 94.9071 178.025 94.6036C182.425 94.3002 186.218 97.1831 186.522 101.583C186.825 106.135 183.487 109.322 179.087 109.625Z" fill="#DBA510"/>
<path d="M202.15 148.316L202.302 146.951C204.73 147.103 205.488 146.496 205.944 143.461L209.585 114.632L205.185 114.329L205.337 112.66L209.889 112.963L210.647 107.501C211.709 99.1556 217.323 95.6658 225.82 96.2727C233.71 96.7279 236.29 101.432 236.138 105.225C235.986 107.956 234.166 111.142 230.828 110.839C227.945 110.687 225.517 108.259 225.82 105.377C225.972 102.949 227.945 100.673 230.676 100.825C231.738 100.825 233.104 101.432 233.862 102.645C233.862 100.825 231.283 98.0935 228.4 97.9417C225.972 97.79 224.758 98.8521 224.758 102.645V113.874L229.007 114.177L228.855 115.846L224.607 115.543L224.151 144.675C224.151 147.71 224.607 148.468 227.186 148.62L227.034 149.986L202.15 148.316Z" fill="#DBA510"/>
<path d="M281.202 148.014C276.65 154.993 271.34 158.028 257.987 155.145C244.938 152.262 236.897 146.193 239.476 134.51C242.055 122.675 252.98 116.15 266.181 119.033C278.623 121.764 284.692 131.475 282.568 142.551L257.077 136.937C255.408 144.827 255.56 144.069 255.256 146.193C254.649 151.048 256.622 153.021 261.932 154.235C271.188 156.359 276.802 153.173 280.14 147.407L281.202 148.014ZM267.85 130.109C268.912 124.192 269.367 121.461 265.27 120.55C262.691 119.943 260.87 120.854 259.505 126.316C258.898 128.744 258.291 130.868 257.38 134.965L264.056 136.482C266.029 136.937 266.636 136.786 267.243 133.903L267.85 130.109Z" fill="#DBA510"/>
</svg>
