<svg width="390" height="180" viewBox="0 0 390 180" fill="none" xmlns="http://www.w3.org/2000/svg">
<path d="M140.098 35.8256C140.098 35.4234 140.098 35.0211 140.098 34.6189L139.83 34.3508C139.964 32.2056 140.5 30.0605 140.5 27.9154V26.8428C140.098 25.7702 139.83 24.8317 139.83 23.7591C139.83 23.2229 139.964 22.6866 140.634 22.6866C141.975 22.6866 144.656 24.5636 144.656 26.0384C144.656 26.3065 144.656 26.5746 144.656 26.8428C144.924 27.245 145.058 27.7813 145.327 28.3176C145.327 29.2561 145.327 30.5968 145.058 31.4012C144.79 32.2056 143.584 36.0937 143.584 37.0322C143.584 37.1663 143.584 37.4344 143.852 37.4344C144.79 37.4344 146.801 33.8145 147.204 33.0101C147.338 32.3397 147.338 31.6694 147.338 30.999V30.8649C147.74 29.5242 148.41 27.6472 150.019 27.6472C151.628 27.6472 152.164 29.122 152.164 30.4627C152.164 30.8649 152.164 31.2671 152.03 31.5353C152.7 32.7419 152.566 33.0101 152.835 33.6804C152.7 34.753 152.03 35.9596 152.03 37.0322L152.164 37.1663V37.7026C152.164 37.8366 152.164 38.1048 152.164 38.3729C152.164 38.6411 152.03 38.9092 152.03 39.1774C152.03 39.4455 152.164 39.7136 152.432 39.7136C153.907 39.7136 155.114 36.63 155.382 35.4234C156.186 31.9375 157.259 28.1835 157.259 24.6976C157.259 20.8096 154.309 21.0777 154.175 19.6029C153.773 19.4689 152.969 19.4689 152.969 18.9326C152.969 18.3963 153.639 18.2622 154.041 18.2622C154.443 18.2622 154.846 18.3963 155.248 18.5303C158.734 19.2007 161.013 21.7481 161.281 25.2339C161.281 25.368 161.415 25.368 161.415 25.5021L161.281 25.7702C161.013 29.3901 156.723 41.3225 152.7 41.3225C150.019 41.3225 148.008 37.9707 147.606 35.5574C147.338 35.6915 146.265 37.8366 146.265 38.1048C146.265 38.507 146.399 38.9092 146.399 39.3114C146.399 40.2499 143.718 41.4566 142.779 41.4566C140.366 41.0544 140.098 37.7026 140.098 35.8256Z" fill="white"/>
<path d="M161.817 42.6636C161.817 42.1273 161.951 41.591 162.085 41.0547C161.951 40.5184 161.951 39.9821 161.817 39.4458C161.951 38.6414 162.487 36.8985 162.487 36.2281C162.487 32.3401 164.767 29.1223 164.901 25.3683C165.571 23.7595 165.973 22.1506 166.51 20.5418C166.644 20.0055 166.778 19.3351 167.046 18.9329L168.655 15.8493C168.923 15.313 169.996 11.9612 170.398 11.9612C171.873 11.9612 172.677 13.57 172.945 14.7767V14.9108C173.079 14.9108 173.079 14.7767 173.213 14.6426L173.615 14.3745C173.75 14.3745 173.75 14.5085 173.75 14.5085V14.6426C174.018 15.0448 174.554 15.9833 174.554 16.3855C174.554 17.4581 172.007 23.0891 171.202 24.0276C170.398 26.0387 168.521 30.0608 168.118 31.9378C169.191 30.8653 170.264 29.5246 171.47 28.7201C171.738 28.5861 172.141 28.1838 172.409 28.1838C173.615 27.5135 174.42 27.1113 175.895 27.1113C177.638 27.1113 178.844 28.5861 178.844 30.329C178.844 30.9993 178.576 31.6697 178.442 32.3401C178.442 32.7423 178.576 33.1445 178.576 33.5467L177.235 36.4963C177.369 37.3007 177.235 38.2392 176.699 38.9096C176.297 39.4458 175.492 41.1888 175.492 41.8591C175.492 42.2613 175.627 42.3954 176.029 42.3954C179.783 42.3954 185.012 29.9268 186.754 29.9268C187.023 29.9268 187.157 30.0608 187.157 30.329C187.157 30.8653 186.889 31.1334 186.62 31.5356C185.28 33.8148 184.073 36.3622 182.464 38.5073C181.526 39.5799 178.442 43.6021 177.101 43.6021C176.565 43.6021 174.554 43.3339 174.152 43.0658C172.677 42.7976 171.604 40.3843 171.604 39.0436C171.604 37.4348 172.007 35.96 172.007 34.4852C172.275 33.6808 173.615 30.5971 173.615 29.3905C173.615 29.3905 173.615 29.2564 173.481 29.2564C172.677 29.7927 170.264 31.8038 170.264 32.6082C169.593 33.6808 169.057 34.7533 168.387 35.6918C168.521 36.4963 168.521 37.5688 168.655 38.3733C167.984 39.3118 167.448 40.2503 166.644 41.0547C166.51 41.591 166.376 42.5295 165.839 42.5295C165.571 42.7976 164.23 44.8087 164.096 44.8087C162.756 44.6746 161.817 43.468 161.817 42.6636ZM169.593 33.1445C169.593 33.2786 169.593 33.2786 169.593 33.1445V33.1445Z" fill="white"/>
<path d="M192.922 39.7135C192.654 38.775 192.654 37.7024 192.52 36.6298C192.52 36.4958 192.654 36.3617 192.654 36.2276L191.983 37.032C191.715 37.7024 190.106 40.786 189.168 40.9201C188.766 41.1883 188.095 41.8586 187.559 41.8586C184.877 41.8586 182.33 40.1157 182.33 37.1661C182.33 33.5462 185.95 26.9767 189.436 25.3678C190.374 24.6975 192.251 24.0271 193.458 24.0271C194.397 24.0271 197.212 25.77 197.212 26.8426C197.212 27.1107 196.944 27.3789 196.676 27.513C193.994 26.9767 190.643 29.7922 189.704 32.0714L188.766 34.3506C188.497 34.8869 187.559 36.7639 187.559 37.3002C187.425 37.5683 187.291 37.9705 187.291 38.1046C187.425 38.775 187.291 40.1157 188.229 40.1157C188.9 40.1157 189.57 39.4453 189.972 39.0431C190.911 37.9705 193.324 32.8758 193.86 31.401C193.994 30.7307 194.531 30.3285 194.665 29.7922C194.665 29.1218 196.676 29.1218 197.078 29.1218C197.748 29.1218 198.285 29.2559 198.821 29.7922C198.821 29.7922 198.821 29.9262 198.821 30.0603C199.089 30.3285 199.357 30.4625 199.357 30.8647C199.357 31.267 198.687 32.6077 198.553 33.144C198.419 33.9484 198.151 34.4847 198.151 35.2891C198.151 35.9595 197.882 36.4958 197.748 37.032C197.48 37.5683 196.542 40.652 196.542 40.652C196.542 40.9201 197.078 40.9201 197.212 40.9201C200.028 40.9201 203.916 30.4625 205.256 30.4625C205.524 30.4625 205.659 30.7307 205.659 30.8647C205.659 30.9988 205.659 31.1329 205.659 31.401C205.659 31.6692 200.832 39.0431 200.296 39.8475C199.491 41.1883 197.614 42.7971 196.005 42.7971C194.665 42.529 193.324 40.9201 192.922 39.7135Z" fill="white"/>
<path d="M203.648 38.775C202.843 37.9705 201.234 36.7639 201.234 35.4232C201.234 33.278 202.173 30.1944 202.843 28.1833C202.843 27.3789 203.111 26.1722 203.379 25.5019C203.916 23.7589 204.05 21.8819 204.452 20.0049L202.173 19.8709C200.966 19.7368 194.933 18.7983 194.933 16.9213C194.933 16.7872 195.067 16.5191 195.201 16.5191L195.335 16.385L195.603 16.5191L196.274 16.385C199.089 17.5917 202.039 17.5917 205.122 17.8598L206.195 15.0443C206.329 14.3739 206.731 13.9717 206.865 13.3014C206.999 12.3629 207.133 11.2903 207.267 10.3518C207.267 9.8155 207.402 7 208.34 7C209.815 7 211.558 9.14514 211.558 10.4859C211.558 11.1562 211.826 12.8991 212.362 13.3014C212.362 13.7036 211.156 17.8598 211.021 18.5302L214.507 18.6642C214.775 18.6642 215.044 18.6642 215.312 18.6642C216.921 18.7983 222.418 20.139 222.418 22.4182C222.418 22.8204 222.283 22.9545 221.881 22.9545H221.211C220.675 20.6753 211.96 20.4072 210.485 20.4072C210.083 22.2842 209.949 24.2952 209.413 26.1722L209.547 27.1107C208.742 29.2559 206.597 34.7528 206.597 37.1661C206.597 37.5683 206.597 38.1046 206.865 38.2387C208.742 37.4342 212.63 32.3395 213.569 30.4625C213.837 29.9262 215.58 26.5744 215.982 26.5744C216.25 26.5744 216.384 26.8426 216.384 27.1107C216.384 27.2448 216.384 27.2448 216.384 27.3789C217.055 28.9877 209.01 40.2497 206.195 40.2497C204.854 40.3838 204.05 39.8475 203.648 38.775Z" fill="white"/>
<path d="M227.244 37.434C227.244 36.6296 227.244 35.8252 227.244 35.0207C227.244 34.3504 227.11 33.68 227.11 32.8756C227.11 32.0712 227.244 31.4008 227.244 30.7305C227.244 29.5238 227.11 28.4512 227.11 27.2446L226.574 26.3061L226.44 25.9039C227.646 24.4291 227.378 23.4906 229.255 23.4906C231.132 23.4906 232.205 24.9654 232.205 26.7083C232.205 26.8424 232.205 27.1105 232.205 27.2446C232.607 27.3787 232.741 27.7809 232.741 28.1831C232.741 29.1216 232.473 30.1942 232.473 31.2667C232.473 32.4734 232.607 33.68 232.607 34.8867V37.8362C232.741 38.1044 233.009 38.3725 233.277 38.5066C234.618 37.434 235.959 36.0933 237.031 34.6185C237.031 33.9482 236.897 33.4119 236.897 32.7415C236.897 30.5964 237.97 26.8424 240.651 26.8424C241.188 26.8424 241.59 26.9764 242.126 27.2446C242.662 27.2446 242.662 27.7809 242.662 28.1831C242.662 29.1216 242.394 30.1942 242.394 31.2667C242.394 33.546 242.26 35.6911 242.26 37.9703C242.26 38.1044 242.528 38.6407 242.662 38.6407C245.746 36.4955 249.098 28.7194 249.232 25.0994C249.366 24.6972 249.5 23.0884 249.5 22.5521C249.5 22.1499 249.232 20.541 249.768 20.541C250.17 20.541 250.975 21.7477 251.109 22.0158C250.841 23.2224 251.913 24.1609 251.913 25.0994C251.913 28.3172 247.891 34.3504 246.148 37.0318C246.148 37.1659 246.148 37.434 246.148 37.7022C245.746 37.8362 245.344 38.1044 245.076 38.2385C244.673 38.5066 242.528 40.3836 242.528 40.7858C242.528 40.7858 242.528 40.7858 242.528 40.9199C241.992 41.188 241.59 41.5902 240.919 41.5902C239.042 41.5902 237.165 39.311 237.031 37.5681C234.35 39.311 232.339 40.7858 232.741 41.054C232.205 41.3221 231.668 41.7243 230.998 41.7243C229.523 41.7243 227.244 39.177 227.244 37.434Z" fill="white"/>
<path d="M252.181 42.9315C250.975 42.3952 250.304 41.1886 250.036 39.8479C249.768 39.5797 249.634 39.1775 249.634 38.7753L249.5 38.6412V38.3731C249.5 37.1664 250.17 33.4124 250.841 32.4739C250.975 32.2058 251.243 31.9376 251.377 31.6695C252.047 30.3288 254.058 27.6473 255.667 27.3792C255.667 27.2451 255.533 26.977 255.667 26.8429C256.338 26.0385 257.544 25.5022 258.617 25.5022C258.751 25.5022 258.885 25.5022 259.019 25.6363C260.896 25.2341 263.309 27.1111 263.309 29.1221C263.309 32.7421 258.081 37.3005 255.131 38.7753C254.863 39.0434 254.595 39.4456 254.595 39.8479C254.595 41.1886 254.863 41.8589 256.338 41.8589C258.483 41.8589 262.371 38.7753 263.578 37.1664C263.98 36.6301 264.382 36.0938 264.65 35.4235C265.32 34.485 267.332 31.8036 267.332 30.731V30.5969C267.466 30.5969 267.6 30.4628 267.734 30.4628C268.136 30.4628 268.404 30.731 268.404 31.1332C268.404 31.5354 266.125 35.0213 265.723 35.4235C265.589 35.8257 265.32 36.0938 265.186 36.362C264.382 37.5686 261.701 40.9204 260.762 41.5908C259.287 42.5293 257.544 43.87 255.667 43.87C254.863 43.7359 253.254 43.6019 252.181 42.9315ZM261.835 29.7925L261.432 29.3903C260.36 29.7925 259.824 30.9991 258.885 31.5354C257.812 33.2783 256.338 35.0213 255.533 37.0323C257.812 35.9598 261.566 32.4739 261.835 29.7925Z" fill="white"/>
<path d="M118.646 34.3504L118.378 34.0822C118.244 33.8141 118.11 33.68 117.842 33.5459L117.306 33.1437C117.44 33.0096 117.574 32.8756 117.842 32.7415C117.976 32.6074 117.976 32.6074 118.11 32.4734C118.244 32.3393 118.244 32.3393 118.378 32.2052C118.512 31.9371 118.646 31.5349 118.646 31.1326C118.646 30.5964 118.378 30.1941 118.11 29.6579C117.976 29.3897 117.842 29.2556 117.574 29.1216L117.44 28.9875C117.44 28.9875 117.306 28.8534 117.172 28.8534C116.769 28.5853 116.233 28.4512 115.831 28.4512H115.697C115.563 28.4512 115.429 28.4512 115.429 28.4512C115.026 28.3171 114.624 28.3171 114.356 28.3171C114.222 28.3171 114.088 28.3171 113.954 28.3171H112.747C112.613 28.3171 112.613 28.3171 112.479 28.4512H111.675C111.541 28.4512 111.407 28.4512 111.272 28.4512C111.138 28.4512 110.87 28.5853 110.736 28.8534C110.602 28.9875 110.602 29.2556 110.602 29.5238C110.602 29.6579 110.602 29.926 110.602 30.1941C110.602 30.4623 110.602 30.7304 110.602 30.9986C110.602 31.1326 110.602 31.2667 110.602 31.4008V31.9371C110.602 32.0711 110.602 32.0711 110.602 32.2052C110.602 32.3393 110.602 32.3393 110.602 32.4734C110.602 33.1437 110.602 33.68 110.468 34.3504C110.468 34.4844 110.468 34.6185 110.468 34.7526C110.468 34.8866 110.468 35.0207 110.468 35.1548V35.2889C110.468 35.557 110.468 35.6911 110.334 35.9592C110.334 36.2274 110.334 36.4955 110.334 36.7636V36.8977V37.7021C110.334 37.9703 110.468 38.1044 110.602 38.2384C110.736 38.2384 110.736 38.3725 110.87 38.3725C111.004 38.5066 111.272 38.5066 111.541 38.5066H111.675C111.943 38.5066 112.345 38.5066 112.613 38.5066C112.747 38.5066 112.881 38.5066 113.149 38.5066C113.284 38.5066 113.418 38.5066 113.552 38.5066H113.686C113.82 38.5066 114.088 38.5066 114.222 38.5066C114.356 38.5066 114.49 38.5066 114.49 38.5066C115.026 38.5066 115.563 38.3725 116.099 38.3725C116.367 38.3725 116.635 38.2384 116.769 38.1044C117.038 37.8362 117.306 37.7021 117.574 37.434C117.708 37.2999 117.842 37.2999 117.842 37.1659C117.976 37.0318 118.11 36.8977 118.244 36.7636C118.378 36.4955 118.512 36.2274 118.512 35.9592C118.512 35.8251 118.512 35.557 118.512 35.4229C118.915 35.1548 118.78 34.7526 118.646 34.3504ZM115.161 32.3393C114.892 32.3393 114.624 32.4734 114.356 32.3393C114.088 32.3393 113.954 32.3393 113.686 32.3393C113.552 32.3393 113.418 32.3393 113.284 32.3393C112.881 32.3393 112.613 32.3393 112.211 32.3393H112.077C112.077 32.2052 112.077 32.2052 112.077 32.2052C112.077 32.0711 112.077 31.9371 112.077 31.803V30.5964C112.077 30.3282 112.077 30.1941 111.943 29.926C111.943 29.926 111.943 29.926 112.077 29.926C112.211 29.926 112.479 29.926 112.613 29.926H113.015C113.284 29.926 113.552 29.926 113.954 29.926C114.088 29.926 114.088 29.926 114.222 29.926C114.222 29.926 114.222 29.926 114.356 29.926C114.624 29.926 114.892 29.926 115.161 29.926C115.295 29.926 115.429 29.926 115.429 29.926C115.831 29.926 116.233 30.0601 116.635 30.1941C116.769 30.1941 116.903 30.3282 117.172 30.5964C117.172 30.5964 117.172 30.5964 117.172 30.7304V30.8645C117.306 30.9986 117.306 31.1326 117.038 31.4008C117.038 31.5349 116.903 31.5349 116.769 31.6689C116.635 31.803 116.367 31.9371 116.099 32.0711C115.965 32.2052 115.563 32.3393 115.161 32.3393ZM111.943 34.7526C111.943 34.6185 111.943 34.3504 112.077 34.2163C112.345 34.2163 112.613 34.2163 112.747 34.2163C112.881 34.2163 113.149 34.2163 113.284 34.2163C113.552 34.2163 113.82 34.3504 114.088 34.2163C114.088 34.2163 114.222 34.2163 114.356 34.2163H114.49C114.624 34.2163 114.758 34.2163 114.892 34.2163C115.161 34.2163 115.429 34.2163 115.697 34.3504H115.831C116.501 34.4844 117.172 34.7526 117.574 35.2889L117.708 35.557V35.6911C117.574 35.8251 117.44 35.9592 117.172 36.2274C116.903 36.3614 116.635 36.4955 116.367 36.6296L115.965 36.7636C115.831 36.7636 115.697 36.7636 115.563 36.7636C115.429 36.7636 115.295 36.7636 115.295 36.7636C114.892 36.7636 114.624 36.7636 114.356 36.7636C114.222 36.7636 113.954 36.7636 113.82 36.7636C113.686 36.7636 113.552 36.7636 113.418 36.7636C113.418 36.7636 113.418 36.7636 113.284 36.7636C113.015 36.7636 112.747 36.7636 112.479 36.7636H112.345C112.211 36.7636 112.211 36.7636 111.943 36.7636C111.943 36.7636 111.943 36.7636 111.943 36.6296C111.943 36.3614 111.943 36.0933 111.943 35.9592V35.8251V35.6911V34.7526C112.077 34.8866 112.077 34.7526 111.943 34.7526Z" fill="white"/>
<path d="M128.701 26.4402C128.567 26.3061 128.299 26.3061 128.031 26.4402L127.897 26.5742C127.495 27.1105 126.959 27.6468 126.556 28.1831C126.422 28.3172 126.422 28.4512 126.288 28.5853L125.484 29.3897C124.947 29.926 124.545 30.4623 124.009 30.9986C123.741 30.5964 123.339 30.1942 122.936 29.7919L121.73 28.4512L121.596 28.3172C121.193 27.6468 120.657 27.1105 120.255 26.5742L120.121 26.4402C119.987 26.3061 119.719 26.3061 119.585 26.4402C119.316 26.5742 119.182 26.7083 119.182 26.8424C119.182 26.9764 119.182 27.2446 119.182 27.3787C119.182 27.5127 119.316 27.5127 119.316 27.6468C119.451 27.9149 119.719 28.049 119.853 28.3172C120.121 28.8534 120.523 29.3897 120.925 29.7919C121.059 29.926 121.193 30.1942 121.462 30.3282C121.596 30.5964 121.73 30.7304 121.998 30.8645C122.132 31.1327 122.266 31.2667 122.4 31.4008C122.4 31.5349 122.534 31.5349 122.534 31.6689C122.534 31.803 122.668 31.803 122.668 31.9371C122.802 32.0712 122.936 32.2052 122.936 32.3393V32.4734C122.936 32.6074 122.936 32.7415 122.936 32.7415C122.936 32.8756 122.936 33.0097 122.936 33.1437C122.936 33.1437 122.936 33.2778 122.936 33.4119C122.936 33.68 122.936 33.9482 122.936 34.2163C122.936 34.3504 122.936 34.6185 122.936 34.7526C122.936 34.8867 122.936 35.1548 122.936 35.2889C122.936 35.4229 123.07 35.6911 123.339 35.8252C123.473 35.8252 123.607 35.9592 123.741 35.9592C123.875 35.9592 124.009 35.9592 124.009 35.9592C124.143 35.9592 124.277 35.9592 124.277 35.8252C124.545 35.6911 124.679 35.557 124.679 35.2889V34.0822C124.679 33.8141 124.679 33.5459 124.679 33.4119C124.679 33.2778 124.679 33.0097 124.679 32.7415V32.6074C124.679 32.4734 124.679 32.4734 124.679 32.3393C124.813 32.2052 124.947 31.9371 124.947 31.803L125.35 31.2667C125.484 31.1327 125.484 31.1327 125.484 30.9986C125.618 30.7304 125.752 30.5964 125.886 30.4623C126.02 30.3282 126.154 30.1942 126.154 30.0601C126.288 29.926 126.422 29.7919 126.556 29.6579C126.959 29.2557 127.227 28.8534 127.629 28.3172C127.629 28.1831 127.763 28.1831 127.763 28.049C127.897 27.7809 128.031 27.6468 128.299 27.3787C128.433 27.2446 128.433 27.1105 128.433 27.1105C129.104 26.8424 128.836 26.5742 128.701 26.4402Z" fill="white"/>
<path d="M107.518 28.5856C108.725 27.1109 110.334 25.9042 112.211 25.3679C113.149 25.0998 114.222 24.9657 115.16 24.9657C116.233 24.9657 117.305 24.9657 118.378 24.6976C119.719 24.4294 120.657 23.4909 121.462 22.6865C122.132 22.0161 121.059 20.8095 120.389 21.6139C119.585 22.4184 118.914 23.0887 117.842 23.3569C116.769 23.625 115.697 23.4909 114.624 23.625C112.479 23.7591 110.468 24.2954 108.725 25.6361C107.652 26.3064 106.848 27.1109 106.177 28.1834C105.909 28.4516 106.177 28.9879 106.446 29.256C106.982 29.1219 107.384 28.8538 107.518 28.5856Z" fill="white"/>
<path d="M128.701 36.3619C127.495 37.8367 127.093 37.5686 125.082 38.2389C124.009 38.5071 121.596 38.7752 120.523 38.7752C119.316 38.9093 118.11 40.25 116.903 40.5182C115.562 40.9204 114.49 41.7248 113.551 42.5292C112.881 43.1996 114.088 44.1381 114.758 43.4677C115.562 42.6633 116.367 41.993 117.439 41.7248C118.646 41.4567 120.523 39.8478 121.73 39.7137C124.009 39.5797 125.618 39.8478 127.495 38.6412C128.567 37.9708 129.372 37.8367 130.176 36.8982C130.444 36.6301 130.176 36.0938 129.908 35.9597C129.372 35.8257 128.97 36.0938 128.701 36.3619Z" fill="white"/>
<path d="M150.153 121.363L148.41 117.207C146.935 113.721 146.533 112.917 145.326 112.917C141.17 112.917 140.098 124.179 113.686 124.179C92.3682 124.179 76.95 117.073 76.95 92.538C76.95 68.271 92.1 52.8528 117.037 52.8528C123.741 52.8528 133.662 53.9254 141.036 59.2882L143.852 54.3276H145.058C145.326 62.5059 145.729 70.5502 146.399 78.7286H144.522C142.913 66.5281 135.539 55.132 116.903 55.132C105.105 55.132 104.703 59.9586 104.703 91.1973C104.703 113.185 104.837 121.9 115.026 121.9C120.389 121.9 124.813 119.352 125.35 109.833L126.288 95.2194C126.556 90.9291 124.813 89.7225 120.791 89.7225V88.1136H155.516V89.7225C149.751 89.7225 149.751 91.4654 150.019 94.6831L151.628 121.363H150.153Z" fill="#E3746D"/>
<path d="M154.443 123.106V121.363C157.795 121.363 158.734 120.424 159.002 116.402L162.354 61.1645C162.622 56.472 161.013 55.2653 156.723 55.2653V53.6565H188.498V55.2653C183.001 55.2653 182.598 56.6061 182.867 61.1645L186.084 116.268C186.352 120.29 187.157 121.229 190.509 121.229V122.971H154.443V123.106Z" fill="#E3746D"/>
<path d="M211.156 123.106L193.056 61.5667C191.715 57.0083 190.509 55.2653 186.084 55.2653V53.6565H218.932V55.2653C213.703 55.2653 211.96 56.3379 213.837 60.3601L232.741 102.861L244.137 61.8349C245.612 56.6061 244.137 55.2653 239.579 55.2653V53.6565H254.193V55.2653C249.366 55.2653 248.159 56.0698 246.685 61.8349L230.596 123.106H211.156Z" fill="#E3746D"/>
<path d="M250.841 123.106V121.363C254.192 121.363 255.131 120.424 255.399 116.402L258.751 61.1645C259.019 56.472 257.41 55.2653 253.12 55.2653V53.6565H309.832L311.307 76.1805L309.296 76.3146C308.894 61.9689 301.52 55.9357 291.062 55.9357H284.895C279.398 55.9357 278.996 57.1424 279.264 61.7008L280.604 85.4314H288.112C292.135 85.4314 296.827 83.2863 296.827 73.6332C296.827 72.2924 296.693 70.5495 296.693 70.5495H298.57C298.704 81.0071 299.24 91.4647 299.643 101.922H297.766C297.632 99.9112 297.632 98.0342 297.363 96.1572C296.559 90.9284 294.414 87.7107 288.247 87.7107H281.007L282.616 116.134C282.75 120.156 283.688 120.96 287.174 120.96H293.878C304.067 120.96 309.966 111.978 310.1 99.9112H311.977L313.05 123.24H250.841V123.106Z" fill="#E3746D"/>
<path d="M113.552 160.646C134.199 153.406 155.784 149.518 177.504 147.238C199.223 144.959 222.15 144.423 244.406 144.021C256.338 143.753 268.136 143.619 280.069 143.216C284.359 143.082 284.359 136.379 280.069 136.513C258.349 137.183 236.629 137.183 214.91 137.988C192.386 138.792 169.728 140.535 147.472 144.691C135.405 146.97 123.339 149.92 111.675 154.076C109.932 154.612 108.859 156.355 109.261 158.232C109.798 159.975 111.809 161.316 113.552 160.646Z" fill="#E3746D"/>
<path d="M191.179 159.305C191.179 159.439 191.179 159.439 191.179 159.305C190.106 159.439 189.034 159.573 187.961 159.573C187.157 159.708 186.487 159.708 185.682 159.842C185.28 159.842 185.146 159.842 185.012 159.439C186.084 159.305 187.023 159.305 188.095 159.171C189.034 159.037 189.972 159.037 191.045 158.903C191.045 159.037 191.179 159.171 191.179 159.305Z" fill="white"/>
<path d="M197.748 156.088L198.016 158.903C198.016 159.44 198.151 159.976 198.285 160.512C198.285 160.78 198.419 161.048 198.419 161.317C198.419 161.585 198.553 161.987 198.285 162.121C198.151 162.121 198.016 162.121 197.882 161.987C197.882 161.719 197.882 161.317 197.882 161.048C197.882 160.244 197.614 159.44 197.48 158.501C197.48 158.367 197.48 158.233 197.346 158.099C196.944 157.831 196.542 157.428 196.274 157.026C195.469 156.222 194.531 155.551 193.86 154.613C193.86 154.881 193.86 155.283 193.86 155.551C193.994 157.026 194.128 158.501 194.262 159.976C194.397 160.914 194.531 161.451 194.531 161.719C194.531 161.987 194.531 162.121 194.262 162.255C194.128 162.255 194.128 162.255 194.128 162.121C194.128 161.987 194.128 161.719 194.128 161.451C194.128 160.914 193.994 160.244 193.994 159.708C193.86 158.635 193.726 157.563 193.726 156.49C193.592 155.551 193.592 154.479 193.458 153.54H193.592C193.726 153.54 193.994 153.674 194.128 153.809C194.262 153.943 194.262 154.077 194.262 154.077C194.531 154.345 194.933 155.015 195.201 155.149C196.005 155.686 196.944 156.758 197.748 157.428L197.346 153.54C197.346 153.272 197.48 153.138 197.614 153.138C197.748 153.138 197.748 153.272 197.882 153.272C197.48 153.809 197.614 155.686 197.748 156.088Z" fill="white"/>
<path d="M205.257 153.004C205.793 153.138 206.329 153.541 206.597 154.077C207.268 155.418 207.268 156.356 207.402 157.831C207.536 159.038 206.999 160.378 206.061 161.183C205.391 161.585 204.988 161.853 204.184 161.987C201.503 162.121 200.43 159.842 200.296 157.563C200.296 156.49 200.564 154.881 201.1 154.077C201.637 153.272 202.709 153.004 203.514 152.87C204.05 152.736 204.72 152.87 205.257 153.004ZM201.1 159.306C201.234 159.976 201.637 160.378 202.173 160.78C202.441 161.049 202.709 161.183 203.111 161.183C203.38 161.183 203.648 161.183 204.05 161.183C204.988 161.183 205.391 160.915 206.061 160.244C206.865 159.44 206.865 157.965 206.865 156.892C206.865 156.222 206.731 155.552 206.463 155.015C206.195 154.211 205.793 153.541 204.988 153.272C204.586 153.138 204.184 153.138 203.782 153.138C202.307 153.272 201.234 154.077 200.966 155.552C200.966 155.954 200.832 157.026 200.832 157.429C200.832 158.233 200.966 158.769 201.1 159.306Z" fill="white"/>
<path d="M212.63 153.139C213.166 153.675 213.301 154.345 213.301 155.016C213.301 155.418 213.301 155.82 213.301 156.222C213.301 156.759 212.898 157.563 212.362 157.831C212.362 157.831 212.228 157.831 212.228 157.965C212.496 158.636 213.971 160.781 213.971 161.183C213.971 161.317 213.971 161.451 213.703 161.451C213.569 161.451 213.569 161.451 213.435 161.451C212.898 160.244 212.094 159.306 211.558 158.099C211.289 158.233 210.485 158.099 210.083 158.099L210.217 159.976C210.217 160.378 210.351 160.781 210.351 161.049C210.351 161.183 210.351 161.451 210.217 161.585C210.083 161.585 209.815 161.585 209.815 161.451C209.815 161.317 209.681 159.976 209.681 159.708C209.681 159.306 209.547 158.77 209.547 158.367C209.547 158.233 209.547 157.965 209.412 157.831V156.893C209.412 155.954 209.412 155.016 209.278 154.077C209.278 153.809 209.278 153.541 209.144 153.273C209.144 153.139 209.278 152.87 209.412 152.87C209.815 152.87 211.826 152.736 211.96 153.005C212.362 152.87 212.496 153.005 212.63 153.139ZM210.083 156.49C210.083 156.759 210.083 157.027 210.217 157.429C210.485 157.429 210.753 157.429 211.021 157.429H211.289C212.496 157.429 212.898 156.893 212.764 155.686C212.764 154.882 212.764 153.541 211.692 153.273C211.558 153.273 211.289 153.139 211.155 153.139C210.887 153.139 210.485 153.139 210.217 153.139C210.083 153.139 209.949 153.139 209.815 153.273C209.815 153.809 209.815 154.479 209.949 155.016C210.083 155.418 210.083 155.954 210.083 156.49Z" fill="white"/>
<path d="M220.809 153.808C220.809 154.345 220.809 154.881 220.809 155.417C220.809 155.953 220.943 156.624 220.943 157.16V158.769C220.943 159.976 221.077 160.378 221.077 160.512C221.077 160.646 221.077 160.78 220.943 160.78C220.809 160.78 220.675 160.78 220.541 160.646C220.541 160.646 220.272 158.099 220.272 157.965L220.138 156.222C220.138 155.953 220.138 155.551 220.138 155.283C220.138 154.613 220.138 153.942 220.138 153.272C219.87 153.808 219.736 154.345 219.468 155.015C219.2 155.685 219.066 156.758 218.529 157.16C218.127 157.026 217.993 156.624 217.859 156.356C217.725 156.088 217.457 155.819 217.323 155.551C217.189 155.149 217.055 154.881 216.787 154.479C216.652 154.076 216.384 153.674 216.116 153.272C216.25 154.881 216.384 156.49 216.384 158.233C216.384 158.903 216.384 159.573 216.384 160.244C216.384 160.512 216.518 160.78 216.518 161.048C216.518 161.182 216.384 161.316 216.25 161.316C216.116 161.316 216.116 161.316 215.982 161.182C215.982 161.048 215.848 160.244 215.848 160.11C215.848 159.439 215.848 158.903 215.848 158.233L215.714 155.953C215.714 155.685 215.714 155.283 215.714 155.015C215.714 154.613 215.58 154.345 215.58 153.942C215.58 153.808 215.446 153.54 215.446 153.406C215.446 152.602 215.446 152.87 215.848 152.602H215.982C216.116 152.602 216.384 153.004 216.518 153.138C216.652 153.406 217.189 154.345 217.189 154.479C217.457 155.149 217.859 155.819 218.261 156.49C218.664 155.685 218.798 155.015 219.066 154.211C219.2 153.808 219.334 153.54 219.468 153.138C219.602 153.004 219.736 152.736 219.736 152.468C219.736 152.334 219.736 152.199 219.87 152.199C220.004 152.199 220.138 152.199 220.272 152.334C220.809 152.736 220.809 153.272 220.809 153.808Z" fill="white"/>
<path d="M223.892 155.82C223.892 155.418 224.026 155.016 224.16 154.614C224.295 153.943 224.429 152.737 224.831 152.066C224.831 151.932 224.965 151.932 225.099 151.932C225.635 151.932 226.037 153.541 226.172 153.943C226.44 154.748 226.574 155.686 226.842 156.491C226.976 156.893 226.976 157.429 227.11 157.831L227.914 160.379C227.914 160.513 227.78 160.513 227.646 160.647L227.512 160.513C227.11 159.44 226.842 158.368 226.44 157.295C225.903 157.295 225.367 157.295 224.697 157.295C224.563 157.295 224.429 157.295 224.16 157.295C224.026 158.368 223.758 159.44 223.624 160.513C223.624 160.647 223.49 160.781 223.356 160.781C223.222 160.781 223.088 160.647 223.088 160.513C223.49 159.038 223.758 157.429 223.892 155.82ZM224.831 156.893C225.367 156.893 225.769 156.893 226.306 156.759C226.037 155.418 225.769 153.809 225.099 152.602C225.099 152.871 224.831 153.407 224.831 153.809C224.563 155.15 224.295 156.625 224.295 156.893C224.429 156.893 224.563 156.893 224.831 156.893Z" fill="white"/>
<path d="M233.948 154.479L234.082 157.295C234.082 157.831 234.082 158.367 234.216 158.904C234.216 159.172 234.35 159.44 234.35 159.708C234.35 159.976 234.35 160.378 234.216 160.378C234.082 160.378 233.948 160.378 233.814 160.244C233.814 159.976 233.814 159.574 233.814 159.306C233.814 158.501 233.545 157.697 233.545 156.758C233.545 156.624 233.545 156.49 233.411 156.356C233.009 155.954 232.741 155.686 232.339 155.284C231.534 154.479 230.73 153.675 230.06 152.736C230.06 153.004 230.06 153.407 230.06 153.675C230.06 155.15 230.194 156.624 230.194 158.099C230.194 159.038 230.328 159.574 230.328 159.842C230.328 160.11 230.194 160.244 229.925 160.244C229.791 160.244 229.791 160.244 229.791 160.11C229.791 159.976 229.791 159.708 229.791 159.44C229.791 158.904 229.791 158.233 229.657 157.697C229.657 156.624 229.523 155.552 229.523 154.479C229.523 153.541 229.523 152.468 229.389 151.53H229.523C229.657 151.53 229.925 151.664 230.06 151.798C230.06 151.932 230.194 152.066 230.194 152.2C230.328 152.468 230.864 153.139 231.132 153.273C231.937 153.943 232.875 155.016 233.545 155.686L233.277 151.798C233.277 151.53 233.411 151.396 233.545 151.53C233.679 151.53 233.679 151.664 233.814 151.664C233.814 152.2 233.948 154.077 233.948 154.479Z" fill="white"/>
<path d="M245.344 153.137C245.344 153.673 245.344 154.21 245.344 154.746C245.344 155.282 245.478 155.953 245.478 156.489V158.098C245.478 159.305 245.612 159.707 245.612 159.841C245.612 159.975 245.612 160.109 245.478 160.109C245.344 160.109 245.21 160.109 245.076 159.975C245.076 159.975 244.941 157.427 244.941 157.293V155.551C244.941 155.282 244.941 154.88 244.941 154.612C244.941 153.942 244.941 153.271 244.941 152.601C244.673 153.137 244.539 153.674 244.271 154.21C244.003 154.88 243.869 155.819 243.333 156.355C242.93 156.221 242.796 155.819 242.662 155.416C242.528 155.148 242.394 154.88 242.126 154.612C241.992 154.21 241.858 153.942 241.59 153.539C241.456 153.137 241.187 152.735 241.053 152.333C241.187 153.942 241.187 155.55 241.187 157.293C241.187 157.964 241.187 158.634 241.187 159.304C241.187 159.573 241.322 159.841 241.322 160.109C241.322 160.243 241.187 160.377 241.053 160.377C240.919 160.377 240.919 160.243 240.785 160.243C240.785 160.109 240.651 159.305 240.651 159.17C240.651 158.5 240.651 157.964 240.651 157.293V155.014C240.651 154.746 240.651 154.344 240.651 154.076C240.651 153.674 240.651 153.405 240.517 153.003C240.517 152.869 240.383 152.601 240.383 152.467C240.383 151.662 240.383 151.931 240.785 151.662H240.919C241.053 151.662 241.322 152.065 241.322 152.199C241.456 152.467 241.992 153.405 241.992 153.539C242.26 154.21 242.662 154.88 242.93 155.685C243.333 154.88 243.601 154.21 243.869 153.405C244.003 153.003 244.137 152.735 244.271 152.333C244.405 152.199 244.539 151.931 244.539 151.662C244.539 151.528 244.539 151.394 244.673 151.394C244.807 151.394 244.941 151.394 245.076 151.528C245.21 152.065 245.344 152.601 245.344 153.137Z" fill="white"/>
<path d="M248.025 156.356C248.025 156.087 248.159 155.685 248.293 155.417C248.427 154.881 248.561 153.942 248.83 153.406C248.83 153.272 248.964 153.272 248.964 153.272C249.366 153.272 249.634 154.613 249.768 154.881C250.036 155.551 250.036 156.222 250.17 156.892C250.304 157.16 250.304 157.562 250.438 157.964L250.975 159.976C250.975 160.11 250.841 160.11 250.841 160.11C250.841 160.11 250.707 160.11 250.707 159.976C250.438 159.171 250.17 158.233 249.902 157.428C249.5 157.428 249.098 157.428 248.561 157.428C248.427 157.428 248.293 157.428 248.159 157.428C248.025 158.233 247.891 159.037 247.757 159.841C247.757 159.976 247.757 160.11 247.489 160.11C247.355 160.11 247.221 159.976 247.221 159.841C247.623 158.769 247.891 157.562 248.025 156.356ZM248.695 157.16C249.098 157.16 249.5 157.16 249.768 157.026C249.5 155.953 249.366 154.747 248.964 153.808C248.964 154.076 248.83 154.479 248.695 154.747C248.427 155.819 248.293 156.892 248.293 157.16C248.427 157.16 248.561 157.16 248.695 157.16Z" fill="white"/>
<path d="M252.316 158.367C252.316 158.099 252.316 157.697 252.316 157.428C252.316 156.892 252.316 156.356 252.182 155.82C252.182 155.283 252.182 154.881 252.182 154.345C252.182 153.674 252.718 153.138 253.388 153.138C253.656 153.138 253.925 153.138 254.059 153.272C254.461 153.406 254.997 154.077 254.997 154.479C254.997 154.613 254.997 154.747 254.863 154.881C254.461 154.881 254.595 153.54 253.522 153.54C253.12 153.54 252.584 153.809 252.584 154.211C252.45 155.015 252.584 156.222 252.584 157.026C252.584 157.563 252.584 158.769 252.852 159.305C252.986 159.708 253.254 159.842 253.656 159.842C254.059 159.842 254.461 159.708 254.729 159.305C254.863 159.171 254.863 158.501 254.997 158.501C255.265 158.501 255.265 158.769 255.265 158.903C255.265 159.708 254.595 160.11 253.79 160.244C252.852 160.11 252.316 159.305 252.316 158.367Z" fill="white"/>
<path d="M257.946 159.975H257.544C257.142 159.975 257.008 159.975 257.008 159.573C257.008 159.036 257.008 158.5 257.008 157.964C257.008 157.159 257.008 156.355 256.874 155.685C256.874 155.014 256.874 154.478 256.874 153.942C256.874 153.271 256.74 152.467 256.74 151.796C256.74 151.528 257.008 151.528 257.276 151.528C257.544 151.528 257.812 151.528 258.08 151.528C258.483 151.528 258.885 151.394 259.421 151.394C259.555 151.394 259.689 151.394 259.823 151.394C259.957 151.394 260.092 151.528 260.226 151.662C260.226 151.796 260.092 151.796 259.957 151.796C259.555 151.796 259.287 151.796 258.885 151.796C258.349 151.796 257.812 151.796 257.276 151.931V155.282C257.812 155.282 258.349 155.282 258.751 155.282C258.885 155.282 259.019 155.416 259.019 155.551C259.019 155.685 259.019 155.819 258.751 155.819C258.215 155.819 257.678 155.819 257.142 155.819C257.142 156.087 257.142 156.221 257.142 156.489C257.142 157.159 257.142 157.83 257.142 158.5C257.142 158.902 257.142 159.305 257.142 159.707C257.41 159.707 257.678 159.707 257.946 159.707C258.349 159.707 258.617 159.707 259.019 159.573C259.287 159.573 259.421 159.573 259.421 159.841V159.975C258.885 159.975 258.349 159.975 257.812 159.975C258.215 159.975 258.08 159.975 257.946 159.975Z" fill="white"/>
<path d="M268.136 159.573C267.868 158.769 267.6 157.965 267.466 157.026C267.332 156.356 267.064 155.685 266.929 155.015L266.259 152.736C265.857 154.345 265.455 156.088 265.187 157.696C265.052 158.099 264.65 159.976 264.248 160.11C263.846 160.11 263.712 159.171 263.578 158.903C262.773 156.624 262.237 154.211 261.835 151.797C261.835 151.663 261.835 151.663 261.835 151.529C261.835 151.395 261.835 151.395 261.969 151.395C262.103 151.395 262.237 151.395 262.237 151.529C262.237 151.529 262.505 152.602 262.505 152.736C262.907 154.211 263.041 155.685 263.578 157.16C263.846 157.831 263.98 158.501 264.248 159.171C264.65 157.965 264.918 156.624 265.187 155.283C265.455 154.345 265.589 153.406 265.857 152.334C265.857 152.065 265.991 151.663 266.259 151.663H266.527C266.661 151.663 266.795 152.334 266.795 152.468C267.064 153.54 267.332 154.479 267.6 155.551C268.002 156.624 268.136 157.831 268.538 158.903C269.209 156.624 269.611 154.211 270.147 151.931C270.147 151.663 270.147 151.395 270.281 151.261C270.415 151.127 270.415 151.127 270.549 151.127C270.683 151.127 270.683 151.127 270.683 151.261C270.683 151.395 270.415 152.468 270.415 152.602C270.281 153.272 270.147 153.942 270.013 154.613C269.879 155.283 269.611 156.088 269.477 156.758C269.343 157.428 269.209 157.965 268.941 158.635V158.769C268.672 159.439 268.672 159.708 268.672 159.708C268.538 159.708 268.538 159.842 268.404 159.842C268.404 159.976 268.136 159.573 268.136 159.573Z" fill="white"/>
<path d="M273.901 159.708H273.499C273.097 159.708 272.963 159.708 272.963 159.305C272.963 158.769 272.963 158.233 272.963 157.696C272.963 156.892 272.829 156.088 272.829 155.417C272.829 154.747 272.829 154.211 272.829 153.674C272.829 153.004 272.695 152.2 272.695 151.529C272.695 151.261 272.963 151.261 273.231 151.261C273.499 151.261 273.767 151.261 274.035 151.261C274.438 151.261 274.84 151.127 275.376 151.127C275.51 151.127 275.644 151.127 275.778 151.127C275.912 151.127 276.046 151.261 276.18 151.395C276.18 151.529 276.046 151.529 275.912 151.529C275.51 151.529 275.242 151.529 274.84 151.529C274.303 151.529 273.767 151.529 273.231 151.663V155.015C273.767 155.015 274.303 155.015 274.706 155.015C274.84 155.015 274.974 155.149 274.974 155.283C274.974 155.417 274.974 155.551 274.706 155.551C274.169 155.551 273.633 155.551 273.097 155.551C273.097 155.819 273.097 155.954 273.097 156.222C273.097 156.892 273.097 157.562 273.097 158.233C273.097 158.635 273.097 159.037 273.097 159.439C273.365 159.439 273.633 159.439 273.901 159.439C274.303 159.439 274.572 159.439 274.974 159.305C275.242 159.305 275.376 159.305 275.376 159.573V159.708C274.84 159.708 274.303 159.708 273.767 159.708C274.169 159.708 274.035 159.708 273.901 159.708Z" fill="white"/>
<path d="M282.616 153.541L282.75 156.356C282.75 156.892 282.75 157.429 282.884 157.965C282.884 158.233 283.018 158.501 283.018 158.769C283.018 159.037 283.018 159.44 282.884 159.44C282.75 159.44 282.616 159.44 282.481 159.306C282.481 159.037 282.481 158.635 282.481 158.367C282.481 157.563 282.213 156.758 282.213 155.82C282.213 155.686 282.213 155.552 282.079 155.418C281.677 155.015 281.409 154.747 281.007 154.345C280.202 153.541 279.398 152.736 278.727 151.798C278.727 152.066 278.727 152.468 278.727 152.736C278.727 154.211 278.862 155.686 278.862 157.16C278.862 158.099 278.996 158.769 278.996 158.903C278.996 159.172 278.862 159.306 278.593 159.306C278.459 159.306 278.459 159.306 278.459 159.172C278.459 159.037 278.459 158.769 278.459 158.501C278.459 157.965 278.459 157.295 278.325 156.758C278.325 155.686 278.191 154.613 278.191 153.541C278.191 152.602 278.191 151.529 278.057 150.591H278.191C278.325 150.591 278.593 150.725 278.727 150.859C278.727 150.993 278.862 151.127 278.862 151.261C278.996 151.529 279.532 152.2 279.8 152.334C280.604 153.004 281.543 154.077 282.213 154.747L281.945 150.859C281.945 150.591 282.079 150.457 282.213 150.591C282.347 150.591 282.347 150.725 282.481 150.725C282.616 151.261 282.616 153.004 282.616 153.541Z" fill="white"/>
</svg>
