<?xml version="1.0" encoding="UTF-8"?>
<svg id="Layer_2" data-name="Layer 2" xmlns="http://www.w3.org/2000/svg" viewBox="0 0 83.33 270.63">
  <defs>
    <style>
      .cls-1 {
        fill: #579374;
      }

      .cls-1, .cls-2, .cls-3, .cls-4, .cls-5 {
        fill-rule: evenodd;
      }

      .cls-2 {
        fill: #e3746d;
      }

      .cls-3 {
        fill: #b4393e;
      }

      .cls-4 {
        fill: #92b8a3;
      }

      .cls-5 {
        fill: #fff;
      }
    </style>
  </defs>
  <g id="Layer_7" data-name="Layer 7">
    <g>
      <path class="cls-5" d="M0,155.41c7.9-8.83,18.4-17.56,29.27-23.26,9.24-4.84,18.77-7.51,27.27-6.25h.05c3.13,.45,6.21,1.41,8.88,2.91,2.45,1.37,4.56,3.2,6.08,5.52,1.79,2.74,2.44,5.67,2.19,8.57-.27,3.12-1.59,6.18-3.66,8.89-1.35,1.76-5.32,5.86-9.23,7.96-1.22,.66-2.44,1.13-3.61,1.31-1.26,.19-2.45,.04-3.5-.57l-.06-.03c-.57-.35-1.08-.84-1.52-1.49-.51-.76-.76-1.49-.78-2.18-.03-.72,.17-1.38,.53-2,.95-1.62,2.99-2.88,4.96-4.11,1.14-.71,2.25-1.4,3.02-2.09,1.49-1.34,2.66-2.83,3.11-4.44,.44-1.55,.21-3.26-1.06-5.08-1.4-2.01-3.67-3.13-6.22-3.65-3.37-.68-7.22-.33-10.29,.45-6.25,1.59-12.73,5.14-18.58,9.31-7.92,5.64-14.68,12.39-18.22,16.93-3.44,4.41-6.16,9.12-8.62,13.46v-20.17H0Zm55.44-28.76h0s0,0,0,0Z"/>
      <path class="cls-3" d="M2.73,170.86c-.99-.87-1.9-1.78-2.73-2.73v-2.11c.98,1.29,2.13,2.53,3.42,3.69-.23,.38-.46,.76-.69,1.14h0Zm-.72-17.64c1.11-1.18,2.27-2.35,3.47-3.51,.09,1.47,.41,2.92,.91,4.33,.8,2.24,2.07,4.37,3.7,6.28-.54,.63-1.03,1.23-1.47,1.79-.32,.41-.63,.82-.94,1.23-2.26-2.44-4.03-5.24-5.09-8.22-.22-.63-.42-1.27-.58-1.91h0Zm10.01-9.39c.47-.39,.95-.78,1.43-1.17-.09,1.35,.02,2.75,.32,4.18,.47,2.26,1.41,4.59,2.75,6.81-.34,.32-.68,.64-1.01,.96-1.53-2.45-2.59-5.03-3.12-7.54-.23-1.09-.35-2.18-.37-3.24h0Zm8.68-6.54c1.44-.98,2.9-1.91,4.38-2.79-.38,1.61-.48,3.26-.34,4.91,.18,2.08,.74,4.15,1.62,6.12-1.09,.78-2.15,1.59-3.18,2.4-1.33-2.62-2.17-5.42-2.42-8.25-.07-.8-.09-1.6-.06-2.39h0Zm12.8-7.2c-.48,1.08-.79,2.2-.91,3.35-.25,2.28,.22,4.68,1.38,7.2,.4-.22,.8-.44,1.21-.66-1.02-2.26-1.42-4.4-1.2-6.42,.16-1.5,.66-2.93,1.51-4.31-.66,.27-1.33,.55-1.99,.85h0Zm11.31-3.73c1.74-.35,3.47-.6,5.17-.71-.75,.91-1.39,1.89-1.94,2.91-1.22,2.3-1.92,4.79-2.1,7.18-.17,.04-.35,.08-.52,.13-1.16,.3-2.34,.66-3.51,1.08,0-3.27,.84-6.76,2.52-9.92,.12-.23,.24-.45,.37-.67h0Zm15.31,.27c.56,.16,1.12,.33,1.67,.52-1.35,.73-2.6,1.63-3.7,2.67-1.6,1.52-2.88,3.34-3.69,5.38-.47-.06-.95-.1-1.43-.12,.87-2.32,2.29-4.39,4.1-6.11,.93-.88,1.95-1.66,3.05-2.34h0Zm10.7,6.66h0c-1.7,.21-3.4,.56-5.06,1.04-2.18,.63-4.3,1.48-6.22,2.51,.95,.57,1.77,1.31,2.41,2.22,.11,.16,.22,.32,.31,.48,1.47-.73,3.07-1.35,4.73-1.82,1.92-.55,3.9-.91,5.81-1.04-.33-.8-.74-1.59-1.25-2.36-.23-.35-.48-.69-.73-1.03h0Zm1.06,15.7c-.22,.42-.47,.84-.72,1.25-.47-.64-1-1.22-1.6-1.75-1.73-1.54-4.03-2.67-6.9-3.4,.14-.31,.26-.63,.35-.95,.02-.08,.04-.16,.06-.24,3.08,.79,5.57,2.02,7.46,3.7,.49,.43,.94,.9,1.34,1.39h0Zm-7.59,8.46c-.13-.6-.31-1.19-.52-1.78-.87-2.37-2.43-4.62-4.45-6.62-.7,.53-1.56,1.07-2.44,1.61-.27,.16-.53,.33-.8,.5,1.8,1.71,3.17,3.62,3.91,5.61,.37,1.01,.58,2.05,.59,3.1l.27-.15c1.17-.63,2.34-1.43,3.44-2.29Z"/>
    </g>
    <g>
      <path class="cls-3" d="M22.92,1.04c9.7,3.47,13.5,12.19,14.48,13.94,2,3.54,3.13,6.35,4.17,9.28,.91,2.55,1.83,5.16,2.11,8.6,.19,2.36-.12,5.54-.8,7.79-.72,2.38-2.32,4.72-3.92,6.92-2.62,3.61-5.88,6.86-9.94,9.44-4.49,2.85-6.79,2.78-10.54,2.93-3.36,.14-11.82-.6-13.89-1.06-1.31-.29-2.96-.93-4.6-1.75V5.24c1.77-1.15,3.44-2.1,4.55-2.57C9.13,.77,16.39-1.29,22.92,1.04Z"/>
      <path class="cls-5" d="M16.86,3.15c6.66,.79,10.66,4.08,12.53,6.19,2.24,2.54,4.5,5.19,6.03,8.29,3.12,6.3,6.29,10.72,5.62,18.21-.56,6.23-4.74,11.04-9.53,15.58-1.24,1.17-4.72,3.13-6.67,3.71-4.52,1.35-5.83,.86-9.42,1.47-2.41,.4-5.83,.59-8.25-.1-2.74-.78-5.04-1.56-7.15-2.66V7.98c.18-.1,.36-.2,.54-.3,1.33-.71,4.37-2.28,7.57-3.32,3.1-1,6.35-1.49,8.75-1.2Z"/>
      <path class="cls-2" d="M28.15,48.77c-.87,2.02-2.17,1.98-2.69,2.09-3.94,.86-5.27,2.73-8.59,3.1-4.03,.45-4.85-4.92-4.77-7.93,.07-2.66,.95-5.94,.99-7.39,.1-3.62-1.75-6.64-.06-7.3,1.43-.56,3.58,1.38,4.58,2.54,1.97,2.28,3.66,4.8,5.71,6.98,1.81,1.92,6.35,4.39,4.83,7.9h0ZM0,50.77v-13.63c.6-.32,1.27-.64,2.03-.94,3.37-1.36,6.05-7.02,7.85-5.51,1.29,1.08,.5,4.55,.59,6.06,.22,3.79-.95,5.65-.98,7.41-.02,.93,.85,3.47-.18,5.79-.32,.73-1.46,2.35-3.01,2.95-2.71,1.04-4.02-.96-5.68-1.81-.2-.1-.41-.2-.62-.3H0Zm0-16.27c.37-.11,.81-.27,1.4-.56,.81-.4,1.26-1.24,1.91-1.81,3.71-3.19,5.85-1.96,5.99-3.15,.16-1.37-3.45-2.38-4.58-2.64-1.02-.23-1.48-.33-2.51-.5-1-.16-1.61-.43-2.21-.78v9.43H0Zm0-11.95V11.61c1.11-1.09,3.19-3.42,5.17-2.18,1.08,.68,1.86,1.57,2.34,3.89,.22,1.1,.05,2.58,.1,3.66,.09,2.18,.26,2.34,.47,4.1,.17,1.42,1.7,5.03,.63,5.61-.7,.38-1.24-.71-2.91-1.53-2-.98-3.27-1.74-5.44-2.51-.09-.03-.21-.07-.35-.1H0Zm16.27,8.78c2.82,1.36,3.25,3.52,5.8,6.07,1.14,1.13,2.54,1.59,4.99,3.73,1.29,1.12,4.32,5.15,6.45,3.92,2.05-1.18,1.51-2.4,2.43-5.16,.62-1.85,1.84-2.67,1.89-6.09,.02-1.36-.58-2.8-.79-4.16-.21-1.36-.95-3.42-2.24-3.99-1.57-.7-3.46,1.19-4.86,1.71-3.72,1.39-4.62-1-8.56,.8-2.24,1.03-3.3,.45-4.89,.73-2.03,.36-1.28,1.93-.22,2.44h0Zm16.94-10.44c-.46,1.34-2.7,3.28-4.59,3.86-.53,.16-1.05,.37-1.59,.5-2.12,.51-5.59,.12-8.76,1.87-1.11,.61-3.21,1.32-3.73,.35-.38-.7,.38-1.38,1.15-2.31,.27-.33,2.24-3.23,2.57-3.73,2-2.98,2.55-6.2,4.71-8.79,.87-1.04,2.49-2.84,5.1-1.14,.81,.53,2.1,2.39,2.76,3.25,.72,.95,3.39,3.29,2.39,6.15h0Zm-21.66,5.36s-1.28-.26-1.87-3.65c-.25-1.41-.38-3.37-.25-6.07,.13-2.81-2.26-5.98-.31-9.52,1.03-1.87,2.89-1.46,4.38-1.22,1.27,.2,8.39-.66,8.94,3.18,.24,1.7-1.04,3.97-2.86,5.64-1.34,1.23-4.74,8.77-5.21,9.75-1.06,2.07-2.08,2.15-2.82,1.89Z"/>
      <path class="cls-5" d="M7.14,40.47c-.79,.33-1.39,4.01-1.37,4.84,0,.33,.15,.76,.56,.65,.79-.21,1.92-3.9,1.62-4.93-.02-.05-.36-.73-.81-.56h0Zm-7.14,1.95v-1.76c.58-1.03,1.54-2.16,1.87-2.31,.4-.16,.84,.05,.81,.81-.03,.88-1.97,3.26-2.69,3.25H0Zm0-9.67v-1.62c.52-.03,.97,.06,1.13,.42,.24,.57-.55,.99-1.13,1.19H0Zm0-3.44v-1.26c.36-.02,.68,0,.82,.08,.34,.23,.14,.84-.5,1.07-.11,.04-.22,.08-.32,.11H0Zm18.12,9.12c.22,.98,1.89,2.78,2.31,1.87,.36-.79-1.2-2.27-1.8-2.44-.38-.11-.58,.2-.5,.57h0Zm7.6-4.1c1.61,.45,1.11-.91-.75-1.25-.53-.1-.61,.3-.25,.69,.2,.22,.53,.43,1,.56h0Zm-21.49,4.88c.93-1.85,2.37-.9,.82,1.51-1.06,1.65-2.06,.96-.82-1.51h0Zm19.36-9.72c-.46,.19-.69,.88-.29,1.14,.48,.3,2.43,.37,3.14,.13,.36-.12,.58-.65,.3-.95-.73-.77-2.45-.58-3.15-.32h0Zm2.21-9.31c-.42,.16-1.74,.81-1.63,1.35,.26,1.31,2.58-.59,2.51-1.11-.05-.34-.52-.38-.88-.24h0Zm-11.92-7.14c-.76,.33-.91,2.45-1.02,2.88-.06,.24,.28,1.28,.89,.74,.45-.4,1.41-4.1,.13-3.63h0Zm-11.14,3.15c-.84,.38,.9,3.31,1.6,2.93,.62-.34-.54-2.11-.91-2.61-.16-.21-.36-.44-.68-.31Z"/>
    </g>
    <path class="cls-1" d="M0,224.73c1.04-3.47,2.56-6.5,3.03-9.19,1.57-9.01,2.89-12.37,3.89-13.08-.9,3.54,1.1,5.88,1.69,10.69,.52-7.86,3.16-13.4,5.88-18.12,2.6-4.53,3.47-8.49,4.74-8.63-1.4,5.44,.87,4.89,.66,9.22,2.49-9.97,11.35-10.94,15.14-16.57,1.84,2.57-3.82,8.87-1.64,9.78,.93,.39,1.67-2.23,6.34-6.32,5.27-4.61,11.9-6.39,16.78-12.17-.97,3.75-.28,9.23-1,12.35-1.2,5.25-3.05,8.44-1.49,8.52,.95,.31,3.24-3.03,4.94-1.5-3.98,1.71-3.13,16.62-12.52,25.95,1.83-.76,3.87-1.77,5.61-1.19-6.18,7.6-3.45,15.31-17.22,25.09,1.6,.48,3.98-.36,5.39,.69-3.27,1.68-6.99,9.1-15.11,13.92,1.29,.36,2.72,.55,4.26,.61-8.55,8.33-21.61,7.02-29.38,15.84v-45.9Z"/>
    <path class="cls-4" d="M0,112.57c.21,.38,.41,.72,.59,1,.22-.24,.44-.49,.67-.73-.4-.73-.83-1.72-1.25-2.82v-3.55c.68,2.17,1.51,4.54,2.05,5.52,.75-.8,1.48-1.54,2.25-2.33-.86-.89-2.96-3.79-4.3-5.69v-1.9c1.48,2.13,3.38,4.62,4.71,6.35-2.09-3.15-3.61-6.25-4.71-8.9v-3.05c1.35,3.6,3.27,7.8,5.77,11.63,.18-.18,.36-.33,.54-.5-.5-.78-4.86-10.34-6.31-15.29v-2.3c.37-.11,.69,.24,.77,.73,.24,1.43,3.61,10.08,6.41,16.01,.24-.24,.48-.47,.73-.7-2.14-4.07-3.77-8.34-4.86-12.76-.35-1.4-.79-2.79-1.01-4.22-.1-.61-.46-1.32,.15-1.67,.38-.21,.98,.17,.82,.63,.1,1.72,.75,3.45,1.16,5.11,1.05,4.19,2.58,8.24,4.59,12.11,.57-.54,1.06-.94,1.64-1.47-2.11-2.96-5.26-12.56-5.94-15.7-.09-.44-.53-1.8,.17-1.86,.42-.04,.76,1.42,.84,1.69,1.38,5.1,3.79,11.39,5.31,13.98-.41-1.1-.85-2.19-1.14-3.36-.74-2.92-1.28-5.9-1.48-8.9-.66-1.8-1.26-3.67-1.73-5.5-.13-.5,.12-.74,.41-.76,.25-.02,.54,.13,.63,.44,.13,.43,.49,1.56,.63,1.99-.03-.64,.09-1.99,.24-2.56,.11-.4,.49-.62,.79-.5,.25,.09,.36,.34,.31,.84-.16,.78-.19,1.58-.21,2.37-.04,1.18-.02,2.36,.06,3.55,1.29,3.82,2.78,7.58,4.61,11.16,.22-.19,.44-.37,.66-.56-1.11-2.6-2.59-12.39-2.15-17.45,.05-.55,.13-2.25,.92-2.31,.51-.04,.24,1.52,.21,2.41-.2,5.11,1.05,13.91,1.94,16.59,.67-.55,1.35-1.1,2.03-1.63-1.83-4.13-2.89-15.86-2.69-18.3,.05-.64,.23-1.1,.58-1.09,.58,.03,.55,.88,.54,1.21-.05,2.02,.63,12.12,2.48,17.46,.12-.09,.23-.18,.35-.27-1.55-6.08-1.26-17.34-1.03-18.66,.05-.28,.12-.81,.17-1.18,.06-.39,.29-.71,.68-.7,.37,0,.49,.38,.53,.74,.07,.7,.09,1.39,.22,2.1,.11,.95,3.65,13.78,4.07,14.32,.22-.16,.45-.31,.67-.46-.84-1.72-1.4-3.54-1.8-5.41-.56-2.57-1.36-10.2-.95-12,.08-.38,.32-.62,.56-.6,.22,.02,.44,.17,.44,.55,0,3.4,.37,8.49,1.08,11.8,.37,1.73,.86,3.42,1.62,5.02,.58-.38,1.16-.76,1.74-1.14-.11-.3-.28-.6-.37-.89-.42-1.33-.57-2.75-.75-4.11-.39-3.01-.54-6.09-.47-9.07,.02-.87,0-1.73,.04-2.59,0-.21,.03-1.66,.34-1.95,.18-.17,.35-.18,.57-.03,.19,.13,.28,.51,.28,.67,0,.34-.01,.6-.04,1.05-.1,1.62-.08,3.26-.07,4.86,.03,2.94,.29,5.87,.75,8.8,.14,.91,.35,1.81,.68,2.66,.42-.26,.84-.52,1.26-.78,0-.12-.42-2.7-.53-3.95-.38-4.51,.07-9.03,.45-13.55,.03-.38,.09-.76,.17-1.13,.09-.39,.42-.56,.71-.48,.25,.07,.4,.26,.36,.72,0,0-.09,.56-.12,.99-.41,4.88-.98,9.8-.32,14.62,.1,.71,.23,1.43,.33,2.14,.97-.58,1.95-1.14,2.95-1.69-1.93-4.98-2.54-15.29-2.37-17.15,0,0,0-.24,.11-.4,.18-.27,1-.36,1.01,.41,0,.32-.01,.65-.02,.98-.02,3.72,1.25,12.37,2.39,15.52,.51-.28,.87-.43,1.39-.7-1.34-3.32-.21-15.36,.76-19.05,.08-.3,.52-.55,.77-.41,.31,.17,.29,.4,.24,.71-.6,4-1.9,13.2-.74,18.22,.45-.22,.9-.44,1.36-.66-.46-4.37,.62-14.34,2.14-18.96,0,0,.23-.72,.74-.6,.55,.14,.6,.67,.66,1.5,.01,.19,0,.38,0,.56-.01,1.81,.34,3.58,.65,5.41,.54,3.17,1.27,6.35,2.32,9.33,.65-.24,1.3-.47,1.95-.69-.6-1.82-1.05-4.39-1.33-7.44-.17-1.85-.27-3.88-.3-6.04,0-.07,.05-.84,.57-.87,.62-.03,.55,.6,.56,.83,0,1.03,.17,4.13,.39,6.21,.25,2.34,.61,4.67,1.18,6.96,.49-.16,.99-.31,1.48-.45,0-.05-.5-3.65-.6-5.42-.13-2.25-.14-4.5-.13-6.77,.01-1.89,.2-3.79,.47-5.66,0-.19,.23-.65,.67-.58,.51,.08,.45,.72,.44,.84h0c-.42,3.01-.48,6.08-.42,9.11,.05,2.64,.67,8.06,.68,8.16,.64-.18,1.28-.34,1.91-.51,.05-.31,.15-.64,.23-.95,.5-1.79,1.05-3.57,1.66-5.33-.1-.63,1.65-11.18,2.12-12.76,.11-.36,.35-.7,.61-.66,.35,.05,.38,.52,.33,.71-.11,.4-1.34,7.11-1.39,8.41,.29-.67,.6-1.35,.92-2.01,.8-1.68,1.5-3.36,2.42-5.03,.08-.14,.43-.52,.83-.3,.39,.22,.2,.63,.12,.86,0,0-.22,.47-.53,1.04-.8,1.49-1.43,3.06-2.15,4.6-.84,1.79-1.56,3.62-2.19,5.5-.05,.55-.1,1.1-.13,1.65-.04,.64-.04,1.27-.04,1.91,.6-1.52,1.45-2.95,2.24-4.38,1.61-2.94,3.16-5.87,5.09-8.59,.14-.19,.47-.52,.86-.24,.44,.32,.09,.84-.02,.99-2.23,3.17-3.96,6.6-5.85,9.99-.64,1.14-1.09,2.36-1.62,3.6,.25-.07,.49-.14,.74-.21,.03-.07,1.76-2.03,2.52-2.89,2.21-2.49,4.67-4.77,7.44-6.64,.73-.49,2.47-1.6,2.84-1.83,.49-.29,1.04-.46,1.24,0,.15,.35-.28,.64-.62,.9-.93,.58-1.9,1.24-2.88,1.94-2.62,1.9-5.32,4.21-7.51,6.73-.36,.41-.72,.81-1.08,1.21,3.64-1.04,7.28-2.01,11.05-2.51,1.67-.23,3.26-.3,4.94-.41,.38-.02,.81,.26,.81,.68,0,.31-.25,.63-1.12,.72-2.84,.22-5.66,.58-8.43,1.17-1,.21-1.99,.45-2.97,.7,2.14,.89,4.38,1.54,6.68,2.36,1.17,.41,5.49,1.78,6.15,2.01,.6,.21,.94,.51,.9,.82-.03,.24-.36,.29-.62,.27-.51-.05-1-.25-1.49-.4-1.04-.32-2.09-.55-3.11-.93-.54-.2-1.1-.34-1.65-.53-2.46-.84-4.87-1.76-7.34-2.64-.42-.15-.86-.28-1.25-.5-1.29,.36-2.58,.73-3.86,1.1,.08,.06,.16,.12,.24,.18,.78,.64,1.48,1.37,2.26,2.01,.81,.66,1.65,1.27,2.5,1.88,2.47,1.8,5.08,3.38,7.9,4.67,.12,.05,.5,.18,.81,.36,.28,.15,.51,.34,.48,.54-.05,.37-.49,.4-.98,.3-.64-.13-1.37-.47-1.5-.53-2.9-1.34-5.56-3.12-8.15-5.01-1.14-.84-2.23-1.73-3.29-2.71-.47-.43-1.53-1.29-1.57-1.33-1.11,.32-2.23,.64-3.34,.95,.15,.16,2.98,3.63,4.31,5.18,1.32,1.54,2.68,3.03,4.03,4.55,.45,.51,.95,.99,1.41,1.49,.53,.57,1,.94,1.22,1.21,.24,.31,.33,.61,.14,.84-.15,.18-.48,.05-.85-.19-.57-.38-1.21-1.02-1.35-1.15-1.28-1.18-2.37-2.55-3.53-3.85-1.62-1.82-6-6.98-6.51-7.76h0s-.06,.02-.09,.03c.25,.69,3.95,9.69,6.01,13.17,.17,.29,.46,.83,.3,1.09-.16,.25-.35,.27-.54,.19-.38-.16-.56-.48-.75-.78-2.21-3.52-5.81-12.73-6.09-13.38-.67,.19-1.33,.39-1.99,.6,.01,.06,2.22,6.83,3.35,9.35,.52,1.16,1.11,2.31,1.58,3.49,.32,.23,2.09,1.08,2.28,1.68,0,0,.04,.16,.01,.29-.07,.28-.27,.39-.58,.34-.28-.05-.84-.46-1.05-.56,.04,.09,.41,.52,.39,.91,0,.05-.01,.1-.03,.15-.06,.2-.23,.35-.45,.39,.1,.39-.6,.97-1.05,.43,0,0-.1-.09-.22-.24-.09,.22-.29,.43-.61,.36-.39-.09-.87-.36-1.33-.59-1.7-.87-3.26-1.99-4.86-3.05-3.23-2.15-6.48-4.27-9.29-6.95-.23-.22-.44-.45-.64-.7-.8,.42-1.6,.86-2.39,1.31,3.11,2.75,6.45,5.3,9.86,7.63,1.89,.64,5.83,1.83,6.49,1.94,.28,.04,.51,.33,.49,.58-.02,.28-.22,.56-.58,.56-.78-.02-1.65-.32-2.56-.58,.37,.22,.74,.43,1.12,.63,.49,.27,1.34,.63,1.07,1.17-.26,.53-1.09,.09-1.43-.11-1.31-.76-2.58-1.42-3.84-2.31-.39-.27-.77-.54-1.16-.81-.43-.15-.85-.3-1.25-.44-3.17-1.1-6.2-2.6-9.21-4.05-.98-.47-3.06-1.66-3.17-1.74h-.02s-.06,.05-.06,.05c2.5,2.12,5.19,4,7.73,6.08,1.62,1.32,3.39,2.44,5.16,3.63,.84,.56,1.68,1.07,2.57,1.59,.58,.24,.96,.69,.72,1.05-.24,.35-.67,.22-1.05,.04-1.86-.91-3.53-2.2-5.29-3.35-2.03-1.33-3.84-2.98-5.76-4.42-1.44-1.09-4.8-3.77-5.05-3.99l-.07,.05-.05,.03c.23,.35,.46,.7,.72,1.01,2.22,2.59,4.46,5.18,6.92,7.58,1.61,1,5.99,3.18,5.99,3.18,.38,.18,.52,.51,.48,.76-.04,.24-.23,.4-.54,.34-.54-.1-.94-.37-1.42-.58-.18-.08-.35-.17-.53-.25,.18,.14,1.05,.83,1.34,1.01,.39,.24,.47,.61,.33,.86-.16,.28-.51,.24-.61,.22-.82-.21-4.64-3.59-5.74-4.68-1.61-.99-3.2-2.06-4.82-3.15-1.7-1.14-3.31-2.41-4.81-3.79-.15-.14-.32-.27-.48-.4-.25,.17-.49,.34-.74,.52,.61,.91,11.39,9.46,13.87,11.34,.17,.13,.84,.59,.52,1.08-.31,.47-1.1-.1-1.23-.19-2.63-1.82-14.03-11.08-14.1-11.57-.32,.23-.64,.46-.96,.7,.95,.72,6.18,6.18,8.06,7.99,.07,.07,.14,.13,.2,.2,1.39,.64,2.85,1.36,4.11,2.04,.12,.06,.33,.19,.54,.34,.16,.12,.63,.48,.38,.89-.24,.41-1.03,.01-1.17-.06-.49-.24-.97-.51-1.45-.76,.18,.17,.88,.79,1.36,1.28,.19,.19,.85,.84,.44,1.26-.38,.39-1.19-.37-1.53-.69-.94-.9-2.64-2.63-3.37-3.38-.25-.12-8.03-4.18-11.79-5.88-.34,.27-.67,.54-1,.81,.16,.08,.31,.16,.47,.24,3.88,1.95,7.4,4.51,11.2,6.58,1.02,.56,2.01,1.16,3.01,1.74,.17,.1,1.1,.66,.82,1.09-.3,.47-1.34-.1-1.56-.22-3.45-1.89-6.69-3.92-10.05-5.98-1.57-.96-3.17-1.88-4.83-2.65-.28,.23-.56,.46-.83,.7,.16,.12,.32,.25,.48,.38,1.87,1.52,3.87,2.86,5.82,4.25,1.57,1.11,3.2,2.17,4.83,3.18,.88,.54,1.73,1.13,2.54,1.76,.15,.12,.71,.63,.38,.96-.43,.44-1.12-.12-1.28-.24-1.54-1.18-3.26-2.12-4.9-3.22-2.27-1.51-4.43-3.12-6.7-4.71-.72-.51-1.35-1.16-2.05-1.62-.2,.18-.41,.35-.61,.53,.09,.09,.18,.19,.28,.28,.78,.72,1.67,1.47,2.48,2.1,2.49,1.97,4.94,3.96,7.52,5.88,.88,.42,1.76,.82,2.65,1.22,.3,.14,.83,.33,1.29,.56,.54,.26,.94,.61,.81,.97-.11,.28-.38,.35-.57,.31-.23-.06-.42-.14-.54-.19,.22,.37-.16,.83-.68,.67-.72-.21-2.99-2.16-3.55-2.56-3.11-1.46-6.13-3.09-9-5.03-.9-.61-1.83-1.18-2.72-1.76-.14-.08-.28-.17-.42-.24-.46,.42-.92,.85-1.37,1.28,1.04,.47,8.09,4.52,10.72,5.8,1.55,.75,3.11,1.42,4.63,2.22,.52,.27,.64,.55,.54,.82-.21,.55-1.06,.21-1.34,.07-2.01-.98-4.06-1.91-6.03-2.98-2.09-1.14-8.29-4.68-9.4-5.09-.15,.14-.3,.29-.45,.43,.32,.48,9.02,5.54,12.91,7.97,.54,.33,1.53,.85,1.2,1.43-.25,.44-1.23-.19-1.89-.54-3.34-1.82-12.96-7.82-13.02-8.07-.12,.12-.24,.24-.36,.36,.84,.55,6.87,5.08,10.49,8.01,.51,.41,1.35,1.12,1.85,1.7,.16,.18,.12,.49-.07,.63-.18,.15-.44,.05-.66-.08-.62-.37-1.34-.98-1.81-1.35-2.67-2.12-9.73-7.55-10.62-8.1-.15,.15-.29,.29-.44,.44,.03-.04,5.06,5.61,6.76,7.36,1.85,.84,3.57,1.86,5.27,2.75,.44,.23,.7,.5,.66,.8-.04,.29-.35,.47-.69,.33-.6-.25-1.11-.51-1.69-.82,.42,.35,.84,.69,1.2,1.08,.53,.58,.46,.93,.25,1.09-.19,.15-.49,.16-.84-.15-.53-.46-1.08-.97-1.74-1.52-1-.82-2-1.62-2.93-2.52-.59-.29-1.17-.59-1.75-.9-2.04-1.11-6.98-4.12-7.51-4.35-.18,.19-.36,.38-.53,.58,.52,.39,8.44,6,11.92,8.41,.24,.17,.48,.33,.72,.49,.25,.06,.57,.19,.7,.47h0c.15,.11,.31,.21,.46,.32,.38,.27,.39,.67,.2,.9-.16,.19-.45,.27-.78,.06-.28-.18-.55-.37-.82-.56-.52-.13-1.02-.39-1.57-.52-1.29-.3-2.58-.61-3.86-.93,.03,.03,.06,.05,.09,.08,1.25,1.07,2.36,2.26,3.64,3.36,0,0,0,0,.01,.01,.12,.02,1.29,.2,1.7,.22,.42,.01,.67,.25,.73,.51,.06,.28-.1,.52-.52,.58-3,.41-10.19-2.07-14.83-4.1v-1.37c3.74,1.63,9.07,3.56,10.7,3.69-1.3-1.18-2.59-2.38-3.88-3.59-1.35-.36-4.6-1.42-6.83-2.15v-1.08c1.66,.55,4.16,1.35,5.12,1.64-.99-.93-1.97-1.85-2.96-2.76-.52-.48-1.63-1.55-1.75-1.68l-.42,.47v-3.89H0Zm0,13.14v1.34c3.18,1.43,7,2.86,9.87,3.27,.44,.06,.84-.12,.91-.44,.06-.26-.27-.63-.65-.64-1.32-.04-6.09-1.72-10.14-3.53H0Zm38.95-41.34c1.44-.66,2.91-1.29,4.39-1.86-.43-1.24-.78-2.5-1.11-3.77-.82-3.1-1.39-6.29-1.8-9.42-.03-.21-.05-.42-.06-.62-1.11,3.97-1.8,13.67-1.42,15.67h0Zm14.18-4.91c.07-.02,.14-.04,.21-.06,.06-.02,.12-.04,.18-.05,0-.02,0-.04,0-.06,0-.4,.01-.81,.02-1.21-.15,.46-.29,.92-.41,1.38h0Zm-2.1,14.65c-.52-1.14-1.09-2.27-1.55-3.45-.8-2.02-1.46-4.09-2.18-6.15-.19-.55-.4-1.1-.53-1.67-.58,.2-1.16,.4-1.74,.61,.11,.37,1.15,2.64,1.59,3.68,.93,2.2,2.27,4.18,3.43,6.26v.02c.33,.24,.65,.47,.98,.69h0Zm-31.3,1.88c.91-.68,1.69-1.26,2.62-1.91-.69-1.32-3.63-12.59-3.68-12.8-.11,.04,.29,11.32,1.06,14.72h0Zm27.99-4.36c-.27-.46-.54-.92-.8-1.39-1-1.77-3.01-6.35-3.02-6.36-1.4,.54-2.78,1.12-4.15,1.75,1.47,1.21,3.11,2.17,4.62,3.35,1.12,.88,2.23,1.78,3.35,2.66h0Zm3.79,6.27c-.75-1.21-1.49-2.43-2.23-3.65-.35-.25-.69-.5-1.04-.76-2.23-1.69-4.32-3.56-6.64-5.15-1-.69-2.02-1.36-2.93-2.16-.01-.01-.02-.02-.04-.04-.76,.36-1.52,.74-2.27,1.12,.34,.4,.76,.75,1.15,1.1,3.25,2.94,7.13,5.33,10.76,7.72,1.03,.68,2.09,1.33,3.23,1.82h0Zm-12.61-2.64c-.41-.31-.82-.62-1.22-.94-1.85-1.45-3.7-2.86-5.47-4.43-.02-.02-.04-.03-.06-.05-.07-.06-.13-.11-.2-.16-.7,.41-1.4,.82-2.1,1.25,.99,.68,7.09,3.51,9.05,4.33h0ZM2.94,88.18l.02-.03s-.05,.07-.02,.03h0Zm28.45,10.19c-1.13-1.26-2.24-2.53-3.38-3.75-.49-.52-.89-1.1-1.31-1.7-.43,.28-.86,.57-1.29,.86,.12,.1,.25,.19,.37,.3,1.74,1.58,3.65,2.97,5.61,4.29h0Zm20.66-1.71c-.03-.1-.06-.19-.09-.28-.04-.11-.08-.23-.12-.34-.11-.07-.21-.15-.32-.22,.18,.28,.35,.56,.53,.84h0Zm-39.95,5.56c.31-.27,.62-.54,.93-.81-1.21-2.35-2.22-4.79-3.18-7.26,.27,1.55,.61,3.09,1.01,4.58,.32,1.2,.83,2.33,1.24,3.49h0Zm14.92,.81c-1.22-1.22-5.16-5.42-6.12-6.03-.77,.58-1.53,1.16-2.29,1.76,2.86,1.33,5.6,2.87,8.41,4.27h0Zm-15.84,0h0s0,0,0,0h0Zm6.85,5.45c-1-.81-1.99-1.62-3-2.41-.88-.7-1.71-1.42-2.52-2.21-.25,.22-.49,.44-.74,.66,.05,.03,.09,.06,.14,.09,0,0,.42,.28,.77,.5,1.03,.65,2.04,1.34,3.06,1.99,.75,.48,1.52,.94,2.29,1.38h0Zm-8.44,7.63c-.95-1.03-3.92-4.51-4.58-5.05-.49,.5-.97,1-1.45,1.51,.96,.49,4.32,2.58,5.08,3.02,.31,.18,.63,.35,.94,.52h0Zm2.19,6.03c-2.86-1.98-9.68-6.89-10.3-7.31-.1,.11-.2,.22-.3,.33,.06,.07,1.24,1.21,1.72,1.66,1.51,1.41,3,2.86,4.53,4.26,.72,.19,1.44,.38,2.16,.55,.73,.18,1.46,.35,2.19,.51Z"/>
    <path class="cls-5" d="M82.65,30.19c.24-.06,.46-.21,.58-.43h0c.08-.15,.11-.3,.09-.44h0c-.02-.16-.08-.31-.18-.43-.05-.1-.11-.19-.2-.27-.13-.12-.29-.21-.46-.24-.17-.04-.35-.03-.52,.04-.08,.03-.15,.08-.22,.14-1.45-.01-2.89,.06-4.33,.13l-.74,.04c-.02-.23-.06-.45-.13-.65-.07-.22-.18-.43-.31-.62l.36-.39c1.4-1.49,2.79-2.99,3.81-4.73,.06-.01,.13-.03,.19-.06,.07-.03,.14-.08,.2-.15h0s0,0,0,0c.01-.01,.02-.02,.02-.03,.2-.17,.35-.41,.39-.65,.02-.11,.02-.23,0-.34-.02-.11-.07-.22-.14-.31h0s0,0,0,0c-.12-.15-.31-.26-.57-.32-.19-.04-.36,0-.51,.08-.13,.08-.24,.2-.3,.34-.06,.01-.12,.03-.17,.06-.08,.04-.15,.1-.2,.18-.08,.12-.11,.25-.09,.39h0c.01,.13,.05,.25,.12,.36-.86,1.29-1.94,2.41-3.01,3.53-.38,.39-.75,.78-1.12,1.18-.06-.03-.11-.05-.17-.07-.06-.02-.12-.04-.17-.06-.06-.9-.13-1.79-.2-2.67-.07-.89-.15-1.79-.23-2.69,.06-.06,.11-.13,.13-.21,.03-.09,.03-.19,0-.3,.03-.35-.19-.67-.48-.86h0c-.11-.07-.23-.13-.36-.16-.13-.03-.25-.04-.37-.02-.2,.04-.36,.17-.43,.4-.08,.05-.15,.11-.2,.2-.06,.09-.1,.19-.11,.32-.02,.24,.05,.43,.17,.57h0c.12,.14,.3,.23,.49,.28,.07,.86,.13,1.72,.19,2.57,.06,.88,.12,1.73,.17,2.56-.03,0-.06,.02-.09,.03-.06,.02-.12,.04-.18,.06-.09,.03-.17,.07-.25,.11h0c-.06,.03-.11,.06-.16,.09-.79-.85-1.6-1.68-2.42-2.51-.54-.55-1.07-1.1-1.63-1.68,.03-.08,.05-.16,.06-.25,0-.11,0-.22-.05-.33-.07-.19-.19-.32-.34-.41-.16-.1-.35-.15-.54-.15-.14-.04-.28-.06-.42-.04-.13,.02-.26,.07-.37,.17h0s0,0,0,0c-.03,.03-.05,.06-.06,.09h0c-.08,.06-.16,.13-.22,.2h0c-.06,.08-.12,.16-.15,.25h0s0,0,0,0c-.02,.07-.02,.15,0,.22h0c.03,.08,.08,.15,.14,.2,.04,.03,.08,.06,.13,.09h0s.09,.06,.14,.09c.02,.01,.05,.02,.08,.03h.03c.12,.14,.27,.25,.44,.32,.14,.06,.29,.08,.44,.06,1.04,1.17,2.13,2.34,3.22,3.5l.79,.84c-.13,.21-.22,.45-.27,.69-.05,.24-.06,.5-.03,.75-.85,.02-1.72,.02-2.57-.04-.86-.06-1.7-.18-2.48-.39-.04-.16-.12-.32-.22-.46h0c-.12-.15-.27-.29-.46-.39-.16-.09-.33-.13-.48-.14-.19,0-.37,.03-.52,.12-.15,.08-.28,.21-.36,.37-.06,.12-.1,.26-.11,.4h0s0,.08,0,.13h0s.01,.07,.02,.11c0,.07,0,.13,.02,.2,.02,.07,.04,.15,.09,.23h0s0,0,0,0h0c.09,.16,.23,.3,.4,.41,.18,.12,.39,.2,.6,.23,.22,.03,.44,.01,.62-.09,.1-.06,.19-.14,.26-.24h0s.03-.04,.03-.04c.79,.27,1.7,.41,2.63,.47,.94,.06,1.9,.05,2.79,.03,.02,.04,.04,.08,.06,.12h0s0,0,0,0c.03,.06,.06,.11,.09,.17l.03,.09v.04c-.29,.4-1.53,1.96-2.61,3.23-.42,.5-.82,.95-1.12,1.27-.26,.28-.38,.48-.4,.47-.23-.19-.63-.17-.98,0-.14,.07-.27,.16-.38,.27-.11,.11-.2,.25-.25,.4-.1,.33-.02,.74,.43,1.19,.24,.24,.6,.33,.94,.29,.17-.02,.34-.08,.49-.17,.15-.09,.27-.22,.34-.39,.1-.23,.11-.52-.03-.86,.27-.22,.92-.91,1.64-1.7,1.09-1.19,2.35-2.63,2.7-3.06,.13,.08,.26,.15,.4,.2h0c.14,.06,.3,.1,.46,.12,.07,.9,.15,1.8,.23,2.7,.09,.89,.18,1.79,.29,2.69h0s0,0,0,0c-.25,.08-.43,.23-.53,.42h0c-.12,.23-.14,.49-.1,.75,.04,.23,.15,.44,.3,.6,.14,.15,.31,.27,.5,.34,.19,.07,.4,.09,.6,.06,.2-.03,.39-.12,.56-.28,.09-.09,.17-.18,.22-.27,.12-.21,.15-.43,.11-.64-.04-.21-.15-.41-.31-.58-.1-.1-.21-.2-.34-.28-.06-.94-.11-1.88-.17-2.83-.05-.86-.11-1.79-.17-2.81,.07-.03,.13-.06,.19-.09h0c.06-.03,.11-.06,.17-.1,.56,.66,1.14,1.33,1.75,1.96,.62,.63,1.27,1.21,1.97,1.68-.02,.17,0,.35,.08,.51,.08,.18,.23,.33,.41,.44h0s.08,.04,.12,.06c.03,.01,.07,.03,.1,.04,.13,.09,.31,.14,.47,.13,.15,0,.31-.05,.42-.16h.01c.09-.07,.18-.14,.25-.22h0c.07-.09,.12-.2,.15-.33,.06-.27,.03-.6-.11-.86-.12-.22-.32-.41-.61-.48-.16-.04-.31-.04-.44-.02-.12,.02-.23,.07-.32,.13-.93-.65-1.76-1.59-2.53-2.47-.27-.31-.53-.61-.79-.89h0s-.14-.16-.14-.16h0s-.09-.1-.09-.1c.07-.12,.13-.24,.19-.37,.05-.13,.1-.27,.14-.4l.43-.02c1.48-.07,2.96-.14,4.45-.13,.02,.11,.06,.22,.12,.31h0c.07,.12,.17,.22,.31,.29h0c.23,.12,.51,.15,.75,.08h0Zm-1.01-.53h0s0,0,0,0h0Zm-7.49-9.77h0s0,0,0,0Z"/>
  </g>
</svg>