<?xml version="1.0" encoding="utf-8"?>
<!-- Generator: Adobe Illustrator 27.0.0, SVG Export Plug-In . SVG Version: 6.00 Build 0)  -->
<svg version="1.1" id="Layer_2_00000045576503467703354860000005642527722050431410_"
	 xmlns="http://www.w3.org/2000/svg" xmlns:xlink="http://www.w3.org/1999/xlink" x="0px" y="0px" viewBox="0 0 256.6 141"
	 style="enable-background:new 0 0 256.6 141;" xml:space="preserve">
<style type="text/css">
	.st0{enable-background:new    ;}
	.st1{fill:#FFFFFF;}
	.st2{fill:#DBA510;}
</style>
<g id="Layer_7">
	<g>
		<g class="st0">
			<path class="st1" d="M83.4,35.2L83.1,35c-0.7-0.3-1.1-0.8-1.2-1.3c-0.3-2.5,4.7-5.2,8.2-7.2c0.4-0.4,1.2-1.3,1.2-2.9
				c0-0.3,0-0.6-0.1-0.9c-0.1-0.7,0.2-1.8-0.5-2.1l-0.4-0.5C90,20.2,89.5,20,89.1,20l-0.3,0.1c-1.3,0.5-2.6,0.9-3.2,1h-0.1l-0.1,0.7
				c0,0.3,0,0.6-0.1,0.9c0,0.2,0,0.3,0,0.5c0,0,0,0.4-0.1,0.8c0.1,0.1,0.1,0.1,0.1,0.3c0,0,0,0,0,0.1c0,0.6,0.1,1.3,0.1,2
				c0,1.3-0.1,2.4-0.5,2.4c-0.4,0-1.4-0.3-2-1.1c-0.2-0.1-0.4-0.3-0.7-0.6L82,26.9c-0.1,0-0.2-0.1-0.3-0.2v0c0-0.1-0.1-0.1-0.1-0.2
				l0-0.1c-0.1-0.3,0-0.5,0-0.8c0-0.3,0-0.5,0-0.8c0-0.3,0-0.6,0-0.9c-0.2-0.4-0.5-0.8-0.4-1.5l0.1-1.2c0-0.4,0.1-0.8,0.1-1.2
				l-0.1-0.5c0-0.3-0.1-0.7-0.1-1.1l-0.1-1.2v-0.3c-0.1-0.6-0.1-1.2-0.1-1.7c-0.1-1,0.2-2,0.1-3c0-1,1.2-2,1.9-2.1
				c0.3,0,0.6,0,0.7,0.1c0.1,0,0.3-0.1,0.3-0.1c0.1,0,0.3-0.1,0.3,0.1l0.3,2.7c0,0.2,0.1,0.2,0.1,0.3c0.2-0.5,0.4-1,0.7-1.4
				c0.3-0.6,0.7-1.3,1.2-1.7c0.9-0.9,2.3-1.7,2.8-1.7c0.4-0.2,0.9-0.3,1.3-0.3c0.8-0.1,1.3,0.2,2,0.6c1.4,0.7,2.3,1.9,2.5,3.2
				c0.2,1,0,1.9-0.4,2.7L95,15L94.7,16c-0.2,0.4-0.5,0.6-0.8,0.9l-0.3,0.3c-0.9,0.7-1.8,1.6-1.9,1.6c-0.1,0.1-0.2,0.1-0.3,0.2
				c0.8,0.3,3.2,1.1,3.6,3.8c0.1,0.5,0.1,1.1-0.1,1.7c1.3-0.4,1.9-1.7,2.3-2.4c0,0,0.1-0.1,0.1-0.1c0.1,0,0.3,0.1,0.3,0.3
				c0.1,0.4-0.3,1.5-1.4,2.2c0,0.1-0.3,0.3-0.3,0.3c0,0-1.1,0.6-1.1,0.6c-0.1,0.4-0.2,1.8-0.7,2.5C93,29.7,91.3,32,89,33.7
				c-0.8,0.6-2.5,1.8-4.1,1.8C84.4,35.6,83.8,35.5,83.4,35.2z M83.2,33.9c0.4,0,0.9-0.2,1.4-0.4c1.1-0.4,3.2-2.4,4.3-4l0.6-1
				c0.2-0.3,0.3-0.5,0.4-0.8l-0.2,0.1L89.1,28c-0.8,0.6-1.9,1.1-2.7,1.6c-1.4,0.9-3.8,3.2-3.7,3.9C82.7,33.8,83,33.9,83.2,33.9z
				 M85.5,18v0.8c0,0.1,0,0.1,0,0.2c0,0.1,0,0.3,0,0.4c0.1,0.3,0.1,0.6,0.1,0.8c0.2,0,0.5-0.1,0.8-0.2l1-0.3l1.3-0.6l0.8-0.4
				l0.2-0.1c0.4-0.4,0.5-1.5,0.9-1.8c0.2-0.2,0.3-0.9,0.4-1.2c0.1-0.8,0.2-1.6,0.2-2.3c0-0.4-0.1-0.8-0.2-1.2
				c-0.3-1.2-0.6-1.2-1.4-1.9l-0.4-0.3c-0.1,0-0.2-0.1-0.4-0.1c-0.3,0.1-0.5,0.2-0.8,0.3c-0.3,0.4-0.7,0.7-1,1.1
				c-0.7,1-1.2,2.3-1.6,3.4c0,0.1,0,0.2,0,0.2v0.1c-0.1,0.3-0.1,0.7-0.2,1C85.5,16.4,85.5,17.2,85.5,18z"/>
		</g>
		<g class="st0">
			<path class="st1" d="M97.1,23.1c0-1,0-2.6,0.6-3.5c0.1-1.1,0.5-6.1,1.9-6.1c0.3,0,0.4,0.3,0.6,0.7c0.4,0,0.4,0.7,0.4,0.7
				c0,0.8-0.1,1.3-0.1,1.8c0,0.2,0,0.3,0,0.5l0-0.1c0,0.4,0.1,0.8,0.1,1.2c0,0.5-0.2,0.9-0.2,1.3v0.1l0.1,0.1l-0.1,0.2
				c0,0,0,0.1,0,0.1c0,1.1-0.3,2.3-0.3,3.4l0,0c0,1.1,0.5,4.3,1.9,4.5l0.1,0c0.7,0.3,1.5-1.7,1.9-2.1l0.1-0.2l0,0.1
				c0.2-0.9,0.5-1.8,0.7-2.8h0c0.3-1.4,0.7-9.3,2.1-9.3c0.3,0,0.5,0.2,0.5,0.5c0,0.2-0.1,0.5-0.1,0.8c0,0.3,0.1,0.7,0.1,1
				c-0.3,0.3-0.9,6.2-1,7.2l-0.1,0c0,0.6-1,3.6-1.4,3.9c-0.4,1.2-2.2,2.3-3.9,2.3C98.3,29.4,97.1,25.8,97.1,23.1z"/>
			<path class="st1" d="M111.6,29L111.6,29l-0.2-0.1c-0.7-0.1-0.9-1-0.9-2c0-1.6,0.5-3.5,0.5-5.5c0-1.6,0.3-3.1,0.3-4.7l-0.1-0.2
				c0.1-0.5,0.1-1,0.1-1.5c0-0.4,0-0.8,0.1-1.2c-0.4-0.1-0.7-0.1-1.1-0.1c-0.5,0-1.1,0.1-1.5,0.1s-1-0.1-1-0.4
				c0-0.7,3.1-0.8,3.6-0.8l0-0.2c0.1-0.2,0.4-0.2,0.4-0.2c0.6,0,0.9,0.1,1.2,0.3c0.5-0.1,0.9-0.1,1.4-0.1h2.4c0.3,0,1.7,0,1.7,0.6
				c0,1-3.1,0.8-3.7,0.8c-0.3,0-0.4,0-0.6,0c0,0.2,0,0.4-0.1,0.6c0,0.1,0,0.2,0,0.2c0,0.8-0.3,1.5-0.3,2.2l0,0
				c0.1,0.3,0.1,0.7,0.1,1.1c0,1.5-0.4,6.5-1.1,7.9c0.1,0.3,0.1,0.6,0.3,0.9c-0.1,0.2-0.2,0.4-0.3,0.5c-0.1,0.1-0.3,0.3-0.3,0.3
				l-0.1,0.3l-0.4,0.2l-0.1,0l-0.1,0.3l0,0.1l-0.1,0.1l-0.2,0.5L111.6,29z"/>
		</g>
		<g class="st0">
			<path class="st1" d="M124.1,24.4c0-0.3,0-0.5,0-0.8l-0.2-0.2c0.1-1.4,0.5-2.8,0.5-4.2v-0.7c-0.3-0.7-0.4-1.3-0.4-2.1
				c0-0.4,0.1-0.7,0.5-0.7c0.9,0,2.6,1.2,2.6,2.2c0,0.2,0,0.3,0,0.5c0.2,0.3,0.3,0.6,0.4,0.9c0,0.6,0,1.5-0.1,2.1
				c-0.1,0.5-0.9,3.1-0.9,3.7c0,0.1,0,0.2,0.1,0.2c0.7,0,1.9-2.4,2.2-2.9v0c0.1-0.4,0.1-0.9,0.1-1.3c0,0,0-0.1,0-0.1
				c0.2-0.9,0.7-2.1,1.8-2.1c1,0,1.4,0.9,1.4,1.9c0,0.2,0,0.5-0.1,0.7c0.5,0.8,0.3,1,0.5,1.4c-0.1,0.7-0.5,1.5-0.5,2.2
				c0,0,0.1,0.1,0.1,0.1v0.4c0,0.1,0,0.3,0,0.4v0c0,0.1-0.1,0.3-0.1,0.5c0,0.2,0.1,0.3,0.3,0.3c1,0,1.8-2.1,2-2.8
				c0.5-2.3,1.2-4.7,1.2-7.1c0-2.5-1.9-2.4-2.1-3.3c-0.2-0.1-0.8-0.1-0.8-0.4c0-0.3,0.5-0.5,0.7-0.5s0.5,0.1,0.8,0.1
				c2.3,0.4,3.8,2.1,4,4.4c0,0.1,0.1,0.1,0.1,0.2l-0.1,0.1c-0.1,2.3-3,10.2-5.6,10.2c-1.7,0-3.1-2.2-3.3-3.7
				c-0.1,0.1-0.9,1.5-0.9,1.7c0,0.3,0.1,0.5,0.1,0.8c0,0.7-1.8,1.4-2.3,1.4C124.3,27.8,124.1,25.6,124.1,24.4z"/>
			<path class="st1" d="M139.4,28.8c-0.8-0.3-1.3-1.1-1.4-2c-0.1-0.2-0.3-0.5-0.3-0.7c0-3.4,0.3-5.6,2.6-8.2c0.2-0.2,1-1.1,1.2-1.2
				c0.3-0.2,0.5-0.4,0.9-0.4l0.5,0c0.2,0,0.7-0.4,0.9-0.3c0.1-0.1,0.3-0.1,0.4-0.1c1.1,0,2.6,0.7,2.6,2c0,2.4-3.4,5.4-5.4,6.4
				c-0.3,0.4-0.3,1.2-0.3,1.7c0,1-0.2,1.9,1.1,1.9c1.4,0,3.9-2.2,4.6-3.3c0.4-0.5,0.9-1.2,1.3-1.7c0.2-0.3,1-1.8,1.4-1.9
				c0.1-0.1,0.3-0.1,0.4-0.1l0.1-0.1c0.1,0,0.1,0.2,0.1,0.3c0,0.4-0.5,0.9-0.7,1.1c-0.3,0.5-0.7,1-1,1.5c-0.1,0.1-0.1,0.3-0.1,0.4
				c-0.5,0.7-1.2,1.4-1.7,2.1c-0.9,1.1-3.2,3-4.6,3C141.1,29.4,140,29.3,139.4,28.8z M145.5,18.6l-0.3-0.2c-0.9,0.3-2.8,3.8-3.1,4.7
				C143.3,22.5,145.4,20.1,145.5,18.6z"/>
		</g>
		<g class="st0">
			<path class="st1" d="M106.9,53.7c-0.6,0-1.3-1.4-1.5-1.9c-0.4-0.8-0.4-1.6-0.4-2.5c0-2.7,0.4-4.2,1.2-6.9
				c0.2-0.8,0.4-1.7,0.6-2.5c0.1-0.3,1.2-3.7,1.2-4.3v-0.1l-0.1,0c-0.3,0-0.7,0.4-0.9,0.6L106,37c-0.3,0.3-1.4,2.8-1.5,3.1
				c-0.2,0.5-0.5,1-0.7,1.5c-0.1,0.2-0.2,0.4-0.3,0.6c-0.2,0.9-0.4,1.8-0.8,2.6c-0.1,0.3-0.3,0.6-0.4,0.9c-0.2,0.5-0.2,0.9-0.5,1.3
				c-0.2,0.3-0.2,1.3-0.5,1.3c-0.3,0-0.5-0.2-0.8-0.2c-0.7,0-0.9-0.3-1-0.9c-0.1-0.1-0.1-0.4-0.1-0.5c0-0.9,0.3-1.9,0.5-2.8
				c0.4-2.2,0.8-4.6,0.8-6.7c0-0.1,0-0.1,0-0.2c0-0.6,0-1.2,0-1.8c0-0.1,0-0.8-0.2-0.8c-0.3,0-1,0.8-1.2,1.1
				c-0.1,0.2-0.2,0.4-0.3,0.6c-0.5,0.6-0.9,1.1-1.3,1.8c-0.2,0.3-0.3,0.8-0.5,1.1c-0.2,0.3-0.3,0.7-0.3,1h0
				c-0.2,1.1-0.6,2.6-0.6,3.7c0,0.4,0,0.7,0,1.1c0,0.2,0,0.5,0,0.7c0,0.1-0.1,0.3-0.1,0.4c0,0.5-0.1,1.7-0.2,2.2
				c0,0.1-0.2,0.5-0.2,0.6c0,0.3-0.9,2.3-1.3,2.3c-0.2,0-0.2,0-0.5,0c-0.1,0-0.3-0.4-0.5-0.4c-0.7-0.2-0.6-0.2-1-0.8
				c-0.4-0.6-0.4-1.2-0.4-1.9c0-0.9,0.3-2.3,0.4-3.2c0-0.4,0-0.7,0.1-1.1c0.1-1.1,0.4-2.1,0.5-3.2c0-0.6,0.1-1.2,0.2-1.7
				c0-0.3,0.3-1.2,0.3-1.6c0-0.1,0-0.2,0-0.3c0-0.4,0.1-0.7,0.1-1.1c0-0.2-0.2-0.3-0.2-0.5c0-0.2,0.1-0.4,0.1-0.5
				c0-0.3-0.3-1.2-0.3-1.5c0,0-0.1-0.1-0.1-0.2c0-0.1,0-0.1,0-0.2c0.2-0.1,0.2-0.2,0.5-0.2c0.6-0.1,1.2-0.1,1.2-0.1
				c0,0.1-0.1,0.2-0.1,0.2c0.1,0,0.3-0.1,0.4-0.1c0.1,0,0.3,0.1,0.3,0.1c0.1,0,0.2,0.1,0.3,0.2c0.2,0.2,0.3,0.4,0.5,0.6
				c0.4,0.6,0.2,1.3,0.5,1.8c0,0.1-0.1,0.2-0.1,0.3c0.1,0.1,0.1,0.2,0.2,0.3c0.1,0.4,0.2,0.7,0.2,1.1l0.1-0.1
				c0.7-1.2,2.7-4.8,4.1-4.8c0.3,0,0.5,0.1,0.8,0.3c1,0.5,1.5,1.9,1.7,2.9c0.1,0.5,0,1.1,0,1.6c0,0.5-0.1,1,0,1.5
				c-0.1,0.3-0.2,0.8-0.2,1.1c1.1-1.8,3.2-6.4,5.5-6.4c0.7,0,1.7,0.7,1.7,1.5c0.5,0.7,0.4,0.9,0.4,1.7c0,2.1-0.4,4.2-0.8,6.2
				c-0.1,0.3-0.2,0.5-0.3,0.8c-0.1,0.5-0.2,1.1-0.5,1.5c0,0.5-0.1,0.6-0.1,0.9L109,46c0.1,0.1,0.1,0.2,0.1,0.3
				c0,0.1-0.1,0.3-0.1,0.4c0,0.6-0.1,0.4-0.3,0.9c-0.1,0.4-0.2,1.9-0.2,2.4c0,0.6,0,1.2,0.3,1.8c0,0.2,0.1,0.4,0.3,0.4
				c1.1,0,3.6-5.3,4-5.4c0,0.1,0.1,0.3,0.1,0.4c0,0.2-0.7,1.4-0.8,1.7c-0.9,1.5-1.6,2.9-2.9,4.1c-0.2,0.2-0.5,0.7-0.9,0.8
				c-0.2,0-0.8,0.3-1.1,0.3C107.3,54,107.1,53.9,106.9,53.7z"/>
		</g>
		<g class="st0">
			<path class="st1" d="M119.1,49.8c-0.2-0.7-0.1-1.3-0.2-2c0-0.1,0.1-0.2,0.1-0.2l-0.4,0.6c-0.2,0.4-1.2,2.5-1.9,2.5
				c-0.3,0.2-0.7,0.6-1.1,0.6c-1.8,0-3.5-1.2-3.5-3.1c0-2.3,2.4-6.7,4.7-7.7c0.6-0.4,1.9-0.9,2.7-0.9c0.6,0,2.4,1.2,2.4,1.9
				c0,0.2-0.1,0.4-0.3,0.4c-1.8-0.3-4,1.5-4.6,3l-0.6,1.3c-0.2,0.4-0.8,1.6-0.8,1.9c-0.1,0.2-0.1,0.4-0.1,0.6l0,0
				c0.1,0.5,0,1.3,0.7,1.3c0.4,0,0.9-0.4,1.1-0.7c0.6-0.7,2.2-4.1,2.5-5c0.1-0.4,0.4-0.7,0.5-1.1c0-0.4,1.3-0.4,1.6-0.4
				c0.4,0,0.8,0.1,1.1,0.4c0,0,0,0.1,0,0.1c0.2,0.1,0.3,0.3,0.3,0.5c0,0.3-0.5,1.1-0.5,1.5c-0.1,0.5-0.2,0.9-0.3,1.4
				c0,0.4-0.1,0.8-0.3,1.1c-0.1,0.3-0.8,2.4-0.8,2.4c0,0.2,0.3,0.2,0.4,0.2c1.8,0,4.4-6.9,5.3-6.9c0.1,0,0.3,0.1,0.3,0.3
				c0,0.1,0,0.2,0,0.3c0,0.1-3.2,5-3.5,5.6c-0.5,0.9-1.8,1.9-2.9,1.9C120.2,51.7,119.4,50.6,119.1,49.8z"/>
		</g>
		<g class="st0">
			<path class="st1" d="M135,53.3L135,53.3c-1-0.2-2-1.3-2.7-2c-0.1-0.1-0.3-0.4-0.4-0.4c-1.1-1.1-1.8-2.5-2.3-3.9
				c-0.1,0.1-0.1,0.1-0.2,0.2c-0.1,0.4-0.1,0.8-0.2,1c-0.1,1,0.2,3.6-1.3,3.6c-0.3,0-0.6-0.1-0.7-0.3c-0.2-0.1-0.3-0.3-0.4-0.4
				c-0.6-0.5-0.5-2.4-0.5-4c0-2.2,0.2-4,0.3-5.2c0.3-2.4,0.7-3,0.8-3.7l-0.1-0.1c0-0.4,0.5-1.4,0.9-1.4c0.5,0,1.4,1.5,1.4,2.8
				c0,0.9-0.4,2.6-0.4,4.3c0,0.1,0,0.2,0,0.3c0.2-0.1,0.4-0.3,0.5-0.4l0.1-0.1h0.1c0.8-0.9,1.6-1.7,2.3-2.4c0.7-0.8,1.2-1.5,1.6-1.9
				s0.7-0.7,1-1c0.1-0.2,0.3-0.4,0.4-0.5c0.1-0.1,0.3-0.2,0.4-0.2h0.2c0.4,0.2,0.8,0.4,0.8,0.9c0,0.7-0.7,1.5-0.9,1.7
				c-0.2,0.3-0.3,0.3-0.3,0.4c-0.1,0.1-0.5,0.5-0.6,0.7c-0.9,1-1.8,2-2.5,2.5c-0.9,0.8-1.6,1.3-2.1,1.9c0.8,1,1.4,2,2.4,2.8
				c0.1,0.2,0.3,0.3,0.4,0.4c0,0,0,0.1,0.1,0.1c0.5,0.9,1.4,1.5,2.1,2.1c0.2,0,0.3,0.1,0.5,0.2c0.3,0.1,0.6,0.2,0.6,0.6
				c0,0.5-0.5,1.1-0.9,1.2c-0.1,0.2-0.2,0.2-0.4,0.2C135.3,53.4,135.1,53.3,135,53.3z"/>
		</g>
		<g class="st0">
			<path class="st1" d="M137,50.8c-0.8-0.5-1-1.4-1-2.2c-0.1-0.2-0.2-0.5-0.1-0.8c0.6-3.3,1.3-5.4,4.1-7.5c0.3-0.2,1.2-0.9,1.4-0.9
				c0.4-0.2,0.5-0.3,0.9-0.2l0.4,0.1c0.2,0,0.8-0.3,0.9-0.1c0.2,0,0.3,0,0.4,0c1.1,0.2,2.4,1.2,2.1,2.5c-0.5,2.4-4.4,4.7-6.6,5.2
				c-0.4,0.3-0.5,1.1-0.6,1.6c-0.2,1-0.5,1.9,0.8,2.1c1.3,0.3,4.2-1.5,5.1-2.3c0.5-0.5,1.1-1,1.6-1.5c0.3-0.3,1.4-1.6,1.7-1.6
				c0.2,0,0.3,0,0.4,0l0.1,0c0.1,0,0,0.2,0,0.3c-0.1,0.4-0.6,0.8-0.9,1c-0.4,0.4-0.9,0.8-1.2,1.3c-0.1,0.1-0.1,0.3-0.2,0.4
				c-0.6,0.6-1.4,1.2-2.1,1.8c-1.1,0.9-3.7,2.4-5.1,2.1C138.6,51.7,137.6,51.4,137,50.8z M144.9,41.9l-0.2-0.3c-1,0.1-3.5,3.1-3.9,4
				C142.1,45.3,144.6,43.3,144.9,41.9z"/>
		</g>
		<g class="st0">
			<path class="st1" d="M165.3,51.7c0.1-1.2-0.4-2.1-0.1-3.5c0.1-0.5,0.3-1.2,0.4-1.8c0-0.2,0.1-0.4,0.1-0.7c-1,0.2-2.1,0.1-3.1,0.2
				c-0.7,0.9-1.5,1.6-2.1,2.5l0,0l-1,1.6c-0.3,0.2-0.4,0.5-0.7,0.6l-0.2,0l-0.5,0.2c-0.2,0-0.2-0.2-0.3-0.3l0-0.1
				c0.1-0.3,0.2-0.7,0.3-1c0.3-0.2,0.7-0.9,0.8-1.2l0.3-0.2c0.5-1.1,1.2-2.3,2-3.3l-0.3,0c-0.2-0.1-0.2-0.3-0.2-0.5
				c0.1-0.5,1.2-1.3,1.6-1.6c0.6-1.3,1.6-2.4,2.1-3c0.7-1,2.1-3.2,2.2-3.3l0.1-0.2l0.4-0.1c1,0.7,2.5,1.6,2.3,3
				c-0.1,0.3-0.2,0.6-0.3,0.9c-0.1,0.6,0.2,1.2,0.1,1.7l-0.3,1.6c0,0,0,0.1,0.1,0.1c0.1,0,0.2-0.1,0.3-0.1l0.1,0
				c0.3,0,0.3,0.2,0.3,0.4c-0.3,0.2-0.6,0.5-0.9,0.7c-0.1,0.2-0.1,0.4-0.1,0.4c-0.2,1.1-0.2,2.1-0.3,3c-0.1,1.4-0.5,2.8-0.8,4.2
				c0.1,0.2,0.1,0.6,0,0.8c-0.2,0.8-0.7,0.9-1.1,0.8C165.8,53.3,165.5,52.2,165.3,51.7z M165.9,44.4c0-0.4,0.1-0.7,0.2-1.2
				c0.1-0.7,0.4-1.5,0.5-2.2c0.1-0.5,0.2-0.9,0.1-1.3c-0.2,0.2-0.5,0.3-0.7,0.3l0,0l-0.3,0.2c-0.2,0.1-2.2,4-2.4,4.5
				C164.2,44.7,165.1,44.5,165.9,44.4z"/>
		</g>
		<g class="st0">
			<path class="st2" d="M73.3,100.1l-0.2-0.8c1.6-0.4,1.9-1,1.6-2.9l-5-27c-0.4-2.3-1.4-2.7-3.4-2.2l-0.2-0.8l15.3-3.8l0.2,0.8
				c-2.6,0.7-2.7,1.3-2,3.5l8.1,26c0.6,1.9,1.1,2.3,2.7,1.9l2.2-0.6c4.9-1.2,6.7-6.2,5.3-12.1l0.9-0.2l3.3,11.1L73.3,100.1z"/>
		</g>
		<g class="st0">
			<path class="st2" d="M107.2,92.8l-0.1-0.9c1.6-0.1,2.1-0.6,2.1-2.6l-0.1-16.5c0-2.3-0.8-2.9-2.8-2.7l-0.1-0.8l13.1-0.9l0,0.2
				c-0.4,0.2-0.5,1.1-0.2,3.6l2.1,16.3c0.2,2,0.7,2.4,2.4,2.3l0.1,0.9L107.2,92.8z M113.6,66.9c-2.9,0.2-5.4-1.7-5.6-4.6
				c-0.2-2.9,2-5.1,4.9-5.3c2.9-0.2,5.4,1.7,5.6,4.6C118.7,64.6,116.5,66.7,113.6,66.9z"/>
		</g>
		<g class="st0">
			<path class="st2" d="M128.8,92.4l0.1-0.9c1.6,0.1,2.1-0.3,2.4-2.3l2.4-19l-2.9-0.2l0.1-1.1l3,0.2l0.5-3.6c0.7-5.5,4.4-7.8,10-7.4
				c5.2,0.3,6.9,3.4,6.8,5.9c-0.1,1.8-1.3,3.9-3.5,3.7c-1.9-0.1-3.5-1.7-3.3-3.6c0.1-1.6,1.4-3.1,3.2-3c0.7,0,1.6,0.4,2.1,1.2
				c0-1.2-1.7-3-3.6-3.1c-1.6-0.1-2.4,0.6-2.4,3.1l0,7.4l2.8,0.2l-0.1,1.1l-2.8-0.2L143.3,90c0,2,0.3,2.5,2,2.6l-0.1,0.9L128.8,92.4
				z"/>
		</g>
		<g class="st0">
			<path class="st2" d="M180.9,92.2c-3,4.6-6.5,6.6-15.3,4.7c-8.6-1.9-13.9-5.9-12.2-13.6c1.7-7.8,8.9-12.1,17.6-10.2
				c8.2,1.8,12.2,8.2,10.8,15.5l-16.8-3.7c-1.1,5.2-1,4.7-1.2,6.1c-0.4,3.2,0.9,4.5,4.4,5.3c6.1,1.4,9.8-0.7,12-4.5L180.9,92.2z
				 M172.1,80.4c0.7-3.9,1-5.7-1.7-6.3c-1.7-0.4-2.9,0.2-3.8,3.8c-0.4,1.6-0.8,3-1.4,5.7l4.4,1c1.3,0.3,1.7,0.2,2.1-1.7L172.1,80.4z
				"/>
		</g>
	</g>
</g>
</svg>
