<?xml version="1.0" encoding="utf-8"?>
<!-- Generator: Adobe Illustrator 27.0.0, SVG Export Plug-In . SVG Version: 6.00 Build 0)  -->
<svg version="1.1" id="Layer_2_00000175304183918988424060000006388624768336955526_"
	 xmlns="http://www.w3.org/2000/svg" xmlns:xlink="http://www.w3.org/1999/xlink" x="0px" y="0px" viewBox="0 0 180.9 132.8"
	 style="enable-background:new 0 0 180.9 132.8;" xml:space="preserve">
<style type="text/css">
	.st0{enable-background:new    ;}
	.st1{fill:#FFFFFF;}
	.st2{fill:#E3746D;}
</style>
<g id="Layer_7">
	<g>
		<g class="st0">
			<path class="st1" d="M49.7,27.6c0-0.3,0-0.6,0-0.9l-0.2-0.2c0.1-1.6,0.5-3.2,0.5-4.8v-0.8c-0.3-0.8-0.5-1.5-0.5-2.3
				c0-0.4,0.1-0.8,0.6-0.8c1,0,3,1.4,3,2.5c0,0.2,0,0.4,0,0.6c0.2,0.3,0.3,0.7,0.5,1.1c0,0.7,0,1.7-0.2,2.3
				c-0.2,0.6-1.1,3.5-1.1,4.2c0,0.1,0,0.3,0.2,0.3c0.7,0,2.2-2.7,2.5-3.3v0c0.1-0.5,0.1-1,0.1-1.5c0,0,0-0.1,0-0.1
				c0.3-1,0.8-2.4,2-2.4c1.2,0,1.6,1.1,1.6,2.1c0,0.3,0,0.6-0.1,0.8c0.5,0.9,0.4,1.1,0.6,1.6c-0.1,0.8-0.6,1.7-0.6,2.5
				c0,0,0.1,0.1,0.1,0.1V29c0,0.1,0,0.3,0,0.5v0c0,0.2-0.1,0.4-0.1,0.6c0,0.2,0.1,0.4,0.3,0.4c1.1,0,2-2.3,2.2-3.2
				c0.6-2.6,1.4-5.4,1.4-8c0-2.9-2.2-2.7-2.3-3.8c-0.3-0.1-0.9-0.1-0.9-0.5c0-0.4,0.5-0.5,0.8-0.5s0.6,0.1,0.9,0.2
				c2.6,0.5,4.3,2.4,4.5,5c0,0.1,0.1,0.1,0.1,0.2l-0.1,0.2c-0.2,2.7-3.4,11.6-6.4,11.6c-2,0-3.5-2.5-3.8-4.3c-0.2,0.1-1,1.7-1,1.9
				c0,0.3,0.1,0.6,0.1,0.9c0,0.7-2,1.6-2.7,1.6C49.9,31.5,49.7,29,49.7,27.6z"/>
		</g>
		<g class="st0">
			<path class="st1" d="M65.9,32.7c0-0.4,0.1-0.8,0.2-1.2c-0.1-0.4-0.1-0.8-0.2-1.2c0.1-0.6,0.5-1.9,0.5-2.4c0-2.9,1.7-5.3,1.8-8.1
				c0.5-1.2,0.8-2.4,1.2-3.6v0c0.1-0.4,0.2-0.9,0.4-1.2l1.2-2.3h0c0.2-0.4,1-2.9,1.3-2.9c1.1,0,1.7,1.2,1.9,2.1c0,0,0,0.1,0,0.1
				c0.1,0,0.1-0.1,0.2-0.2l0.3-0.2c0.1,0,0.1,0.1,0.1,0.1l0,0.1c0.2,0.3,0.6,1,0.6,1.3c0,0.8-1.9,5-2.5,5.7v0
				c-0.6,1.5-2,4.5-2.3,5.9c0.8-0.8,1.6-1.8,2.5-2.4h0c0.2-0.1,0.5-0.4,0.7-0.4c0.9-0.5,1.5-0.8,2.6-0.8c1.3,0,2.2,1.1,2.2,2.4
				c0,0.5-0.2,1-0.3,1.5c0,0.3,0.1,0.6,0.1,0.9l-1,2.2c0.1,0.6,0,1.3-0.4,1.8v0c-0.3,0.4-0.9,1.7-0.9,2.2c0,0.3,0.1,0.4,0.4,0.4
				c2.8,0,6.7-9.3,8-9.3c0.2,0,0.3,0.1,0.3,0.3c0,0.4-0.2,0.6-0.4,0.9c-1,1.7-1.9,3.6-3.1,5.2c-0.7,0.8-3,3.8-4,3.8
				c-0.4,0-1.9-0.2-2.2-0.4c-1.1-0.2-1.9-2-1.9-3c0-1.2,0.3-2.3,0.3-3.4c0.2-0.6,1.2-2.9,1.2-3.8c0,0,0-0.1-0.1-0.1
				c-0.6,0.4-2.4,1.9-2.4,2.5c-0.5,0.8-0.9,1.6-1.4,2.3c0.1,0.6,0.1,1.4,0.2,2c-0.5,0.7-0.9,1.4-1.5,2c-0.1,0.4-0.2,1.1-0.6,1.1
				c-0.2,0.2-1.2,1.7-1.3,1.7C66.6,34.2,65.9,33.3,65.9,32.7z M71.7,25.6C71.7,25.7,71.7,25.7,71.7,25.6L71.7,25.6z"/>
			<path class="st1" d="M89.1,30.5c-0.2-0.7-0.2-1.5-0.3-2.3c0-0.1,0.1-0.2,0.1-0.3l-0.5,0.6c-0.2,0.5-1.4,2.8-2.1,2.9
				c-0.3,0.2-0.8,0.7-1.2,0.7c-2,0-3.9-1.3-3.9-3.5c0-2.7,2.7-7.6,5.3-8.8c0.7-0.5,2.1-1,3-1c0.7,0,2.8,1.3,2.8,2.1
				c0,0.2-0.2,0.4-0.4,0.5c-2-0.4-4.5,1.7-5.2,3.4L86,26.5c-0.2,0.4-0.9,1.8-0.9,2.2c-0.1,0.2-0.2,0.5-0.2,0.6l0,0
				c0.1,0.5,0,1.5,0.7,1.5c0.5,0,1-0.5,1.3-0.8c0.7-0.8,2.5-4.6,2.9-5.7c0.1-0.5,0.5-0.8,0.6-1.2c0-0.5,1.5-0.5,1.8-0.5
				c0.5,0,0.9,0.1,1.3,0.5c0,0,0,0.1,0,0.2c0.2,0.2,0.4,0.3,0.4,0.6c0,0.3-0.5,1.3-0.6,1.7c-0.1,0.6-0.3,1-0.3,1.6
				c0,0.5-0.2,0.9-0.3,1.3c-0.2,0.4-0.9,2.7-0.9,2.7c0,0.2,0.4,0.2,0.5,0.2c2.1,0,5-7.8,6-7.8c0.2,0,0.3,0.2,0.3,0.3
				c0,0.1,0,0.2,0,0.4c0,0.2-3.6,5.7-4,6.3c-0.6,1-2,2.2-3.2,2.2C90.4,32.6,89.4,31.4,89.1,30.5z"/>
		</g>
		<g class="st0">
			<path class="st1" d="M97.1,29.8c-0.6-0.6-1.8-1.5-1.8-2.5c0-1.6,0.7-3.9,1.2-5.4c0-0.6,0.2-1.5,0.4-2c0.4-1.3,0.5-2.7,0.8-4.1
				L96,15.7c-0.9-0.1-5.4-0.8-5.4-2.2c0-0.1,0.1-0.3,0.2-0.3l0.1-0.1l0.2,0.1l0.5-0.1c2.1,0.9,4.3,0.9,6.6,1.1l0.8-2.1
				c0.1-0.5,0.4-0.8,0.5-1.3c0.1-0.7,0.2-1.5,0.3-2.2c0-0.4,0.1-2.5,0.8-2.5c1.1,0,2.4,1.6,2.4,2.6c0,0.5,0.2,1.8,0.6,2.1
				c0,0.3-0.9,3.4-1,3.9l2.6,0.1c0.2,0,0.4,0,0.6,0c1.2,0.1,5.3,1.1,5.3,2.8c0,0.3-0.1,0.4-0.4,0.4h-0.5c-0.4-1.7-6.9-1.9-8-1.9
				c-0.3,1.4-0.4,2.9-0.8,4.3l0.1,0.7c-0.6,1.6-2.2,5.7-2.2,7.5c0,0.3,0,0.7,0.2,0.8c1.4-0.6,4.3-4.4,5-5.8c0.2-0.4,1.5-2.9,1.8-2.9
				c0.2,0,0.3,0.2,0.3,0.4c0,0.1,0,0.1,0,0.2c0.5,1.2-5.5,9.6-7.6,9.6C98,31,97.4,30.6,97.1,29.8z"/>
		</g>
		<g class="st0">
			<path class="st1" d="M114.7,28.8c0-0.6,0-1.2,0-1.8c0-0.5-0.1-1-0.1-1.6s0.1-1.1,0.1-1.6c0-0.9-0.1-1.7-0.1-2.6l-0.4-0.7
				l-0.1-0.3c0.9-1.1,0.7-1.8,2.1-1.8c1.4,0,2.2,1.1,2.2,2.4c0,0.1,0,0.3,0,0.4c0.3,0.1,0.4,0.4,0.4,0.7c0,0.7-0.2,1.5-0.2,2.3
				c0,0.9,0.1,1.8,0.1,2.7v2.2c0.1,0.2,0.3,0.4,0.5,0.5c1-0.8,2-1.8,2.8-2.9c0-0.5-0.1-0.9-0.1-1.4c0-1.6,0.8-4.4,2.8-4.4
				c0.4,0,0.7,0.1,1.1,0.3c0.4,0,0.4,0.4,0.4,0.7c0,0.7-0.2,1.5-0.2,2.3c0,1.7-0.1,3.3-0.1,5c0,0.1,0.2,0.5,0.3,0.5
				c2.3-1.6,4.8-7.4,4.9-10.1c0.1-0.3,0.2-1.5,0.2-1.9c0-0.3-0.2-1.5,0.2-1.5c0.3,0,0.9,0.9,1,1.1c-0.2,0.9,0.6,1.6,0.6,2.3
				c0,2.4-3,6.9-4.3,8.9c0,0.1,0,0.3,0,0.5c-0.3,0.1-0.6,0.3-0.8,0.4c-0.3,0.2-1.9,1.6-1.9,1.9c0,0,0,0,0,0.1
				c-0.4,0.2-0.7,0.5-1.2,0.5c-1.4,0-2.8-1.7-2.9-3c-2,1.3-3.5,2.4-3.2,2.6c-0.4,0.2-0.8,0.5-1.3,0.5
				C116.4,32,114.7,30.1,114.7,28.8z"/>
		</g>
		<g class="st0">
			<path class="st1" d="M133.3,32.9L133.3,32.9c-0.9-0.4-1.4-1.3-1.6-2.3c-0.2-0.2-0.3-0.5-0.3-0.8l-0.1-0.1v-0.2
				c0-0.9,0.5-3.7,1-4.4c0.1-0.2,0.3-0.4,0.4-0.6v0c0.5-1,2-3,3.2-3.2c0-0.1-0.1-0.3,0-0.4c0.5-0.6,1.4-1,2.2-1c0.1,0,0.2,0,0.3,0.1
				c1.4-0.3,3.2,1.1,3.2,2.6c0,2.7-3.9,6.1-6.1,7.2c-0.2,0.2-0.4,0.5-0.4,0.8c0,1,0.2,1.5,1.3,1.5c1.6,0,4.5-2.3,5.4-3.5
				c0.3-0.4,0.6-0.8,0.8-1.3c0.5-0.7,2-2.7,2-3.5l0-0.1c0.1,0,0.2-0.1,0.3-0.1c0.3,0,0.5,0.2,0.5,0.5c0,0.3-1.7,2.9-2,3.2
				c-0.1,0.3-0.3,0.5-0.4,0.7c-0.6,0.9-2.6,3.4-3.3,3.9c-1.1,0.7-2.4,1.7-3.8,1.7C135.3,33.5,134.1,33.4,133.3,32.9z M140.5,23.1
				l-0.3-0.3c-0.8,0.3-1.2,1.2-1.9,1.6c-0.8,1.3-1.9,2.6-2.5,4.1C137.5,27.7,140.3,25.1,140.5,23.1z"/>
		</g>
		<g>
			<g>
				<path class="st1" d="M33.7,26.5l-0.2-0.2c-0.1-0.2-0.2-0.3-0.4-0.4l-0.4-0.3c0.1-0.1,0.2-0.2,0.4-0.3c0.1-0.1,0.1-0.1,0.2-0.2
					c0.1-0.1,0.1-0.1,0.2-0.2c0.1-0.2,0.2-0.5,0.2-0.8c0-0.4-0.2-0.7-0.4-1.1c-0.1-0.2-0.2-0.3-0.4-0.4l-0.1-0.1
					c0,0-0.1-0.1-0.2-0.1c-0.3-0.2-0.7-0.3-1-0.3l-0.1,0c-0.1,0-0.2,0-0.2,0c-0.3-0.1-0.6-0.1-0.8-0.1c-0.1,0-0.2,0-0.3,0l-0.9,0
					c-0.1,0-0.1,0-0.2,0.1l-0.6,0c-0.1,0-0.2,0-0.3,0c-0.1,0-0.3,0.1-0.4,0.3c-0.1,0.1-0.1,0.3-0.1,0.5c0,0.1,0,0.3,0,0.5
					c0,0.2,0,0.4,0,0.6c0,0.1,0,0.2,0,0.3v0.4c0,0.1,0,0.1,0,0.2c0,0.1,0,0.1,0,0.2c0,0.5,0,0.9-0.1,1.4c0,0.1,0,0.2,0,0.3
					c0,0.1,0,0.2,0,0.3v0.1c0,0.2,0,0.3-0.1,0.5c0,0.2,0,0.4,0,0.6c0,0,0,0.1,0,0.1V29c0,0.2,0.1,0.3,0.2,0.4c0.1,0,0.1,0.1,0.2,0.1
					c0.1,0.1,0.3,0.1,0.5,0.1c0,0,0.1,0,0.1,0c0.2,0,0.5,0,0.7,0c0.1,0,0.2,0,0.4,0c0.1,0,0.2,0,0.3,0h0.1c0.1,0,0.3,0,0.4,0
					c0.1,0,0.2,0,0.2,0c0.4,0,0.8-0.1,1.2-0.1c0.2,0,0.4-0.1,0.5-0.2c0.2-0.2,0.4-0.3,0.6-0.5c0.1-0.1,0.2-0.1,0.2-0.2
					c0.1-0.1,0.2-0.2,0.3-0.3c0.1-0.2,0.2-0.4,0.2-0.6c0-0.1,0-0.3,0-0.4C33.9,27.1,33.8,26.8,33.7,26.5L33.7,26.5z M31.1,25
					c-0.2,0-0.4,0.1-0.6,0c-0.2,0-0.3,0-0.5,0c-0.1,0-0.2,0-0.3,0c-0.3,0-0.5,0-0.8,0h-0.1c0-0.1,0-0.1,0-0.1c0-0.1,0-0.2,0-0.3
					v-0.9c0-0.2,0-0.3-0.1-0.5c0,0,0,0,0.1,0c0.1,0,0.3,0,0.4,0h0.3c0.2,0,0.4,0,0.7,0c0.1,0,0.1,0,0.2,0c0,0,0,0,0.1,0
					c0.2,0,0.4,0,0.6,0c0.1,0,0.2,0,0.2,0c0.3,0,0.6,0.1,0.9,0.2c0.1,0,0.2,0.1,0.4,0.3c0,0,0,0,0,0.1c0,0,0,0.1,0,0.1
					c0.1,0.1,0.1,0.2-0.1,0.4c0,0.1-0.1,0.1-0.2,0.2c-0.1,0.1-0.3,0.2-0.5,0.3C31.7,24.9,31.4,25,31.1,25L31.1,25z M28.8,23.1
					L28.8,23.1C28.8,23.1,28.8,23.1,28.8,23.1C28.8,23.1,28.8,23.1,28.8,23.1z M28.7,26.8c0-0.1,0-0.3,0.1-0.4v0c0.2,0,0.4,0,0.5,0
					c0.1,0,0.3,0,0.4,0c0.2,0,0.4,0.1,0.6,0c0,0,0.1,0,0.2,0h0.1c0.1,0,0.2,0,0.3,0c0.2,0,0.4,0,0.6,0.1h0.1c0.5,0.1,1,0.3,1.3,0.7
					c0,0,0,0,0,0l0.1,0.2c0,0,0,0.1,0,0.1c-0.1,0.1-0.2,0.2-0.4,0.4c-0.2,0.1-0.4,0.2-0.6,0.3l-0.3,0.1c-0.1,0-0.2,0-0.3,0
					c-0.1,0-0.2,0-0.2,0c-0.3,0-0.5,0-0.7,0c-0.1,0-0.3,0-0.4,0c-0.1,0-0.2,0-0.3,0c0,0,0,0-0.1,0c-0.2,0-0.4,0-0.6,0
					c0,0-0.1,0-0.1,0c-0.1,0-0.1,0-0.3,0c0,0,0,0,0-0.1c0-0.2,0-0.4,0-0.5v-0.1c0,0,0-0.1,0-0.1L28.7,26.8
					C28.8,26.9,28.8,26.8,28.7,26.8L28.7,26.8z"/>
				<path class="st1" d="M41.2,20.6c-0.1-0.1-0.3-0.1-0.5,0l-0.1,0.1c-0.3,0.4-0.7,0.8-1,1.2c-0.1,0.1-0.1,0.2-0.2,0.3l-0.6,0.6
					c-0.4,0.4-0.7,0.8-1.1,1.2c-0.2-0.3-0.5-0.6-0.8-0.9l-0.9-1c0,0-0.1-0.1-0.1-0.1c-0.3-0.5-0.7-0.9-1-1.3l-0.1-0.1
					c-0.1-0.1-0.3-0.1-0.4,0c-0.2,0.1-0.3,0.2-0.3,0.3c0,0.1,0,0.3,0,0.4c0,0.1,0.1,0.1,0.1,0.2c0.1,0.2,0.3,0.3,0.4,0.5
					c0.2,0.4,0.5,0.8,0.8,1.1c0.1,0.1,0.2,0.3,0.4,0.4c0.1,0.2,0.2,0.3,0.4,0.4l0,0c0.1,0.2,0.2,0.3,0.3,0.4c0,0.1,0.1,0.1,0.1,0.2
					c0,0.1,0.1,0.1,0.1,0.2c0.1,0.1,0.2,0.2,0.2,0.3v0.1c0,0.1,0,0.2,0,0.2c0,0.1,0,0.2,0,0.3c0,0,0,0.1,0,0.2c0,0.2,0,0.4,0,0.6
					c0,0.1,0,0.3,0,0.4c0,0.1,0,0.3,0,0.4s0.1,0.3,0.3,0.4c0.1,0,0.2,0.1,0.3,0.1c0.1,0,0.2,0,0.2,0c0.1,0,0.2,0,0.2-0.1
					c0.2-0.1,0.3-0.2,0.3-0.4v-0.9c0-0.2,0-0.4,0-0.5s0-0.3,0-0.5c0,0,0-0.1,0-0.1c0-0.1,0-0.1,0-0.2c0.1-0.1,0.2-0.3,0.2-0.4
					l0.3-0.4c0.1-0.1,0.1-0.1,0.1-0.2c0.1-0.2,0.2-0.3,0.3-0.4c0.1-0.1,0.2-0.2,0.2-0.3c0.1-0.1,0.2-0.2,0.3-0.3
					c0.3-0.3,0.5-0.6,0.8-1c0-0.1,0.1-0.1,0.1-0.2c0.1-0.2,0.2-0.3,0.4-0.5c0.1-0.1,0.1-0.2,0.1-0.2C41.5,20.9,41.3,20.7,41.2,20.6
					L41.2,20.6z"/>
			</g>
			<path class="st1" d="M25.4,22.2c0.9-1.1,2.1-2,3.5-2.4c0.7-0.2,1.5-0.3,2.2-0.3c0.8,0,1.6,0,2.4-0.2c1-0.2,1.7-0.9,2.3-1.5
				c0.5-0.5-0.3-1.4-0.8-0.8c-0.6,0.6-1.1,1.1-1.9,1.3s-1.6,0.1-2.4,0.2c-1.6,0.1-3.1,0.5-4.4,1.5c-0.8,0.5-1.4,1.1-1.9,1.9
				c-0.2,0.2,0,0.6,0.2,0.8C25,22.6,25.3,22.4,25.4,22.2L25.4,22.2L25.4,22.2z"/>
			<path class="st1" d="M41.2,28c-0.9,1.1-1.2,0.9-2.7,1.4c-0.8,0.2-2.6,0.4-3.4,0.4c-0.9,0.1-1.8,1.1-2.7,1.3
				c-1,0.3-1.8,0.9-2.5,1.5c-0.5,0.5,0.4,1.2,0.9,0.7c0.6-0.6,1.2-1.1,2-1.3c0.9-0.2,2.3-1.4,3.2-1.5c1.7-0.1,2.9,0.1,4.3-0.8
				c0.8-0.5,1.4-0.6,2-1.3c0.2-0.2,0-0.6-0.2-0.7C41.7,27.6,41.4,27.8,41.2,28L41.2,28L41.2,28z"/>
		</g>
		<g class="st0">
			<path class="st2" d="M57.2,91.4l-1.3-3.1c-1.1-2.6-1.4-3.2-2.3-3.2c-3.1,0-3.9,8.4-23.6,8.4c-15.9,0-27.4-5.3-27.4-23.6
				c0-18.1,11.3-29.6,29.9-29.6c5,0,12.4,0.8,17.9,4.8l2.1-3.7h0.9c0.2,6.1,0.5,12.1,1,18.2H53C51.8,50.5,46.3,42,32.4,42
				c-8.8,0-9.1,3.6-9.1,26.9c0,16.4,0.1,22.9,7.7,22.9c4,0,7.3-1.9,7.7-9l0.7-10.9c0.2-3.2-1.1-4.1-4.1-4.1v-1.2h25.9v1.2
				c-4.3,0-4.3,1.3-4.1,3.7l1.2,19.9H57.2z"/>
		</g>
		<g class="st0">
			<path class="st2" d="M60.4,92.7v-1.3c2.5,0,3.2-0.7,3.4-3.7l2.5-41.2c0.2-3.5-1-4.4-4.2-4.4v-1.2h23.7v1.2c-4.1,0-4.4,1-4.2,4.4
				L84,87.6c0.2,3,0.8,3.7,3.3,3.7v1.3H60.4z"/>
		</g>
		<g class="st0">
			<path class="st2" d="M102.7,92.7L89.2,46.8c-1-3.4-1.9-4.7-5.2-4.7v-1.2h24.5v1.2c-3.9,0-5.2,0.8-3.8,3.8l14.1,31.7l8.5-30.6
				c1.1-3.9,0-4.9-3.4-4.9v-1.2h10.9v1.2c-3.6,0-4.5,0.6-5.6,4.9l-12,45.7H102.7z"/>
		</g>
		<g class="st0">
			<path class="st2" d="M132.3,92.7v-1.3c2.5,0,3.2-0.7,3.4-3.7l2.5-41.2c0.2-3.5-1-4.4-4.2-4.4v-1.2h42.3l1.1,16.8l-1.5,0.1
				c-0.3-10.7-5.8-15.2-13.6-15.2h-4.6c-4.1,0-4.4,0.9-4.2,4.3l1,17.7h5.6c3,0,6.5-1.6,6.5-8.8c0-1-0.1-2.3-0.1-2.3h1.4
				c0.1,7.8,0.5,15.6,0.8,23.4h-1.4c-0.1-1.5-0.1-2.9-0.3-4.3c-0.6-3.9-2.2-6.3-6.8-6.3h-5.4l1.2,21.2c0.1,3,0.8,3.6,3.4,3.6h5
				c7.6,0,12-6.7,12.1-15.7h1.4l0.8,17.4H132.3z"/>
		</g>
		<path class="st2" d="M29.9,120.7c15.4-5.4,31.5-8.3,47.7-10s33.3-2.1,49.9-2.4c8.9-0.2,17.7-0.3,26.6-0.6c3.2-0.1,3.2-5.1,0-5
			c-16.2,0.5-32.4,0.5-48.6,1.1c-16.8,0.6-33.7,1.9-50.3,5c-9,1.7-18,3.9-26.7,7c-1.3,0.4-2.1,1.7-1.8,3.1
			C27.1,120.2,28.6,121.2,29.9,120.7L29.9,120.7L29.9,120.7z"/>
		<g class="st0">
			<path class="st1" d="M87.8,119.7C87.8,119.8,87.8,119.8,87.8,119.7c-0.8,0.1-1.6,0.2-2.4,0.2c-0.6,0.1-1.1,0.1-1.7,0.2
				c-0.3,0-0.4,0-0.5-0.3c0.8-0.1,1.5-0.1,2.3-0.2c0.7-0.1,1.4-0.1,2.2-0.2C87.7,119.5,87.8,119.6,87.8,119.7z"/>
		</g>
		<g class="st0">
			<path class="st1" d="M92.7,117.3l0.2,2.1c0,0.4,0.1,0.8,0.2,1.2c0,0.2,0.1,0.4,0.1,0.6c0,0.2,0.1,0.5-0.1,0.6
				c-0.1,0-0.2,0-0.3-0.1c0-0.2,0-0.5,0-0.7c0-0.6-0.2-1.2-0.3-1.9c0-0.1,0-0.2-0.1-0.3c-0.3-0.2-0.6-0.5-0.8-0.8
				c-0.6-0.6-1.3-1.1-1.8-1.8c0,0.2,0,0.5,0,0.7c0.1,1.1,0.2,2.2,0.3,3.3c0.1,0.7,0.2,1.1,0.2,1.3c0,0.2,0,0.3-0.2,0.4
				c-0.1,0-0.1,0-0.1-0.1c0-0.1,0-0.3,0-0.5c0-0.4-0.1-0.9-0.1-1.3c-0.1-0.8-0.2-1.6-0.2-2.4c-0.1-0.7-0.1-1.5-0.2-2.2
				c0,0,0.1,0,0.1,0c0.1,0,0.3,0.1,0.4,0.2c0.1,0.1,0.1,0.2,0.1,0.2c0.2,0.2,0.5,0.7,0.7,0.8c0.6,0.4,1.3,1.2,1.9,1.7l-0.3-2.9
				c0-0.2,0.1-0.3,0.2-0.3c0.1,0,0.1,0.1,0.2,0.1C92.5,115.6,92.6,117,92.7,117.3z"/>
		</g>
		<g class="st0">
			<path class="st1" d="M98.3,115c0.4,0.1,0.8,0.4,1,0.8c0.5,1,0.5,1.7,0.6,2.8c0.1,0.9-0.3,1.9-1,2.5c-0.5,0.3-0.8,0.5-1.4,0.6
				c-2,0.1-2.8-1.6-2.9-3.3c0-0.8,0.2-2,0.6-2.6c0.4-0.6,1.2-0.8,1.8-0.9C97.4,114.8,97.9,114.9,98.3,115z M95.2,119.7
				c0.1,0.5,0.4,0.8,0.8,1.1c0.2,0.2,0.4,0.3,0.7,0.3c0.2,0,0.4,0,0.7,0c0.7,0,1-0.2,1.5-0.7c0.6-0.6,0.6-1.7,0.6-2.5
				c0-0.5-0.1-1-0.3-1.4c-0.2-0.6-0.5-1.1-1.1-1.3c-0.3-0.1-0.6-0.1-0.9-0.1c-1.1,0.1-1.9,0.7-2.1,1.8c0,0.3-0.1,1.1-0.1,1.4
				C95,118.9,95.1,119.3,95.2,119.7z"/>
		</g>
		<g class="st0">
			<path class="st1" d="M103.8,115.1c0.4,0.4,0.5,0.9,0.5,1.4c0,0.3,0,0.6,0,0.9c0,0.4-0.3,1-0.7,1.2c0,0-0.1,0-0.1,0.1
				c0.2,0.5,1.3,2.1,1.3,2.4c0,0.1,0,0.2-0.2,0.2c-0.1,0-0.1,0-0.2,0c-0.4-0.9-1-1.6-1.4-2.5c-0.2,0.1-0.8,0-1.1,0l0.1,1.4
				c0,0.3,0.1,0.6,0.1,0.8c0,0.1,0,0.3-0.1,0.4c-0.1,0-0.3,0-0.3-0.1c0-0.1-0.1-1.1-0.1-1.3c0-0.3-0.1-0.7-0.1-1
				c0-0.1,0-0.3-0.1-0.4l0-0.7c0-0.7,0-1.4-0.1-2.1c0-0.2,0-0.4-0.1-0.6c0-0.1,0.1-0.3,0.2-0.3c0.3,0,1.8-0.1,1.9,0.1
				C103.6,114.9,103.7,115,103.8,115.1z M101.9,117.6c0,0.2,0,0.4,0.1,0.7c0.2,0,0.4,0,0.6,0l0.2,0c0.9,0,1.2-0.4,1.1-1.3
				c0-0.6,0-1.6-0.8-1.8c-0.1,0-0.3-0.1-0.4-0.1c-0.2,0-0.5,0-0.7,0c-0.1,0-0.2,0-0.3,0.1c0,0.4,0,0.9,0.1,1.3
				C101.9,116.8,101.9,117.2,101.9,117.6z"/>
		</g>
		<g class="st0">
			<path class="st1" d="M109.9,115.6c0,0.4,0,0.8,0,1.2c0,0.4,0.1,0.9,0.1,1.3l0,1.2c0,0.9,0.1,1.2,0.1,1.3c0,0.1,0,0.2-0.1,0.2
				c-0.1,0-0.2,0-0.3-0.1c0,0-0.2-1.9-0.2-2l-0.1-1.3c0-0.2,0-0.5,0-0.7c0-0.5,0-1,0-1.5c-0.2,0.4-0.3,0.8-0.5,1.3
				c-0.2,0.5-0.3,1.3-0.7,1.6c-0.3-0.1-0.4-0.4-0.5-0.6c-0.1-0.2-0.3-0.4-0.4-0.6c-0.1-0.3-0.2-0.5-0.4-0.8
				c-0.1-0.3-0.3-0.6-0.5-0.9c0.1,1.2,0.2,2.4,0.2,3.7c0,0.5,0,1,0,1.5c0,0.2,0.1,0.4,0.1,0.6c0,0.1-0.1,0.2-0.2,0.2
				c-0.1,0-0.1,0-0.2-0.1c0-0.1-0.1-0.7-0.1-0.8c0-0.5,0-0.9,0-1.4l-0.1-1.7c0-0.2,0-0.5,0-0.7c0-0.3-0.1-0.5-0.1-0.8
				c0-0.1-0.1-0.3-0.1-0.4c0-0.6,0-0.4,0.3-0.6c0,0,0.1,0,0.1,0c0.1,0,0.3,0.3,0.4,0.4c0.1,0.2,0.5,0.9,0.5,1c0.2,0.5,0.5,1,0.8,1.5
				c0.3-0.6,0.4-1.1,0.6-1.7c0.1-0.3,0.2-0.5,0.3-0.8c0.1-0.1,0.2-0.3,0.2-0.5c0-0.1,0-0.2,0.1-0.2c0.1,0,0.2,0,0.3,0.1
				C109.9,114.8,109.9,115.2,109.9,115.6z"/>
		</g>
		<g class="st0">
			<path class="st1" d="M112.2,117.1c0-0.3,0.1-0.6,0.2-0.9c0.1-0.5,0.2-1.4,0.5-1.9c0-0.1,0.1-0.1,0.2-0.1c0.4,0,0.7,1.2,0.8,1.5
				c0.2,0.6,0.3,1.3,0.5,1.9c0.1,0.3,0.1,0.7,0.2,1l0.6,1.9c0,0.1-0.1,0.1-0.2,0.2c0,0-0.1-0.1-0.1-0.1c-0.3-0.8-0.5-1.6-0.8-2.4
				c-0.4,0-0.8,0-1.3,0c-0.1,0-0.2,0-0.4,0c-0.1,0.8-0.3,1.6-0.4,2.4c0,0.1-0.1,0.2-0.2,0.2c-0.1,0-0.2-0.1-0.2-0.2l0,0
				C111.9,119.5,112.1,118.3,112.2,117.1z M112.9,117.9c0.4,0,0.7,0,1.1-0.1c-0.2-1-0.4-2.2-0.9-3.1c0,0.2-0.2,0.6-0.2,0.9
				c-0.2,1-0.4,2.1-0.4,2.3C112.6,117.9,112.7,117.9,112.9,117.9z"/>
		</g>
		<g class="st0">
			<path class="st1" d="M119.7,116.1l0.1,2.1c0,0.4,0,0.8,0.1,1.2c0,0.2,0.1,0.4,0.1,0.6c0,0.2,0,0.5-0.1,0.5c-0.1,0-0.2,0-0.3-0.1
				c0-0.2,0-0.5,0-0.7c0-0.6-0.2-1.2-0.2-1.9c0-0.1,0-0.2-0.1-0.3c-0.3-0.3-0.5-0.5-0.8-0.8c-0.6-0.6-1.2-1.2-1.7-1.9
				c0,0.2,0,0.5,0,0.7c0,1.1,0.1,2.2,0.1,3.3c0,0.7,0.1,1.1,0.1,1.3c0,0.2-0.1,0.3-0.3,0.3c-0.1,0-0.1,0-0.1-0.1c0-0.1,0-0.3,0-0.5
				c0-0.4,0-0.9-0.1-1.3c0-0.8-0.1-1.6-0.1-2.4c0-0.7,0-1.5-0.1-2.2c0,0,0.1,0,0.1,0c0.1,0,0.3,0.1,0.4,0.2c0,0.1,0.1,0.2,0.1,0.3
				c0.1,0.2,0.5,0.7,0.7,0.8c0.6,0.5,1.3,1.3,1.8,1.8l-0.2-2.9c0-0.2,0.1-0.3,0.2-0.2c0.1,0,0.1,0.1,0.2,0.1
				C119.6,114.4,119.7,115.8,119.7,116.1z"/>
		</g>
		<g class="st0">
			<path class="st1" d="M128.2,115.1c0,0.4,0,0.8,0,1.2c0,0.4,0.1,0.9,0.1,1.3l0,1.2c0,0.9,0.1,1.2,0.1,1.3c0,0.1,0,0.2-0.1,0.2
				c-0.1,0-0.2,0-0.3-0.1c0,0-0.1-1.9-0.1-2l0-1.3c0-0.2,0-0.5,0-0.7c0-0.5,0-1,0-1.5c-0.2,0.4-0.3,0.8-0.5,1.2
				c-0.2,0.5-0.3,1.2-0.7,1.6c-0.3-0.1-0.4-0.4-0.5-0.7c-0.1-0.2-0.2-0.4-0.4-0.6c-0.1-0.3-0.2-0.5-0.4-0.8
				c-0.1-0.3-0.3-0.6-0.4-0.9c0.1,1.2,0.1,2.4,0.1,3.7c0,0.5,0,1,0,1.5c0,0.2,0.1,0.4,0.1,0.6c0,0.1-0.1,0.2-0.2,0.2
				c-0.1,0-0.1-0.1-0.2-0.1c0-0.1-0.1-0.7-0.1-0.8c0-0.5,0-0.9,0-1.4l0-1.7c0-0.2,0-0.5,0-0.7c0-0.3,0-0.5-0.1-0.8
				c0-0.1-0.1-0.3-0.1-0.4c0-0.6,0-0.4,0.3-0.6c0,0,0.1,0,0.1,0c0.1,0,0.3,0.3,0.3,0.4c0.1,0.2,0.5,0.9,0.5,1c0.2,0.5,0.5,1,0.7,1.6
				c0.3-0.6,0.5-1.1,0.7-1.7c0.1-0.3,0.2-0.5,0.3-0.8c0.1-0.1,0.2-0.3,0.2-0.5c0-0.1,0-0.2,0.1-0.2c0.1,0,0.2,0,0.3,0.1
				C128.1,114.3,128.2,114.7,128.2,115.1z"/>
		</g>
		<g class="st0">
			<path class="st1" d="M130.2,117.5c0-0.2,0.1-0.5,0.2-0.7c0.1-0.4,0.2-1.1,0.4-1.5c0-0.1,0.1-0.1,0.1-0.1c0.3,0,0.5,1,0.6,1.2
				c0.2,0.5,0.2,1,0.3,1.5c0.1,0.2,0.1,0.5,0.2,0.8l0.4,1.5c0,0.1-0.1,0.1-0.1,0.1c0,0-0.1,0-0.1-0.1c-0.2-0.6-0.4-1.3-0.6-1.9
				c-0.3,0-0.6,0-1,0c-0.1,0-0.2,0-0.3,0c-0.1,0.6-0.2,1.2-0.3,1.8c0,0.1,0,0.2-0.2,0.2c-0.1,0-0.2-0.1-0.2-0.2l0,0
				C129.9,119.3,130.1,118.4,130.2,117.5z M130.7,118.1c0.3,0,0.6,0,0.8-0.1c-0.2-0.8-0.3-1.7-0.6-2.4c0,0.2-0.1,0.5-0.2,0.7
				c-0.2,0.8-0.3,1.6-0.3,1.8C130.5,118.1,130.6,118.1,130.7,118.1z"/>
		</g>
		<g class="st0">
			<path class="st1" d="M133.4,119c0-0.2,0-0.5,0-0.7c0-0.4,0-0.8-0.1-1.2c0-0.4,0-0.7,0-1.1c0-0.5,0.4-0.9,0.9-0.9
				c0.2,0,0.4,0,0.5,0.1c0.3,0.1,0.7,0.6,0.7,0.9c0,0.1,0,0.2-0.1,0.3c-0.3,0-0.2-1-1-1c-0.3,0-0.7,0.2-0.7,0.5
				c-0.1,0.6,0,1.5,0,2.1c0,0.4,0,1.3,0.2,1.7c0.1,0.3,0.3,0.4,0.6,0.4c0.3,0,0.6-0.1,0.8-0.4c0.1-0.1,0.1-0.6,0.2-0.6
				c0.2,0,0.2,0.2,0.2,0.3c0,0.6-0.5,0.9-1.1,1C133.8,120.3,133.4,119.7,133.4,119z"/>
		</g>
		<g class="st0">
			<path class="st1" d="M137.6,120.2l-0.3,0c-0.3,0-0.4,0-0.4-0.3c0-0.4,0-0.8,0-1.2c0-0.6,0-1.2-0.1-1.7c0-0.5,0-0.9,0-1.3
				c0-0.5-0.1-1.1-0.1-1.6c0-0.2,0.2-0.2,0.4-0.2c0.2,0,0.4,0,0.6,0c0.3,0,0.6-0.1,1-0.1c0.1,0,0.2,0,0.3,0c0.1,0,0.2,0.1,0.3,0.2
				c0,0.1-0.1,0.1-0.2,0.1c-0.3,0-0.5,0-0.8,0c-0.4,0-0.8,0-1.2,0.1l0,2.5c0.4,0,0.8,0,1.1,0c0.1,0,0.2,0.1,0.2,0.2
				c0,0.1,0,0.2-0.2,0.2c-0.4,0-0.8,0-1.2,0c0,0.2,0,0.3,0,0.5c0,0.5,0,1,0,1.5c0,0.3,0,0.6,0,0.9c0.2,0,0.4,0,0.6,0
				c0.3,0,0.5,0,0.8-0.1c0.2,0,0.3,0,0.3,0.2c0,0,0,0.1,0,0.1c-0.4,0-0.8,0-1.2,0C137.8,120.2,137.7,120.2,137.6,120.2z"/>
		</g>
		<g class="st0">
			<path class="st1" d="M145.2,119.9c-0.2-0.6-0.4-1.2-0.5-1.9c-0.1-0.5-0.3-1-0.4-1.5l-0.5-1.7c-0.3,1.2-0.6,2.5-0.8,3.7
				c-0.1,0.3-0.4,1.7-0.7,1.8c-0.3,0-0.4-0.7-0.5-0.9c-0.6-1.7-1-3.5-1.3-5.3c0-0.1,0-0.1,0-0.2c0-0.1,0-0.1,0.1-0.1
				c0.1,0,0.2,0,0.2,0.1c0,0,0.2,0.8,0.2,0.9c0.3,1.1,0.4,2.2,0.8,3.3c0.2,0.5,0.3,1,0.5,1.5c0.3-0.9,0.5-1.9,0.7-2.9
				c0.2-0.7,0.3-1.4,0.5-2.2c0-0.2,0.1-0.5,0.3-0.5l0.2,0c0.1,0,0.2,0.5,0.2,0.6c0.2,0.8,0.4,1.5,0.6,2.3c0.3,0.8,0.4,1.7,0.7,2.5
				c0.5-1.7,0.8-3.5,1.2-5.2c0-0.2,0-0.4,0.1-0.5c0.1-0.1,0.1-0.1,0.2-0.1c0.1,0,0.1,0,0.1,0.1c0,0.1-0.2,0.9-0.2,1
				c-0.1,0.5-0.2,1-0.3,1.5c-0.1,0.5-0.3,1.1-0.4,1.6c-0.1,0.5-0.2,0.9-0.4,1.4l0,0.1c-0.2,0.5-0.2,0.7-0.2,0.7
				c-0.1,0-0.1,0.1-0.2,0.1C145.4,120.2,145.2,119.9,145.2,119.9z"/>
		</g>
		<g class="st0">
			<path class="st1" d="M149.5,120l-0.3,0c-0.3,0-0.4,0-0.4-0.3c0-0.4,0-0.8,0-1.2c0-0.6-0.1-1.2-0.1-1.7c0-0.5,0-0.9,0-1.3
				c0-0.5-0.1-1.1-0.1-1.6c0-0.2,0.2-0.2,0.4-0.2c0.2,0,0.4,0,0.6,0c0.3,0,0.6-0.1,1-0.1c0.1,0,0.2,0,0.3,0c0.1,0,0.2,0.1,0.3,0.2
				c0,0.1-0.1,0.1-0.2,0.1c-0.3,0-0.5,0-0.8,0c-0.4,0-0.8,0-1.2,0.1l0,2.5c0.4,0,0.8,0,1.1,0c0.1,0,0.2,0.1,0.2,0.2
				c0,0.1,0,0.2-0.2,0.2c-0.4,0-0.8,0-1.2,0c0,0.2,0,0.3,0,0.5c0,0.5,0,1,0,1.5c0,0.3,0,0.6,0,0.9c0.2,0,0.4,0,0.6,0
				c0.3,0,0.5,0,0.8-0.1c0.2,0,0.3,0,0.3,0.2c0,0,0,0.1,0,0.1c-0.4,0-0.8,0-1.2,0C149.7,120,149.6,120,149.5,120z"/>
		</g>
		<g class="st0">
			<path class="st1" d="M156,115.4l0.1,2.1c0,0.4,0,0.8,0.1,1.2c0,0.2,0.1,0.4,0.1,0.6c0,0.2,0,0.5-0.1,0.5c-0.1,0-0.2,0-0.3-0.1
				c0-0.2,0-0.5,0-0.7c0-0.6-0.2-1.2-0.2-1.9c0-0.1,0-0.2-0.1-0.3c-0.3-0.3-0.5-0.5-0.8-0.8c-0.6-0.6-1.2-1.2-1.7-1.9
				c0,0.2,0,0.5,0,0.7c0,1.1,0.1,2.2,0.1,3.3c0,0.7,0.1,1.2,0.1,1.3c0,0.2-0.1,0.3-0.3,0.3c-0.1,0-0.1,0-0.1-0.1c0-0.1,0-0.3,0-0.5
				c0-0.4,0-0.9-0.1-1.3c0-0.8-0.1-1.6-0.1-2.4c0-0.7,0-1.5-0.1-2.2c0,0,0.1,0,0.1,0c0.1,0,0.3,0.1,0.4,0.2c0,0.1,0.1,0.2,0.1,0.3
				c0.1,0.2,0.5,0.7,0.7,0.8c0.6,0.5,1.3,1.3,1.8,1.8l-0.2-2.9c0-0.2,0.1-0.3,0.2-0.2c0.1,0,0.1,0.1,0.2,0.1
				C156,113.7,156,115,156,115.4z"/>
		</g>
	</g>
</g>
</svg>
