<?xml version="1.0" encoding="utf-8"?>
<!-- Generator: Adobe Illustrator 27.0.0, SVG Export Plug-In . SVG Version: 6.00 Build 0)  -->
<svg version="1.1" id="Layer_2_00000004536034861882448660000000037041552233271731_"
	 xmlns="http://www.w3.org/2000/svg" xmlns:xlink="http://www.w3.org/1999/xlink" x="0px" y="0px" viewBox="0 0 230.9 139.8"
	 style="enable-background:new 0 0 230.9 139.8;" xml:space="preserve">
<style type="text/css">
	.st0{enable-background:new    ;}
	.st1{fill:#FFFFFF;}
	.st2{fill:#6AA39F;}
</style>
<g id="Layer_7">
	<g class="st0">
		<path class="st1" d="M104.2,24.1c-0.4-1-0.5-2.1-0.6-2.8c0-0.6,0.1-1.9,0.3-3.1c0.5-2.1,1.9-4.8,2.8-5.7c0.2-0.1,0.3-0.1,0.5-0.1
			h0.1c0.6-0.5,1.4-1.1,2.2-1.3c-0.1-0.1-0.1-0.2-0.1-0.3v-0.1l0-0.4c0-1.3,0.8-1.6,1.3-1.9c0.1,0,0.2,0,0.2-0.1
			c0.3-0.1,0.9-0.3,1.3-0.3c0.1,0,0.1,0,0.2,0c0.2,0,0.6,0.2,0.8,0.2c0.3,0,1.7,0.3,1.7,0.6c0,0,0,0.1,0,0.1
			c0.7,0.2,1.2,0.5,1.6,0.8c0.2,0.1,0.4,0.4,0.6,0.5c0.2,0.1,0.6,0.5,0.6,0.6c0.1,0.2,0.2,0.5,0.3,0.8c0.3,0.7,0.7,1.6,0.8,2.2
			c0,0.1,0,0.1,0,0.1c0,0.2,0,0.3,0,0.5c0,1.1-0.2,2.4-0.4,3.5c0,0.1,0,0.1-0.1,0.2c-0.1,0.3-0.1,0.5-0.3,0.9l-0.1,0.6l-0.3,1
			c0.5,0.3,1.6,0.5,2.5,0.5c1.3,0,1.1-0.1,2-0.7c0.3-0.5,0.3-1.4,0.7-1.4c1,0,0.9,0.3,0.9,0.7c0,0.1-0.1,0.2-0.2,0.3l-0.2,0.1
			c0,0,0,0-0.1,0.1l-0.7,0.8l-0.7,0.3l-0.7,0.4c-0.3,0,0.2,0.1-1.4,0.1c-0.3,0-0.9-0.2-1.3-0.3l-1.1-0.3l-0.1,0.2
			c0,0.2-0.5,0.9-0.5,1s-0.2,0.3-0.2,0.4v0c0,0.1,0,0.2-0.1,0.3c0,0.1-0.7,1.5-1,2c-0.1,0.3-0.3,0.5-1.1,1.4
			c-0.3,0.4-0.7,0.8-0.9,0.9c-0.1,0.3-0.7,0.5-0.9,0.6l-0.1,0l-0.3,0.2c-0.5,0.2-0.9,0.3-1.4,0.3c-0.1,0.1-0.3,0.1-0.5,0.1h-0.7
			C106.9,28.4,105.2,26.3,104.2,24.1z M108.7,23l0.1,0.5c0,0.7,0.8,2.3,1.5,3c0.1,0,0.1,0.1,0.2,0.2c0.3,0.4,0.8,0.6,1.2,0.6
			c1.5,0,2.9-1.8,3.9-4.2c0.4-0.7,0.9-1.9,1-2.4c-0.1-0.1-0.3-0.2-0.4-0.3c-0.3-0.2-0.9-0.6-1.5-1.1l-0.7-0.6l-0.5-0.5
			c-0.2-0.4-0.5-0.8-0.8-1.1l-0.4-0.8c-0.3-0.6-0.6-1.3-1-2.1c-0.1-0.1-0.2-0.4-0.3-0.6l-0.3,0.8c-0.2,0.6-0.3,0.9-0.7,1.7l-0.3,0.6
			c0,0.1-0.2,0.4-0.2,0.7l-0.2,0.7c-0.3,0.7-0.7,2.7-0.7,3.8C108.6,22.2,108.6,22.6,108.7,23z M112.8,13.9c0.1,0.3,0.1,0.4,0.1,0.5
			c0,0.1,0,0.1,0,0.1c0,0,0,0,0,0v0c0,0.1,0,0.1,0.1,0.3c0,0,0,0-0.1,0c-0.1,0-0.1,0-0.1,0c0,0,0,0,0,0.1l0.1,0.1v0
			c0.1,0.3,0,0.5,0.1,0.5c0,0.1,0.2,0.4,0.3,0.5h0.1v0.1c0,0.1,0.1,0.5,0.2,0.7c0.1,0.1,0.3,0.5,0.4,0.5l0,0c0,0.1,0.1,0.2,0.3,0.3
			h0c0,0.1,0,0.1,0,0.1c0,0,0,0-0.1,0h0c0.1,0.2,0.4,0.4,0.5,0.6c0.4,0.3,1,0.9,1.7,1.5c0.1,0.2,0.3,0.3,0.4,0.3l0-0.1
			c0,0,0-0.1,0-0.1c0.1-0.2,0.8-3,0.8-3.8v-0.4c0-0.2,0-0.4,0-0.5v-0.2c0-0.1,0-0.2,0-0.3c0-1.1-0.1-1.6-0.2-2
			c-0.1-0.4-0.2-0.9-0.4-1.2l-0.1-0.2l-0.1-0.1c-0.1-0.1-0.2-0.2-0.3-0.4c-0.6-0.5-1.5-0.7-1.7-1.1c-0.1-0.1-0.1-0.2-0.1-0.2
			c-0.1,0-0.2,0-0.3,0c-0.2,0-0.4,0-0.6,0.2l-0.1,0.1c-0.2,0.2-0.4,0.4-0.5,0.9c0,0.5-0.2,1.3-0.4,1.4c-0.1,0.1-0.1,0.3-0.1,0.5
			C112.6,12.8,112.7,13.3,112.8,13.9z"/>
		<path class="st1" d="M120.2,27.4l-0.1-0.1v-0.1c0-0.3,0.1-0.7,0.1-1c0-0.2-0.1-0.5-0.1-0.7c0-0.6,0.3-1.1,0.3-1.7
			c-0.3-0.6,0.3-1.9,0.5-2.4c0,0-0.1-0.2,0-0.2c0.3-0.9,1.1-2.9,1.1-3.9c0-0.2,0-0.4,0.3-0.4c0.7,0,1.6,0.5,1.8,1.2l0.3,0
			c0.1,0.3,0.1,0.6,0.1,0.9c0.3,0.2,0.4,1,0.5,1.3l-0.1,0.4v0.1c0.7-0.8,2.9-3.2,3.9-3.2c0.8,0,1.6,1.3,1.6,2.1c0,0.2,0,0.4,0,0.7
			c0.2,0.2,0.3,0.4,0.4,0.6c-0.6,1.7-1.1,3.3-1.7,4.9V26c-0.2,0.4-0.6,1.3-0.6,1.7c0,0.1,0,0.1,0,0.2c3.1-0.6,5.2-7.5,6.2-7.5
			c0.2,0,0.3,0.2,0.3,0.4c0,0.1,0,0.2-0.1,0.3h0c-0.8,1.6-1.7,3.1-2.6,4.6v0c-0.4,0.9-1.1,1.6-1.9,2.1c-0.3,0.2-1.3,1.1-1.6,1.1
			c-0.1,0-0.2,0-0.3-0.1c-2.1,0.3-3.1-1.2-3.1-3.2c0-1,0.7-3.2,1.1-4.1c0.2-0.3,0.8-1.3,0.8-1.7v-0.1c0.1-0.1,0.2-0.3,0.2-0.4
			c-0.1,0.1-0.3,0.2-0.4,0.3c-0.5,0-1.4,1-1.6,1.5c-0.9,1.2-1.5,2.7-2,4.1c0,0.3,0.1,0.6,0.1,0.9c0,0.1,0,0.1,0,0.1v0
			c-0.2,0.4-1,2.7-1.3,2.7c-0.1,0-0.3-0.1-0.5-0.1c0,0.2-0.1,0.4-0.3,0.4C121,29.2,120.3,28,120.2,27.4z"/>
	</g>
	<g class="st0">
		<path class="st2" d="M83.4,98.6L62.8,56c-1.5-3.1-2.6-4.3-5.9-3.7l-0.2-1.2l23.9-4l0.2,1.2c-3.8,0.6-4.9,1.6-3.1,4.4l18.9,28.6
			L100,50c0.4-4-0.8-4.8-4.2-4.2l-0.2-1.2l10.6-1.8l0.2,1.2c-3.5,0.6-4.3,1.3-4.7,5.7l-4.2,46.6L83.4,98.6z"/>
	</g>
	<g class="st0">
		<path class="st2" d="M108.2,95.2l0.1-1.3c2.4,0.1,3.2-0.5,3.5-3.5l2.5-24.3c0.4-3.5-0.8-4.4-3.7-4.5l0.1-1.2l19.5,0.9l0,0.3
			c-0.7,0.2-1,1.6-0.9,5.3l0.3,24.4c0,3,0.6,3.7,3.1,3.8l-0.1,1.3L108.2,95.2z M121.9,58.1c-4.3-0.2-7.7-3.3-7.5-7.7
			c0.2-4.3,3.8-7.2,8.1-7c4.3,0.2,7.7,3.3,7.5,7.7C129.9,55.5,126.3,58.3,121.9,58.1z"/>
	</g>
	<g class="st0">
		<path class="st2" d="M160.9,94.1c0.4,1,0.5,1.8,0.3,2.7c-1.1,5.1-7.6,4.4-12.3,3.4c-5.9-1.3-11.9-3.6-9.6-12.1l6.4-23.3l-4.3-0.9
			l0.3-1.5l4.3,0.9l1.6-5.9c6.2,2.1,12.6-1.9,13.6-7.5l1.2,0.3L160,66.3l4.5,1l-0.3,1.5l-4.5-0.9l-3.9,26.4
			c-0.4,2.7,0.3,3.6,1.5,3.9c1.5,0.3,2.3-0.6,2.5-1.7c0.1-0.5,0.1-1.3-0.2-2L160.9,94.1z"/>
	</g>
	<g>
		<path class="st1" d="M126.5,115.6c0.2,0.1,0.3,0.2,0.4,0.4c0.1,0.2,0,0.6-0.2,0.6c-0.2,0.1-0.4,0.1-0.6,0.1c-0.2,0-0.5-0.1-0.7,0
			c-0.9,0.1-1.7,0-2.5-0.1c-0.2,0-0.5,0-0.7,0c-0.5,0-1,0-1.5,0c-0.3,0-0.5-0.1-0.8,0c-0.6,0.1-1.2-0.1-1.8,0H118
			c-0.4-0.1-0.7-0.1-1.1-0.1h-0.5c-0.6-0.1-1.1,0.1-1.7,0.1c-0.1,0-0.2,0.1-0.3,0.1c-0.3,0.1-0.7,0.2-1,0.3c-0.1,0-0.2,0-0.3,0.1
			c-0.3,0.2-0.7,0.1-1,0.1c-0.2,0-0.3-0.1-0.4-0.3c-0.1-0.2-0.1-0.4,0-0.6c0.1-0.1,0.2-0.4,0.3-0.4c0.1,0,0.3-0.1,0.5-0.1
			c0.3-0.1,0.5-0.2,0.8-0.2c0.1,0,0.2-0.1,0.3-0.1c0.4-0.1,0.6,0,0.9,0c0.4-0.1,0.9-0.1,1.3-0.1h0.4c0.5,0,0.9-0.1,1.4-0.1
			c0.7,0,1.3,0.1,2,0c0.2,0,0.5,0,0.7,0c0.3,0,0.6,0,0.9,0c0.4-0.1,0.8,0,1.1,0c0.3,0.1,0.7,0.1,1,0.1c0.5,0,1.1,0,1.6-0.1
			c0.5,0,0.9,0,1.3,0.3L126.5,115.6L126.5,115.6z"/>
		<g>
			<path class="st1" d="M119.8,108.3c-0.1-0.3-0.1-0.6-0.2-0.8c-0.1-0.3-0.3-0.6-0.4-0.8c-0.1-0.1-0.1-0.2-0.2-0.3l-0.2-0.2
				c-0.2-0.2-0.3-0.3-0.5-0.5l-0.2-0.1c-0.1-0.1-0.2-0.2-0.4-0.3c-0.2-0.2-0.5-0.2-0.7-0.3c-0.1,0-0.1,0-0.2,0
				c-0.2,0-0.3-0.1-0.5-0.1c-0.2-0.1-0.4-0.1-0.6-0.1l-0.1,0.3l0,0l-0.1-0.3l-0.1,0c-0.1,0-0.2-0.1-0.3-0.1H115c-0.2,0-0.3,0-0.5,0
				c-0.1,0-0.2,0-0.3,0c-0.2,0-0.4,0.1-0.6,0.3c-0.1,0.2-0.2,0.3-0.2,0.5c0,0.2,0,0.5-0.1,0.8c0,0.1,0,0.2,0,0.3c0,0.1,0,0.1,0,0.2
				l0,0.2c0,0.2,0,0.3,0,0.5c0,0.2,0,0.4-0.1,0.6c0,0.2-0.1,0.4-0.1,0.6c0,0.4,0,0.9,0,1.3c0,0.1,0,0.2,0.1,0.3
				c-0.1,0.2-0.1,0.4,0,0.6c0,0.1,0,0.2,0,0.3l0,0.3c0,0.1,0,0.2,0,0.4l0,0.1c0,0.1,0.1,0.3,0.2,0.4l-0.1,0.2c0,0.1,0,0.3,0.1,0.4
				c0.1,0.1,0.2,0.2,0.4,0.3c0.1,0,0.2,0.1,0.4,0.1c0.1,0,0.2,0,0.3-0.1c0.1,0,0.1,0,0.2,0c0.2,0,0.3,0,0.4,0l0.1,0
				c0.3,0,0.5-0.1,0.8-0.2l0.1,0c0.3,0,0.5-0.1,0.7-0.2c0.1-0.1,0.2-0.1,0.3-0.1c0.2,0,0.4,0,0.6-0.2l0.2-0.1
				c0.2-0.1,0.4-0.2,0.6-0.4c0.2-0.2,0.4-0.4,0.7-0.7l0.2-0.3c0.2-0.3,0.3-0.7,0.4-0.9c0.1-0.5,0.2-0.9,0.2-1.3V109
				C119.8,108.8,119.8,108.5,119.8,108.3L119.8,108.3z M118.5,108.1c0.1,0.3,0.2,0.6,0.1,1l0,0.2c0,0.1,0,0.3-0.1,0.4
				c0,0.2-0.1,0.3-0.1,0.4c0,0.1-0.1,0.2-0.1,0.2c0,0.1-0.1,0.1-0.1,0.2c-0.1,0.2-0.2,0.3-0.4,0.5c-0.1,0.1-0.1,0.1-0.2,0.1
				c-0.1,0.1-0.2,0.1-0.3,0.2c-0.1,0-0.1,0.1-0.2,0.1c-0.2,0-0.4,0.1-0.7,0.2c-0.1,0-0.2,0.1-0.4,0.1c-0.1,0-0.1,0.1-0.2,0.1
				c-0.2,0-0.4,0.1-0.5,0.1c-0.1,0-0.1,0-0.2,0c-0.1,0-0.3-0.1-0.4-0.1c-0.1,0-0.1,0-0.2,0c0,0,0-0.1,0-0.1c0-0.2,0-0.5-0.1-0.8
				c0-0.3,0-0.5,0-0.8c0-0.1,0-0.2,0-0.3c0-0.4,0-0.8,0.1-1.1c0.1-0.2,0.1-0.4,0.1-0.5l0-0.3l0-0.1c0-0.1,0-0.2,0-0.2
				c0-0.1,0-0.2,0-0.3c0-0.2,0-0.4,0-0.6c0-0.2,0.1-0.3,0.1-0.5l0.3,0c0.2,0,0.3,0,0.5,0h0.1c0.2,0,0.5,0,0.7,0.1
				c0.3,0.1,0.5,0.2,0.8,0.2c0.1,0,0.3,0.1,0.4,0.1c0.2,0.1,0.3,0.2,0.5,0.3c0,0,0.1,0.1,0.1,0.1l0.1,0.1c0.1,0.1,0.1,0.2,0.2,0.2
				c0,0,0.1,0.1,0.1,0.1l0.1,0.2c0.1,0.1,0.1,0.2,0.2,0.4L118.5,108.1L118.5,108.1z"/>
			<path class="st1" d="M126,105.6c0-0.1-0.1-0.2-0.1-0.2c-0.2-0.2-0.4-0.3-0.6-0.3c-0.3,0-0.6-0.1-0.8,0c-0.1,0-0.2,0-0.2,0
				c-0.1,0-0.1,0-0.2,0c-0.1,0-0.2,0-0.4,0h-0.1c-0.1,0-0.1,0-0.2,0c-0.1,0-0.2,0-0.2,0c-0.2,0-0.4,0-0.6,0h-0.1
				c-0.4,0-0.8,0-1.2,0.1c-0.1,0-0.1,0.1-0.2,0.1l-0.1,0.1c-0.1,0.1-0.2,0.3-0.3,0.6l0,0.2c0,0.2-0.1,0.4-0.1,0.6c0,0.2,0,0.4,0,0.6
				c0,0.1,0,0.3,0,0.4v0.2c0,0.2,0,0.5,0,0.7c0,0.3,0,0.6,0,0.9c0,0.2,0,0.3,0,0.5c0,0.1,0,0.2,0,0.3v0.2c0,0.2,0,0.3,0,0.4
				c0,0.2,0,0.4,0,0.6c0,0.1,0,0.1,0,0.2c-0.1,0.3-0.1,0.5,0,0.8c0,0.1,0.1,0.2,0.1,0.3c0,0.1,0.1,0.2,0.1,0.3
				c0,0.1,0.1,0.2,0.2,0.3l0.1,0.1c0.2,0.1,0.4,0.2,0.6,0.1h0.1c0.1,0,0.2,0,0.3,0h1.9c0.1,0,0.1,0,0.2,0c0.2,0,0.4,0,0.6,0
				c0.2,0,0.3,0,0.5,0c0.2,0,0.4-0.1,0.5-0.3c0-0.1,0.1-0.2,0.1-0.3c0-0.1,0-0.1,0-0.1v-0.1c0-0.2-0.1-0.3-0.2-0.4
				c-0.2-0.1-0.3-0.2-0.6-0.2l-1.3,0h-0.1c-0.2,0-0.4,0-0.7,0.1l-1.1,0l0-0.6v-0.2c0-0.2,0-0.4,0-0.6l0-0.1c0-0.2,0.1-0.4,0.1-0.6v0
				c0,0,0,0,0.1,0c0,0,0.1,0,0.1,0c0.2,0.1,0.4,0.1,0.7,0c0.2,0,0.5-0.1,0.7,0c0.1,0,0.2,0,0.3,0c0,0,0.1,0,0.2,0h0.1
				c0.1,0,0.2,0,0.2,0c0.2,0,0.4-0.2,0.5-0.5c0-0.1,0-0.2,0-0.3c0-0.1,0-0.3-0.3-0.5c-0.1-0.1-0.3-0.1-0.5-0.2h-1.1
				c-0.1,0-0.3,0-0.4,0c-0.1,0-0.2,0-0.4,0c0,0-0.1,0-0.1,0v-0.2c0-0.2,0-0.5,0-0.7c0-0.2,0-0.4,0-0.6v-0.3v-0.4c0,0,0,0,0,0
				c0.1,0,0.2,0,0.2,0l0.4,0c0.1,0,0.2,0,0.3,0c0.2,0.1,0.4,0,0.6,0h0.1c0.2,0,0.4,0,0.6,0c0.2,0,0.3,0,0.4,0h0.2
				c0.2,0,0.4,0,0.5,0.1c0.3,0.1,0.5-0.1,0.6-0.3C126.1,106,126.1,105.8,126,105.6L126,105.6z"/>
		</g>
		<path class="st1" d="M111.8,102.9c-0.2-0.1,0-0.5-0.1-0.7c-0.1-0.2,0-0.4,0.2-0.4c0.2-0.1,0.4-0.1,0.6-0.1c0.2,0,0.5,0,0.7,0
			c0.9,0,1.7,0,2.5,0c0.2,0,0.5,0,0.7,0c0.5,0,1,0,1.5,0c0.3,0,0.5,0.1,0.8,0c0.6-0.1,1.2,0.1,1.8,0h0.1c0.4,0.1,0.7,0.1,1.1,0.1
			h0.5c0.6,0,1.1,0,1.7-0.1c0.1,0,0.2,0,0.3-0.1c0.3-0.1,0.7-0.2,1-0.2c0.1,0,0.2,0,0.3-0.1c0.3-0.1,0.7-0.1,1-0.1
			c0.2,0,0.3,0.1,0.4,0.2c0.1,0.1,0.1,0.3,0,0.4c-0.1,0.1-0.2,0.3-0.3,0.3c-0.1,0-0.7,0.4-0.8,0.4c-0.3,0.1-0.5,0.1-0.8,0.2
			c-0.1,0-0.2,0-0.3,0.1c-0.4,0.1-0.6,0-0.9,0c-0.4,0-0.9,0.1-1.3,0.1h-0.4c-0.5,0-0.9,0-1.4,0c-0.7,0-1.3,0-2,0c-0.2,0-0.5,0-0.7,0
			c-0.3,0-0.6,0-0.9,0c-0.4,0-0.8,0-1.1,0c-0.3,0-0.7,0-1-0.1c-0.5,0-1.1,0-1.6,0c-0.5,0-0.9,0-1.3-0.2L111.8,102.9L111.8,102.9z"/>
	</g>
</g>
</svg>
