<?xml version="1.0" encoding="UTF-8"?>
<svg id="Layer_2" data-name="Layer 2" xmlns="http://www.w3.org/2000/svg" viewBox="0 0 360 168">
  <g id="Layer_7" data-name="Layer 7">
    <rect width="360" height="168" style="fill: none;"/>
    <g>
      <g>
        <path d="M95.29,76.92v-.79c1.5,0,1.91-.42,2.04-2.25l1.5-24.92c.12-2.12-.62-2.66-2.54-2.66v-.75h20.13c9.57,0,14.48,9.48,14.48,18.01s-4.87,13.35-11.9,13.35h-23.71Zm19.22-1.04c3.29,0,3.74-1.66,3.74-16.02,0-11.15-.25-13.27-4.49-13.27h-3.2c-2.41,0-2.62,.58-2.5,2.66l1.5,24.38c.13,1.83,.46,2.25,2,2.25h2.95Z" style="fill: #e3746d;"/>
        <path d="M150.95,77.42c-10.69,0-16.89-3.78-16.89-13.73,0-8.69,4.74-18.47,16.97-18.47s16.81,10.07,16.81,18.47c0,9.94-6.16,13.73-16.89,13.73Zm4.28-16.14c0-11.48-.17-15.06-4.28-15.06s-4.24,3.58-4.24,15.06,.12,15.1,4.24,15.1,4.28-3.58,4.28-15.1Z" style="fill: #e3746d;"/>
        <path d="M189.17,76.92l-15.27-28.79h-.17l.17,25.58c0,2.04,.04,2.41,1.83,2.41v.79h-5.24v-.79c1.5,0,1.71-.21,1.75-2.25l.46-26.16c0-.96-.79-1.41-2-1.41v-.75h13.06v.12c0,.71,.46,1.54,.96,2.29l11.85,17.39h.08l.21-16.55c.04-2.08-.75-2.45-2.7-2.45v-.79h6.2v.79c-1.5,0-2.62,.21-2.58,2.25l.46,28.33h-9.07Z" style="fill: #e3746d;"/>
        <path d="M220.87,76.92l-15.27-28.79h-.17l.17,25.58c0,2.04,.04,2.41,1.83,2.41v.79h-5.24v-.79c1.5,0,1.71-.21,1.75-2.25l.46-26.16c0-.96-.79-1.41-2-1.41v-.75h13.06v.12c0,.71,.46,1.54,.96,2.29l11.85,17.39h.08l.21-16.55c.04-2.08-.75-2.45-2.7-2.45v-.79h6.2v.79c-1.5,0-2.62,.21-2.58,2.25l.46,28.33h-9.07Z" style="fill: #e3746d;"/>
        <path d="M233.77,76.92v-.79c1.5,0,1.91-.42,2.04-2.25l1.5-24.92c.12-2.12-.62-2.66-2.54-2.66v-.75h25.62l.67,10.19-.92,.04c-.17-6.49-3.54-9.19-8.24-9.19h-2.79c-2.45,0-2.66,.54-2.54,2.58l.62,10.73h3.37c1.83,0,3.91-1,3.91-5.32,0-.62-.04-1.41-.04-1.41h.83c.08,4.7,.33,9.44,.5,14.14h-.83c-.04-.91-.08-1.75-.21-2.62-.37-2.37-1.33-3.83-4.12-3.83h-3.29l.71,12.81c.08,1.83,.5,2.2,2.04,2.2h3.04c4.62,0,7.24-4.03,7.32-9.48h.83l.5,10.52h-27.99Z" style="fill: #e3746d;"/>
      </g>
      <path d="M100.02,109.49c19.99-7.08,41-10.86,62.05-13,21.56-2.19,43.25-2.75,64.91-3.14,11.53-.21,23.07-.37,34.59-.74,4.17-.14,4.19-6.64,0-6.5-21.06,.69-42.13,.68-63.18,1.49-21.9,.83-43.85,2.48-65.43,6.5-11.77,2.19-23.4,5.14-34.68,9.13-1.65,.59-2.76,2.22-2.27,4,.44,1.6,2.34,2.86,4,2.27h0Z" style="fill: #e3746d;"/>
      <g>
        <path d="M175.31,109.34c0,.11-.03,.06-.09,.13-1.01,.06-2,.11-3,.2-.73,.07-1.48,.17-2.21,.23-.33,.03-.53-.06-.61-.39,.99-.09,1.98-.15,2.97-.24,.93-.08,1.87-.18,2.81-.24,.08,.09,.12,.2,.13,.32Z" style="fill: #fff;"/>
        <path d="M181.71,106.26l.22,2.7c.04,.55,.1,1.07,.21,1.6,.05,.25,.1,.51,.12,.77,.02,.21,.07,.59-.16,.71-.13,.01-.29,.01-.37-.11-.01-.32,0-.62-.02-.94-.06-.82-.29-1.61-.35-2.43-.01-.19-.04-.22-.18-.34-.38-.32-.73-.67-1.08-1-.82-.74-1.64-1.45-2.34-2.3,0,.31,.02,.62,.04,.92,.11,1.45,.28,2.89,.39,4.33,.07,.97,.21,1.49,.23,1.66,.02,.23-.06,.45-.32,.47-.07,0-.18,0-.18-.08-.03-.19-.03-.35-.05-.66-.04-.57-.11-1.13-.15-1.7-.08-1.06-.24-2.11-.31-3.17-.07-.94-.13-1.9-.27-2.84,.06-.03,.11-.04,.17-.05,.19-.01,.38,.09,.5,.23,.06,.09,.12,.22,.19,.33,.2,.29,.63,.86,.91,1.06,.77,.55,1.72,1.57,2.44,2.26l-.41-3.79c-.03-.22,.09-.35,.29-.34,.13,0,.19,.08,.21,.16,.1,.35,.23,2.08,.27,2.54Z" style="fill: #fff;"/>
        <path d="M188.99,103.29c.54,.14,1.06,.53,1.3,1.04,.66,1.34,.68,2.15,.77,3.61,.07,1.18-.34,2.49-1.33,3.19-.61,.42-1.09,.69-1.83,.73-2.57,.15-3.58-2.07-3.71-4.29-.06-1.02,.21-2.55,.81-3.39,.51-.73,1.52-1.06,2.38-1.12,.51-.03,1.13,.1,1.62,.23Zm-3.99,6.04c.18,.64,.53,1.07,1.05,1.49,.28,.22,.56,.39,.92,.44,.28,.04,.58,.06,.87,.04,.92-.05,1.32-.28,1.96-.93,.82-.83,.79-2.16,.72-3.24-.04-.62-.19-1.24-.39-1.82-.27-.76-.64-1.46-1.49-1.65-.37-.07-.79-.12-1.17-.1-1.43,.09-2.46,.9-2.68,2.33-.06,.39-.13,1.49-.11,1.86,.03,.55,.17,1.06,.32,1.58Z" style="fill: #fff;"/>
        <path d="M196.11,103.33c.48,.49,.59,1.11,.62,1.77,.02,.39,.01,.77,.03,1.16,.03,.58-.34,1.33-.92,1.51-.04,.01-.09,.03-.09,.07,.31,.68,1.69,2.7,1.71,3.12,0,.16-.05,.2-.21,.21-.07,0-.15,0-.22-.04-.53-1.11-1.24-2.13-1.83-3.22-.29,.07-1.06,.05-1.38,.03l.17,1.84c.03,.35,.08,.72,.1,1.07,0,.16,.03,.37-.12,.49-.09,0-.37,0-.42-.11-.03-.09-.08-1.47-.09-1.66-.02-.43-.06-.87-.1-1.31,0-.18-.06-.36-.07-.53l-.04-.89c-.04-.93-.05-1.87-.13-2.79-.03-.27-.06-.55-.07-.82,0-.14,.08-.33,.24-.34,.4-.02,2.28-.08,2.47,.14,.15,.06,.25,.18,.36,.29Zm-2.39,3.25c.01,.29,.05,.57,.09,.86,.23-.01,.47,.06,.72,.05l.3-.02c1.18-.06,1.5-.53,1.44-1.68-.04-.79-.03-2.11-.98-2.37-.12-.03-.36-.09-.47-.08-.29,.02-.6,.02-.89,.03-.13,0-.27,.03-.38,.09,.06,.56,.05,1.13,.08,1.69,.02,.48,.07,.96,.09,1.42Z" style="fill: #fff;"/>
        <path d="M204.15,104.05c.02,.54-.02,1.07,0,1.6,.02,.57,.09,1.14,.11,1.72l.06,1.54c.04,1.16,.16,1.58,.17,1.69,0,.18,0,.3-.18,.31-.08,0-.3-.01-.33-.1-.01-.05-.23-2.42-.24-2.62l-.07-1.75c-.01-.31-.03-.63-.05-.94-.02-.66-.02-1.27-.05-1.93-.26,.54-.43,1.07-.63,1.63-.22,.62-.38,1.63-.89,2.06-.34-.1-.49-.55-.64-.84-.15-.28-.32-.53-.47-.8-.19-.34-.32-.7-.48-1.06-.18-.4-.38-.83-.58-1.22,.15,1.6,.21,3.15,.27,4.75,.03,.67-.02,1.32,0,1.99,.01,.27,.1,.55,.11,.8,0,.13-.12,.22-.24,.22-.12,0-.18-.06-.22-.14-.04-.1-.09-.94-.1-1.1-.02-.62,.01-1.23-.01-1.85l-.08-2.24c-.01-.3-.02-.6-.06-.9-.04-.35-.07-.69-.12-1.04-.03-.16-.08-.36-.09-.52-.03-.78,0-.46,.39-.73,.03-.03,.07-.05,.11-.05,.19,0,.39,.43,.45,.57,.11,.25,.65,1.13,.66,1.32,.28,.67,.63,1.33,.99,2.01,.33-.77,.58-1.48,.82-2.24,.1-.34,.24-.69,.43-.99,.12-.18,.23-.37,.25-.59,0-.08,0-.22,.12-.23,.13,0,.3,.02,.42,.08,.08,.54,.13,1.07,.15,1.61Z" style="fill: #fff;"/>
        <path d="M207.08,106.03c.05-.41,.18-.8,.25-1.2,.12-.69,.32-1.83,.62-2.44,.04-.1,.11-.13,.22-.14,.48-.01,.92,1.62,1.05,2.01,.28,.8,.33,1.66,.58,2.48,.13,.42,.19,.86,.31,1.28l.72,2.5c-.04,.11-.1,.19-.22,.19-.06,0-.14-.08-.18-.11-.36-1.04-.7-2.09-.97-3.16-.54,.02-1.08,.02-1.63,.04-.15,0-.32,0-.48,.04-.13,1.03-.38,2.05-.5,3.08-.02,.15-.07,.32-.26,.32-.16,0-.3-.12-.3-.28l.02-.06c.39-1.48,.61-3.04,.79-4.54Zm.85,.96c.47-.01,.95-.04,1.41-.11-.29-1.28-.48-2.83-1.13-4.01-.05,.29-.2,.8-.26,1.13-.24,1.37-.52,2.72-.5,2.98,.15,.02,.3,.01,.47,0Z" style="fill: #fff;"/>
        <path d="M216.84,104.74l.09,2.71c.01,.55,.05,1.08,.13,1.61,.04,.26,.07,.51,.08,.77,0,.21,.04,.6-.19,.71-.13,0-.29,0-.37-.13,0-.32,.03-.62,.02-.94-.02-.82-.22-1.62-.24-2.44,0-.19-.03-.22-.16-.35-.36-.34-.7-.71-1.03-1.05-.78-.78-1.57-1.53-2.23-2.41-.02,.3,0,.62,0,.93,.04,1.45,.14,2.9,.18,4.35,.03,.97,.14,1.5,.15,1.67,0,.23-.08,.45-.34,.45-.07,0-.18,0-.18-.09-.02-.19,0-.35-.02-.67-.02-.57-.05-1.13-.07-1.71-.03-1.07-.14-2.12-.16-3.18-.02-.95-.04-1.91-.13-2.85,.06-.03,.12-.04,.18-.04,.19,0,.38,.11,.49,.26,.06,.09,.11,.23,.17,.34,.18,.3,.59,.89,.86,1.1,.74,.59,1.65,1.66,2.33,2.38l-.23-3.81c-.02-.22,.11-.34,.31-.32,.13,0,.19,.09,.2,.17,.08,.35,.14,2.09,.15,2.55Z" style="fill: #fff;"/>
        <path d="M227.85,103.46c.01,.54-.04,1.07-.03,1.6,.01,.57,.07,1.15,.08,1.72l.03,1.55c.02,1.16,.13,1.59,.14,1.69,0,.18,0,.3-.18,.31-.08,0-.3-.02-.33-.11-.01-.05-.19-2.43-.19-2.63l-.03-1.76c0-.31-.02-.63-.03-.95-.01-.66,0-1.28-.01-1.93-.27,.53-.45,1.06-.66,1.62-.23,.61-.41,1.62-.93,2.04-.34-.11-.48-.56-.62-.85-.15-.28-.31-.53-.46-.81-.18-.35-.31-.71-.46-1.07-.17-.41-.37-.84-.56-1.23,.12,1.6,.15,3.16,.18,4.76,.01,.67-.05,1.32-.03,1.99,0,.27,.09,.55,.1,.81,0,.13-.12,.21-.24,.21-.12,0-.18-.07-.21-.15-.04-.1-.08-.95-.08-1.1-.01-.62,.04-1.23,.02-1.85l-.04-2.25c0-.3-.01-.6-.04-.9-.03-.35-.06-.69-.1-1.04-.03-.16-.08-.36-.08-.53-.01-.78,.02-.46,.41-.72,.03-.02,.07-.05,.12-.05,.19,0,.38,.44,.44,.58,.11,.26,.63,1.15,.63,1.34,.27,.67,.61,1.35,.95,2.03,.35-.77,.61-1.47,.86-2.23,.11-.34,.26-.68,.45-.98,.13-.18,.24-.37,.26-.59,.01-.08,0-.22,.12-.22,.13,0,.3,.03,.42,.09,.07,.54,.11,1.08,.12,1.61Z" style="fill: #fff;"/>
        <path d="M230.47,106.55c.04-.32,.15-.62,.2-.93,.1-.54,.27-1.41,.51-1.89,.03-.07,.09-.1,.17-.1,.37,0,.69,1.27,.79,1.57,.21,.62,.24,1.3,.42,1.93,.1,.33,.14,.67,.22,1l.53,1.95c-.04,.08-.08,.15-.17,.15-.05,0-.11-.06-.14-.09-.27-.82-.52-1.63-.72-2.47-.42,0-.84,0-1.27,.01-.12,0-.25,0-.37,.02-.12,.8-.32,1.59-.43,2.39-.02,.12-.06,.25-.21,.25-.13,0-.23-.1-.23-.22l.02-.05c.32-1.14,.51-2.36,.67-3.53Zm.65,.76c.36,0,.74-.02,1.1-.07-.21-1-.34-2.21-.83-3.13-.04,.23-.16,.62-.21,.88-.2,1.06-.43,2.11-.42,2.31,.12,.02,.24,.01,.36,.01Z" style="fill: #fff;"/>
        <path d="M234.66,108.58c0-.32-.03-.64-.04-.95-.03-.52-.06-1.03-.07-1.55,0-.46,.03-.94,.05-1.4,.03-.69,.48-1.19,1.2-1.2,.23,0,.47,0,.69,.08,.4,.16,.89,.79,.89,1.23,0,.12-.03,.3-.15,.33-.35,0-.22-1.31-1.33-1.29-.33,0-.89,.29-.93,.64-.09,.74-.04,1.91-.03,2.69,0,.55,.04,1.72,.22,2.22,.13,.38,.44,.51,.83,.51,.35,0,.83-.18,1.02-.49,.07-.13,.08-.74,.21-.74,.22,0,.23,.2,.23,.36,.01,.82-.67,1.23-1.42,1.24-.95,.01-1.37-.83-1.38-1.67Z" style="fill: #fff;"/>
        <path d="M240.17,110.1h-.37c-.37,.01-.54,.05-.54-.43,0-.53,.03-1.05,.02-1.58-.01-.76-.06-1.51-.07-2.27,0-.58,.03-1.16,.02-1.74-.01-.69-.1-1.37-.11-2.06,0-.27,.32-.3,.52-.3,.28,0,.55,0,.83,0,.42,0,.84-.07,1.26-.08,.14,0,.23,.03,.37-.03,.16,.04,.29,.15,.38,.3,0,.13-.09,.19-.21,.19-.36,0-.71-.02-1.08-.02-.51,0-1.04,.03-1.56,.07l.03,3.27c.49,0,.99,0,1.49,0,.11,0,.28,.1,.28,.22,0,.14-.06,.2-.21,.2-.5,0-1.01,0-1.51,.03,0,.21,0,.42,0,.63,.01,.66,.03,1.3,.03,1.96,0,.4,.02,.81,.03,1.21,.28,.02,.56,.03,.84,.02,.35,0,.71-.06,1.06-.06,.23,0,.45,.04,.45,.32,0,.05-.02,.09-.06,.13-.5-.02-1,.04-1.5,.05-.14,0-.27-.02-.41-.02Z" style="fill: #fff;"/>
        <path d="M249.96,109.68c-.31-.78-.46-1.62-.66-2.43-.16-.65-.4-1.27-.57-1.91l-.62-2.27c-.44,1.59-.73,3.21-1.11,4.81-.09,.35-.5,2.27-.86,2.27-.36,0-.58-.94-.68-1.21-.77-2.19-1.35-4.58-1.72-6.87-.01-.09-.03-.19-.03-.28,0-.11,.04-.15,.15-.15,.09,0,.23,.05,.28,.15,.01,.02,.26,1.01,.29,1.12,.33,1.43,.54,2.87,1.01,4.27,.22,.66,.35,1.36,.63,2.01,.41-1.21,.64-2.49,.97-3.74,.25-.93,.4-1.88,.65-2.81,.07-.26,.07-.63,.42-.64h.21c.14,.06,.23,.64,.27,.79,.26,.99,.51,1.99,.81,2.97,.33,1.09,.48,2.23,.9,3.31,.64-2.25,1.03-4.53,1.63-6.79,.04-.23,.03-.5,.17-.62,.07-.1,.18-.15,.3-.16,.09,0,.18,.03,.18,.14,0,.13-.24,1.12-.28,1.32-.15,.67-.31,1.33-.45,2-.15,.69-.36,1.36-.49,2.06-.12,.65-.28,1.22-.5,1.85l-.06,.17c-.2,.59-.22,.94-.29,.94-.11,0-.14,.13-.22,.13-.14,0-.3-.3-.34-.4Z" style="fill: #fff;"/>
        <path d="M255.49,109.83h-.37c-.37,.02-.54,.05-.55-.42-.01-.53,.02-1.05,.01-1.58-.02-.76-.07-1.51-.09-2.27-.01-.59,.02-1.16,0-1.74-.02-.69-.11-1.37-.13-2.06,0-.27,.32-.3,.52-.3,.28,0,.55,0,.83,0,.42-.01,.84-.08,1.26-.09,.14,0,.23,.03,.37-.03,.17,.04,.3,.15,.38,.3,0,.13-.09,.19-.21,.19-.36,0-.71-.02-1.08-.01-.52,.01-1.04,.04-1.56,.08l.05,3.27c.49,0,1,0,1.49,0,.11,0,.28,.1,.29,.22,0,.14-.05,.2-.21,.2-.5,.01-1.01,.01-1.51,.05,0,.21,0,.42,0,.63,.01,.66,.04,1.3,.04,1.95,0,.4,.03,.81,.04,1.2,.28,.02,.56,.02,.84,.02,.35,0,.71-.06,1.06-.07,.23,0,.45,.04,.45,.32,0,.05-.02,.09-.06,.13-.5-.01-.99,.05-1.5,.06-.14,0-.27-.02-.41-.01Z" style="fill: #fff;"/>
        <path d="M264.06,103.85l.1,2.71c.02,.55,.05,1.08,.14,1.61,.04,.26,.07,.51,.08,.77,0,.21,.04,.6-.19,.71-.13,0-.29,0-.37-.13,0-.31,.03-.62,.02-.94-.02-.82-.22-1.62-.24-2.44,0-.19-.03-.22-.16-.35-.36-.34-.7-.71-1.04-1.05-.78-.78-1.58-1.53-2.23-2.41-.02,.3,0,.62,0,.93,.04,1.45,.15,2.9,.19,4.35,.03,.97,.15,1.5,.15,1.67,0,.23-.08,.45-.34,.45-.07,0-.18,0-.18-.09-.02-.19-.01-.35-.02-.67-.02-.57-.05-1.13-.07-1.71-.03-1.07-.14-2.12-.17-3.18-.03-.95-.04-1.91-.14-2.85,.06-.03,.12-.04,.18-.04,.19,0,.38,.11,.49,.26,.06,.09,.11,.23,.17,.34,.18,.3,.59,.89,.86,1.1,.74,.59,1.65,1.65,2.34,2.37l-.23-3.81c-.02-.22,.11-.34,.31-.33,.13,0,.19,.09,.2,.17,.08,.35,.14,2.09,.15,2.55Z" style="fill: #fff;"/>
      </g>
      <g>
        <path d="M96.54,29.6c0-1.14,.21-2.57,.59-3.63,.93-2.49,4.35-8.32,7.47-8.32,.55,0,1.27,.17,1.52,.76,.38-.25,.72-.51,1.14-.72,.72,.09,1.27,2.32,1.27,2.87,0,1.69-.89,1.98-.89,3.25,0,.68,.04,.8-.76,.8-1.18,0-1.77-1.27-2.07-2.24-.25,.3-.34,.8-.46,1.18-.17,.46-.55,1.01-.76,1.48-1.01,2.15-2.03,4.01-2.03,6.46,0,1.27,.51,3.67,2.15,3.67,.17,0,.38-.09,.51-.21,1.73,.8,6.5-6.46,7.3-7.98,.3-.55,1.39-2.66,2.11-2.66,.25,0,.55,.17,.55,.46,0,.97-2.07,3.88-2.62,4.6-.46,.89-1.27,1.86-1.94,2.66-.55,.68-.93,1.44-1.44,2.11-1.14,1.48-3.12,2.74-5.02,2.74-3.67,0-6.63-3.84-6.63-7.3Z" style="fill: #fff;"/>
        <path d="M112.12,38c-1.22-.46-1.86-1.69-2.03-2.96-.21-.3-.38-.68-.38-1.05,0-4.98,.38-8.23,3.88-12.07,.34-.34,1.44-1.65,1.82-1.73,.46-.34,.68-.59,1.27-.59l.68,.04c.34,0,1.01-.59,1.31-.38,.21-.09,.38-.09,.59-.09,1.65,0,3.8,1.01,3.8,2.96,0,3.55-5.07,8.02-8.02,9.41-.46,.55-.46,1.82-.46,2.49,0,1.48-.25,2.87,1.69,2.87s5.7-3.29,6.8-4.81c.59-.8,1.35-1.73,1.86-2.58,.34-.51,1.52-2.66,2.03-2.87,.21-.08,.38-.13,.59-.17l.13-.08c.13,0,.13,.34,.13,.38,0,.55-.68,1.27-.97,1.69-.46,.68-1.05,1.48-1.43,2.2-.09,.17-.13,.42-.21,.59-.72,1.1-1.73,2.11-2.53,3.16-1.27,1.65-4.68,4.48-6.8,4.48-1.18,0-2.74-.21-3.71-.89Zm8.95-15.07l-.42-.34c-1.39,.38-4.14,5.53-4.56,6.92,1.86-.93,4.85-4.43,4.98-6.59Z" style="fill: #fff;"/>
        <path d="M145.13,46.9c0-2.11,2.15-7.01,2.87-9.03,.17-.46-.13-2.36-.17-3.08l.04-.09s1.01-3.17,1.23-3.88c-1.1,1.65-3.76,5.15-5.91,5.15-1.9,0-3.8-3.04-3.8-4.77,0-2.74,2.53-6.59,4.26-8.61h-.04c.3-.97,3.67-4.01,4.69-4.01,.38,0,.68,.59,.84,.89v.04l.34,.51c1.31-.21,2.91,.51,2.91,1.86,0,.17,0,.38-.25,.38-.42,0-.89-.13-1.31-.13-.3,0-.55,0-.84,.04-.04,.34-.09,.72-.21,1.05-.72,.63-1.35,1.31-1.94,2.07v-.04c-.84,2.03-4.14,4.48-4.14,7.3,0,.42,.08,.89,.59,.89,.42,0,1.6-1.52,1.9-1.82,1.18-1.22,4.05-3.71,4.05-5.57,0-.3-.08-.55,.38-.55,1.14,0,1.94,1.56,1.86,2.53,1.14,.51,1.31,2.07,1.31,3.16,0,.97-.51,1.94-.51,3,0,.59,.17,1.14,.17,1.73,0,.93-.34,1.82-.76,2.66,1.77-1.65,3.34-3.67,4.77-5.61,.42-.59,.8-1.27,1.27-1.86,.13-.13,.29-.25,.46-.25,.21,0,.42,.13,.42,.38l-.21-.09c-.63,2.03-2.49,4.56-3.8,6.16-.63,.76-3.59,4.81-4.52,4.9-1.27,2.07-2.36,4.14-3.34,6.33-.13,.25-.38,1.01-.72,1.01-1.06,0-1.9-1.73-1.9-2.66Z" style="fill: #fff;"/>
        <path d="M166.15,33.48c-.17-.38,.08-.51,.34-3,0-.04-.04-.04-.09-.04-.13,0-.72,1.01-.8,1.18-.55,.97-1.01,2.32-1.6,3-.93,1.1-2.45,3.21-4.05,3.21-1.31,0-2.53-1.18-2.53-2.53,0-.42,.04-.84,.13-1.27-.55-.89-.55-2.28-.68-3.25,.04-.13,.8-1.86,.8-1.98,0-.34-.13-.72-.09-1.05,.09-.84,.68-1.56,.76-2.45l.13-1.22c.09-.63,.42-1.27,.42-1.9,0-.25-.21-.55,.29-.55,.97,0,1.31,.21,1.69,1.01,.93,1.69,2.15,.89,2.58,3.59-.34,1.22-.59,2.32-.84,3.59-.3,1.52-1.82,4.39-1.82,5.78,0,.13,0,.34,.17,.38,1.27-.84,6.71-8.91,6.71-10.6,0-.17-.04-.3-.04-.46,.25-.59,1.14-3.71,1.6-3.71,1.39,0,2.32,1.82,2.32,3,0,.17-.04,.34-.04,.51,.46,.42,.97,.84,.97,1.52,0,1.1-.8,2.49-.8,3.55,0,.25,.04,.51,.04,.76-.13,.34-.25,.63-.42,.93-.21,.51-.63,1.35-.68,1.9,.09,.3,0,.46,.04,.72-.29,.59-.72,1.6-.8,2.24l.21,.25c1.48-.21,4.98-6.04,5.91-7.64,.25-.72,.93-3.21,1.86-3.21,.3,0,.46,.3,.46,.55,0,.17-.04,.34-.09,.46-.34,.55-.89,1.35-.89,2.11-.25,.72-.72,1.39-1.18,1.98-.38,1.44-1.44,2.57-2.28,3.76l.04-.04c-.13,.3-.38,.51-.55,.76-.76,1.1-2.57,2.79-4.01,2.79-2.15,0-3.71-2.62-3.21-4.6Z" style="fill: #fff;"/>
        <path d="M178.01,38c-1.22-.46-1.86-1.69-2.03-2.96-.21-.3-.38-.68-.38-1.05,0-4.98,.38-8.23,3.88-12.07,.34-.34,1.44-1.65,1.82-1.73,.46-.34,.68-.59,1.27-.59l.68,.04c.34,0,1.01-.59,1.31-.38,.21-.09,.38-.09,.59-.09,1.65,0,3.8,1.01,3.8,2.96,0,3.55-5.07,8.02-8.02,9.41-.46,.55-.46,1.82-.46,2.49,0,1.48-.25,2.87,1.69,2.87s5.7-3.29,6.8-4.81c.59-.8,1.35-1.73,1.86-2.58,.34-.51,1.52-2.66,2.03-2.87,.21-.08,.38-.13,.59-.17l.13-.08c.13,0,.13,.34,.13,.38,0,.55-.68,1.27-.97,1.69-.46,.68-1.05,1.48-1.43,2.2-.09,.17-.13,.42-.21,.59-.72,1.1-1.73,2.11-2.53,3.16-1.27,1.65-4.68,4.48-6.8,4.48-1.18,0-2.74-.21-3.71-.89Zm8.95-15.07l-.42-.34c-1.39,.38-4.14,5.53-4.56,6.92,1.86-.93,4.85-4.43,4.98-6.59Z" style="fill: #fff;"/>
        <path d="M206.89,28.46c0-1.22,.13-2.45,.34-3.63,.08-.46,.3-1.1,.3-1.52,0-2.07,.51-4.1,.72-6.12,.13-1.1,.21-2.11,.51-3.21,.25-.89,.42-1.73,.51-2.66,.04-.38,.17-.84,.25-1.23l-.13-.29c.21-.97,.51-6.92,1.77-6.92,1.1,0,2.45,1.27,2.95,2.15,1.06,.59,2.03,2.11,2.03,3.29,0,1.39-1.05,3.5-1.05,4.18,0,.21,.13,.76,.09,.89l-1.14,3.88c.04,.21,.3,2.7,.25,2.79l-1.23,3.71,.25,2.11c-.34,1.01-.68,2.03-.97,3.04l.21,1.39c-.25,.68-.46,1.44-.46,2.15,0,.17,.13,.42,.3,.42,.76,0,3.25-3.46,4.98-6.67l.25-.97v.04c.3-.51,1.22-2.79,1.65-2.79,.13-.13,.3-.21,.46-.21,.21,0,.34,.13,.42,.29,0,.63-.72,1.94-1.01,2.49h.04c-.63,1.56-4.39,9.03-6.04,9.03-.84,.38-1.56,.84-2.36,.84-2.83,0-3.88-4.26-3.88-6.5Z" style="fill: #fff;"/>
        <path d="M221.32,13.72c0-1.22,.72-2.74,1.1-3.93,.46-.34,1.1-.76,1.69-.76,1.05,0,1.52,1.1,1.65,1.98-.42,1.27-.97,2.41-1.22,3.76-.04,.3-.3,.34-.59,.34-.89,0-2.62-.25-2.62-1.39Z" style="fill: #fff;"/>
        <path d="M230.36,37.11c-2.41,.17-4.26-3.12-4.26-5.15,0-.72,.21-1.44,.21-2.11,0-3.59,4.26-9.03,8.1-9.03,1.9,0,4.18,1.69,4.18,3.71,0,.59-.89,.46-1.27,.51-3.42,.25-6.54,6.04-6.54,9.12,0,.76,1.27,2.41,2.07,2.41,.42,0,.89-.46,1.31-.63,.93-.38,2.24-2.49,2.57-3.42-1.14-1.35-.97-2.2-.97-3.84,0-1.39,.38-2.15,1.82-2.15,.34,0,.63,.08,.72,.42h.08c.09,.13,.63,1.52,.63,1.65,0,.34-.04,.84-.13,1.18,0-.09,.17,.72,.17,.84,0,.3-.38,1.22-.55,1.52,.13,.38,.51,.42,.84,.42,1.9,0,4.09-3.97,4.73-5.53,.17-.38,.68-1.94,1.18-1.94,.3,0,.46,.25,.51,.51l-.21,.51h.04c-.55,2.49-3.25,7.6-6.25,7.6-.42,0-1.1-.08-1.52-.25-.38,.63-.63,.34-1.05,1.35-.63,1.52-3.25,2.87-4.85,2.87-.55,0-1.1-.3-1.56-.55Zm7.05-6.12v.13c.09-.21,.21-.63,.21-.84v-.51c0-.3-.09-.68-.42-.72-.13,.21-.13,.42-.13,.68v.38c.21,.21,.21,.63,.34,.89Z" style="fill: #fff;"/>
        <path d="M242.98,33.82l-.17-.13c0-.59,.17-1.14,.17-1.69,0-.3,0-.59-.17-1.05,.08-.84,.29-1.69,.55-2.53-.25-1.27,.34-2.32,.76-3.5-.04-.08-.08-.25-.08-.34,.42-1.18,1.69-4.09,1.69-5.53,0-.34-.08-.8,.42-.8,.93,0,2.45,1.05,3.04,1.73,.09,1.1,.8,2.32,.8,3.25,0,.04-.17,.51-.17,.59,1.05-1.18,4.26-4.64,5.78-4.64s2.36,2.24,2.36,3.46c0,.21-.04,.38-.08,.59,.25,.25,.42,.59,.63,.93-.17,.8-1.23,3.5-1.18,3.76l-1.31,3.5,.04,.21c-.34,.68-.8,1.86-.89,2.62l.08,.21c1.94-.34,4.26-3.29,5.19-4.9,.51-.89,2.41-5.32,3.29-5.32,.29,0,.42,.34,.42,.59,0,.97-3,5.74-3.38,6.33-.38,1.01-1.73,2.53-2.74,3.08-.25,.3-1.9,1.56-2.28,1.56-.21,0-.38-.13-.59-.13-.72,0-1.27,.17-1.98-.09-1.73-.63-2.45-3-2.45-4.64s.97-4.52,1.65-5.99c.29-.68,1.22-1.81,1.22-2.49v-.13c.08-.17,.34-.51,.34-.63-.21,.13-.42,.34-.59,.51-.76,0-2.11,1.52-2.28,2.24-1.39,1.82-2.03,3.97-3.04,5.99,.08,.59-.38,1.14-.38,1.73,0,.13,.08,.21-.04,.3-.46,.8-.68,1.69-.84,2.62-.04,.3-.04,.93-.46,.93-.21,0-.51-.13-.72-.21-.04,.25-.21,.55-.51,.55-.93,0-1.9-1.77-2.11-2.53Z" style="fill: #fff;"/>
      </g>
    </g>
  </g>
</svg>