<?xml version="1.0" encoding="UTF-8"?>
<svg id="Layer_2" data-name="Layer 2" xmlns="http://www.w3.org/2000/svg" viewBox="0 0 360 168">
  <g id="Layer_7" data-name="Layer 7">
    <rect width="360" height="168" style="fill: none;"/>
    <g>
      <path d="M103.24,155.14h0s-.02-.05-.03-.07c.02,.04,.03,.07,.03,.07Z" style="fill: #fff;"/>
      <g>
        <path d="M125.15,20.58c-.51-1.23-.62-2.47-.75-3.39,0-.68,.17-2.33,.41-3.73,.55-2.57,2.26-5.79,3.35-6.85,.24-.07,.38-.14,.55-.14h.07c.68-.62,1.64-1.3,2.67-1.61-.07-.14-.07-.27-.07-.38v-.14l-.03-.48c0-1.61,.92-1.95,1.57-2.23,.14,0,.24,0,.24-.1,.38-.17,1.1-.38,1.57-.38,.07,0,.17,0,.24,.03,.27,.03,.75,.21,.99,.21,.34,0,2.05,.31,2.05,.68,0,.03,0,.07-.03,.07,.89,.27,1.44,.55,1.95,.92,.27,.17,.51,.45,.75,.58,.21,.07,.68,.55,.75,.72,.14,.24,.27,.62,.41,.96,.41,.79,.89,1.92,.92,2.64-.03,.07-.03,.1-.03,.14,0,.21,.03,.41,.03,.62,0,1.33-.24,2.88-.48,4.25,0,.07-.03,.14-.07,.21-.07,.31-.14,.55-.34,1.1l-.14,.69-.31,1.2c.62,.31,1.92,.65,2.98,.65,1.51,0,1.37-.1,2.43-.79,.34-.58,.38-1.64,.79-1.64,1.2,0,1.1,.31,1.1,.86,0,.07-.07,.24-.21,.41l-.24,.17s-.03,.03-.1,.1l-.89,.96-.82,.41-.86,.45c-.41,.03,.24,.1-1.64,.1-.41,0-1.1-.27-1.54-.34l-1.27-.41-.1,.27c0,.21-.65,1.13-.65,1.23s-.21,.41-.21,.44v.04c0,.1-.03,.24-.14,.31,0,.1-.82,1.78-1.23,2.36-.17,.34-.38,.58-1.27,1.68-.41,.48-.89,.99-1.06,1.1-.17,.34-.79,.62-1.13,.72l-.1,.03-.38,.27c-.55,.27-1.1,.38-1.68,.41-.17,.07-.41,.14-.62,.14h-.82c-3.39-.38-5.48-2.84-6.64-5.51Zm5.38-1.3l.07,.61c0,.86,.99,2.77,1.75,3.56,.07,.03,.14,.1,.24,.27,.34,.44,.93,.68,1.47,.68,1.81,0,3.49-2.16,4.66-4.96,.48-.89,1.03-2.29,1.16-2.91-.17-.07-.31-.24-.48-.38-.41-.2-1.13-.72-1.81-1.27l-.79-.69-.55-.65c-.27-.45-.65-.96-.96-1.37l-.51-.93c-.34-.72-.68-1.51-1.2-2.46-.14-.17-.27-.45-.34-.72l-.31,.99c-.21,.72-.31,1.1-.79,2.02l-.34,.68c-.03,.17-.21,.51-.27,.82l-.24,.82c-.38,.86-.82,3.25-.82,4.55,0,.31,0,.86,.07,1.3Zm4.9-10.92c.1,.34,.17,.51,.17,.62q0,.07-.03,.07s-.03,0-.03-.04v.04c0,.07,0,.17,.07,.34,0,.03-.03,.03-.07,.03-.07,0-.1,0-.1,.04,0,0,0,.03,.03,.07l.07,.14v.03c.17,.31,0,.65,.07,.62,.03,.17,.24,.51,.41,.65h.07v.07c0,.17,.14,.58,.27,.79,.14,.07,.31,.55,.51,.55l-.03,.03c0,.07,.1,.27,.31,.31h.03q0,.1-.03,.1s-.03-.03-.07-.03h-.03c.07,.2,.45,.51,.65,.72,.51,.38,1.23,1.09,2.02,1.75,.17,.21,.34,.31,.45,.34l.03-.1s.03-.07,.03-.14c.07-.24,.96-3.63,.96-4.59v-.44c.03-.21,.03-.45,.03-.65v-.27c0-.14,.03-.27,.03-.38,0-1.3-.14-1.95-.27-2.36-.14-.44-.24-1.06-.48-1.47l-.17-.24-.1-.07c-.14-.17-.27-.27-.38-.45-.69-.55-1.82-.82-2.09-1.34-.1-.14-.1-.2-.17-.24-.1-.03-.21-.03-.31-.03-.21,0-.44,.03-.68,.2l-.14,.14c-.27,.21-.45,.48-.65,1.03,0,.62-.2,1.57-.44,1.64-.1,.14-.14,.38-.14,.65,0,.55,.1,1.23,.21,1.88Z" style="fill: #fff;"/>
        <path d="M144.32,24.58l-.14-.1v-.17c0-.41,.14-.79,.14-1.2,0-.27-.07-.58-.14-.82,.03-.75,.31-1.37,.41-2.09-.31-.75,.41-2.23,.62-2.84,0-.03-.07-.2-.03-.27,.34-1.06,1.37-3.43,1.37-4.66,0-.24,0-.48,.31-.48,.82,0,1.88,.58,2.12,1.4l.34-.04c.1,.34,.14,.72,.14,1.1,.38,.21,.51,1.2,.55,1.57l-.17,.45v.07c.86-.96,3.42-3.8,4.69-3.8,.99,0,1.92,1.61,1.92,2.5,0,.27,0,.51-.03,.79,.21,.21,.34,.48,.51,.75-.69,1.99-1.3,3.94-2.02,5.89v.17c-.21,.48-.69,1.58-.69,2.05,0,.1,0,.17,.03,.24,3.66-.69,6.2-9,7.36-9,.27,0,.34,.27,.34,.51,0,.1-.03,.24-.1,.34h.03c-.99,1.88-1.99,3.66-3.12,5.48v-.03c-.45,1.06-1.3,1.88-2.23,2.53-.34,.24-1.51,1.27-1.88,1.27-.14,0-.27-.03-.38-.1-2.47,.34-3.7-1.47-3.7-3.8,0-1.2,.79-3.87,1.34-4.9,.21-.41,.99-1.54,.99-2.02v-.1c.07-.17,.21-.34,.27-.51-.17,.1-.31,.24-.44,.41-.62,0-1.71,1.23-1.88,1.81-1.06,1.4-1.81,3.22-2.43,4.86,0,.38,.14,.72,.14,1.1,0,.07-.03,.1-.03,.17v-.03c-.24,.48-1.2,3.29-1.54,3.29-.17,0-.41-.1-.58-.17-.03,.21-.17,.45-.41,.45-.75,0-1.54-1.44-1.68-2.05Z" style="fill: #fff;"/>
        <path d="M106.14,47.7c0-.89,.2-2.12,.51-2.98,.69-1.81,3.05-6.78,5.38-6.78,.48,0,.99,.17,1.2,.65,.31-.21,.58-.45,.92-.62,.58,.07,1.06,1.99,1.06,2.43,0,1.03-.75,1.64-.75,2.67,0,.45-.1,.51-.58,.51-.96,0-1.47-1.03-1.71-1.81l-.07,.1-.17,.41v-.03c-.1,.61-.48,1.16-.75,1.71-.89,1.85-1.64,3.29-1.64,5.38,0,.99,.51,2.81,1.75,2.81,.14,0,.27-.07,.41-.14,1.57,.27,4.25-3.87,5.07-5.03,.48-.68,1.81-3.63,2.57-3.63,.24,0,.44,.17,.44,.41,0,1.03-2.91,4.93-3.7,5.86-.45,.55-.75,1.16-1.16,1.71-.93,1.2-2.53,2.23-4.08,2.23-2.94,0-4.69-3.25-4.69-5.85Z" style="fill: #fff;"/>
        <path d="M120.94,52.05c-.21-.07-.45-.03-.65-.1-1.64-.58-2.77-2.43-2.77-4.11,0-3.22,.31-5.65,2.77-8.01,.92-1.06,2.7-2.22,4.14-2.22s3.87,1.54,3.87,3.12c0,.31-.48,.38-.68,.38-1.44,0-3.49,1.1-4.42,2.19-1.23,1.47-1.47,2.95-1.68,4.79-.07,.55-.24,1.03-.24,1.57,0,.99,.62,1.54,1.57,1.54,.38,0,.82-.1,1.2-.24,.38-.14,.58-.69,.92-.96,.48-.38,1.03-1.1,1.16-1.68-.72-.44-1.54-2.16-1.54-2.98,0-.99,.31-2.4,1.51-2.4,.58,0,1.3,.24,1.44,.89h.14c.1,.1,.17,.75,.17,.89v.24c.14,.1,.31,.38,.31,.55,0,.2-.14,.44-.17,.65,.03,.24,.1,.51,.1,.75,0,.14-.51,1.1-.62,1.3,.17,0,.38,.03,.55,.03,.93,0,2.74-2.26,3.25-3.01,.27-.41,1.4-2.4,1.58-2.57,.07-.07,.24-.1,.34-.1,.21,0,.41,.14,.41,.34,0,.17-.07,.34-.17,.48-.55,1.64-3.53,5.96-5.51,5.96-.27,0-.58,.03-.82-.1-.24,.34-.72,.72-.86,1.06-.27,.72-1.92,1.81-2.64,1.99-.44,.1-.86,.21-1.33,.21-.69,0-.79-.31-1.34-.45Zm5.24-5.1l.45,.48c.21-.41,.34-.89,.51-1.34-.1-.41-.24-1.68-.92-1.68l-.1,.07-.07,.27c.03,.1-.1,.58-.1,.79,0,.48,.27,.96,.24,1.4Z" style="fill: #fff;"/>
        <path d="M130.83,50.78l-.14-.1v-.17c0-.41,.14-.79,.14-1.2,0-.27-.07-.58-.14-.82,.03-.75,.31-1.37,.41-2.09-.31-.75,.41-2.22,.62-2.84,0-.03-.07-.21-.03-.27,.34-1.06,1.37-3.42,1.37-4.66,0-.24,0-.48,.31-.48,.82,0,1.88,.58,2.12,1.4l.34-.03c.1,.34,.14,.72,.14,1.09,.38,.21,.51,1.2,.55,1.58l-.17,.44v.07c.86-.96,3.42-3.8,4.69-3.8,.99,0,1.92,1.61,1.92,2.5,0,.27,0,.51-.03,.79,.21,.2,.34,.48,.51,.75-.69,1.99-1.3,3.94-2.02,5.89v.17c-.21,.48-.69,1.57-.69,2.05,0,.1,0,.17,.03,.24,3.66-.68,6.2-9,7.36-9,.27,0,.34,.27,.34,.51,0,.1-.03,.24-.1,.34h.03c-.99,1.88-1.99,3.66-3.12,5.48v-.04c-.45,1.06-1.3,1.88-2.23,2.53-.34,.24-1.51,1.27-1.88,1.27-.14,0-.27-.03-.38-.1-2.47,.34-3.7-1.47-3.7-3.8,0-1.2,.79-3.87,1.33-4.9,.21-.41,.99-1.54,.99-2.02v-.1c.07-.17,.21-.34,.27-.51-.17,.1-.31,.24-.44,.41-.62,0-1.71,1.23-1.88,1.82-1.06,1.4-1.81,3.22-2.43,4.86,0,.38,.14,.72,.14,1.1,0,.07-.03,.1-.03,.17v-.03c-.24,.48-1.2,3.29-1.54,3.29-.17,0-.41-.1-.58-.17-.03,.21-.17,.44-.41,.44-.75,0-1.54-1.44-1.68-2.05Z" style="fill: #fff;"/>
        <path d="M148.74,51.74c-.55,.03-1.3-.31-1.78-.55-.55-.27-1.06-.89-1.06-1.57,0-1.47,2.6-2.3,3.77-2.3,.14,0,.31,0,.45,.07,.21-.1,.45-.79,.45-.99,0-.48,.21-.86,.21-1.34,0-.1-.03-.24-.07-.38l.2-1.54c-.24-.48-.17-1.09-.34-1.61l-.51-1.51c-.27,.07-2.57,4.76-3.18,5.03-.14,0-.17-.31-.17-.41,0-1.1,2.16-4.38,2.67-5.75l-.21-3.83c-.03-.34,1.13-1.54,1.34-2.02,.21-.2,.72-.79,1.03-.79,.24,0,.41,.17,.58,.31,1.16,.79,1.58,1.2,1.92,2.6,.07,.21,.14,.41,.14,.62,0,.75-1.23,2.05-1.57,2.81,.68,.99,1.2,2.36,1.61,3.49l.45,.41,.38,1.03s.14,.14,.14,.17c0,.14-.14,.31-.14,.44,.07,.41,.24,.86,.24,1.27,0,.1-.03,.21-.07,.27-.07,.48-.65,.86-.72,1.47,.62-.21,1.23-.34,1.78-.75,1.16-.79,1.99-1.85,2.77-3.05,.17-.24,.27-.58,.45-.79,.1-.1,.27-.21,.41-.21,.24,0,.38,.24,.38,.44,0,.45-.27,.69-.51,1.03-.24,.34-.44,.75-.68,1.13-.17,.24-.41,.44-.55,.68-.82,1.27-2.19,1.92-3.59,2.43-.45,.17-.34,.27-.89,.24-.03,.65-.48,1.82-.86,2.36-.44,.62-2.53,1.37-3.29,1.37-.41,0-.75-.17-1.13-.31Zm-.86-1.4c1.06,0,1.85-.92,2.02-1.88h-.03c-.62,0-2.84,.75-2.84,1.4,0,.31,.62,.48,.86,.48Z" style="fill: #fff;"/>
        <path d="M160.18,50.37c-.75-.68-1.85-1.54-1.85-2.64,0-1.64,.72-4.01,1.3-5.55l-.03-.34c.58-2.05,.93-4.08,1.34-6.16-1.06-.14-7.57-.58-7.57-2.47,0-.14,.14-.21,.27-.21,.1,0,.17,.07,.24,.14l.48-.1c2.29,.96,4.55,.89,6.95,1.13l-.03,.21c.41-1.09,1.2-2.7,1.4-3.9,.14-.69,.27-4.9,1.03-4.9,1.13,0,2.46,1.61,2.46,2.67,0,.21,0,.38-.03,.58,.21,.44,.31,1.37,.58,1.68-.31,1.37-.72,2.74-1.1,4.07l2.84,.14c.24,0,.45-.03,.69-.03,1.3,.07,5.44,.96,5.44,2.84,0,.31-.21,.34-.45,.31h-.24c-.24-1.09-4.21-1.88-5.1-1.88-1.16,0-2.33-.1-3.49-.17-.38,1.51-.41,3.12-.89,4.59l.07,.79c-.65,2.02-2.29,5.99-2.29,7.98,0,.34,0,.69,.24,.96,1.16-.38,4.69-4.66,5.24-5.89,.21-.44,1.71-3.29,2.02-3.29,.1,0,.24,.14,.24,.24s-.07,.21-.1,.31c.72,.99-5.68,10.07-7.91,10.07-.86,0-1.4-.41-1.75-1.16Z" style="fill: #fff;"/>
        <path d="M141.89,56.16c2.43-.79,3.22-.92,3.53-.96,.17,.03,.62,0,1.44-.17,1.88-.2,4.28-.38,6.75-.38,.75,0,1.54,0,2.29,.03,2.02-.27,3.7-.41,5.2-.41,3.94,0,6.44,.89,9.04,1.92,3.39,.31,4.76,2.02,5.44,3.18l-.48,.55c-1.47,1.68-2.16,2.4-2.57,2.4-.34,0-.62-.58-1.13-1.47-.68-1.13-3.6-1.99-6.44-2.77-.99-.27-1.95-.51-2.84-.82-3.18-.89-5.96-1.1-9.55-1.27h-.38s-.03,.03-.07,0c-.1,0-.14-.14-.24-.04-.58,.1-1.3,.17-2.02,.21-1.03,.07-2.06,.14-2.77,.31-.55,.14-1.64,.17-2.6,.17-.79,.03-1.47,.03-1.85,.1-.14,.07-.27,.07-.34,.03l-1.75-.03,1.34-.58Zm29.24-7.02c-.03-.41,.07-.96,.21-1.57,.14-.55,.27-1.17,.31-1.71,0-1.13,.55-2.33,.99-3.22,.34-.72,.72-1.4,.65-2.02,0,.04-.03,0-.03,0l.03-.27c.03-.07,.03-.14,.03-.21v-.03s-.07,0-.1,.03c-.14,.07-.31,.17-.38,.17s-.07,0-.1-.03c-.07,.03-.14,.07-.17,.07-.21,0-.45-.07-.69-.17-.27-.07-.72-.38-.86-.17-.17,.24-.38,.55-.55,.99-.1,.34,0,.34-.24,.62v-.03l-.21,.44-.31,.62c-.2,.51-1.64,2.67-1.85,2.67-.17,0-.27-.21-.34-.86,0-.07,1.06-1.88,1.34-2.4,.48-.89,1.13-2.19,1.1-2.67,0-.14-.38-.65-.75-1.13-.38-.51-.75-1.03-.75-1.23l-.03-.17c-.07-.1-.14-.24-.14-.41-.1-2.36,1.27-5.89,3.56-5.89,.96,0,1.78,.62,1.88,1.64,.1,1.68-1.03,4.11-1.75,5.62-.24,.51-.34,.61-.41,.86,0,0,.03-.04,.07-.04,.07,0,.21,.31,.48,.24l.14,.27v-.03s.03,.07,.03,.07c.14,0,.27-.03,.45-.1h-.03l1.37-.82c1.03-.62,1.78-.92,1.99-.96,.48,0,2.5,1.44,2.6,2.64,.03,.41-.31,1.06-.79,1.95-.48,.86-1.06,1.99-1.54,3.43l-.72,1.64c-.21,.75-.31,1.51-.31,2.23v.51l.07,.68c0,.1,.03,.14-.03,.2l.03,.31c.17,1.23,.38,2.94,1.34,2.22,.07,.07,.17,.07,.24,.07,1.3,0,4.07-3.63,5.24-6.71,.24-.58,.41-1.06,.55-1.51,.2-.72,.38-1.3,.72-1.78,.21-.27,.21-.17,.21,.1,0,.07,0,.14,.03,.24l.07,.07h-.03c.21,.14,.31,.51-.55,2.6l-.21,.58-.27,.55c-.38,.75-.96,1.95-1.2,2.26l-.34,.51c-.45,.68-.79,1.4-1.13,2.12-1.58,2.09-2.94,2.47-4.21,2.47-2.84-.24-4.42-2.5-4.69-5.55Zm-.27-11.4l.03,.14c.75-1.65,1.44-3.46,1.37-4.25,0-.14-.07-.27-.17-.31-.62,.27-1.64,2.09-1.64,3.08,.07,.51,.27,1.03,.41,1.34Z" style="fill: #fff;"/>
        <path d="M189.38,48.32c0-.31,0-.61,.07-.89-.14-.21,.21-2.05,.27-2.43,0-.03-.03-.03-.07-.03-.1,0-.58,.86-.65,.96l-.27,.48c-.41,.65-.55,1.37-1.03,1.95-.75,.89-2.02,2.6-3.32,2.6s-2.02-1.1-2.02-2.26c0-.27,.03-.55,.1-.82-.34-.48-.38-1.23-.38-1.78,0-.1,.62-1.54,.65-1.61-.03-.27-.1-.58-.1-.86,0-.34,.48-3.22,.58-3.83,.07-.51,.34-1.06,.34-1.54l-.03-.03c-.07-.21-.07-.41,.24-.41,1.68,0,1.06,1.06,2.16,1.68,.82,.45,1.23,1.13,1.3,2.05-.27,.99-.51,1.88-.68,2.91-.24,1.44-1.44,3.22-1.44,4.62,0,.14,0,.27,.1,.38,1.1-.68,5.44-7.16,5.44-8.66,0-.1,0-.21-.03-.31,.24-.48,.96-3.01,1.3-3.01,1.16,0,1.92,1.44,1.92,2.43,0,.14-.03,.27-.03,.41,.38,.34,.79,.69,.79,1.23,0,.89-.48,2.02-.68,2.88l.07,.62c-.21,.41-.89,1.85-.89,2.29,0,.17,.03,.31,.03,.51-.17,.34-.65,1.51-.65,1.88l.14,.21c1.03-.14,4.42-5.2,4.9-6.47,.21-.55,.68-2.33,1.44-2.33,.17,0,.38,.2,.38,.38,0,.65-.82,1.34-.82,2.09v.07c-.21,.58-.58,1.1-.92,1.61-.27,1.17-1.16,2.09-1.85,3.05v-.03c-.1,.31-.27,.38-.44,.62-.58,.86-2.09,2.26-3.22,2.26-1.4,0-2.67-1.47-2.67-2.84Z" style="fill: #fff;"/>
        <path d="M196.54,46.81c0-1.1,.1-2.4,.44-3.46l.55-1.75c.31-1.03,1.03-2.06,1.1-3.12,.03-.41,.27-.82,.65-1.03,.21-.1,.27-.14,.51-.14,1.34,0,2.33,1.64,2.33,2.84,0,.48-.14,.92-.24,1.37,.21,.34,.07,.99,.17,1.37-.21,.65-.45,1.37-.75,1.99v.21c-.34,.89-.62,1.81-.79,2.74l.03,.03c.07,.1-.03,.21-.1,.27-.27,.27-.55,.86-.55,1.27,0,.27,.21,.44,.44,.51,.48-.21,.82-.62,1.23-.92,1.85-1.4,3.05-3.6,4.21-5.58,.24-.41,.51-1.06,.82-1.44,.1-.14,.34-.24,.51-.24s.31,.14,.31,.34c0,.1-.03,.21-.07,.31l-.03,.21v.03c-.82,1.1-1.44,2.5-2.29,3.9v.04c-.41,.79-2.33,3.29-3.01,3.66h.03c-.41,.27-.82,.58-1.3,.79v-.04c-.34,.21-.75,.27-1.16,.27-2.19,0-3.05-2.67-3.05-4.45Zm6.37-17.74c.68,0,2.47,.75,2.47,1.54,0,.31-.14,.58-.31,.82-.38,.72-1.13,2.5-2.05,2.5-1.51,0-2.29-1.4-2.29-2.77,0-1.17,1.03-2.09,2.19-2.09Z" style="fill: #fff;"/>
        <path d="M206.88,50.37c-.75-.68-1.85-1.54-1.85-2.64,0-1.64,.72-4.01,1.3-5.55l-.03-.34c.58-2.05,.93-4.08,1.34-6.16-1.06-.14-7.57-.58-7.57-2.47,0-.14,.14-.21,.27-.21,.1,0,.17,.07,.24,.14l.48-.1c2.29,.96,4.55,.89,6.95,1.13l-.03,.21c.41-1.09,1.2-2.7,1.4-3.9,.14-.69,.27-4.9,1.03-4.9,1.13,0,2.46,1.61,2.46,2.67,0,.21,0,.38-.03,.58,.21,.44,.31,1.37,.58,1.68-.31,1.37-.72,2.74-1.1,4.07l2.84,.14c.24,0,.45-.03,.69-.03,1.3,.07,5.44,.96,5.44,2.84,0,.31-.21,.34-.45,.31h-.24c-.24-1.09-4.21-1.88-5.1-1.88-1.16,0-2.33-.1-3.49-.17-.38,1.51-.41,3.12-.89,4.59l.07,.79c-.65,2.02-2.29,5.99-2.29,7.98,0,.34,0,.69,.24,.96,1.16-.38,4.69-4.66,5.24-5.89,.21-.44,1.71-3.29,2.02-3.29,.1,0,.24,.14,.24,.24s-.07,.21-.1,.31c.72,.99-5.68,10.07-7.91,10.07-.86,0-1.4-.41-1.75-1.16Z" style="fill: #fff;"/>
        <path d="M223.9,64.43c-.55,.03-1.3-.31-1.78-.55l.03,.03c-.62-.38-1.1-.92-1.1-1.68,0-1.44,2.67-2.26,3.84-2.26,.1,0,.27,0,.38,.07,.21-.14,.45-.75,.45-.99,0-.45,.21-.86,.21-1.3,0-.14-.03-.27-.07-.41l.2-1.51v-.04c-.24-.44-.17-1.06-.34-1.57s-.31-.96-.51-1.47c-.75,.89-1.06,3.7-2.33,3.7-.17,0-.34-.07-.34-.27,0-.1,1.78-4.01,1.99-4.59l-.79-4.01c.2-.75,1.3-1.54,1.51-2.09,.31-.34,.69-.68,1.16-.68,.27,0,1.47,.75,1.64,.96,.51,.17,.82,.62,.82,1.16,0,.99-.82,2.33-1.58,2.94,.89,1.44,1.44,3.29,2.05,4.86l.45,.45,.38,1.03s.14,.1,.14,.17c0,.1-.14,.27-.14,.41,.07,.41,.24,.86,.24,1.3,0,.07,0,.17-.07,.24-.1,.55-.65,.92-.72,1.47,.65-.17,1.23-.34,1.78-.75h-.03c1.37-.89,2.57-2.33,3.25-3.84,.1-.1,.24-.17,.41-.17,.24,0,.38,.21,.38,.41,0,.45-.27,.75-.51,1.06v-.03c-.38,.65-.72,1.3-1.23,1.85v-.03c-.65,1.44-2.81,2.05-4.11,2.7h-.38c-.03,.65-.48,1.85-.86,2.36-.41,.55-2.6,1.37-3.29,1.37-.31,0-.82-.17-1.13-.31Zm-.86-1.4c1.06,0,1.85-.96,2.02-1.92h-.03c-.75,0-2.43,.68-2.84,1.3v.1c0,.34,.58,.51,.86,.51Z" style="fill: #fff;"/>
        <path d="M240.54,63.17c-.24-.79-.17-1.61-.27-2.4,.03-.07,.07-.2,.07-.27l-.48,.68c-.24,.51-1.44,2.98-2.23,3.05-.31,.24-.89,.75-1.3,.75-2.16,0-4.14-1.4-4.14-3.7,0-2.81,2.84-8.01,5.62-9.24,.72-.51,2.26-1.1,3.18-1.1,.75,0,2.91,1.4,2.91,2.26,0,.24-.17,.45-.41,.51-2.12-.38-4.72,1.78-5.51,3.6l-.75,1.57c-.21,.44-.96,1.92-.99,2.33-.07,.21-.17,.48-.17,.68l.03,.03c.14,.55,.03,1.54,.79,1.54,.51,0,1.03-.48,1.33-.86,.72-.86,2.67-4.86,3.05-6.03,.14-.48,.48-.82,.65-1.27,0-.51,1.54-.51,1.92-.51,.51,0,.96,.14,1.37,.48,0,.03,.03,.1,.03,.17,.21,.17,.41,.34,.41,.58,0,.34-.55,1.34-.58,1.78-.07,.58-.27,1.03-.31,1.64-.03,.48-.17,.92-.34,1.37-.17,.41-.99,2.84-.99,2.88,0,.21,.38,.21,.51,.21,2.19,0,5.31-8.25,6.37-8.25,.17,0,.34,.17,.34,.34,0,.14,0,.24-.03,.38-.03,.17-3.8,5.99-4.21,6.68-.65,1.06-2.12,2.33-3.42,2.33-1.06,0-2.12-1.3-2.43-2.23Z" style="fill: #fff;"/>
      </g>
      <g>
        <path d="M134.8,143.5l-29.3-54.13c-2.12-3.98-3.59-5.38-7.83-4.47l-.33-1.56,30.86-6.6,.33,1.56c-4.93,1.05-6.26,2.42-3.8,5.88l26.25,36.06,2.47-40.85c.33-5.22-1.31-6.14-5.64-5.21l-.33-1.56,13.66-2.92,.33,1.56c-4.5,.96-5.54,2-5.78,7.65l-2.75,60.71-18.16,3.88Z" style="fill: #dba510;"/>
        <path d="M168.63,137.35l-.02-1.68c3.18-.03,4.15-.92,4.29-4.81l1.57-31.75c.22-4.51-1.29-5.65-5.09-5.61l-.02-1.59,25.37-.23v.35c-.88,.36-1.13,2.13-.82,6.9l2.14,31.72c.21,3.89,1.01,4.76,4.28,4.74l.02,1.68-31.73,.28Zm15.21-49.11c-5.66,.05-10.2-3.8-10.25-9.46s4.42-9.59,10.08-9.64c5.66-.05,10.29,3.8,10.34,9.46s-4.51,9.59-10.17,9.64Z" style="fill: #dba510;"/>
        <path d="M260.85,132.96c-5.56,9-12.31,13.07-29.31,9.72-16.65-3.28-27.18-10.68-24.22-25.68,2.98-15.09,16.68-23.83,33.42-20.53,15.96,3.15,23.84,15.24,21.51,29.38l-32.61-6.43c-1.79,10.01-1.8,9.11-2.05,11.76-.59,6.19,1.98,8.68,8.75,10.01,11.8,2.33,18.93-1.85,22.98-9.16l1.53,.93Zm-17.59-22.3c1.23-7.6,1.72-11.01-3.65-12.07-3.3-.65-5.62,.6-7.17,7.59-.72,3.19-1.32,5.78-2.38,11.15l8.5,1.68c2.51,.5,3.35,.39,3.93-3.46l.78-4.89Z" style="fill: #dba510;"/>
      </g>
      <g>
        <g>
          <path d="M177.35,157.72l-.1-.16c-.4-.6-.95-1.08-1.66-1.42l-.48-.22c-.28-.13-.55-.26-.83-.41-.33-.17-.68-.34-.97-.55-.2-.15-.35-.32-.47-.52-.08-.13-.08-.22-.05-.35,.05-.25,.09-.4,.18-.5,.09-.09,.14-.19,.17-.28,.08-.05,.15-.09,.21-.1,.16-.04,.31-.06,.47-.09l.55-.08c.09-.02,.21,0,.33,.03,.08,.02,.16,.04,.19,.06,.1,.08,.23,.14,.36,.16,.1,.02,.18,.07,.26,.15,.13,.13,.25,.22,.34,.27,.23,.16,.51,.18,.8,.03,.23-.14,.27-.37,.29-.5l.02-.17c.05-.22,0-.41-.04-.58-.08-.25-.23-.48-.45-.68-.31-.27-.62-.45-.98-.55-.31-.08-.64-.15-.92-.12-.41-.02-.72,.01-1.01,.11h0s-.54,.16-.54,.16c-.12,.04-.24,.08-.36,.15-.24,.13-.59,.35-.82,.73-.1,.16-.21,.31-.33,.47-.39,.55-.55,1.19-.47,1.9,.04,.34,.15,.65,.33,.93,.59,.89,.74,1.04,1.68,1.65,.13,.08,.32,.18,.55,.21,.07,0,.13,.03,.16,.05,.1,.08,.21,.12,.3,.15l.22,.09c.1,.04,.2,.08,.31,.13,.06,.03,.11,.06,.16,.09,.12,.07,.25,.14,.4,.19l.55,.36,.04,.06c.13,.18,.24,.33,.27,.46,.02,.12,.05,.24,.08,.36,.08,.29,.08,.59,0,.96l-.03,.16s-.07,.03-.11,.05c-.13,.05-.22,.12-.28,.17-.16,.11-.36,.18-.62,.21-.31,.03-.57,.02-.82-.03-.56-.09-1.11-.28-1.66-.57-.04-.02-.07-.05-.12-.09-.09-.07-.17-.15-.23-.27-.16-.28-.51-.39-.81-.28l-.2,.07c-.37,.2-.5,.54-.57,.79-.06,.18,0,.34,0,.37,.03,.14,.1,.26,.17,.33,.22,.27,.47,.57,.8,.81,.26,.19,.55,.31,.77,.39,.83,.33,1.51,.47,2.18,.47,.26,0,.51-.03,.75-.09,.09-.02,.18-.04,.21-.05l.2-.03,.38-.21c.26-.13,.53-.27,.8-.5,.17-.15,.36-.34,.46-.6,.04-.09,.12-.19,.2-.3,.19-.27,.28-.57,.28-.88,0-.13,.01-.27,.03-.4,.02-.18,.02-.35,0-.54-.07-.52-.25-1.05-.54-1.64Z" style="fill: #fff;"/>
          <path d="M186.79,154.98v-1.33l-.06-.35v-.37c.02-.96,0-1.56-.08-2.47-.03-.27-.08-.55-.12-.75,0-.12-.04-.21-.09-.32-.13-.26-.42-.42-.7-.38-.19,.02-.36,.08-.49,.15-.15,.08-.33,.25-.38,.62,0,.07,0,.17,.03,.31,.03,.1,.04,.23,.05,.36,0,.14,.02,.28,.05,.43,0,0,0,0,0,0-.05,.2-.02,.39,0,.51l.03,.62c.01,.29,0,.57-.02,.86v.31c-.03,.44-.03,.88-.01,1.33,.01,.18,.03,.36,.03,.54,0,.1,0,.2-.01,.31,0,.12-.02,.24-.02,.36,0,.47-.12,.96-.36,1.52-.07,.16-.15,.31-.23,.45l-.12,.23-.13,.11c-.19,.15-.36,.3-.56,.39-.26,.12-.52,.15-.77,.09-.42-.1-.78-.3-1.08-.6-.35-.36-.36-.38-.57-.79-.28-.56-.45-1.14-.52-1.73-.06-.48-.1-.97-.15-1.45-.04-.5-.04-.97,.01-1.4,.02-.11,.01-.2,0-.34v-.17c0-.15,0-.29,.01-.45,.04-.39,.08-.84-.03-1.32v-.2c0-.07,0-.17-.02-.26-.04-.18-.14-.34-.31-.47-.22-.14-.49-.17-.77-.08-.13,.05-.22,.12-.25,.14-.26,.15-.39,.4-.36,.67,.01,.11,0,.23-.02,.37-.01,.09-.02,.18-.03,.28,0,.21-.03,.43-.06,.64-.03,.28-.06,.56-.08,.91-.11,.45-.08,.89-.04,1.22,.02,.2,.03,.4,.05,.61,.02,.31,.04,.62,.09,.93l.06,.4c.05,.29,.09,.58,.16,.82,.02,.11,.04,.22,.07,.32l.07,.24c.03,.11,.06,.23,.1,.33,.19,.58,.51,1.07,.8,1.52,.07,.13,.16,.25,.3,.38l.68,.62c.39,.25,.79,.42,1.19,.51,.32,.08,.63,.1,.92,.1,.17,0,.32,0,.46-.02,.26-.02,.5-.09,.7-.19l.58-.3c.25-.11,.43-.29,.59-.44l.1-.09c.13-.12,.22-.24,.29-.37l.05-.1c.4-.77,.46-.88,.77-1.84,.04-.12,.05-.24,.07-.36,0-.07,.01-.14,.04-.23,.04-.15,.05-.3,.06-.45v-.13c.02-.17,.01-.35,0-.52,0-.1,0-.2,0-.3Z" style="fill: #fff;"/>
          <path d="M195.67,156.01c-.12-.16-.25-.32-.4-.5l-.1-.12c-.08-.1-.16-.2-.23-.31-.09-.13-.17-.27-.25-.41-.14-.23-.28-.46-.46-.71l-.02-.05c-.13-.27-.29-.5-.43-.68-.15-.2-.31-.41-.5-.64l.68-.33c.29-.17,.51-.38,.74-.59,.31-.29,.51-.61,.59-.96,.1-.39,.17-.76,.22-1.1,.07-.57-.06-1.2-.41-1.88-.04-.08-.1-.16-.17-.25-.4-.49-.89-.85-1.45-1.08-.51-.21-.96-.31-1.42-.33-.08,0-.16-.01-.24-.02l-.16-.02c-.42-.04-.92-.07-1.41,.05-.16,.03-.32,.08-.47,.12-.81,.22-1.2,1.05-1.09,1.74,.03,.14,.04,.27,.04,.41v.18c0,.14,0,.28,0,.42,.02,.25,0,.44-.02,.58-.04,.17-.04,.32-.04,.49,0,.07,.02,.15,.03,.23,.01,.07,.03,.15,.03,.22s0,.14-.02,.21c-.01,.11-.03,.21-.03,.31v.34c-.02,.55-.04,1.13,0,1.67v1.37c.01,.46,.02,.92,.09,1.4,.04,.29,.07,.58,.1,.85,.03,.42,.3,.74,.73,.84,.21,.05,.43,.01,.61-.12,.17-.12,.28-.32,.29-.48,.02-.1,.02-.2,.02-.3,0-.14,0-.27,0-.41,0-.13,0-.26,0-.39,0-.19-.03-.4-.09-.66-.05-.15-.06-.28-.04-.39,.01-.1,.01-.19,0-.29v-.17c.05-.27,.04-.53,.04-.76v-.13s0-.08,0-.11h.07c.08,0,.19-.01,.3-.05,.15-.05,.32-.06,.5-.08,.06,0,.13-.01,.19-.02,0,0,0,.02,.01,.03,.06,.12,.15,.28,.3,.4,.02,.02,.05,.05,.09,.17,.05,.14,.12,.32,.27,.47,.09,.09,.17,.18,.25,.28,.06,.07,.12,.14,.18,.21,.18,.21,.33,.44,.49,.69,.11,.17,.22,.34,.34,.49,.08,.1,.15,.2,.2,.3,.14,.27,.3,.54,.51,.82,.08,.11,.18,.21,.35,.37,.12,.12,.27,.18,.44,.18,.14,0,.28-.04,.4-.13,.26-.18,.43-.46,.5-.84,.03-.22-.02-.42-.14-.57Zm-5.3-5.62s0-.09,.02-.16c.02-.18,.03-.35,.03-.55v-.21c-.02-.24-.03-.48-.06-.71-.02-.16-.02-.31-.01-.47v-.02s.08-.02,.12-.02c.14-.03,.27-.06,.36-.04,.12,.02,.21,0,.3,0,.09,0,.19,.01,.3,.02,.12,.02,.25,.03,.36,.03h0c.48,.01,.93,.15,1.3,.28,.15,.06,.29,.14,.42,.25,.27,.21,.38,.48,.37,.9v.04c0,.25-.1,.46-.36,.69-.21,.18-.4,.29-.61,.34-.12,.04-.24,.09-.35,.14l-.09,.04c-.25,.1-.52,.16-.79,.22l-.37,.09s-.12,.01-.18,.01c-.25,0-.49,.02-.75,.11,0-.04,0-.08,0-.13,.03-.25,.05-.56,0-.87Z" style="fill: #fff;"/>
        </g>
        <path d="M169.7,151.11c1.12-1.47,2.73-2.57,4.48-3.13,.95-.3,1.91-.42,2.9-.45,1.06-.03,2.14-.02,3.17-.3,1.24-.33,2.15-1.11,3.01-2.02,.66-.69-.39-1.75-1.05-1.05-.72,.76-1.43,1.41-2.47,1.66s-2.06,.18-3.09,.23c-2.04,.1-4.03,.71-5.72,1.88-.97,.67-1.8,1.48-2.51,2.42-.24,.32-.05,.83,.27,1.02,.38,.22,.78,.05,1.02-.27h0Z" style="fill: #fff;"/>
        <path d="M197.01,157.49c-1.12,1.47-2.73,2.57-4.48,3.13-.95,.3-1.91,.42-2.9,.45-1.06,.03-2.14,.02-3.17,.3-1.24,.33-2.15,1.11-3.01,2.02-.66,.69,.39,1.75,1.05,1.05,.72-.76,1.43-1.41,2.47-1.66s2.06-.18,3.09-.23c2.04-.1,4.03-.71,5.72-1.88,.97-.67,1.8-1.48,2.51-2.42,.24-.32,.05-.83-.27-1.02-.38-.22-.78-.05-1.02,.27h0Z" style="fill: #fff;"/>
      </g>
    </g>
  </g>
</svg>