<?xml version="1.0" encoding="UTF-8"?>
<svg id="Layer_2" data-name="Layer 2" xmlns="http://www.w3.org/2000/svg" viewBox="0 0 360 168">
  <g id="Layer_7" data-name="Layer 7">
    <rect width="360" height="168" style="fill: none;"/>
    <g>
      <g>
        <path d="M90.77,84.62c-10.69,0-16.89-3.79-16.89-13.73,0-8.69,4.74-18.47,16.97-18.47s16.81,10.07,16.81,18.47c0,9.94-6.16,13.73-16.89,13.73Zm4.28-16.14c0-11.48-.17-15.06-4.28-15.06s-4.24,3.58-4.24,15.06,.12,15.1,4.24,15.1,4.28-3.58,4.28-15.1Z" style="fill: #908fb5;"/>
        <path d="M110.2,84.12v-.79c1.5,0,1.91-.42,2.04-2.25l1.5-24.92c.12-2.12-.62-2.66-2.54-2.66v-.75h16.02c8.9,0,14.89,2.87,14.89,8.65,0,3.91-2.7,6.2-6.2,6.2v.04c2.58,.67,8.53,4.16,8.53,9.94,0,3.7-2.5,6.53-8.99,6.53h-25.25Zm15.85-17.01c3.2,0,5.41-1.87,5.41-6.45,0-5.41-3.45-6.86-6.36-6.86-2.08,0-2.37,.71-2.2,2.66l.67,10.65h2.5Zm2,15.97c3.04,0,4.41-3.24,4.41-7.49,0-4.78-1.62-7.53-5.49-7.53h-3.33l.75,12.77c.08,1.83,.46,2.25,1.91,2.25h1.75Z" style="fill: #908fb5;"/>
        <path d="M151.96,84.12v-.79h.17c1.54,0,1.7-.62,1.83-2.45l1.5-24.5c.13-2.29-.08-2.58-1.79-2.58-4.41,0-7.53,3.49-7.65,9.44l-.92-.04,.62-10.44h28.7l.67,10.44-.92,.04c-.17-5.95-3.29-9.44-7.65-9.44-1.75,0-1.91,.29-1.79,2.58l1.46,24.5c.13,1.83,.33,2.45,1.83,2.45h.17v.79h-16.22Z" style="fill: #908fb5;"/>
        <path d="M176.47,84.12v-.79c1.5,0,1.91-.42,2.04-2.25l1.5-24.92c.12-2.12-.62-2.66-2.54-2.66v-.75h14.35v.75c-2.45,0-2.66,.58-2.54,2.66l1.5,24.92c.13,1.83,.46,2.25,2,2.25v.79h-16.31Z" style="fill: #908fb5;"/>
        <path d="M194.6,84.12v-.79c1.5,0,1.91-.42,2.04-2.25l1.5-24.92c.12-2.12-.62-2.66-2.54-2.66v-.75h25.62l.67,10.19-.92,.04c-.17-6.49-3.54-9.19-8.24-9.19h-2.79c-2.45,0-2.66,.54-2.54,2.58l.62,10.73h3.37c1.83,0,3.91-1,3.91-5.32,0-.62-.04-1.41-.04-1.41h.83c.08,4.7,.33,9.44,.5,14.14h-.83c-.04-.92-.08-1.75-.21-2.62-.37-2.37-1.33-3.83-4.12-3.83h-3.29l.71,12.81c.08,1.83,.5,2.21,2.04,2.21h3.04c4.62,0,7.24-4.04,7.32-9.48h.83l.5,10.52h-27.99Z" style="fill: #908fb5;"/>
        <path d="M243.69,84.12l-15.27-28.79h-.17l.17,25.58c0,2.04,.04,2.41,1.83,2.41v.79h-5.24v-.79c1.5,0,1.71-.21,1.75-2.25l.46-26.17c0-.96-.79-1.41-2-1.41v-.75h13.06v.13c0,.71,.46,1.54,.96,2.29l11.85,17.39h.08l.21-16.56c.04-2.08-.75-2.45-2.7-2.45v-.79h6.2v.79c-1.5,0-2.62,.21-2.58,2.25l.46,28.33h-9.07Z" style="fill: #908fb5;"/>
        <path d="M262.99,84.12v-.79h.17c1.54,0,1.7-.62,1.83-2.45l1.5-24.5c.13-2.29-.08-2.58-1.79-2.58-4.41,0-7.53,3.49-7.65,9.44l-.92-.04,.62-10.44h28.7l.67,10.44-.92,.04c-.17-5.95-3.29-9.44-7.65-9.44-1.75,0-1.91,.29-1.79,2.58l1.46,24.5c.13,1.83,.33,2.45,1.83,2.45h.17v.79h-16.22Z" style="fill: #908fb5;"/>
      </g>
      <g>
        <path d="M102.86,39.4c0-1.1,.25-2.62,.63-3.67,.84-2.24,3.76-8.36,6.63-8.36,.59,0,1.22,.21,1.48,.8,.38-.25,.72-.55,1.14-.76,.72,.08,1.31,2.45,1.31,3,0,1.27-.93,2.03-.93,3.29,0,.55-.13,.63-.72,.63-1.18,0-1.82-1.27-2.11-2.24l-.08,.13-.21,.51v-.04c-.13,.76-.59,1.43-.93,2.11-1.1,2.28-2.03,4.05-2.03,6.63,0,1.22,.63,3.46,2.15,3.46,.17,0,.34-.08,.51-.17,1.94,.34,5.23-4.77,6.25-6.21,.59-.84,2.24-4.47,3.17-4.47,.3,0,.55,.21,.55,.51,0,1.27-3.59,6.08-4.56,7.22-.55,.68-.93,1.43-1.44,2.11-1.14,1.48-3.12,2.74-5.02,2.74-3.63,0-5.78-4.01-5.78-7.22Z" style="fill: #fff;"/>
        <path d="M118.99,45.26c-1.22-.46-1.86-1.69-2.03-2.95-.21-.3-.38-.68-.38-1.05,0-4.98,.38-8.23,3.88-12.07,.34-.34,1.44-1.65,1.82-1.73,.46-.34,.68-.59,1.27-.59l.68,.04c.34,0,1.01-.59,1.31-.38,.21-.08,.38-.08,.59-.08,1.65,0,3.8,1.01,3.8,2.95,0,3.55-5.07,8.02-8.02,9.41-.46,.55-.46,1.82-.46,2.49,0,1.48-.25,2.87,1.69,2.87s5.7-3.29,6.8-4.81c.59-.8,1.35-1.73,1.86-2.57,.34-.51,1.52-2.66,2.03-2.87,.21-.08,.38-.13,.59-.17l.13-.08c.13,0,.13,.34,.13,.38,0,.55-.68,1.27-.97,1.69-.46,.68-1.05,1.48-1.43,2.2-.09,.17-.13,.42-.21,.59-.72,1.1-1.73,2.11-2.53,3.17-1.27,1.65-4.69,4.48-6.8,4.48-1.18,0-2.74-.21-3.71-.89Zm8.95-15.07l-.42-.34c-1.39,.38-4.14,5.53-4.56,6.92,1.86-.93,4.85-4.43,4.98-6.59Z" style="fill: #fff;"/>
        <path d="M152,54.17c0-2.11,2.15-7.01,2.87-9.03,.17-.46-.13-2.36-.17-3.08l.04-.08s1.01-3.17,1.22-3.88c-1.1,1.65-3.76,5.15-5.91,5.15-1.9,0-3.8-3.04-3.8-4.77,0-2.74,2.53-6.59,4.26-8.61h-.04c.3-.97,3.67-4.01,4.69-4.01,.38,0,.68,.59,.84,.89v.04l.34,.51c1.31-.21,2.91,.51,2.91,1.86,0,.17,0,.38-.25,.38-.42,0-.89-.13-1.31-.13-.3,0-.55,0-.84,.04-.04,.34-.08,.72-.21,1.05-.72,.63-1.35,1.31-1.94,2.07v-.04c-.84,2.03-4.14,4.47-4.14,7.3,0,.42,.09,.89,.59,.89,.42,0,1.6-1.52,1.9-1.81,1.18-1.23,4.05-3.71,4.05-5.57,0-.3-.08-.55,.38-.55,1.14,0,1.94,1.56,1.86,2.53,1.14,.51,1.31,2.07,1.31,3.17,0,.97-.51,1.94-.51,3,0,.59,.17,1.14,.17,1.73,0,.93-.34,1.82-.76,2.66,1.77-1.65,3.33-3.67,4.77-5.61,.42-.59,.8-1.27,1.27-1.86,.13-.13,.3-.25,.46-.25,.21,0,.42,.13,.42,.38l-.21-.08c-.63,2.03-2.49,4.56-3.8,6.16-.63,.76-3.59,4.81-4.52,4.9-1.27,2.07-2.36,4.14-3.34,6.33-.13,.25-.38,1.01-.72,1.01-1.05,0-1.9-1.73-1.9-2.66Z" style="fill: #fff;"/>
        <path d="M173.02,40.75c-.17-.38,.08-.51,.34-3,0-.04-.04-.04-.09-.04-.13,0-.72,1.01-.8,1.18-.55,.97-1.01,2.32-1.6,3-.93,1.1-2.45,3.21-4.05,3.21-1.31,0-2.53-1.18-2.53-2.53,0-.42,.04-.84,.13-1.27-.55-.89-.55-2.28-.68-3.25,.04-.13,.8-1.86,.8-1.98,0-.34-.13-.72-.08-1.05,.08-.84,.68-1.56,.76-2.45l.13-1.22c.09-.63,.42-1.27,.42-1.9,0-.25-.21-.55,.3-.55,.97,0,1.31,.21,1.69,1.01,.93,1.69,2.15,.89,2.58,3.59-.34,1.22-.59,2.32-.84,3.59-.3,1.52-1.82,4.39-1.82,5.78,0,.13,0,.34,.17,.38,1.27-.84,6.71-8.91,6.71-10.59,0-.17-.04-.3-.04-.46,.25-.59,1.14-3.71,1.6-3.71,1.39,0,2.32,1.82,2.32,3,0,.17-.04,.34-.04,.51,.46,.42,.97,.84,.97,1.52,0,1.1-.8,2.49-.8,3.55,0,.25,.04,.51,.04,.76-.13,.34-.25,.63-.42,.93-.21,.51-.63,1.35-.68,1.9,.09,.3,0,.46,.04,.72-.3,.59-.72,1.6-.8,2.24l.21,.25c1.48-.21,4.98-6.04,5.91-7.64,.25-.72,.93-3.21,1.86-3.21,.3,0,.46,.29,.46,.55,0,.17-.04,.34-.09,.46-.34,.55-.89,1.35-.89,2.11-.25,.72-.72,1.39-1.18,1.98-.38,1.43-1.44,2.57-2.28,3.76l.04-.04c-.13,.3-.38,.51-.55,.76-.76,1.1-2.58,2.79-4.01,2.79-2.15,0-3.71-2.62-3.21-4.6Z" style="fill: #fff;"/>
        <path d="M183.28,45.48h.04c-1.22-.46-1.86-1.73-2.07-2.96-.21-.3-.38-.68-.38-1.05l-.08-.17v-.25c0-1.22,.63-4.77,1.27-5.74,.13-.21,.42-.55,.51-.76v.04c.68-1.27,2.58-3.88,4.09-4.14,.04-.17-.13-.42,0-.55,.68-.8,1.77-1.35,2.83-1.35,.13,0,.3,0,.38,.13,1.77-.34,4.22,1.48,4.22,3.34,0,3.55-5.07,7.94-7.94,9.41-.25,.29-.46,.63-.46,1.01,0,1.31,.3,1.9,1.73,1.9,2.11,0,5.87-3,7.05-4.6,.38-.51,.72-1.1,1.05-1.65,.59-.89,2.62-3.55,2.66-4.52l.04-.08c.09-.04,.25-.17,.38-.17,.38,0,.59,.29,.59,.63,0,.38-2.2,3.76-2.57,4.18-.13,.34-.38,.63-.46,.93-.84,1.14-3.34,4.47-4.31,5.11-1.48,.97-3.08,2.15-4.9,2.15-1.14,0-2.7-.21-3.67-.84Zm9.33-12.66l-.42-.34c-1.06,.34-1.52,1.6-2.41,2.11-1.1,1.69-2.53,3.38-3.25,5.28,2.15-1.1,5.74-4.52,6.08-7.05Z" style="fill: #fff;"/>
        <path d="M211.56,40.96c0-2.15,.59-4.09,1.06-6.16,.25-1.05,.3-2.2,.51-3.25,.21-.97,.51-1.94,.68-2.87,.38-2.24,.84-3.71,1.44-5.87l.34-1.27-.08-.3c.21-1.05,1.27-7.89,2.45-7.89,.76,0,2.11,1.35,2.79,1.69h-.04c.89,.51,1.94,1.6,1.94,2.7,0,1.23-.89,3.42-1.39,4.56,.04,.21,.08,.68,.04,.89l-1.69,5.57c.04,.93,.04,1.86,.04,2.79l-1.48,3.71c-.04,.63-.04,1.52,.09,2.11-.42,1.01-.84,1.98-1.18,3.04l.13,1.39c-.3,.59-.63,1.48-.63,2.15,0,.17,0,.42,.21,.42,1.1,0,4.94-5.66,5.49-6.67,.17-.3,.17-.63,.34-.93l.68-1.18c.08-.17,.93-1.6,1.06-1.6h.08c.13-.09,.34-.21,.51-.21s.38,.13,.38,.34c0,.63-.89,1.98-1.18,2.49l.04-.04c-.59,1.6-5.15,9.03-6.67,9.03-.08,0-.13-.04-.21-.04-.68,.42-1.39,.89-2.2,.89-2.41,0-3.5-3.5-3.5-5.49Z" style="fill: #fff;"/>
        <path d="M228.15,20.99c0-1.23,.72-2.74,1.1-3.93,.46-.34,1.1-.76,1.69-.76,1.05,0,1.52,1.1,1.65,1.98-.42,1.27-.97,2.41-1.22,3.76-.04,.3-.3,.34-.59,.34-.89,0-2.62-.25-2.62-1.39Z" style="fill: #fff;"/>
        <path d="M237.69,44.76c-.25-.08-.55-.04-.8-.13-2.03-.72-3.42-3-3.42-5.07,0-3.97,.38-6.97,3.42-9.88,1.14-1.31,3.33-2.74,5.11-2.74s4.77,1.9,4.77,3.84c0,.38-.59,.46-.84,.46-1.77,0-4.31,1.35-5.45,2.7-1.52,1.82-1.82,3.63-2.07,5.91-.08,.68-.3,1.27-.3,1.94,0,1.22,.76,1.9,1.94,1.9,.46,0,1.01-.13,1.48-.3s.72-.84,1.14-1.18c.59-.46,1.27-1.35,1.43-2.07-.89-.55-1.9-2.66-1.9-3.67,0-1.22,.38-2.95,1.86-2.95,.72,0,1.6,.3,1.77,1.1h.17c.13,.13,.21,.93,.21,1.1v.3c.17,.13,.38,.46,.38,.68,0,.25-.17,.55-.21,.8,.04,.3,.13,.63,.13,.93,0,.17-.63,1.35-.76,1.6,.21,0,.46,.04,.68,.04,1.14,0,3.38-2.79,4.01-3.71,.34-.51,1.73-2.96,1.94-3.17,.09-.09,.3-.13,.42-.13,.25,0,.51,.17,.51,.42,0,.21-.09,.42-.21,.59-.68,2.03-4.35,7.35-6.8,7.35-.34,0-.72,.04-1.01-.13-.3,.42-.89,.89-1.05,1.31-.34,.89-2.36,2.24-3.25,2.45-.55,.13-1.06,.25-1.65,.25-.84,0-.97-.38-1.65-.55Zm6.46-6.29l.55,.59c.25-.51,.42-1.1,.63-1.65-.13-.51-.3-2.07-1.14-2.07l-.13,.08-.08,.34c.04,.13-.13,.72-.13,.97,0,.59,.34,1.18,.3,1.73Z" style="fill: #fff;"/>
        <path d="M250.31,41.09l-.17-.13c0-.59,.17-1.14,.17-1.69,0-.3,0-.59-.17-1.05,.09-.84,.3-1.69,.55-2.53-.25-1.27,.34-2.32,.76-3.5-.04-.09-.08-.25-.08-.34,.42-1.18,1.69-4.09,1.69-5.53,0-.34-.08-.8,.42-.8,.93,0,2.45,1.06,3.04,1.73,.08,1.1,.8,2.32,.8,3.25,0,.04-.17,.51-.17,.59,1.05-1.18,4.26-4.64,5.78-4.64s2.36,2.24,2.36,3.46c0,.21-.04,.38-.08,.59,.25,.25,.42,.59,.63,.93-.17,.8-1.22,3.5-1.18,3.76l-1.31,3.5,.04,.21c-.34,.68-.8,1.86-.89,2.62l.08,.21c1.94-.34,4.26-3.29,5.19-4.9,.51-.89,2.41-5.32,3.29-5.32,.3,0,.42,.34,.42,.59,0,.97-3,5.74-3.38,6.33-.38,1.01-1.73,2.53-2.74,3.08-.25,.3-1.9,1.56-2.28,1.56-.21,0-.38-.13-.59-.13-.72,0-1.27,.17-1.98-.09-1.73-.63-2.45-3-2.45-4.64s.97-4.52,1.65-5.99c.3-.68,1.22-1.82,1.22-2.49v-.13c.09-.17,.34-.51,.34-.63-.21,.13-.42,.34-.59,.51-.76,0-2.11,1.52-2.28,2.24-1.39,1.82-2.03,3.97-3.04,5.99,.09,.59-.38,1.14-.38,1.73,0,.13,.08,.21-.04,.3-.46,.8-.68,1.69-.84,2.62-.04,.3-.04,.93-.46,.93-.21,0-.51-.13-.72-.21-.04,.25-.21,.55-.51,.55-.93,0-1.9-1.77-2.11-2.53Z" style="fill: #fff;"/>
      </g>
    </g>
  </g>
</svg>