<?xml version="1.0" encoding="UTF-8"?>
<svg id="Layer_2" data-name="Layer 2" xmlns="http://www.w3.org/2000/svg" viewBox="0 0 360 168">
  <g id="Layer_7" data-name="Layer 7">
    <rect width="360" height="168" style="fill: none;"/>
    <g>
      <g>
        <path d="M171.63,44.9c-.56-1.34-.67-2.68-.82-3.68,0-.74,.19-2.53,.45-4.06,.6-2.79,2.46-6.29,3.65-7.44,.26-.07,.41-.15,.6-.15h.07c.74-.67,1.79-1.41,2.9-1.75-.07-.15-.07-.3-.07-.41v-.15l-.04-.52c0-1.75,1-2.12,1.71-2.42,.15,0,.26,0,.26-.11,.41-.19,1.19-.41,1.71-.41,.07,0,.19,0,.26,.04,.3,.04,.82,.22,1.08,.22,.37,0,2.23,.34,2.23,.74,0,.04,0,.07-.04,.07,.97,.3,1.56,.6,2.12,1,.3,.19,.56,.48,.82,.63,.22,.07,.74,.6,.82,.78,.15,.26,.3,.67,.45,1.04,.45,.86,.97,2.08,1,2.87-.04,.07-.04,.11-.04,.15,0,.22,.04,.45,.04,.67,0,1.45-.26,3.13-.52,4.61,0,.07-.04,.15-.07,.22-.07,.33-.15,.6-.37,1.19l-.15,.74-.34,1.3c.67,.34,2.08,.71,3.24,.71,1.64,0,1.49-.11,2.64-.86,.37-.63,.41-1.79,.86-1.79,1.3,0,1.19,.34,1.19,.93,0,.07-.07,.26-.22,.45l-.26,.19s-.04,.04-.11,.11l-.97,1.04-.89,.45-.93,.48c-.45,.04,.26,.11-1.79,.11-.45,0-1.19-.3-1.67-.37l-1.38-.45-.11,.3c0,.22-.71,1.23-.71,1.34s-.22,.45-.22,.48v.04c0,.11-.04,.26-.15,.34,0,.11-.89,1.93-1.34,2.57-.19,.37-.41,.63-1.38,1.82-.45,.52-.97,1.08-1.15,1.19-.19,.37-.86,.67-1.23,.78l-.11,.04-.41,.3c-.6,.3-1.19,.41-1.82,.45-.19,.07-.45,.15-.67,.15h-.89c-3.68-.41-5.95-3.09-7.22-5.99Zm5.84-1.41l.07,.67c0,.93,1.08,3.01,1.9,3.87,.07,.04,.15,.11,.26,.3,.37,.48,1,.74,1.6,.74,1.97,0,3.8-2.34,5.06-5.4,.52-.97,1.12-2.49,1.27-3.16-.19-.07-.33-.26-.52-.41-.45-.22-1.23-.78-1.97-1.38l-.86-.74-.6-.71c-.3-.48-.71-1.04-1.04-1.49l-.56-1c-.37-.78-.74-1.64-1.3-2.68-.15-.19-.3-.48-.37-.78l-.33,1.08c-.22,.78-.34,1.19-.86,2.2l-.37,.75c-.04,.19-.22,.56-.3,.89l-.26,.89c-.41,.93-.89,3.53-.89,4.95,0,.34,0,.93,.07,1.41Zm5.32-11.87c.11,.37,.19,.56,.19,.67q0,.07-.04,.07s-.04,0-.04-.04v.04c0,.07,0,.19,.07,.37,0,.04-.04,.04-.07,.04-.07,0-.11,0-.11,.04,0,0,0,.04,.04,.07l.07,.15v.04c.19,.33,0,.71,.07,.67,.04,.19,.26,.56,.45,.71h.07v.07c0,.19,.15,.63,.3,.86,.15,.07,.34,.6,.56,.6l-.04,.04c0,.07,.11,.3,.33,.34h.04q0,.11-.04,.11s-.04-.04-.07-.04h-.04c.07,.22,.48,.56,.71,.78,.56,.41,1.34,1.19,2.2,1.9,.19,.22,.37,.34,.48,.37l.04-.11s.04-.07,.04-.15c.07-.26,1.04-3.94,1.04-4.99v-.48c.04-.22,.04-.48,.04-.71v-.3c0-.15,.04-.3,.04-.41,0-1.41-.15-2.12-.3-2.57-.15-.48-.26-1.15-.52-1.6l-.19-.26-.11-.07c-.15-.19-.3-.3-.41-.48-.74-.6-1.97-.89-2.27-1.45-.11-.15-.11-.22-.19-.26-.11-.04-.22-.04-.33-.04-.22,0-.48,.04-.74,.22l-.15,.15c-.3,.22-.48,.52-.71,1.12,0,.67-.22,1.71-.48,1.79-.11,.15-.15,.41-.15,.71,0,.6,.11,1.34,.22,2.05Z" style="fill: #fff;"/>
        <path d="M192.47,49.26l-.15-.11v-.19c0-.45,.15-.86,.15-1.3,0-.3-.07-.63-.15-.89,.04-.82,.34-1.49,.45-2.27-.34-.82,.45-2.42,.67-3.09,0-.04-.07-.22-.04-.3,.37-1.15,1.49-3.72,1.49-5.06,0-.26,0-.52,.34-.52,.89,0,2.05,.63,2.31,1.53l.37-.04c.11,.37,.15,.78,.15,1.19,.41,.22,.56,1.3,.6,1.71l-.19,.48v.07c.93-1.04,3.72-4.13,5.1-4.13,1.08,0,2.08,1.75,2.08,2.72,0,.3,0,.56-.04,.86,.22,.22,.37,.52,.56,.82-.74,2.16-1.41,4.28-2.2,6.4v.19c-.22,.52-.74,1.71-.74,2.23,0,.11,0,.19,.04,.26,3.98-.74,6.74-9.79,8-9.79,.3,0,.37,.3,.37,.56,0,.11-.04,.26-.11,.37h.04c-1.08,2.05-2.16,3.98-3.39,5.95v-.04c-.48,1.15-1.41,2.05-2.42,2.75-.37,.26-1.64,1.38-2.05,1.38-.15,0-.3-.04-.41-.11-2.68,.37-4.02-1.6-4.02-4.13,0-1.3,.86-4.21,1.45-5.32,.22-.45,1.08-1.67,1.08-2.2v-.11c.07-.19,.22-.37,.3-.56-.19,.11-.34,.26-.48,.45-.67,0-1.86,1.34-2.05,1.97-1.15,1.53-1.97,3.5-2.64,5.29,0,.41,.15,.78,.15,1.19,0,.07-.04,.11-.04,.19v-.04c-.26,.52-1.3,3.57-1.67,3.57-.19,0-.45-.11-.63-.19-.04,.22-.19,.48-.45,.48-.82,0-1.67-1.56-1.82-2.23Z" style="fill: #fff;"/>
      </g>
      <g>
        <path d="M144.67,141.76l-26.86-55.37c-1.94-4.07-3.35-5.53-7.62-4.82l-.26-1.57,31.12-5.22,.26,1.57c-4.97,.83-6.36,2.14-4.06,5.7l24.61,37.19,4.29-40.69c.56-5.2-1.04-6.19-5.4-5.46l-.26-1.57,13.77-2.31,.26,1.57c-4.53,.76-5.62,1.75-6.11,7.39l-5.44,60.52-18.31,3.07Z" style="fill: #6aa39f;"/>
        <path d="M176.84,137.33l.08-1.68c3.18,.14,4.19-.69,4.54-4.57l3.29-31.62c.47-4.49-.98-5.71-4.78-5.88l.07-1.59,25.35,1.15-.02,.35c-.9,.31-1.24,2.07-1.2,6.85l.41,31.79c0,3.89,.75,4.81,4.02,4.96l-.08,1.68-31.71-1.44Zm17.85-48.22c-5.65-.26-9.98-4.35-9.72-10,.26-5.65,4.94-9.33,10.59-9.08,5.65,.26,10.07,4.35,9.81,10-.26,5.65-5.03,9.33-10.68,9.07Z" style="fill: #6aa39f;"/>
        <path d="M245.37,135.95c.54,1.29,.6,2.3,.34,3.51-1.41,6.66-9.9,5.76-16.04,4.46-7.7-1.63-15.53-4.74-12.48-15.74l8.32-30.31-5.53-1.17,.42-1.99,5.62,1.19,2.08-7.69c8.1,2.71,16.43-2.48,17.71-9.8l1.56,.33-3.19,21.01,5.88,1.25-.42,1.99-5.79-1.23-5.11,34.34c-.56,3.5,.45,4.7,1.92,5.02,1.9,.4,2.97-.82,3.27-2.2,.15-.69,.18-1.68-.27-2.59l1.7-.36Z" style="fill: #6aa39f;"/>
      </g>
      <g>
        <path d="M200.6,163.83c.22,.11,.4,.32,.54,.58,.15,.29,.05,.72-.2,.83-.27,.11-.54,.14-.82,.11-.3-.04-.59-.07-.89-.04-1.11,.07-2.2,0-3.29-.07-.32-.04-.64-.04-.97-.04-.64,0-1.29,.04-1.93-.04-.35-.04-.69-.11-1.04-.04-.77,.14-1.54-.14-2.3-.04h-.07c-.47-.18-.94-.11-1.41-.11h-.59c-.72-.07-1.44,.07-2.15,.11-.15,0-.3,.07-.45,.14-.42,.18-.84,.32-1.26,.36-.12,0-.25,.04-.37,.11-.45,.25-.89,.14-1.34,.18-.2,0-.37-.14-.52-.36-.17-.22-.15-.58,.02-.76,.12-.14,.25-.54,.4-.58,.17-.04,.42-.07,.59-.14,.37-.18,.67-.22,1.04-.29,.12-.04,.22-.07,.35-.14,.5-.11,.77,.04,1.14-.04,.57-.07,1.14-.18,1.71-.14h.52c.62-.04,1.24-.07,1.86-.07,.84-.04,1.68,.07,2.55-.04,.3-.04,.59,0,.89,0,.37,0,.74,.04,1.11-.04,.5-.07,.99-.04,1.49,.04,.42,.07,.84,.07,1.26,.11,.69,.04,1.39-.04,2.08-.07,.62-.04,1.21-.04,1.73,.36l.32,.11Z" style="fill: #fff;"/>
        <g>
          <path d="M191.89,154.32c-.06-.36-.13-.74-.3-1.09-.17-.38-.35-.74-.53-1.1-.07-.14-.16-.26-.25-.35l-.22-.24c-.19-.22-.39-.44-.66-.64l-.19-.14c-.16-.12-.31-.24-.49-.35-.33-.2-.65-.32-.95-.36-.09-.01-.18-.03-.27-.05-.2-.05-.44-.1-.64-.08-.27-.11-.55-.14-.75-.09l-.06,.41s0,0,0,0l-.06-.43-.16-.03c-.13-.03-.28-.06-.44-.06h-.2c-.21-.02-.45-.03-.68,.04-.09,.02-.21,.02-.34,0-.28-.03-.55,.08-.77,.34-.17,.21-.25,.46-.25,.7-.01,.31-.06,.65-.14,1.11-.02,.11-.04,.24-.02,.37,0,.06,0,.15-.02,.24l-.04,.31c-.03,.22-.05,.44-.05,.66,0,.24,0,.52-.08,.78-.05,.2-.12,.5-.12,.8-.02,.57-.02,1.13-.02,1.7,0,.1,.02,.19,.06,.37-.07,.25-.07,.51,0,.83,.03,.12,.03,.26,.02,.45l-.03,.36c-.03,.17-.02,.32,.03,.47l.05,.16c.05,.18,.12,.38,.22,.57l-.09,.23c-.04,.19,.01,.38,.12,.52,.11,.17,.28,.29,.47,.34,.15,.05,.33,.1,.52,.1,.14,0,.3-.03,.45-.1,.07-.03,.14-.04,.21-.02,.21,.05,.41,.04,.55-.01l.12-.02c.34-.03,.69-.11,1.06-.23l.11-.04c.34-.02,.63-.15,.89-.26,.14-.06,.25-.09,.34-.09,.24,0,.55-.03,.78-.21l.31-.12c.24-.12,.51-.25,.75-.47,.2-.19,.58-.56,.84-.9l.21-.35c.31-.4,.46-.85,.56-1.22,.17-.6,.24-1.17,.21-1.73v-.16c-.02-.3-.03-.61-.09-.91Zm-1.6-.16c.17,.4,.22,.8,.15,1.25l-.04,.31c-.03,.18-.06,.36-.1,.56-.04,.21-.08,.4-.15,.57-.04,.1-.1,.19-.16,.28-.06,.09-.11,.17-.16,.26-.13,.24-.28,.44-.48,.62-.08,.08-.16,.13-.29,.18-.14,.06-.29,.14-.45,.24-.08,.05-.17,.09-.24,.11-.26,.06-.56,.12-.85,.24-.16,.03-.32,.07-.47,.12-.09,.03-.19,.06-.29,.08-.24,.06-.49,.1-.71,.14-.07,0-.18,.02-.22,0-.17-.04-.35-.06-.53-.06-.08,0-.16,0-.25,.01,0-.04,0-.08,0-.12,0-.33,0-.67-.08-1.09,.05-.35,.05-.7,0-1.04-.01-.12-.01-.24-.01-.35,0-.51,.04-1.01,.07-1.44,.07-.24,.09-.47,.11-.71l.05-.34-.03-.11c-.02-.08,0-.19,0-.32,.02-.13,.03-.26,.02-.39-.02-.26-.01-.52-.01-.81,.05-.23,.07-.44,.09-.67l.35-.03c.2-.03,.42,0,.69,.06h.09c.29,.05,.61,.01,.85,.12,.34,.15,.68,.22,1.01,.28,.18,.04,.35,.1,.51,.18,.21,.11,.41,.23,.62,.38,.04,.02,.09,.09,.14,.14l.08,.1c.08,.11,.17,.22,.27,.32,.04,.04,.07,.08,.08,.1l.1,.19c.09,.16,.16,.3,.2,.48l.06,.17Z" style="fill: #fff;"/>
          <path d="M200.04,150.82c-.03-.1-.1-.21-.15-.25-.26-.32-.55-.41-.75-.42-.36-.05-.73-.08-1.09-.03-.1,.01-.2,.02-.29,.02-.09,0-.18-.02-.27-.04-.16-.03-.31-.05-.47-.05h-.18c-.07,0-.14,0-.21,0-.11,0-.21,.01-.32,0-.24-.03-.48-.01-.71,0h-.15c-.51,.03-1.03-.02-1.5,.12-.07,.02-.18,.06-.28,.16l-.09,.11c-.14,.18-.3,.39-.34,.71l-.03,.2c-.04,.28-.08,.56-.08,.84,0,.25-.01,.5-.04,.76-.02,.18-.03,.35-.03,.51v.32c-.02,.31-.02,.62-.06,.93-.04,.35-.05,.73-.03,1.2,0,.23,0,.45-.03,.65-.04,.15-.03,.28-.03,.44v.33c-.02,.2-.02,.39-.04,.57-.03,.23-.05,.53,0,.81,.01,.08,0,.15,0,.2-.09,.34-.07,.69,.05,1.08,.04,.12,.07,.24,.09,.37,.03,.13,.07,.27,.1,.36,.04,.17,.14,.31,.27,.4l.11,.07c.19,.11,.48,.28,.76,.18h.11c.15,.03,.3,.05,.45,.05h2.53c.07,0,.17,0,.26-.02,.24-.05,.5-.03,.77-.02,.22,.02,.44,.02,.65,.02,.31,0,.57-.17,.69-.44,.06-.12,.09-.24,.09-.36,0-.06,0-.12,0-.19v-.18c-.04-.22-.14-.4-.33-.56-.22-.17-.46-.25-.72-.25l-1.64,.04h-.19c-.27,0-.58-.01-.94,.08l-1.47,.04-.03-.82v-.31c.02-.29,.02-.56,.05-.83l.04-.13c.03-.27,.06-.54,.06-.8v-.06s.05-.01,.08-.02c.03,0,.08,0,.15,.02,.27,.07,.55,.07,.88,0,.27-.05,.59-.08,.91,0,.08,.02,.22,.05,.38,0,.05-.01,.13,0,.21,0h.16c.09,0,.19,0,.28-.01,.31-.04,.56-.29,.6-.61,.02-.15,.02-.3,.02-.45,0-.16-.05-.46-.41-.68-.17-.1-.36-.17-.61-.2h-1.37c-.15,0-.34,0-.52,.04-.16,.04-.33,.05-.51,.05-.05,0-.1,0-.15,0v-.22c0-.32,0-.63,.04-.95,.02-.25,.03-.49,.03-.74v-.36s.01-.47,.01-.47c0,0,0-.02,0-.03,.1-.02,.2-.03,.29-.05l.5-.04c.1,0,.24,.01,.38-.03,.27,.06,.52,.05,.76,.05h.19c.27,0,.52,0,.77,.05,.2,.03,.4,.03,.59,.04h.29c.26,0,.5,.01,.71,.07,.33,.11,.67-.13,.77-.43,.07-.24,.08-.5,0-.83Z" style="fill: #fff;"/>
        </g>
        <path d="M181.58,147.32c-.22-.08,.05-.68-.1-.86-.15-.21-.05-.51,.2-.59,.27-.08,.54-.1,.82-.08,.3,.03,.59,.05,.89,.03,1.11-.05,2.2,0,3.29,.05,.32,.03,.64,.03,.97,.03,.64,0,1.29-.03,1.93,.03,.35,.03,.69,.08,1.04,.03,.77-.1,1.54,.1,2.3,.03h.07c.47,.13,.94,.08,1.41,.08h.59c.72,.05,1.44-.05,2.15-.08,.15,0,.3-.05,.45-.1,.42-.13,.84-.23,1.26-.26,.12,0,.25-.03,.37-.08,.45-.18,.89-.1,1.34-.13,.2,0,.37,.1,.52,.26,.17,.15,.15,.41-.02,.54-.12,.1-.25,.38-.4,.41-.17,.03-.87,.5-1.04,.55-.37,.13-.67,.15-1.04,.21-.12,.03-.22,.05-.35,.1-.5,.08-.77-.03-1.14,.03-.57,.05-1.14,.13-1.71,.1h-.52c-.62,.03-1.24,.05-1.86,.05-.84,.03-1.68-.05-2.55,.03-.3,.03-.59,0-.89,0-.37,0-.74-.03-1.11,.03-.5,.05-.99,.03-1.49-.03-.42-.05-.84-.05-1.26-.08-.69-.03-1.39,.03-2.08,.05-.62,.03-1.21,.03-1.73-.26l-.32-.08Z" style="fill: #fff;"/>
      </g>
    </g>
  </g>
</svg>