<?xml version="1.0" encoding="UTF-8"?>
<svg id="Layer_2" data-name="Layer 2" xmlns="http://www.w3.org/2000/svg" viewBox="0 0 1383.89 1371.11">
  <defs>
    <style>
      .cls-1 {
        fill: #345653;
        fill-rule: evenodd;
      }
    </style>
  </defs>
  <g id="Layer_7" data-name="Layer 7">
    <path class="cls-1" d="M841.9,147.06c2.81,.05,5.67,1.65,6.48,4.34,.96,3.19-.54,7.17-4.22,7.93-6.48,1.34-9.85-4.3-7.88-8.35,.94-1.92,2.45-3.91,5.62-3.91h0Z"/>
    <path class="cls-1" d="M610.25,174.4c4.73,.03,9.61,2.81,10.29,7.81,.8,5.92-3.76,12.04-9.18,12.78-2.13,.29-4.36-.03-6.33-.56-2.22-.61-4.26-1.91-5.31-4.25-1.6-3.58-.78-7.97,1.52-11.06,1.72-2.93,5.16-4.65,8.74-4.71h.26Z"/>
    <path class="cls-1" d="M695.74,512.56c2.77,.06,5.3,2.24,5.72,4.98,.57,3.64-2.66,7.46-6.68,7.17-3.13-.23-6.04-2.99-5.75-6.34,.29-3.39,3.91-6.04,6.71-5.81h0Z"/>
    <path class="cls-1" d="M741.92,285.58c2.77,.06,5.3,2.24,5.72,4.98,.57,3.64-2.66,7.46-6.68,7.17-3.13-.23-6.04-2.99-5.75-6.34,.29-3.39,3.91-6.04,6.71-5.81h0Z"/>
    <path class="cls-1" d="M651.6,321.14c2.77,.06,5.3,2.24,5.72,4.98,.57,3.64-2.66,7.46-6.68,7.17-3.13-.23-6.04-2.99-5.75-6.34,.29-3.39,3.91-6.04,6.71-5.81h0Z"/>
    <path class="cls-1" d="M565.4,292.91c2.57,.1,4.77,2.4,4.52,4.83-.04,1.64-.53,3.21-2.04,4.24-1.92,1.31-4.75,1.26-6.42-.41-2.79-2.8-.95-8.8,3.95-8.66h0Z"/>
    <path class="cls-1" d="M879.62,336.4c2.44,.04,4.77,1.52,5.64,3.93,1.18,3.27-.53,7.51-3.96,8.46-2.31,.64-4.98-.28-6.38-2.25,0,0-1.48-1.46-1.64-3.33-.29-3.41,2.62-6.81,6.34-6.81h0Z"/>
    <path class="cls-1" d="M846.08,247.28c4.27,.21,4.88,6.67,.37,7.15-.23,.02,.01-.02-.46,.08-1.33,.25-2.77-.43-3.43-1.66-1.03-2.12-.33-5.57,3.52-5.57h0Z"/>
    <path class="cls-1" d="M839.91,48.14c4.15,.06,8.11,3.51,8.29,7.73,.21,5.06-4.37,10.17-9.56,10.67-3.9,.37-7.79-2.71-8.35-6.87-.77-5.7,3.97-11.52,9.62-11.52h0Z"/>
    <path class="cls-1" d="M488.78,528.55c4.15,.06,8.11,3.51,8.29,7.73,.21,5.06-4.37,10.17-9.56,10.67-3.9,.37-7.79-2.71-8.35-6.87-.77-5.7,3.97-11.52,9.62-11.52h0Z"/>
    <path class="cls-1" d="M726.04,404.2c4.15,.06,8.11,3.51,8.29,7.73,.21,5.06-4.37,10.17-9.56,10.67-3.9,.37-7.79-2.71-8.35-6.87-.77-5.7,3.97-11.52,9.62-11.52h0Z"/>
    <path class="cls-1" d="M676.9,225.64c4.15,.06,8.11,3.51,8.29,7.73,.21,5.06-4.37,10.17-9.56,10.67-3.9,.37-7.79-2.71-8.35-6.87-.77-5.7,3.97-11.52,9.62-11.52h0Z"/>
    <path class="cls-1" d="M782.59,702.68c1.59,.04,3.18,.7,3.91,2.24,1.43,3.03-1.81,7.5-5.45,6.25,0,0-1.07-.32-1.73-.91-2.81-2.47-.95-7.63,3.27-7.59Z"/>
    <path class="cls-1" d="M653.71,943.55c-1.36,.97-3.28,1.04-4.72,.08-2.41-1.6-3.13-5.52-.96-7.46,.76-.68,1.8-1.02,2.83-1.01,0,0,1.77-.36,3.03,.71,2.15,1.83,2.29,5.83-.17,7.68h0Z"/>
    <path class="cls-1" d="M1139.24,249.31c-2.44,1.75-5.91-.53-5.44-3.4,0,0,.28-1.91,1.63-2.68,1.1-.64,2.57-.5,3.64,.24,1.8,1.26,2.31,4.24,.17,5.84h0Z"/>
    <path class="cls-1" d="M729.15,159.46c-2.62,1.91-6.73,1.61-8.82-.95-2.51-3.07-2.04-8.42,.97-11.17,2.27-2.06,6.15-1.96,8.46,.38,3.16,3.21,2.92,9.08-.61,11.73h0Z"/>
    <path class="cls-1" d="M614.77,456.57c-2.15,1.55-5.13,1.79-7.45,.26-3.15-2.06-4.43-6.86-2.07-9.92,1.59-2.06,4.5-3,7-2.19,0,0,2.24,.3,3.59,1.82,2.47,2.77,2.16,7.61-1.07,10.03h0Z"/>
    <path class="cls-1" d="M572.17,461.87c-1.1,.77-2.47,1.03-3.79,.76,0,0-3.32-.69-3.96-3.16-1.17-2.44-.54-5.92,2.02-7.32,2.96-1.62,7.66,.17,7.99,4.82,.13,1.9-.72,3.74-2.26,4.9h0Z"/>
    <path class="cls-1" d="M1345.89,741.57c.49,1.61,.19,5.72-2.96,6.86-2.4,.87-5.34-.22-6.65-2.45-1.64-2.81-.78-7.02,2.59-7.97,2.78-.78,6.09,.78,7.02,3.56h0Z"/>
    <path class="cls-1" d="M1079.43,524.55c.49,1.61,.19,5.72-2.96,6.86-2.4,.87-5.34-.22-6.65-2.45-1.64-2.81-.78-7.02,2.59-7.97,2.78-.78,6.09,.78,7.02,3.56h0Z"/>
    <path class="cls-1" d="M799.99,502.8c.49,1.61,.19,5.72-2.96,6.86-2.4,.87-5.34-.22-6.65-2.45-1.64-2.81-.78-7.02,2.59-7.97,2.78-.78,6.09,.78,7.02,3.56h0Z"/>
    <path class="cls-1" d="M1291.16,685.56c.81,2.53,.1,5.54-2.27,6.84-3.33,1.81-8.38-.65-8.64-4.67l.41-2.65c1.58-4.75,8.39-5.79,10.5,.48h0Z"/>
    <path class="cls-1" d="M1204.65,685.56c.81,2.53,.1,5.54-2.27,6.84-3.33,1.81-8.38-.65-8.64-4.67l.41-2.65c1.58-4.75,8.39-5.79,10.5,.48h0Z"/>
    <path class="cls-1" d="M1243.21,509.49c.81,2.53,.1,5.54-2.27,6.84-3.33,1.81-8.38-.65-8.64-4.67l.41-2.65c1.58-4.75,8.39-5.79,10.5,.48h0Z"/>
    <path class="cls-1" d="M956.23,615.37c.81,2.53,.1,5.54-2.27,6.84-3.33,1.81-8.38-.65-8.64-4.67l.41-2.65c1.58-4.75,8.39-5.79,10.5,.48h0Z"/>
    <path class="cls-1" d="M986,487.27c.8,2.54,.35,5.53-1.69,7.32-2.71,2.39-7.33,1.61-9.72-1.9-2.26-3.32-1.9-8.12,2.71-9.8,0,0,1.53-.65,2.87-.49,2.69,.32,4.95,2.25,5.83,4.88h0Z"/>
    <path class="cls-1" d="M938.01,784.65c.88,2.78,.25,6.12-2.13,7.81-2.82,1.99-7.23,1.84-9.19-1.54-3.46-5.94,.98-11.12,5.62-10.5,2.2,.29,4.66,1.12,5.7,4.24h0Z"/>
    <path class="cls-1" d="M940.12,555.18c.88,2.78,.25,6.12-2.13,7.81-2.82,1.99-7.23,1.84-9.19-1.54-3.46-5.94,.98-11.12,5.62-10.5,2.2,.29,4.66,1.12,5.7,4.24h0Z"/>
    <path class="cls-1" d="M1296.27,843.43c1.53,4.66,.41,10.39-4.28,12.7-5.56,2.74-13.09,.27-15.6-4.81-.99-2-1.41-4.3-1.54-6.42-.13-2.38,.47-4.82,2.42-6.62,2.99-2.76,7.59-3.4,11.39-2.16,3.45,.73,6.28,3.54,7.52,7.05l.09,.26h0Z"/>
    <path class="cls-1" d="M1325.72,606.54c1.53,4.66,.41,10.39-4.28,12.7-5.56,2.74-13.09,.27-15.6-4.81-.99-2-1.41-4.3-1.54-6.42-.13-2.38,.47-4.82,2.42-6.62,2.99-2.76,7.59-3.4,11.39-2.16,3.45,.73,6.28,3.54,7.52,7.05l.09,.26h0Z"/>
    <path class="cls-1" d="M1168.16,97.08c1.02,3.28-.48,7.19-3.61,8.66-3.29,1.54-7.83-.28-8.93-3.99-.33-1.1-.43-3.59,.09-5.22,1.02-3.23,4.62-5.6,8.27-3.98,1.98,.87,3.49,2.47,4.19,4.53h0Z"/>
    <path class="cls-1" d="M1134.05,583.92c1.02,3.28-.48,7.19-3.61,8.66-3.29,1.54-7.83-.28-8.93-3.99-.33-1.1-.43-3.59,.09-5.22,1.02-3.23,4.62-5.6,8.27-3.98,1.98,.87,3.49,2.47,4.19,4.53h0Z"/>
    <path class="cls-1" d="M1264.45,758.09c1,3.18-1.22,6.96-4.8,6.97-3.56,0-6.92-3.93-5.09-7.67,.34-.7,.04-.28,.54-1.11,2.15-3.58,7.7-3.15,9.36,1.81h0Z"/>
    <path class="cls-1" d="M910.78,142.48c.86,2.74-.46,5.95-3.01,7.27-3.4,1.76-8.22-.15-9.26-4.21-.81-3.16,.95-6.93,4.34-7.75,3.43-.83,7.24,1.86,7.93,4.68h0Z"/>
    <path class="cls-1" d="M1093.57,864.39c.8,2.45-1.94,5.39-4.57,4.16-2-.93-2.7-4.05-.87-5.56,1.79-1.47,4.64-1.03,5.44,1.4h0Z"/>
    <path class="cls-1" d="M1008.23,918.61c.89,2.81,.09,6.04-2.33,7.97-3.29,2.61-8.81,2.28-11.21-1.29-1.62-2.4-1.6-5.81,.13-8.17,0,0,1.11-2.26,3.18-3.16,3.8-1.64,8.8,.39,10.23,4.64h0Z"/>
    <path class="cls-1" d="M931.99,705.88c1.4,4.96-5.76,8.16-8.05,3.17-.11-.26,.02,0-.26-.5-.79-1.43-.58-3.34,.58-4.56,2.03-1.99,6.25-2.52,7.73,1.89h0Z"/>
    <path class="cls-1" d="M770.49,815.87c.66,2.12-.05,4.56-1.87,5.98-3.02,2.37-8.25,1.63-9.79-1.91-.54-1.24-.53-2.7-.09-3.98,0,0,.29-2.38,2.16-3.51,3.2-1.94,8.29-.46,9.59,3.42h0Z"/>
    <path class="cls-1" d="M693.36,741.72c.66,2.12-.05,4.56-1.87,5.98-3.02,2.37-8.25,1.63-9.79-1.91-.54-1.24-.53-2.7-.09-3.98,0,0,.29-2.38,2.16-3.51,3.2-1.94,8.29-.46,9.59,3.42h0Z"/>
    <path class="cls-1" d="M1322.71,501.56c.8,2.51-.02,5.48-2.16,7,0,0-.55,.53-1.12,.86-3.06,1.79-7.62,.65-9.24-2.77-2.75-5.82,3.9-11.51,9.17-9.06,1.61,.75,2.76,2.22,3.34,3.97h0Z"/>
    <path class="cls-1" d="M133.86,271.24c.49,1.61,.19,5.72-2.96,6.86-2.4,.87-5.34-.22-6.65-2.45-1.64-2.81-.78-7.02,2.59-7.97,2.78-.78,6.09,.78,7.02,3.56h0Z"/>
    <path class="cls-1" d="M79.13,215.23c.81,2.53,.1,5.54-2.27,6.84-3.33,1.81-8.38-.65-8.64-4.67l.41-2.65c1.58-4.75,8.39-5.79,10.5,.48h0Z"/>
    <path class="cls-1" d="M31.18,39.16c.81,2.53,.1,5.54-2.27,6.84-3.33,1.81-8.38-.65-8.64-4.67l.41-2.65c1.58-4.75,8.39-5.79,10.5,.48h0Z"/>
    <path class="cls-1" d="M113.69,136.21c1.53,4.66,.41,10.39-4.28,12.7-5.56,2.74-13.09,.27-15.6-4.81-.99-2-1.41-4.3-1.54-6.42-.13-2.38,.47-4.82,2.42-6.62,2.99-2.76,7.59-3.4,11.39-2.16,3.45,.73,6.28,3.54,7.52,7.05l.09,.26h0Z"/>
    <path class="cls-1" d="M52.42,287.76c1,3.18-1.22,6.96-4.8,6.97-3.56,0-6.92-3.93-5.09-7.67,.34-.7,.04-.28,.54-1.11,2.15-3.58,7.7-3.15,9.36,1.81h0Z"/>
    <path class="cls-1" d="M110.68,31.23c.8,2.51-.02,5.48-2.16,7,0,0-.55,.53-1.12,.86-3.06,1.79-7.62,.65-9.24-2.77-2.75-5.82,3.9-11.51,9.17-9.06,1.61,.75,2.76,2.22,3.34,3.97h0Z"/>
    <path class="cls-1" d="M1221.21,601.13c.8,2.51-.02,5.48-2.16,7,0,0-.55,.53-1.12,.86-3.06,1.79-7.62,.65-9.24-2.77-2.75-5.82,3.9-11.51,9.17-9.06,1.61,.75,2.76,2.22,3.34,3.97h0Z"/>
    <path class="cls-1" d="M235.09,1048.91c.49,1.61,.19,5.72-2.96,6.86-2.4,.87-5.34-.22-6.65-2.45-1.64-2.81-.78-7.02,2.59-7.97,2.78-.78,6.09,.78,7.02,3.56h0Z"/>
    <path class="cls-1" d="M180.36,992.9c.81,2.53,.1,5.54-2.27,6.84-3.33,1.81-8.38-.65-8.64-4.67l.41-2.65c1.58-4.75,8.39-5.79,10.5,.48h0Z"/>
    <path class="cls-1" d="M93.84,992.9c.81,2.53,.1,5.54-2.27,6.84-3.33,1.81-8.38-.65-8.64-4.67l.41-2.65c1.58-4.75,8.39-5.79,10.5,.48h0Z"/>
    <path class="cls-1" d="M132.41,816.83c.81,2.53,.1,5.54-2.27,6.84-3.33,1.81-8.38-.65-8.64-4.67l.41-2.65c1.58-4.75,8.39-5.79,10.5,.48h0Z"/>
    <path class="cls-1" d="M214.92,913.88c1.53,4.66,.41,10.39-4.28,12.7-5.56,2.74-13.09,.27-15.6-4.81-.99-2-1.41-4.3-1.54-6.42-.13-2.38,.47-4.82,2.42-6.62,2.99-2.76,7.59-3.4,11.39-2.16,3.45,.73,6.28,3.54,7.52,7.05l.09,.26h0Z"/>
    <path class="cls-1" d="M93.64,565.74c1,3.18-1.22,6.96-4.8,6.97-3.56,0-6.92-3.93-5.09-7.67,.34-.7,.04-.28,.54-1.11,2.15-3.58,7.7-3.15,9.36,1.81h0Z"/>
    <path class="cls-1" d="M211.91,808.9c.8,2.51-.02,5.48-2.16,7,0,0-.55,.53-1.12,.86-3.06,1.79-7.62,.65-9.24-2.77-2.75-5.82,3.9-11.51,9.17-9.06,1.61,.75,2.76,2.22,3.34,3.97h0Z"/>
    <path class="cls-1" d="M110.41,908.47c.8,2.51-.02,5.48-2.16,7,0,0-.55,.53-1.12,.86-3.06,1.79-7.62,.65-9.24-2.77-2.75-5.82,3.9-11.51,9.17-9.06,1.61,.75,2.76,2.22,3.34,3.97h0Z"/>
    <path class="cls-1" d="M1102.54,161.17c1.19,3.8-3.13,7.22-6.54,5.43,0,0-2.29-1.15-2.7-3.17-.34-1.66,.45-3.45,1.82-4.47,2.33-1.74,6.3-1.14,7.42,2.21h0Z"/>
    <path class="cls-1" d="M614.35,773.44c.68,2.16-1.31,4.59-3.8,4.4-2.14,.17-4.22-2.32-3.32-4.54,.52-1.29,1.89-2.13,3.34-2.09,1.54-.31,3.24,.6,3.78,2.23h0Z"/>
    <path class="cls-1" d="M1372.05,266.45c1.53,4.77-.9,10.64-5.67,12.46-5.72,2.19-13.32-1.09-15.89-6.84-1.92-4.32,.11-9.96,4.66-12.2,6.23-3.07,14.72,.12,16.89,6.58h0Z"/>
    <path class="cls-1" d="M1165.13,877.84c1.53,4.77-.9,10.64-5.67,12.46-5.72,2.19-13.32-1.09-15.89-6.84-1.92-4.32,.11-9.96,4.66-12.2,6.23-3.07,14.72,.12,16.89,6.58h0Z"/>
    <path class="cls-1" d="M1023.24,369.51c1.53,4.77-.9,10.64-5.67,12.46-5.72,2.19-13.32-1.09-15.89-6.84-1.92-4.32,.11-9.96,4.66-12.2,6.23-3.07,14.72,.12,16.89,6.58h0Z"/>
    <path class="cls-1" d="M1219.09,341.17c.42,1.43,.23,2.97-.52,4.27,0,0-1.89,3.26-4.73,3.08-2.99,.38-6.44-1.5-7.03-4.7-.68-3.7,2.86-8.04,7.89-6.76,2.06,.52,3.71,2.07,4.39,4.1h0Z"/>
    <path class="cls-1" d="M1152.59,502.96c.42,1.43,.23,2.97-.52,4.27,0,0-1.89,3.26-4.73,3.08-2.99,.38-6.44-1.5-7.03-4.7-.68-3.7,2.86-8.04,7.89-6.76,2.06,.52,3.71,2.07,4.39,4.1h0Z"/>
    <path class="cls-1" d="M1211.38,422.11c.57,1.84,.42,3.91-1.07,5.33-2.92,2.81-9.28,.81-9.25-3.83,0,0-.04-1.35,.37-2.32,1.75-4.17,8.37-4.02,9.95,.82Z"/>
    <path class="cls-1" d="M1339.16,441.34c.57,1.84,.42,3.91-1.07,5.33-2.92,2.81-9.28,.81-9.25-3.83,0,0-.04-1.35,.37-2.32,1.75-4.17,8.37-4.02,9.95,.82Z"/>
    <path class="cls-1" d="M1190.7,799.54c.57,1.84,.42,3.91-1.07,5.33-2.92,2.81-9.28,.81-9.25-3.83,0,0-.04-1.35,.37-2.32,1.75-4.17,8.37-4.02,9.95,.82Z"/>
    <path class="cls-1" d="M850.86,728.08c.57,1.84,.42,3.91-1.07,5.33-2.92,2.81-9.28,.81-9.25-3.83,0,0-.04-1.35,.37-2.32,1.75-4.17,8.37-4.02,9.95,.82Z"/>
    <path class="cls-1" d="M848.11,637.87c-2.74-1.16-4.79-3.97-4.14-6.94,.9-4.15,6.69-6.65,10.29-3.92l1.95,2.29c2.88,4.83-1.22,11.37-8.1,8.56h0Z"/>
    <path class="cls-1" d="M1013.96,105.7c-2.75-1.18-4.95-3.75-4.99-6.8-.04-4.05,4-7.41,8.74-6.87,4.47,.51,8.29,4.33,6.34,9.48,0,0-.56,1.78-1.68,2.8-2.24,2.05-5.54,2.56-8.41,1.38h0Z"/>
    <path class="cls-1" d="M1107.79,757.08c-2.75-1.18-4.95-3.75-4.99-6.8-.04-4.05,4-7.41,8.74-6.87,4.47,.51,8.29,4.33,6.34,9.48,0,0-.56,1.78-1.68,2.8-2.24,2.05-5.54,2.56-8.41,1.38h0Z"/>
    <path class="cls-1" d="M559.96,592.88c-3-1.29-5.38-4.27-5.08-7.52,.37-3.85,3.73-7.49,8.04-6.69,7.58,1.41,8.73,8.97,4.81,12.47-1.86,1.66-4.37,3.13-7.77,1.74h0Z"/>
    <path class="cls-1" d="M860.46,996.87c-2.94-1.24-2.89-5.62-.12-7.09,2.24-1.19,6.18,.7,5.29,4.4-.53,2.18-3,3.58-5.17,2.69h0Z"/>
    <path class="cls-1" d="M557.23,848.84c-5.08-2.11-9.12-7.26-7.65-12.94,1.74-6.73,9.35-11.32,15.51-9.74,2.42,.62,4.68,1.95,6.58,3.39,2.12,1.63,3.75,3.93,3.85,6.91,.15,4.56-2.67,8.93-6.5,11.26-3.14,2.4-7.61,2.74-11.5,1.23l-.28-.12h0Z"/>
    <path class="cls-1" d="M761.72,937.17c-3.53-1.53-5.76-5.67-4.71-9.41,1.1-3.93,5.97-6.44,9.93-4.67,1.17,.53,3.37,2.26,4.37,3.9,2,3.23,1.37,8.02-2.67,9.94-2.19,1.04-4.65,1.16-6.92,.24h0Z"/>
    <path class="cls-1" d="M684.58,862.96c-3.53-1.53-5.76-5.67-4.71-9.41,1.1-3.93,5.97-6.44,9.93-4.67,1.17,.53,3.37,2.26,4.37,3.9,2,3.23,1.37,8.02-2.67,9.94-2.19,1.04-4.65,1.16-6.92,.24h0Z"/>
    <path class="cls-1" d="M851.13,807.96c-3.53-1.53-5.76-5.67-4.71-9.41,1.1-3.93,5.97-6.44,9.93-4.67,1.17,.53,3.37,2.26,4.37,3.9,2,3.23,1.37,8.02-2.67,9.94-2.19,1.04-4.65,1.16-6.92,.24h0Z"/>
    <path class="cls-1" d="M741.76,658.34c-3.44-1.48-5.02-6.13-2.4-9.18,2.6-3.04,8.4-3,10.24,1.29,.34,.8,.21,.25,.55,1.26,1.47,4.44-2.96,8.85-8.39,6.63h0Z"/>
    <path class="cls-1" d="M920.61,909.5c-2.67-1.11-3.16-5.6-.19-6.93,2.25-1.01,5.42,.67,5.36,3.33-.06,2.6-2.52,4.7-5.17,3.6h0Z"/>
    <path class="cls-1" d="M1167.42,190.21c-2.84-1.29-4.26-4.89-2.87-7.51,.8-1.82,2.07-3.37,4.24-3.83,2.77-.6,5.92,.76,7.03,3.41,1.86,4.43-2.97,10.33-8.41,7.92h0Z"/>
    <path class="cls-1" d="M812.48,878.47c-2.84-1.29-4.26-4.89-2.87-7.51,.8-1.82,2.07-3.37,4.24-3.83,2.77-.6,5.92,.76,7.03,3.41,1.86,4.43-2.97,10.33-8.41,7.92h0Z"/>
    <path class="cls-1" d="M1241.97,262.57c-2.72-1.17-4.67-3.9-4.54-7,.17-4.22,4.04-8.21,8.34-7.7,2.89,.34,5.48,2.6,6.14,5.46,0,0,1,2.33,.32,4.5-1.24,3.97-6.07,6.45-10.25,4.74h0Z"/>
    <path class="cls-1" d="M1013.81,767.18c-2.72-1.17-4.67-3.9-4.54-7,.17-4.22,4.04-8.21,8.34-7.7,2.89,.34,5.48,2.6,6.14,5.46,0,0,1,2.33,.32,4.5-1.24,3.97-6.07,6.45-10.25,4.74h0Z"/>
    <path class="cls-1" d="M807.93,574.24c-2.72-1.17-4.67-3.9-4.54-7,.17-4.22,4.04-8.21,8.34-7.7,2.89,.34,5.48,2.6,6.14,5.46,0,0,1,2.33,.32,4.5-1.24,3.97-6.07,6.45-10.25,4.74h0Z"/>
    <path class="cls-1" d="M994.35,852.65c-2.44-1.04-4.16-3.61-3.92-6.24,0,0-.04-.77,.08-1.42,.65-3.5,4.51-6.23,8.18-5.22,6.24,1.73,6.21,10.53,.88,12.93-1.63,.73-3.5,.64-5.22-.06h0Z"/>
    <path class="cls-1" d="M1253.06,408.52c-4.64-1.97-7.51-7.67-5.77-12.5,2.09-5.79,9.58-9.43,15.64-7.61,4.55,1.37,7.52,6.63,6.23,11.56-1.76,6.76-9.76,11.13-16.1,8.54h0Z"/>
    <path class="cls-1" d="M520.79,697c-4.64-1.97-7.51-7.67-5.77-12.5,2.09-5.79,9.58-9.43,15.64-7.61,4.55,1.37,7.52,6.63,6.23,11.56-1.76,6.76-9.76,11.13-16.1,8.54h0Z"/>
    <path class="cls-1" d="M1050.27,670.33c-4.64-1.97-7.51-7.67-5.77-12.5,2.09-5.79,9.58-9.43,15.64-7.61,4.55,1.37,7.52,6.63,6.23,11.56-1.76,6.76-9.76,11.13-16.1,8.54h0Z"/>
    <path class="cls-1" d="M653.89,655.46c-4.64-1.97-7.51-7.67-5.77-12.5,2.09-5.79,9.58-9.43,15.64-7.61,4.55,1.37,7.52,6.63,6.23,11.56-1.76,6.76-9.76,11.13-16.1,8.54h0Z"/>
    <path class="cls-1" d="M850.05,456.22c-4.64-1.97-7.51-7.67-5.77-12.5,2.09-5.79,9.58-9.43,15.64-7.61,4.55,1.37,7.52,6.63,6.23,11.56-1.76,6.76-9.76,11.13-16.1,8.54h0Z"/>
    <path class="cls-1" d="M916.55,430.18c2.14,.37,3.05,2.97,1.85,4.5-1.35,1.72-5.13,1.67-5.03-1.75,.04-1.41,1.3-2.98,3.18-2.75h0Z"/>
    <path class="cls-1" d="M534.64,929.71c.49,1.61,.19,5.72-2.96,6.86-2.4,.87-5.34-.22-6.65-2.45-1.64-2.81-.78-7.02,2.59-7.97,2.78-.78,6.09,.78,7.02,3.56h0Z"/>
    <path class="cls-1" d="M479.91,873.7c.81,2.53,.1,5.54-2.27,6.84-3.33,1.81-8.38-.65-8.64-4.67l.41-2.65c1.58-4.75,8.39-5.79,10.5,.48h0Z"/>
    <path class="cls-1" d="M393.39,873.7c.81,2.53,.1,5.54-2.27,6.84-3.33,1.81-8.38-.65-8.64-4.67l.41-2.65c1.58-4.75,8.39-5.79,10.5,.48h0Z"/>
    <path class="cls-1" d="M485.01,1031.58c1.53,4.66,.41,10.39-4.28,12.7-5.56,2.74-13.09,.27-15.6-4.81-.99-2-1.41-4.3-1.54-6.42-.13-2.38,.47-4.82,2.42-6.62,2.99-2.76,7.59-3.4,11.39-2.16,3.45,.73,6.28,3.54,7.52,7.05l.09,.26h0Z"/>
    <path class="cls-1" d="M453.2,946.23c1,3.18-1.22,6.96-4.8,6.97-3.56,0-6.92-3.93-5.09-7.67,.34-.7,.04-.28,.54-1.11,2.15-3.58,7.7-3.15,9.36,1.81h0Z"/>
    <path class="cls-1" d="M353.87,1065.99c1.53,4.77-.9,10.64-5.67,12.46-5.72,2.19-13.32-1.09-15.89-6.84-1.92-4.32,.11-9.96,4.66-12.2,6.23-3.07,14.72,.12,16.89,6.58h0Z"/>
    <path class="cls-1" d="M379.44,987.68c.57,1.84,.42,3.91-1.07,5.33-2.92,2.81-9.28,.81-9.25-3.83,0,0-.04-1.35,.37-2.32,1.75-4.17,8.37-4.02,9.95,.82Z"/>
    <path class="cls-1" d="M296.53,945.22c-2.75-1.18-4.95-3.75-4.99-6.8-.04-4.05,4-7.41,8.74-6.87,4.47,.51,8.29,4.33,6.34,9.48,0,0-.56,1.78-1.68,2.8-2.24,2.05-5.54,2.56-8.41,1.38h0Z"/>
    <path class="cls-1" d="M1124.39,405.4c3.67,.47,7.21,3.08,7.27,7.02,.07,4.67-4.04,9.01-8.32,9.08-1.68,.03-3.38-.43-4.87-1.03-1.67-.68-3.13-1.88-3.73-3.79-.91-2.93,.14-6.27,2.21-8.46,1.61-2.11,4.44-3.13,7.23-2.85l.21,.02h0Z"/>
    <path class="cls-1" d="M1134.75,299.53c1.66,.24,3.09,1.51,3.47,3.21,.64,2.82-1.55,6.15-4.46,6.05-1.02-.03-2.01-.51-2.74-1.22,0,0-1.53-.97-1.7-2.61-.29-2.81,2.37-5.8,5.43-5.43h0Z"/>
    <path class="cls-1" d="M962.29,236.9c2.71,.37,5.11,2.33,5.77,5.13,.88,3.8-1.59,8.31-5.55,8.91-2.66,.41-5.52-.97-6.81-3.36,0,0-1.46-1.83-1.39-3.93,.13-3.84,3.83-7.24,7.98-6.74h0Z"/>
    <path class="cls-1" d="M1008.72,228.52s-.02-.03,0,0h0Z"/>
    <path class="cls-1" d="M1012.66,222.2c1.47,.18,2.97,1.43,3.2,3.2,.33,2.59-2.71,5.11-5.38,3.52-3.09-1.85-1.73-7.19,2.18-6.72h0Z"/>
    <path class="cls-1" d="M998.02,263.39c1.37,.21,2.59,.99,3.38,2.14,0,0,1.99,2.89,.71,5.2-.87,2.66-3.83,4.81-6.75,4.04-3.38-.9-5.62-5.61-2.53-9.33,1.26-1.52,3.22-2.29,5.2-2.05h0Z"/>
    <path class="cls-1" d="M125.04,1209.37c2.81,.05,5.67,1.65,6.48,4.34,.96,3.19-.54,7.17-4.22,7.93-6.48,1.34-9.85-4.3-7.88-8.35,.94-1.92,2.45-3.91,5.62-3.91h0Z"/>
    <path class="cls-1" d="M129.22,1309.6c4.27,.21,4.88,6.67,.37,7.15-.23,.02,.01-.02-.46,.08-1.33,.25-2.77-.43-3.43-1.66-1.03-2.12-.33-5.57,3.52-5.57h0Z"/>
    <path class="cls-1" d="M123.05,1110.45c4.15,.06,8.11,3.51,8.29,7.73,.21,5.06-4.37,10.17-9.56,10.67-3.9,.37-7.79-2.71-8.35-6.87-.77-5.7,3.97-11.52,9.62-11.52h0Z"/>
    <path class="cls-1" d="M422.38,1311.62c-2.44,1.75-5.91-.53-5.44-3.4,0,0,.28-1.91,1.63-2.68,1.1-.64,2.57-.5,3.64,.24,1.8,1.26,2.31,4.24,.17,5.84h0Z"/>
    <path class="cls-1" d="M451.3,1159.39c1.02,3.28-.48,7.19-3.61,8.66-3.29,1.54-7.83-.28-8.93-3.99-.33-1.1-.43-3.59,.09-5.22,1.02-3.23,4.62-5.6,8.27-3.98,1.98,.87,3.49,2.47,4.19,4.53h0Z"/>
    <path class="cls-1" d="M193.92,1204.8c.86,2.74-.46,5.95-3.01,7.27-3.4,1.76-8.22-.15-9.26-4.21-.81-3.16,.95-6.93,4.34-7.75,3.43-.83,7.24,1.86,7.93,4.68h0Z"/>
    <path class="cls-1" d="M385.68,1223.49c1.19,3.8-3.13,7.22-6.54,5.43,0,0-2.29-1.15-2.7-3.17-.34-1.66,.45-3.45,1.82-4.47,2.33-1.74,6.3-1.14,7.42,2.21h0Z"/>
    <path class="cls-1" d="M655.2,1328.76c1.53,4.77-.9,10.64-5.67,12.46-5.72,2.19-13.32-1.09-15.89-6.84-1.92-4.32,.11-9.96,4.66-12.2,6.23-3.07,14.72,.12,16.89,6.58h0Z"/>
    <path class="cls-1" d="M297.1,1168.02c-2.75-1.18-4.95-3.75-4.99-6.8-.04-4.05,4-7.41,8.74-6.87,4.47,.51,8.29,4.33,6.34,9.48,0,0-.56,1.78-1.68,2.8-2.24,2.05-5.54,2.56-8.41,1.38h0Z"/>
    <path class="cls-1" d="M450.56,1252.53c-2.84-1.29-4.26-4.89-2.87-7.51,.8-1.82,2.07-3.37,4.24-3.83,2.77-.6,5.92,.76,7.03,3.41,1.86,4.43-2.97,10.33-8.41,7.92h0Z"/>
    <path class="cls-1" d="M525.11,1324.88c-2.72-1.17-4.67-3.9-4.54-7,.17-4.22,4.04-8.21,8.34-7.7,2.89,.34,5.48,2.6,6.14,5.46,0,0,1,2.33,.32,4.5-1.24,3.97-6.07,6.45-10.25,4.74h0Z"/>
    <path class="cls-1" d="M417.89,1361.85c1.66,.24,3.09,1.51,3.47,3.21,.64,2.82-1.55,6.15-4.46,6.05-1.02-.03-2.01-.51-2.74-1.22,0,0-1.53-.97-1.7-2.61-.29-2.81,2.37-5.8,5.43-5.43h0Z"/>
    <path class="cls-1" d="M245.43,1299.22c2.71,.37,5.11,2.33,5.77,5.13,.88,3.8-1.59,8.31-5.55,8.91-2.66,.41-5.52-.97-6.81-3.36,0,0-1.46-1.83-1.39-3.93,.13-3.84,3.83-7.24,7.98-6.74h0Z"/>
    <path class="cls-1" d="M291.86,1290.83s-.02-.03,0,0h0Z"/>
    <path class="cls-1" d="M295.81,1284.51c1.47,.18,2.97,1.43,3.2,3.2,.33,2.59-2.71,5.11-5.38,3.52-3.09-1.85-1.73-7.19,2.18-6.72h0Z"/>
    <path class="cls-1" d="M281.16,1325.71c1.37,.21,2.59,.99,3.38,2.14,0,0,1.99,2.89,.71,5.2-.87,2.66-3.83,4.81-6.75,4.04-3.38-.9-5.62-5.61-2.53-9.33,1.26-1.52,3.22-2.29,5.2-2.05h0Z"/>
    <path class="cls-1" d="M1283.75,993.69c-2.81-.05-5.67-1.65-6.48-4.34-.96-3.19,.54-7.17,4.22-7.93,6.48-1.34,9.85,4.3,7.88,8.35-.94,1.92-2.45,3.91-5.62,3.91h0Z"/>
    <path class="cls-1" d="M1225.2,1184.95c-2.77-.06-5.3-2.24-5.72-4.98-.57-3.64,2.66-7.46,6.68-7.17,3.13,.23,6.04,2.99,5.75,6.34-.29,3.39-3.91,6.04-6.71,5.81h0Z"/>
    <path class="cls-1" d="M1087.5,1134.12c-2.44-.04-4.77-1.52-5.64-3.93-1.18-3.27,.53-7.51,3.96-8.46,2.31-.64,4.98,.28,6.38,2.25,0,0,1.48,1.46,1.64,3.33,.29,3.41-2.62,6.81-6.34,6.81h0Z"/>
    <path class="cls-1" d="M1121.04,1223.25c-4.27-.21-4.88-6.67-.37-7.15,.23-.02-.01,.02,.46-.08,1.33-.25,2.77,.43,3.43,1.66,1.03,2.12,.33,5.57-3.52,5.57h0Z"/>
    <path class="cls-1" d="M1285.74,1092.62c-4.15-.06-8.11-3.51-8.29-7.73-.21-5.06,4.37-10.17,9.56-10.67,3.9-.37,7.79,2.71,8.35,6.87,.77,5.7-3.97,11.52-9.62,11.52h0Z"/>
    <path class="cls-1" d="M827.88,1221.22c2.44-1.75,5.91,.53,5.44,3.4,0,0-.28,1.91-1.63,2.68-1.1,.64-2.57,.5-3.64-.24-1.8-1.26-2.31-4.24-.17-5.84h0Z"/>
    <path class="cls-1" d="M1064.57,1301.16c-1.02-3.28,.48-7.19,3.61-8.66,3.29-1.54,7.83,.28,8.93,3.99,.33,1.1,.43,3.59-.09,5.22-1.02,3.23-4.62,5.6-8.27,3.98-1.98-.87-3.49-2.47-4.19-4.53h0Z"/>
    <path class="cls-1" d="M1214.87,998.27c-.86-2.74,.46-5.95,3.01-7.27,3.4-1.76,8.22,.15,9.26,4.21,.81,3.16-.95,6.93-4.34,7.75-3.43,.83-7.24-1.86-7.93-4.68h0Z"/>
    <path class="cls-1" d="M864.58,1309.36c-1.19-3.8,3.13-7.22,6.54-5.43,0,0,2.29,1.15,2.7,3.17,.34,1.66-.45,3.45-1.82,4.47-2.33,1.74-6.3,1.14-7.42-2.21h0Z"/>
    <path class="cls-1" d="M595.07,1204.08c-1.53-4.77,.9-10.64,5.67-12.46,5.72-2.19,13.32,1.09,15.89,6.84,1.92,4.32-.11,9.96-4.66,12.2-6.23,3.07-14.72-.12-16.89-6.58h0Z"/>
    <path class="cls-1" d="M943.88,1101.01c-1.53-4.77,.9-10.64,5.67-12.46,5.72-2.19,13.32,1.09,15.89,6.84,1.92,4.32-.11,9.96-4.66,12.2-6.23,3.07-14.72-.12-16.89-6.58h0Z"/>
    <path class="cls-1" d="M748.04,1129.36c-.42-1.43-.23-2.97,.52-4.27,0,0,1.89-3.26,4.73-3.08,2.99-.38,6.44,1.5,7.03,4.7,.68,3.7-2.86,8.04-7.89,6.76-2.06-.52-3.71-2.07-4.39-4.1h0Z"/>
    <path class="cls-1" d="M755.74,1048.42c-.57-1.84-.42-3.91,1.07-5.33,2.92-2.81,9.28-.81,9.25,3.83,0,0,.04,1.35-.37,2.32-1.75,4.17-8.37,4.02-9.95-.82Z"/>
    <path class="cls-1" d="M627.96,1029.19c-.57-1.84-.42-3.91,1.07-5.33,2.92-2.81,9.28-.81,9.25,3.83,0,0,.04,1.35-.37,2.32-1.75,4.17-8.37,4.02-9.95-.82Z"/>
    <path class="cls-1" d="M1218.77,1292.53c2.75,1.18,4.95,3.75,4.99,6.8,.04,4.05-4,7.41-8.74,6.87-4.47-.51-8.29-4.33-6.34-9.48,0,0,.56-1.78,1.68-2.8,2.24-2.05,5.54-2.56,8.41-1.38h0Z"/>
    <path class="cls-1" d="M88.11,392.92c1.53,4.66,.41,10.39-4.28,12.7-5.56,2.74-13.09,.27-15.6-4.81-.99-2-1.41-4.3-1.54-6.42-.13-2.38,.47-4.82,2.42-6.62,2.99-2.76,7.59-3.4,11.39-2.16,3.45,.73,6.28,3.54,7.52,7.05l.09,.26h0Z"/>
    <path class="cls-1" d="M1291.77,143.88c-2.81-.05-5.67-1.65-6.48-4.34-.96-3.19,.54-7.17,4.22-7.93,6.48-1.34,9.85,4.3,7.88,8.35-.94,1.92-2.45,3.91-5.62,3.91h0Z"/>
    <path class="cls-1" d="M17.05,734.44c-2.77-.06-5.3-2.24-5.72-4.98-.57-3.64,2.66-7.46,6.68-7.17,3.13,.23,6.04,2.99,5.75,6.34-.29,3.39-3.91,6.04-6.71,5.81h0Z"/>
    <path class="cls-1" d="M77.59,642.11c-4.15-.06-8.11-3.51-8.29-7.73-.21-5.06,4.37-10.17,9.56-10.67,3.9-.37,7.79,2.71,8.35,6.87,.77,5.7-3.97,11.52-9.62,11.52h0Z"/>
    <path class="cls-1" d="M6.72,547.76c-.86-2.74,.46-5.95,3.01-7.27,3.4-1.76,8.22,.15,9.26,4.21,.81,3.16-.95,6.93-4.34,7.75-3.43,.83-7.24-1.86-7.93-4.68h0Z"/>
    <path class="cls-1" d="M10.62,842.02c2.75,1.18,4.95,3.75,4.99,6.8,.04,4.05-4,7.41-8.74,6.87-4.47-.51-8.29-4.33-6.34-9.48,0,0,.56-1.78,1.68-2.8,2.24-2.05,5.54-2.56,8.41-1.38h0Z"/>
    <path class="cls-1" d="M799.7,1280.31c2.84,1.29,4.26,4.89,2.87,7.51-.8,1.82-2.07,3.37-4.24,3.83-2.77,.6-5.92-.76-7.03-3.41-1.86-4.43,2.97-10.33,8.41-7.92h0Z"/>
    <path class="cls-1" d="M725.15,1207.96c2.72,1.17,4.67,3.9,4.54,7-.17,4.22-4.04,8.21-8.34,7.7-2.89-.34-5.48-2.6-6.14-5.46,0,0-1-2.33-.32-4.5,1.24-3.97,6.07-6.45,10.25-4.74h0Z"/>
    <path class="cls-1" d="M714.06,1062.01c4.64,1.97,7.51,7.67,5.77,12.5-2.09,5.79-9.58,9.43-15.64,7.61-4.55-1.37-7.52-6.63-6.23-11.56,1.76-6.76,9.76-11.13,16.1-8.54h0Z"/>
    <path class="cls-1" d="M1117.07,1014.31c4.64,1.97,7.51,7.67,5.77,12.5-2.09,5.79-9.58,9.43-15.64,7.61-4.55-1.37-7.52-6.63-6.23-11.56,1.76-6.76,9.76-11.13,16.1-8.54h0Z"/>
    <path class="cls-1" d="M1050.57,1040.35c-2.14-.37-3.05-2.97-1.85-4.5,1.35-1.72,5.13-1.67,5.03,1.75-.04,1.41-1.3,2.98-3.18,2.75h0Z"/>
    <path class="cls-1" d="M842.73,1065.13c-3.67-.47-7.21-3.08-7.27-7.02-.07-4.67,4.04-9.01,8.32-9.08,1.68-.03,3.38,.43,4.87,1.03,1.67,.68,3.13,1.88,3.73,3.79,.91,2.93-.14,6.27-2.21,8.46-1.61,2.11-4.44,3.13-7.23,2.85l-.21-.02h0Z"/>
    <path class="cls-1" d="M832.37,1170.99c-1.66-.24-3.09-1.51-3.47-3.21-.64-2.82,1.55-6.15,4.46-6.05,1.02,.03,2.01,.51,2.74,1.22,0,0,1.53,.97,1.7,2.61,.29,2.81-2.37,5.8-5.43,5.43h0Z"/>
    <path class="cls-1" d="M1004.83,1233.63c-2.71-.37-5.11-2.33-5.77-5.13-.88-3.8,1.59-8.31,5.55-8.91,2.66-.41,5.52,.97,6.81,3.36,0,0,1.46,1.83,1.39,3.93-.13,3.84-3.83,7.24-7.98,6.74h0Z"/>
    <path class="cls-1" d="M958.4,1242.01s.02,.03,0,0h0Z"/>
    <path class="cls-1" d="M954.46,1248.33c-1.47-.18-2.97-1.43-3.2-3.2-.33-2.59,2.71-5.11,5.38-3.52,3.09,1.85,1.73,7.19-2.18,6.72h0Z"/>
    <path class="cls-1" d="M969.1,1207.14c-1.37-.21-2.59-.99-3.38-2.14,0,0-1.99-2.89-.71-5.2,.87-2.66,3.83-4.81,6.75-4.04,3.38,.9,5.62,5.61,2.53,9.33-1.26,1.52-3.22,2.29-5.2,2.05h0Z"/>
    <path class="cls-1" d="M1314.96,1296.51c2.17-6.46,10.65-9.65,16.89-6.58,4.55,2.24,6.58,7.88,4.66,12.2-2.56,5.75-10.17,9.03-15.89,6.84-4.77-1.83-7.19-7.69-5.67-12.46h0Z"/>
    <path class="cls-1" d="M1375.91,1163.9c4.15-.5,7.84,2.9,7.98,6.74,.07,2.1-1.39,3.93-1.39,3.93-1.29,2.39-4.15,3.77-6.81,3.36-3.95-.6-6.43-5.11-5.55-8.91,.65-2.8,3.05-4.76,5.77-5.13h0Z"/>
    <path class="cls-1" d="M1329.48,1155.51s-.03,.03,0,0h0Z"/>
    <path class="cls-1" d="M1325.54,1149.19c3.91-.47,5.28,4.87,2.18,6.72-2.67,1.59-5.71-.93-5.38-3.52,.23-1.77,1.73-3.02,3.2-3.2h0Z"/>
    <path class="cls-1" d="M1340.18,1190.38c1.98-.24,3.93,.53,5.2,2.05,3.08,3.72,.84,8.43-2.53,9.33-2.92,.77-5.88-1.38-6.75-4.04-1.28-2.31,.71-5.2,.71-5.2,.79-1.15,2.01-1.93,3.38-2.14h0Z"/>
    <path class="cls-1" d="M1035.75,573.72c1.23,.18,2.41,.84,2.83,2.11,.83,2.49-2.1,5.66-4.81,4.35,0,0-.8-.35-1.26-.86-1.95-2.18-.03-6.02,3.24-5.6Z"/>
    <path class="cls-1" d="M377.74,735.82c-1.61-2.13-.29-4.85,1.79-5.56,1.22-.42,2.68-.15,3.56,.77,1.08,1.11,.82,3.03,.82,3.03-.34,2.89-4.31,4.12-6.17,1.76h0Z"/>
    <path class="cls-1" d="M153.91,335.05c1.67-2.41,5.28-3,7.73-1.47,2.97,1.85,2.63,6.14,.28,8.38-1.87,1.78-5,2-7.06,.51-2.71-1.97-1.86-6-.94-7.41h0Z"/>
    <path class="cls-1" d="M470.11,200.47c1.67-2.41,5.28-3,7.73-1.47,2.97,1.85,2.63,6.14,.28,8.38-1.87,1.78-5,2-7.06,.51-2.71-1.97-1.86-6-.94-7.41h0Z"/>
    <path class="cls-1" d="M221.98,296.41c3.76-5.45,10.02-2.56,10.22,2.45l-.34,2.66c-1.36,3.79-6.9,4.75-9.59,2.09-1.92-1.9-1.77-5-.29-7.2h0Z"/>
    <path class="cls-1" d="M305.1,320.41c3.76-5.45,10.02-2.56,10.22,2.45l-.34,2.66c-1.36,3.79-6.9,4.75-9.59,2.09-1.92-1.9-1.77-5-.29-7.2h0Z"/>
    <path class="cls-1" d="M316.89,140.55c3.76-5.45,10.02-2.56,10.22,2.45l-.34,2.66c-1.36,3.79-6.9,4.75-9.59,2.09-1.92-1.9-1.77-5-.29-7.2h0Z"/>
    <path class="cls-1" d="M173.34,446.68l.16-.23c2.17-3.02,5.67-4.94,9.18-4.68,3.99-.13,8.23,1.76,10.34,5.23,1.38,2.27,1.28,4.78,.49,7.04-.71,2-1.75,4.09-3.25,5.74-3.82,4.18-11.75,4.47-16.32,.29-3.87-3.53-3.35-9.34-.59-13.39h0Z"/>
    <path class="cls-1" d="M210.76,210.92l.16-.23c2.17-3.02,5.67-4.94,9.18-4.68,3.99-.13,8.23,1.76,10.34,5.23,1.38,2.27,1.28,4.78,.49,7.04-.71,2-1.75,4.09-3.25,5.74-3.82,4.18-11.75,4.47-16.32,.29-3.87-3.53-3.35-9.34-.59-13.39h0Z"/>
    <path class="cls-1" d="M392.2,581.55c1.24-1.79,3.14-2.9,5.28-3.2,3.96-.54,6.76,2.73,6.84,6.12,.04,1.71-.75,4.07-1.37,5.04-2.09,3.25-6.95,3.75-9.69,1.35-2.61-2.28-2.96-6.45-1.07-9.32h0Z"/>
    <path class="cls-1" d="M401.17,242.38c1.24-1.79,3.14-2.9,5.28-3.2,3.96-.54,6.76,2.73,6.84,6.12,.04,1.71-.75,4.07-1.37,5.04-2.09,3.25-6.95,3.75-9.69,1.35-2.61-2.28-2.96-6.45-1.07-9.32h0Z"/>
    <path class="cls-1" d="M227.54,373.51c2.97-4.3,8.43-3.17,9.5,.86,.24,.93,.07,.45,.21,1.21,.72,4.1-3.6,6.95-7.02,5.95-3.44-1-4.53-5.24-2.68-8.03h0Z"/>
    <path class="cls-1" d="M362.25,523.05c1.44-2.11,4.31-1.74,5.62,.17,1.34,1.95-.2,4.76-2.38,5.1-2.87,.45-4.69-3.14-3.24-5.27h0Z"/>
    <path class="cls-1" d="M242.74,110.89c1.05-1.52,2.56-2.62,4.32-2.89,5.74-.89,10.56,6.42,6.3,11.25-2.5,2.84-7.2,2.67-9.64,.1-.45-.47-.84-1.13-.84-1.13-1.63-2.06-1.59-5.14-.13-7.33h0Z"/>
    <path class="cls-1" d="M312.63,234.7c1.05-1.52,2.56-2.62,4.32-2.89,5.74-.89,10.56,6.42,6.3,11.25-2.5,2.84-7.2,2.67-9.64,.1-.45-.47-.84-1.13-.84-1.13-1.63-2.06-1.59-5.14-.13-7.33h0Z"/>
    <path class="cls-1" d="M437.45,661.31c2.01-2.91,5.98-2.38,7.74-.07,1.04,1.37,1.3,3.31,.51,4.8-.95,1.82-3.47,2.29-3.47,2.29-3.78,.78-6.98-3.71-4.78-7.03h0Z"/>
    <path class="cls-1" d="M149.32,687.67c3.88-5.61,12.91-6.32,18.05-1.64,3.75,3.41,4.14,9.4,1.1,13.02-4.06,4.82-12.28,5.85-17.16,2.17-4.07-3.08-4.78-9.39-1.99-13.54h0Z"/>
    <path class="cls-1" d="M289.76,516.1c3.88-5.61,12.91-6.32,18.05-1.64,3.75,3.41,4.14,9.4,1.1,13.02-4.06,4.82-12.28,5.85-17.16,2.17-4.07-3.08-4.78-9.39-1.99-13.54h0Z"/>
    <path class="cls-1" d="M275.55,801.91c1.22-1.76,3.23-2.79,5.35-2.73,5.19,.16,7.39,5.32,5.71,8.68-1.46,2.9-5.3,3.76-8.06,2.56-2.77-.61-3.68-4.27-3.68-4.27-.36-1.46-.12-2.99,.68-4.25h0Z"/>
    <path class="cls-1" d="M405.79,159.43c1.22-1.76,3.23-2.79,5.35-2.73,5.19,.16,7.39,5.32,5.71,8.68-1.46,2.9-5.3,3.76-8.06,2.56-2.77-.61-3.68-4.27-3.68-4.27-.36-1.46-.12-2.99,.68-4.25h0Z"/>
    <path class="cls-1" d="M381.52,67.42c.12,1.05-.29,2.34-.29,2.34-1.26,4.47-7.93,4.62-9.95,1.11-1.03-1.78-.6-3.81,.46-5.42,2.86-4.22,9.26-2.52,9.78,1.97Z"/>
    <path class="cls-1" d="M253.43,50.44c.12,1.05-.29,2.34-.29,2.34-1.26,4.47-7.93,4.62-9.95,1.11-1.03-1.78-.6-3.81,.46-5.42,2.86-4.22,9.26-2.52,9.78,1.97Z"/>
    <path class="cls-1" d="M296.69,435.76c.12,1.05-.29,2.34-.29,2.34-1.26,4.47-7.93,4.62-9.95,1.11-1.03-1.78-.6-3.81,.46-5.42,2.86-4.22,9.26-2.52,9.78,1.97Z"/>
    <path class="cls-1" d="M378.37,415.99c-3.09,.33-6.12-1.07-7.7-3.66-.79-1.29-.84-3.15-.84-3.15-.45-5.49,4.29-8.1,8.72-7.35,4.7,.8,7.65,5.14,6.49,9.02-.88,2.92-3.71,4.77-6.68,5.15h0Z"/>
    <path class="cls-1" d="M367.07,671.22c-5.89,.8-8.89-6.2-5.88-9.95,1.81-2.24,5.21-2.67,7.7-1.33,1.96,1.04,2.75,2.89,3.01,4.86,.62,2.9-1.74,5.96-4.84,6.42h0Z"/>
    <path class="cls-1" d="M275.34,720.06c-4.49,.48-8.44-3.24-8.53-7.4-.05-2.27,1.55-4.23,1.55-4.23,1.43-2.57,4.54-4.02,7.41-3.54,4.27,.7,6.89,5.61,5.88,9.71-.74,3.02-3.37,5.1-6.31,5.47h0Z"/>
    <path class="cls-1" d="M335.5,40.81c-6.82,.73-13.29-5.69-13.1-12.67,.14-5.1,4.44-9.32,9.2-9.38,6.33-.07,12.52,5.51,12.92,11.65,.33,5.12-4.01,9.8-9.01,10.4h0Z"/>
    <path class="cls-1" d="M638.68,121.8c3.76-5.45,10.02-2.56,10.22,2.45l-.34,2.66c-1.36,3.79-6.9,4.75-9.59,2.09-1.92-1.9-1.77-5-.29-7.2h0Z"/>
    <path class="cls-1" d="M564.52,92.14c1.05-1.52,2.56-2.62,4.32-2.89,5.74-.89,10.56,6.42,6.3,11.25-2.5,2.84-7.2,2.67-9.64,.1-.45-.47-.84-1.13-.84-1.13-1.63-2.06-1.59-5.14-.13-7.33h0Z"/>
    <path class="cls-1" d="M575.21,31.68c.12,1.05-.29,2.34-.29,2.34-1.26,4.47-7.93,4.62-9.95,1.11-1.03-1.78-.6-3.81,.46-5.42,2.86-4.22,9.26-2.52,9.78,1.97Z"/>
    <path class="cls-1" d="M657.28,22.05c-6.82,.73-13.29-5.69-13.1-12.67,.14-5.1,4.44-9.32,9.2-9.38,6.33-.07,12.52,5.51,12.92,11.65,.33,5.12-4.01,9.8-9.01,10.4h0Z"/>
    <path class="cls-1" d="M457.7,348.61c-6.82,.73-13.29-5.69-13.1-12.67,.14-5.1,4.44-9.32,9.2-9.38,6.33-.07,12.52,5.51,12.92,11.65,.33,5.12-4.01,9.8-9.01,10.4h0Z"/>
    <path class="cls-1" d="M206.34,582.02c2.18,.36,3.75,2.63,3.5,4.79-.3,2.62-3.33,3.78-5.62,2.9-1.82-.7-2.98-2.76-2.63-4.65,.46-2.48,3.49-3.21,4.75-3.04h0Z"/>
    <path class="cls-1" d="M459.95,73.52l.2,.03c2.76,.5,5.2,2.27,6.16,4.74,1.38,2.68,1.46,6.18-.22,8.74-1.1,1.67-2.84,2.42-4.64,2.61-1.59,.17-3.35,.13-4.96-.36-4.09-1.25-6.84-6.56-5.47-11.03,1.15-3.77,5.28-5.3,8.93-4.73h0Z"/>
    <path class="cls-1" d="M368.12,785.29c3.04,.5,4.77,4.1,3.71,6.72-.62,1.53-2.35,2.03-2.35,2.03-.9,.48-1.98,.67-2.97,.42-2.82-.72-4-4.52-2.61-7.05,.84-1.52,2.57-2.35,4.22-2.12h0Z"/>
    <path class="cls-1" d="M500,266.11c-.58,.37-1.45,.48-1.45,.48-2.96,.5-4.91-3.36-3.42-5.52,.75-1.1,2.06-1.41,3.3-1.24,3.26,.5,4.05,4.72,1.56,6.28Z"/>
  </g>
</svg>