<?xml version="1.0" encoding="utf-8"?>
<!-- Generator: Adobe Illustrator 27.0.0, SVG Export Plug-In . SVG Version: 6.00 Build 0)  -->
<svg version="1.1" id="Layer_2_00000012445656025959336410000002215550186516260025_"
	 xmlns="http://www.w3.org/2000/svg" xmlns:xlink="http://www.w3.org/1999/xlink" x="0px" y="0px" viewBox="0 0 158.6 110.9"
	 style="enable-background:new 0 0 158.6 110.9;" xml:space="preserve">
<style type="text/css">
	.st0{fill:#FFFFFF;}
	.st1{enable-background:new    ;}
	.st2{fill:#908FB5;}
</style>
<g id="Layer_7">
	<g>
		<g>
			<g>
				<path class="st0" d="M27.7,26l-0.1-0.2c-0.1-0.2-0.2-0.3-0.4-0.4l-0.4-0.3c0.1-0.1,0.2-0.2,0.4-0.3c0.1-0.1,0.1-0.1,0.2-0.2
					c0.1-0.1,0.1-0.1,0.2-0.2c0.1-0.2,0.2-0.5,0.2-0.8c0-0.4-0.2-0.7-0.4-1.1c-0.1-0.2-0.2-0.3-0.4-0.4l-0.1-0.1
					c0,0-0.1-0.1-0.2-0.1c-0.3-0.2-0.7-0.3-1-0.3l-0.1,0c-0.1,0-0.2,0-0.2,0c-0.3-0.1-0.6-0.1-0.8-0.1c-0.1,0-0.2,0-0.3,0l-0.9,0
					c-0.1,0-0.1,0-0.2,0.1l-0.6,0c-0.1,0-0.2,0-0.3,0c-0.1,0-0.3,0.1-0.4,0.3c-0.1,0.1-0.1,0.3-0.1,0.5c0,0.1,0,0.3,0,0.5
					c0,0.2,0,0.4,0,0.6c0,0.1,0,0.2,0,0.3v0.4c0,0.1,0,0.1,0,0.2c0,0.1,0,0.1,0,0.2c0,0.5,0,0.9-0.1,1.4c0,0.1,0,0.2,0,0.3
					c0,0.1,0,0.2,0,0.3v0.1c0,0.2,0,0.3-0.1,0.5c0,0.2,0,0.4,0,0.6c0,0,0,0.1,0,0.1v0.9c0,0.2,0.1,0.3,0.2,0.4
					c0.1,0,0.1,0.1,0.2,0.1c0.1,0.1,0.3,0.1,0.5,0.1c0,0,0.1,0,0.1,0c0.2,0,0.5,0,0.7,0c0.1,0,0.2,0,0.4,0c0.1,0,0.2,0,0.3,0h0.1
					c0.1,0,0.3,0,0.4,0c0.1,0,0.2,0,0.3,0c0.4,0,0.8-0.1,1.2-0.1c0.2,0,0.4-0.1,0.5-0.2c0.2-0.2,0.4-0.3,0.6-0.5
					c0.1-0.1,0.2-0.1,0.2-0.2c0.1-0.1,0.2-0.2,0.3-0.3c0.1-0.2,0.2-0.4,0.3-0.6c0-0.1,0-0.3,0-0.4C28,26.6,27.9,26.2,27.7,26
					L27.7,26z M25.1,24.5c-0.2,0-0.4,0.1-0.6,0c-0.2,0-0.3,0-0.5,0c-0.1,0-0.2,0-0.3,0c-0.3,0-0.5,0-0.8,0h-0.1c0-0.1,0-0.1,0-0.1
					c0-0.1,0-0.2,0-0.3v-0.9c0-0.2,0-0.3-0.1-0.6c0,0,0,0,0.1,0c0.1,0,0.3,0,0.4,0h0.3c0.2,0,0.4,0,0.7,0c0.1,0,0.1,0,0.2,0
					c0,0,0,0,0.1,0c0.2,0,0.4,0,0.6,0c0.1,0,0.2,0,0.2,0c0.3,0,0.6,0.1,0.9,0.2c0.1,0,0.2,0.1,0.4,0.3c0,0,0,0,0,0.1
					c0,0,0,0.1,0,0.1c0.1,0.1,0.1,0.2-0.1,0.4c0,0.1-0.1,0.1-0.2,0.2c-0.1,0.1-0.3,0.2-0.5,0.3C25.7,24.4,25.5,24.5,25.1,24.5
					L25.1,24.5z M22.8,22.6L22.8,22.6C22.8,22.6,22.8,22.5,22.8,22.6C22.8,22.6,22.8,22.6,22.8,22.6z M22.8,26.3
					c0-0.1,0-0.3,0.1-0.5v0c0.2,0,0.4,0,0.5,0c0.1,0,0.3,0,0.4,0c0.2,0,0.4,0.1,0.6,0c0,0,0.1,0,0.2,0h0.1c0.1,0,0.2,0,0.3,0
					c0.2,0,0.4,0,0.6,0.1h0.1c0.5,0.1,1,0.3,1.3,0.7c0,0,0,0,0,0l0.1,0.2c0,0,0,0.1,0,0.1c-0.1,0.1-0.2,0.2-0.4,0.4
					c-0.2,0.1-0.4,0.2-0.6,0.3l-0.3,0.1c-0.1,0-0.2,0-0.3,0c-0.1,0-0.2,0-0.2,0c-0.3,0-0.5,0-0.7,0c-0.1,0-0.3,0-0.4,0
					c-0.1,0-0.2,0-0.3,0c0,0,0,0-0.1,0c-0.2,0-0.4,0-0.6,0c0,0-0.1,0-0.1,0c-0.1,0-0.1,0-0.3,0c0,0,0,0,0-0.1c0-0.2,0-0.4,0-0.5V27
					c0,0,0-0.1,0-0.1L22.8,26.3C22.8,26.4,22.8,26.3,22.8,26.3L22.8,26.3z"/>
				<path class="st0" d="M35.2,21.6c-0.1-0.1-0.3-0.1-0.5,0l-0.1,0.1c-0.3,0.4-0.7,0.8-1,1.2c-0.1,0.1-0.1,0.2-0.2,0.3l-0.6,0.6
					c-0.4,0.4-0.7,0.8-1.1,1.2c-0.3-0.3-0.5-0.6-0.8-0.9l-0.9-1c0,0-0.1-0.1-0.1-0.1c-0.3-0.5-0.7-0.9-1-1.3l-0.1-0.1
					c-0.1-0.1-0.3-0.1-0.4,0c-0.2,0.1-0.3,0.2-0.3,0.3c0,0.1,0,0.3,0,0.4c0,0.1,0.1,0.1,0.1,0.2c0.1,0.2,0.3,0.3,0.4,0.5
					c0.2,0.4,0.5,0.8,0.8,1.1c0.1,0.1,0.2,0.3,0.4,0.4c0.1,0.2,0.2,0.3,0.4,0.4l0,0c0.1,0.2,0.2,0.3,0.3,0.4c0,0.1,0.1,0.1,0.1,0.2
					c0,0.1,0.1,0.1,0.1,0.2c0.1,0.1,0.2,0.2,0.2,0.3v0.1c0,0.1,0,0.2,0,0.2c0,0.1,0,0.2,0,0.3c0,0,0,0.1,0,0.2c0,0.2,0,0.4,0,0.6
					c0,0.1,0,0.3,0,0.4s0,0.3,0,0.4s0.1,0.3,0.4,0.5c0.1,0,0.2,0.1,0.4,0.1c0.1,0,0.1,0,0.2,0c0.1,0,0.2,0,0.2-0.1
					c0.2-0.1,0.3-0.2,0.3-0.4v-0.9c0-0.2,0-0.4,0-0.5s0-0.3,0-0.5c0,0,0-0.1,0-0.1c0-0.1,0-0.1,0-0.2c0.1-0.1,0.2-0.3,0.2-0.4
					l0.3-0.4c0.1-0.1,0.1-0.1,0.1-0.2c0.1-0.2,0.2-0.3,0.3-0.4c0.1-0.1,0.2-0.2,0.2-0.3c0.1-0.1,0.2-0.2,0.3-0.3
					c0.3-0.3,0.5-0.6,0.8-1c0-0.1,0.1-0.1,0.1-0.2c0.1-0.2,0.2-0.3,0.4-0.5c0.1-0.1,0.1-0.2,0.1-0.2C35.6,21.9,35.3,21.7,35.2,21.6
					L35.2,21.6z"/>
			</g>
			<path class="st0" d="M35.3,31.1c0.2,0.1,0.3,0.2,0.4,0.4c0.1,0.2,0,0.5-0.2,0.6c-0.2,0.1-0.4,0.1-0.6,0.1c-0.2,0-0.5-0.1-0.7,0
				c-0.9,0.1-1.7,0-2.5-0.1c-0.2,0-0.5,0-0.7,0c-0.5,0-1,0-1.5,0c-0.3,0-0.5-0.1-0.8,0c-0.6,0.1-1.2-0.1-1.8,0h-0.1
				c-0.4-0.1-0.7-0.1-1.1-0.1h-0.5c-0.5-0.1-1.1,0.1-1.7,0.1c-0.1,0-0.2,0.1-0.3,0.1c-0.3,0.1-0.6,0.2-1,0.3c-0.1,0-0.2,0-0.3,0.1
				c-0.3,0.2-0.7,0.1-1,0.1c-0.1,0-0.3-0.1-0.4-0.3c-0.1-0.2-0.1-0.4,0-0.6c0.1-0.1,0.2-0.4,0.3-0.4c0.1,0,0.3-0.1,0.5-0.1
				c0.3-0.1,0.5-0.2,0.8-0.2c0.1,0,0.2-0.1,0.3-0.1c0.4-0.1,0.6,0,0.9,0c0.4-0.1,0.9-0.1,1.3-0.1H25c0.5,0,1-0.1,1.4-0.1
				c0.6,0,1.3,0.1,2,0c0.2,0,0.5,0,0.7,0c0.3,0,0.6,0,0.9,0c0.4-0.1,0.8,0,1.1,0c0.3,0.1,0.6,0.1,1,0.1c0.5,0,1.1,0,1.6-0.1
				c0.5,0,0.9,0,1.3,0.3L35.3,31.1L35.3,31.1z"/>
			<path class="st0" d="M20.7,19.4c-0.2-0.1,0-0.5-0.1-0.7c-0.1-0.2,0-0.4,0.1-0.5c0.2-0.1,0.4-0.1,0.6-0.1c0.2,0,0.5,0,0.7,0
				c0.9,0,1.7,0,2.5,0c0.2,0,0.5,0,0.7,0c0.5,0,1,0,1.5,0c0.3,0,0.5,0.1,0.8,0c0.6-0.1,1.2,0.1,1.8,0h0.1c0.4,0.1,0.7,0.1,1.1,0.1
				H31c0.5,0,1.1,0,1.7-0.1c0.1,0,0.2,0,0.3-0.1c0.3-0.1,0.7-0.2,1-0.2c0.1,0,0.2,0,0.3-0.1c0.3-0.1,0.7-0.1,1-0.1
				c0.2,0,0.3,0.1,0.4,0.2c0.1,0.1,0.1,0.3,0,0.4c-0.1,0.1-0.2,0.3-0.3,0.3c-0.1,0-0.7,0.4-0.8,0.4c-0.3,0.1-0.5,0.1-0.8,0.2
				c-0.1,0-0.2,0-0.3,0.1c-0.4,0.1-0.6,0-0.9,0c-0.4,0-0.9,0.1-1.3,0.1h-0.4c-0.5,0-1,0-1.4,0c-0.6,0-1.3,0-2,0c-0.2,0-0.5,0-0.7,0
				c-0.3,0-0.6,0-0.9,0c-0.4,0-0.8,0-1.1,0c-0.3,0-0.6,0-1-0.1c-0.5,0-1.1,0-1.6,0c-0.5,0-0.9,0-1.3-0.2L20.7,19.4L20.7,19.4z"/>
		</g>
		<g class="st1">
			<path class="st0" d="M41.7,28.8c0-0.6,0-1.2,0-1.8c0-0.5-0.1-1-0.1-1.6s0.1-1.1,0.1-1.6c0-0.9-0.1-1.7-0.1-2.6l-0.4-0.7l-0.1-0.3
				c0.9-1.1,0.7-1.8,2.1-1.8c1.4,0,2.2,1.1,2.2,2.4c0,0.1,0,0.3,0,0.4c0.3,0.1,0.4,0.4,0.4,0.7c0,0.7-0.2,1.5-0.2,2.3
				c0,0.9,0.1,1.8,0.1,2.7v2.2c0.1,0.2,0.3,0.4,0.5,0.5c1-0.8,2-1.8,2.8-2.9c0-0.5-0.1-0.9-0.1-1.4c0-1.6,0.8-4.4,2.8-4.4
				c0.4,0,0.7,0.1,1.1,0.3c0.4,0,0.4,0.4,0.4,0.7c0,0.7-0.2,1.5-0.2,2.3c0,1.7-0.1,3.3-0.1,5c0,0.1,0.2,0.5,0.3,0.5
				c2.3-1.6,4.8-7.4,4.9-10.1c0.1-0.3,0.2-1.5,0.2-1.9c0-0.3-0.2-1.5,0.2-1.5c0.3,0,0.9,0.9,1,1.1c-0.2,0.9,0.6,1.6,0.6,2.3
				c0,2.4-3,6.9-4.3,8.9c0,0.1,0,0.3,0,0.5c-0.3,0.1-0.6,0.3-0.8,0.4c-0.3,0.2-1.9,1.6-1.9,1.9c0,0,0,0,0,0.1
				C52.8,31.7,52.4,32,52,32c-1.4,0-2.8-1.7-2.9-3c-2,1.3-3.5,2.4-3.2,2.6c-0.4,0.2-0.8,0.5-1.3,0.5C43.3,32,41.7,30.1,41.7,28.8z"
				/>
		</g>
		<g class="st1">
			<path class="st0" d="M59,32.7c0-0.4,0.1-0.8,0.2-1.2c-0.1-0.4-0.1-0.8-0.2-1.2c0.1-0.6,0.5-1.9,0.5-2.4c0-2.9,1.7-5.3,1.8-8.1
				c0.5-1.2,0.8-2.4,1.2-3.6v0c0.1-0.4,0.2-0.9,0.4-1.2l1.2-2.3h0c0.2-0.4,1-2.9,1.3-2.9c1.1,0,1.7,1.2,1.9,2.1c0,0,0,0.1,0,0.1
				c0.1,0,0.1-0.1,0.2-0.2l0.3-0.2c0.1,0,0.1,0.1,0.1,0.1l0,0.1c0.2,0.3,0.6,1,0.6,1.3c0,0.8-1.9,5-2.5,5.7v0
				c-0.6,1.5-2,4.5-2.3,5.9c0.8-0.8,1.6-1.8,2.5-2.4h0c0.2-0.1,0.5-0.4,0.7-0.4c0.9-0.5,1.5-0.8,2.6-0.8c1.3,0,2.2,1.1,2.2,2.4
				c0,0.5-0.2,1-0.3,1.5c0,0.3,0.1,0.6,0.1,0.9l-1,2.2c0.1,0.6,0,1.3-0.4,1.8v0c-0.3,0.4-0.9,1.7-0.9,2.2c0,0.3,0.1,0.4,0.4,0.4
				c2.8,0,6.7-9.3,8-9.3c0.2,0,0.3,0.1,0.3,0.3c0,0.4-0.2,0.6-0.4,0.9c-1,1.7-1.9,3.6-3.1,5.2c-0.7,0.8-3,3.8-4,3.8
				c-0.4,0-1.9-0.2-2.2-0.4c-1.1-0.2-1.9-2-1.9-3c0-1.2,0.3-2.3,0.3-3.4c0.2-0.6,1.2-2.9,1.2-3.8c0,0,0-0.1-0.1-0.1
				c-0.6,0.4-2.4,1.9-2.4,2.5c-0.5,0.8-0.9,1.6-1.4,2.3c0.1,0.6,0.1,1.4,0.2,2c-0.5,0.7-0.9,1.4-1.5,2c-0.1,0.4-0.2,1.1-0.6,1.1
				c-0.2,0.2-1.2,1.7-1.3,1.7C59.7,34.2,59,33.3,59,32.7z M64.8,25.6C64.8,25.7,64.8,25.7,64.8,25.6L64.8,25.6z"/>
		</g>
		<g class="st1">
			<path class="st0" d="M82.3,30.5c-0.2-0.7-0.2-1.5-0.3-2.3c0-0.1,0.1-0.2,0.1-0.3l-0.5,0.6c-0.2,0.5-1.4,2.8-2.1,2.9
				c-0.3,0.2-0.8,0.7-1.2,0.7c-2,0-3.9-1.3-3.9-3.5c0-2.7,2.7-7.6,5.3-8.8c0.7-0.5,2.1-1,3-1c0.7,0,2.8,1.3,2.8,2.1
				c0,0.2-0.2,0.4-0.4,0.5c-2-0.4-4.5,1.7-5.2,3.4l-0.7,1.5c-0.2,0.4-0.9,1.8-0.9,2.2c-0.1,0.2-0.2,0.5-0.2,0.6l0,0
				c0.1,0.5,0,1.5,0.7,1.5c0.5,0,1-0.5,1.3-0.8c0.7-0.8,2.5-4.6,2.9-5.7c0.1-0.5,0.5-0.8,0.6-1.2c0-0.5,1.5-0.5,1.8-0.5
				c0.5,0,0.9,0.1,1.3,0.5c0,0,0,0.1,0,0.2c0.2,0.2,0.4,0.3,0.4,0.6c0,0.3-0.5,1.3-0.6,1.7c-0.1,0.6-0.3,1-0.3,1.6
				c0,0.5-0.2,0.9-0.3,1.3C85.8,28.7,85,31,85,31.1c0,0.2,0.4,0.2,0.5,0.2c2.1,0,5-7.8,6-7.8c0.2,0,0.3,0.2,0.3,0.3
				c0,0.1,0,0.2,0,0.4c0,0.2-3.6,5.7-4,6.3c-0.6,1-2,2.2-3.2,2.2C83.6,32.6,82.6,31.4,82.3,30.5z"/>
		</g>
		<g class="st1">
			<path class="st0" d="M91.8,30.7c-0.7-0.6-1.8-1.5-1.8-2.5c0-1.6,0.7-3.8,1.2-5.3l0-0.3c0.6-1.9,0.9-3.9,1.3-5.8
				c-1-0.1-7.2-0.6-7.2-2.3c0-0.1,0.1-0.2,0.3-0.2c0.1,0,0.2,0.1,0.2,0.1l0.5-0.1c2.2,0.9,4.3,0.8,6.6,1.1l0,0.2
				c0.4-1,1.1-2.6,1.3-3.7c0.1-0.6,0.3-4.6,1-4.6c1.1,0,2.3,1.5,2.3,2.5c0,0.2,0,0.4,0,0.6c0.2,0.4,0.3,1.3,0.6,1.6
				c-0.3,1.3-0.7,2.6-1,3.9l2.7,0.1c0.2,0,0.4,0,0.6,0c1.2,0.1,5.2,0.9,5.2,2.7c0,0.3-0.2,0.3-0.4,0.3h-0.2c-0.2-1-4-1.8-4.8-1.8
				c-1.1,0-2.2-0.1-3.3-0.2c-0.4,1.4-0.4,3-0.8,4.4l0.1,0.7c-0.6,1.9-2.2,5.7-2.2,7.6c0,0.3,0,0.6,0.2,0.9c1.1-0.4,4.4-4.4,5-5.6
				c0.2-0.4,1.6-3.1,1.9-3.1c0.1,0,0.2,0.1,0.2,0.2s-0.1,0.2-0.1,0.3c0.7,0.9-5.4,9.5-7.5,9.5C92.7,31.8,92.2,31.4,91.8,30.7z"/>
		</g>
		<g class="st1">
			<path class="st0" d="M110.8,27.6c0-0.3,0-0.6,0-0.9l-0.2-0.2c0.1-1.6,0.5-3.2,0.5-4.8v-0.8c-0.3-0.8-0.5-1.5-0.5-2.3
				c0-0.4,0.1-0.8,0.6-0.8c1,0,3,1.4,3,2.5c0,0.2,0,0.4,0,0.6c0.2,0.3,0.3,0.7,0.5,1.1c0,0.7,0,1.7-0.2,2.3
				c-0.2,0.6-1.1,3.5-1.1,4.2c0,0.1,0,0.3,0.2,0.3c0.7,0,2.2-2.7,2.5-3.3v0c0.1-0.5,0.1-1,0.1-1.5c0,0,0-0.1,0-0.1
				c0.3-1,0.8-2.4,2-2.4c1.2,0,1.6,1.1,1.6,2.1c0,0.3,0,0.6-0.1,0.8c0.5,0.9,0.4,1.1,0.6,1.6c-0.1,0.8-0.6,1.7-0.6,2.5
				c0,0,0.1,0.1,0.1,0.1V29c0,0.1,0,0.3,0,0.5v0c0,0.2-0.1,0.4-0.1,0.6c0,0.2,0.1,0.4,0.3,0.4c1.1,0,2-2.3,2.2-3.2
				c0.6-2.6,1.4-5.4,1.4-8c0-2.9-2.2-2.7-2.3-3.8c-0.3-0.1-0.9-0.1-0.9-0.5c0-0.4,0.5-0.5,0.8-0.5c0.3,0,0.6,0.1,0.9,0.2
				c2.6,0.5,4.3,2.4,4.5,5c0,0.1,0.1,0.1,0.1,0.2l-0.1,0.2c-0.2,2.7-3.4,11.6-6.4,11.6c-2,0-3.5-2.5-3.8-4.3c-0.2,0.1-1,1.7-1,1.9
				c0,0.3,0.1,0.6,0.1,0.9c0,0.7-2,1.6-2.7,1.6C111,31.5,110.8,29,110.8,27.6z"/>
		</g>
		<g class="st1">
			<path class="st0" d="M128.8,32.7c-0.9-0.4-1.4-1.3-1.6-2.3c-0.2-0.2-0.3-0.5-0.3-0.8c0-3.8,0.3-6.3,3-9.3
				c0.3-0.3,1.1-1.3,1.4-1.3c0.4-0.3,0.5-0.5,1-0.5l0.5,0c0.3,0,0.8-0.5,1-0.3c0.2-0.1,0.3-0.1,0.5-0.1c1.3,0,2.9,0.8,2.9,2.3
				c0,2.7-3.9,6.2-6.2,7.2c-0.4,0.4-0.4,1.4-0.4,1.9c0,1.1-0.2,2.2,1.3,2.2c1.6,0,4.4-2.5,5.2-3.7c0.5-0.6,1-1.3,1.4-2
				c0.3-0.4,1.2-2,1.6-2.2c0.2-0.1,0.3-0.1,0.5-0.1l0.1-0.1c0.1,0,0.1,0.3,0.1,0.3c0,0.4-0.5,1-0.7,1.3c-0.4,0.5-0.8,1.1-1.1,1.7
				c-0.1,0.1-0.1,0.3-0.2,0.5c-0.6,0.8-1.3,1.6-1.9,2.4c-1,1.3-3.6,3.4-5.2,3.4C130.7,33.4,129.5,33.2,128.8,32.7z M135.7,21.1
				l-0.3-0.3c-1.1,0.3-3.2,4.3-3.5,5.3C133.3,25.5,135.6,22.8,135.7,21.1z"/>
		</g>
		<g class="st1">
			<path class="st2" d="M57.2,91.3l-1.3-3.1c-1.1-2.6-1.4-3.2-2.3-3.2c-3.1,0-3.9,8.4-23.6,8.4c-15.9,0-27.4-5.3-27.4-23.6
				c0-18.1,11.3-29.6,29.9-29.6c5,0,12.4,0.8,17.9,4.8l2.1-3.7h0.9c0.2,6.1,0.5,12.1,1,18.2H53c-1.2-9.1-6.7-17.7-20.6-17.7
				c-8.8,0-9.1,3.6-9.1,26.9c0,16.4,0.1,22.9,7.7,22.9c4,0,7.3-1.9,7.7-9l0.7-10.9c0.2-3.2-1.1-4.1-4.1-4.1v-1.2h25.9v1.2
				c-4.3,0-4.3,1.3-4.1,3.7l1.2,19.9H57.2z"/>
		</g>
		<g class="st1">
			<path class="st2" d="M61.8,92.6v-1.3c2.5,0,3.2-0.7,3.4-3.7l2.5-41.2c0.2-3.5-1-4.4-4.2-4.4v-1.2h42.3l1.1,16.8l-1.5,0.1
				c-0.3-10.7-5.8-15.2-13.6-15.2h-4.6c-4.1,0-4.4,0.9-4.2,4.3l1,17.7h5.6c3,0,6.5-1.6,6.5-8.8c0-1-0.1-2.3-0.1-2.3h1.4
				c0.1,7.8,0.5,15.6,0.8,23.4h-1.4c-0.1-1.5-0.1-2.9-0.3-4.3c-0.6-3.9-2.2-6.3-6.8-6.3h-5.4l1.2,21.2c0.1,3,0.8,3.6,3.4,3.6h5
				c7.6,0,12-6.7,12.1-15.7h1.4l0.8,17.4H61.8z"/>
		</g>
		<g class="st1">
			<path class="st2" d="M119.6,92.6v-1.3h0.3c2.5,0,2.8-1,3-4.1l2.5-40.5c0.2-3.8-0.1-4.3-3-4.3c-7.3,0-12.4,5.8-12.6,15.6l-1.5-0.1
				l1-17.2h47.4l1.1,17.2l-1.5,0.1c-0.3-9.8-5.4-15.6-12.6-15.6c-2.9,0-3.2,0.5-3,4.3l2.4,40.5c0.2,3,0.5,4.1,3,4.1h0.3v1.3H119.6z"
				/>
		</g>
	</g>
</g>
</svg>
