<?xml version="1.0" encoding="utf-8"?>
<!-- Generator: Adobe Illustrator 21.1.0, SVG Export Plug-In . SVG Version: 6.00 Build 0)  -->
<!DOCTYPE svg PUBLIC "-//W3C//DTD SVG 1.1//EN" "http://www.w3.org/Graphics/SVG/1.1/DTD/svg11.dtd">
<svg version="1.1" id="Layer_1" xmlns="http://www.w3.org/2000/svg" xmlns:xlink="http://www.w3.org/1999/xlink" x="0px" y="0px"
	 viewBox="0 0 298.4 50" style="enable-background:new 0 0 298.4 50;" xml:space="preserve">
<style type="text/css">
	.st0{fill:#646569;}
	.st1{fill:#77BC1F;}
	.st2{fill:url(#SVGID_1_);}
	.st3{fill:url(#SVGID_2_);}
</style>
<g>
	<g>
		<g>
			<path class="st0" d="M70.2,30h-7.4v11.7h-6.6V6H71c8.7,0,14.2,4.7,14.2,11.9C85.2,25.9,78.5,30,70.2,30 M70.5,11.6h-7.6v12.8h7.6
				c5,0,8.1-2.6,8.1-6.4C78.5,13.8,75.4,11.6,70.5,11.6"/>
			<path class="st0" d="M93.7,41.7h-6.5V14.9h6.5v6c1.8-4,5-6.7,10-6.5v6.5h-0.4c-5.7,0-9.6,3.5-9.6,10.6V41.7z"/>
			<path class="st0" d="M117.7,42.3c-8.6,0-15-6.2-15-13.9c0-7.7,6.4-14,15.1-14c8.7,0,15,6.2,15,13.9
				C132.8,36,126.4,42.3,117.7,42.3 M117.7,19.7c-5.2,0-8.5,3.9-8.5,8.6c0,4.8,3.6,8.7,8.6,8.7c5.2,0,8.6-3.9,8.6-8.6
				C126.4,23.6,122.8,19.7,117.7,19.7"/>
			<path class="st1" d="M169.5,41.7h-6.9l-3.8-8.6H141l-3.8,8.6h-6.7L146.9,6h6.1L169.5,41.7z M149.9,13.4l-6.4,14.2h12.9
				L149.9,13.4z"/>
			<path class="st1" d="M201.7,14.4c6.1,0,9.9,3.7,9.9,10.2v17.1h-6.5V26.5c0-4.3-2.1-6.5-5.7-6.5c-3.5,0-6,2.3-6,6.6v15.1h-6.5
				V26.4c0-4.2-2.1-6.5-5.7-6.5c-3.6,0-6,2.5-6,6.7v15.1h-6.5V14.9h6.5V19c1.8-2.4,4.3-4.6,8.6-4.6c4.1,0,6.9,1.9,8.4,4.7
				C194.4,16.2,197.4,14.4,201.7,14.4"/>
			<path class="st1" d="M230.2,42.2c-4.7,0-7.6-2.2-9.6-4.7v12.3h-6.5V14.9h6.5v4.5c2.1-2.8,5-5,9.6-5c6.7,0,13.2,5,13.2,13.9
				C243.4,37.2,237,42.2,230.2,42.2 M228.7,19.7c-4.4,0-8.2,3.4-8.2,8.6c0,5.2,3.8,8.6,8.2,8.6c4.4,0,8.1-3.3,8.1-8.6
				C236.8,23,233.1,19.7,228.7,19.7"/>
			<path class="st1" d="M263.8,41.7v-3.3c-1.9,2.2-4.9,3.9-9.1,3.9c-5.3,0-10.1-2.9-10.1-8.3v-0.1c0-5.8,4.9-8.6,11.4-8.6
				c3.4,0,5.6,0.5,7.8,1.1v-0.7c0-3.7-2.5-5.7-6.9-5.7c-3.2,0-5.5,0.7-8.1,1.7l-1.8-4.9c3.1-1.3,6.1-2.2,10.7-2.2
				c8.3,0,12.4,4.2,12.4,11.3v15.9H263.8z M264,30.3c-1.7-0.6-4-1.1-6.5-1.1c-4.1,0-6.5,1.6-6.5,4.3v0.1c0,2.5,2.4,4,5.5,4
				c4.3,0,7.5-2.3,7.5-5.6V30.3z"/>
			<path class="st1" d="M286.8,42.3c-8.4,0-14.6-6.2-14.6-13.9c0-7.7,6.2-14,14.6-14c5.3,0,8.7,1.9,11.3,4.6l-4,4.1
				c-2-2-4.1-3.3-7.3-3.3c-4.7,0-8.1,3.9-8.1,8.6c0,4.8,3.5,8.7,8.4,8.7c3,0,5.3-1.4,7.3-3.3l3.9,3.6
				C295.5,40.2,292.3,42.3,286.8,42.3"/>
		</g>
		
			<linearGradient id="SVGID_1_" gradientUnits="userSpaceOnUse" x1="-242.6392" y1="331.2275" x2="-241.9038" y2="331.2275" gradientTransform="matrix(20.718 20.9406 20.9406 -20.718 -1895.4465 11946.2246)">
			<stop  offset="0" style="stop-color:#77BC43"/>
			<stop  offset="0.1451" style="stop-color:#77BC43"/>
			<stop  offset="0.3283" style="stop-color:#6FB743"/>
			<stop  offset="0.615" style="stop-color:#59A843"/>
			<stop  offset="0.9624" style="stop-color:#359044"/>
			<stop  offset="1" style="stop-color:#359044"/>
		</linearGradient>
		<path class="st2" d="M1.9-0.2c-1.9,0-2.4,1.1-1,2.5l13.9,13.9l7.9,7.9L34.9,12l-9.7-9.7c0,0,0,0,0,0C25,2.1,24.9,2,24.7,1.8
			c-1.4-1.1-3.7-2-7-2H1.9z"/>
		<g>
			
				<linearGradient id="SVGID_2_" gradientUnits="userSpaceOnUse" x1="-247.4037" y1="330.9906" x2="-246.6684" y2="330.9906" gradientTransform="matrix(-2.100000e-06 -49.5434 -49.5434 2.100000e-06 16421.5762 -12207.5771)">
				<stop  offset="0" style="stop-color:#007CBA"/>
				<stop  offset="0.1108" style="stop-color:#0084C1"/>
				<stop  offset="0.5388" style="stop-color:#009DD8"/>
				<stop  offset="0.7956" style="stop-color:#00A7E0"/>
				<stop  offset="1" style="stop-color:#00A7E0"/>
			</linearGradient>
			<path class="st3" d="M1.9,48.5h15.7c3.7,0,6.1-1.1,7.5-2.5l10.2-10.2l5.8-5.8l2.5-2.5l2.1-2.1c0.1-0.1,0.2-0.3,0.3-0.4
				c0.3-0.5,0.3-1.2,0-1.7c-0.1-0.1-0.2-0.3-0.3-0.4l-0.6-0.6l-9.1-9.1L35,12.1L34.9,12l0,0l-34,34c-0.8,0.8-1,1.5-0.6,1.9
				C0.5,48.2,1.1,48.5,1.9,48.5z"/>
		</g>
	</g>
</g>
</svg>
