<?xml version="1.0" encoding="UTF-8"?>
<svg id="Layer_2" data-name="Layer 2" xmlns="http://www.w3.org/2000/svg" viewBox="0 0 88.18 191.61">
  <defs>
    <style>
      .cls-1, .cls-2 {
        fill: #92b8a3;
      }

      .cls-3 {
        fill: #579374;
      }

      .cls-3, .cls-4, .cls-5, .cls-6, .cls-2, .cls-7 {
        fill-rule: evenodd;
      }

      .cls-4 {
        fill: #e3746d;
      }

      .cls-5 {
        fill: #dba510;
      }

      .cls-6 {
        fill: #b4393e;
      }

      .cls-7 {
        fill: #fff;
      }
    </style>
  </defs>
  <g id="Layer_7" data-name="Layer 7">
    <path class="cls-2" d="M88.18,131.02c-1.41-2.93-11.89-17.66-13.56-20.44-.06-3.1-.28-5.96-.62-8.64,3.17-5.92,1.66-14.22-.77-21.94-2.08-6.65-7.95-15.23-9.48-14.71-2.02,.68-1.25,11.21,.31,17.12,2.03,7.66,8.33,16.17,8.8,19.16,.37,2.38,.64,4.78,.74,7.62-3.42-5.25-7.73-10.12-12.31-13.76-1.3-2.28-2.47-4.42-4.1-6.26-4.49-9.31-9.95-16.08-15.81-20.27-6.41-4.57-16.29-8.04-17.25-6.68-.98,1.39,6.3,7.58,11.3,12.53,5.54,5.5,14.04,11.14,20.7,14.91,1.14,1.39,2.24,2.92,3.28,4.69-5.26-3.66-10.55-6.23-16.05-7.65-5.42-2.77-12.56-4.05-20.72-3.72C11.72,83.41-.13,86.09,0,87.96c.13,1.89,9.84,4.54,19.83,5.06,7.48,.39,15.52-1.69,23.28-5.22,8.35,2.02,18.62,8.64,21.96,12.61-2.03-.22-4.55-.34-7.06,.21-4.09-4.1-14.41-1.74-21.88,.65-6.64,2.12-16.15,5.61-15.82,7.65,.34,2.13,11.71,1.93,18.55,.38,7.98-1.81,14.42-3.57,18.62-7.4,2.09-.62,5.43-.72,8.69-.39,2.26,2.37,4.61,5.22,6.78,8.57,2.36,3.65,13.42,22.2,15.22,25.96v-5.03Z"/>
    <g>
      <path class="cls-3" d="M60.86,163.53c1.2-1.26,2.71-3,3.61-5.03,4.97-.44,8.61-8.85,10.77-15.31,1.92-5.75,4.36-14.25,2.76-15.19-1.66-.99-7.36,6.89-9.78,12.45-2.83,6.48-4.9,11.89-4.37,16.96-.64,1.79-2.28,4.12-4.18,6.16l1.2-.03Z"/>
      <g>
        <path class="cls-5" d="M29.43,136.05c-.36-.85-.77-2.54-1.26-2.4-.52,.07,.02,1.3,.24,1.95-.58-.74-1.55-2.03-2-1.77-.41,.24,.65,1.43,1.17,2.05-.71-.52-2-1.48-2.19-1-.22,.56,1.66,1.63,2.69,2.38-1.09-.37-2.83-1.37-2.96-.5-.1,.65,1.9,1.2,2.48,1.27l1.83-1.98Z"/>
        <path class="cls-5" d="M20.78,151.08c-.66-.64-1.72-2.02-2.11-1.7-.45,.27,.53,1.18,1,1.7-.83-.45-2.23-1.25-2.54-.83-.28,.38,1.16,1.05,1.89,1.42-.86-.2-2.43-.57-2.41-.05,.02,.6,2.17,.84,3.41,1.11-1.15,.1-3.14-.13-2.92,.71,.17,.64,2.22,.35,2.78,.18l.9-2.54Z"/>
        <path class="cls-5" d="M18.4,165.91c-.85-.34-2.35-1.24-2.59-.8-.31,.41,.93,.9,1.56,1.2-.94-.11-2.54-.33-2.67,.18-.12,.46,1.47,.54,2.28,.61-.87,.14-2.47,.38-2.26,.85,.24,.55,2.32-.03,3.59-.24-1.03,.52-2.97,1.04-2.45,1.75,.39,.53,2.19-.5,2.65-.86l-.11-2.69Z"/>
        <path class="cls-6" d="M25.17,159.29c-1.72-.68-4.05-2.5-5.13-4.48-.81-1.79-.6-3.34,.83-4.62,2.52-1.84,7.58-1.01,10.41-.23,1.68,.47,3.12,1.16,4.16,2.65,1.49,2.13-.11,5.49-2.49,6.98-2.04,1.28-4.49,.99-7.78-.3Z"/>
        <path class="cls-6" d="M33.16,170.28c-3.57,2.76-11.57,2.16-14.73-.96-1.13-1.1-1.29-3.23,0-4.33,1.09-.92,2.72-1.59,4.04-1.99,3.06-.95,7.82-1.78,10.65,.29,2.47,1.78,2.49,5.09,.04,6.99Z"/>
        <path class="cls-6" d="M42.27,144.99h0c-.16,2.18-2.51,3.71-4.18,4.65-4.54,2.56-10.11-4.78-10.87-10.93-.09-1.15,.35-1.86,1.11-2.43,3.26-2.43,14.25,4.22,13.93,8.71Z"/>
        <path class="cls-4" d="M27.93,163.58c1.39-.11,3.28-.02,3.81,1.62,.73,2.26-6.56,2.67-7.01,.32-.36-1.87,2.04-1.83,3.2-1.95Z"/>
        <path class="cls-4" d="M25.05,150.19c-.48,.06-.82,.49-.96,.98-.71,2.5,7.62,5.41,8.78,2.61,1.35-3.21-5.72-3.84-7.82-3.6Z"/>
        <path class="cls-4" d="M33.24,140.59c-.17-.42,.01-.96,.34-1.37,1.64-2.1,8.19,2.84,6.53,5.48-.53,.83-1.65,1.29-2.35,1.12-1.84-.46-3.97-3.9-4.52-5.22Z"/>
        <path class="cls-3" d="M41.47,148.6c.12,.14,.24,.27,.37,.39,1.07,1.04,2.13,2.09,3.08,3.24,1.31,1.55,2.9,3.92,2.86,6.12,1.76,.23,3.7,1.44,5.24,2.07,2.73,1.1,5.67,1.7,8.33,3,.52,.26,.13,.93-.36,.86-4.01-.59-9.18-2.28-13.01-4.34-.09,1.97-2.61,3.61-4.1,4.53-2.23,1.4-5.06,2.37-7.81,2.39-.27,.63-.94,1.19-1.41,1.16-1.43-.28-1.14-2.94-.23-3.18,.45,0,1.1,.44,1.47,.97,2.14-.03,4.23-.49,6.22-1.46,1.65-.8,4.93-2.57,4.88-4.74-2.36,.99-8.17,.3-11.1-1.55-.4,.29-.92,.38-1.41,.05-1.11-.94,.45-3.13,1.36-2.89,.64,.35,.86,.92,.81,1.47,2.08,.94,4.25,1.56,6.53,1.85,1.54,.2,3.17,.3,3.5-.02-.34-.88-.63-1.77-1.04-2.61-.65-1.29-1.6-2.39-2.54-3.47-.85-.97-1.8-1.87-2.71-2.79l-.12-.11c-.63,.05-1.32-.11-1.55-.39-.41-.66,.13-1.48,.8-1.96,1.7-1.21,2.23,.3,1.95,1.42Z"/>
      </g>
    </g>
    <path class="cls-7" d="M55.51,182.65c1.47-1.31,2.74-2.4,4.37-3.13,.48-.22,.95,.45,.41,.8-1.38,.91-2.31,1.68-3.5,2.64,1.98,.14,3.77,.16,5.01,.63,.58,.22,.62,1.21-.28,1.17-1.72-.1-3.67-.22-5.63-.19,1.18,1.99,1.97,3.38,2.41,4.57,.12,.31,.03,.75-.21,.86-.25,.11-.58,.1-.78-.16-.46-.58-.94-1.28-2.21-3.67,0,1.95-.06,3.62-.45,4.94-.19,.64-1.12,.69-1.2-.08l-.05-5.33c-.68,.44-2.87,2.82-3.42,2.26-.66-.67,2.52-2.83,2.99-3.17-1.4-.02-2.32,.16-4.42,.29-.74,.04-.83-.95-.16-1.16,1.65-.51,3.04-.68,5.11-.79-1.15-1.32-1.69-2.15-2.12-3.45-.12-.37,0-.66,.23-.77,.28-.15,.66,0,.98,.53,.38,.65,.86,1.27,1.53,2.13,.08-1.12,.14-2.38,.46-2.74,.29-.32,.81-.42,1.01,.25,.12,.4,0,2.31-.06,3.56Z"/>
    <path class="cls-7" d="M16.37,35.45c.18-.05,.33-.15,.42-.32h0c.06-.11,.08-.22,.07-.32h0c-.01-.12-.06-.22-.13-.31-.03-.07-.08-.14-.14-.2-.09-.09-.21-.15-.33-.18-.12-.03-.26-.02-.38,.03-.06,.02-.11,.06-.16,.1-1.05,0-2.1,.04-3.14,.1l-.54,.03c-.01-.16-.05-.32-.1-.48-.05-.16-.13-.31-.22-.45l.26-.28c1.01-1.08,2.03-2.17,2.77-3.43,.05,0,.09-.02,.14-.04,.05-.02,.1-.06,.14-.11h0s0,0,0,0c0,0,.01-.01,.02-.02,.15-.12,.25-.3,.29-.47,.02-.08,.02-.17,0-.25-.02-.08-.05-.16-.1-.22h0s0,0,0,0c-.09-.11-.22-.19-.41-.23-.14-.03-.26,0-.37,.06-.1,.06-.17,.14-.22,.24-.04,.01-.09,.02-.13,.04-.06,.03-.11,.07-.15,.13-.06,.08-.08,.18-.07,.28h0c0,.09,.04,.18,.09,.26-.62,.94-1.41,1.75-2.19,2.56-.27,.28-.55,.57-.81,.85-.04-.02-.08-.04-.12-.05-.04-.02-.08-.03-.13-.04-.05-.65-.09-1.3-.15-1.94-.05-.65-.11-1.3-.16-1.95,.05-.04,.08-.1,.1-.16,.02-.06,.02-.14,0-.21,.02-.26-.14-.48-.35-.62h0c-.08-.05-.17-.09-.26-.12-.09-.02-.18-.03-.27-.01-.15,.03-.26,.12-.32,.29-.06,.04-.11,.08-.14,.14-.04,.06-.07,.14-.08,.23-.02,.17,.03,.31,.13,.41h0c.09,.1,.22,.17,.36,.2,.05,.63,.09,1.25,.14,1.87,.04,.64,.08,1.25,.12,1.86-.02,0-.04,.01-.07,.02-.04,.01-.09,.03-.13,.05-.06,.02-.13,.05-.18,.08h0s-.08,.04-.12,.07c-.57-.62-1.16-1.22-1.75-1.83-.39-.4-.78-.8-1.18-1.22,.02-.06,.04-.12,.04-.18,0-.08,0-.16-.03-.24-.05-.13-.14-.23-.24-.3-.11-.07-.25-.11-.39-.11-.1-.03-.21-.04-.31-.03-.1,.01-.19,.05-.27,.12h0s0,0,0,0c-.02,.02-.03,.04-.05,.06h0c-.06,.05-.12,.09-.16,.14h0c-.05,.06-.08,.12-.11,.18h0s0,0,0,0c-.02,.05-.01,.11,0,.16h0c.02,.06,.06,.11,.1,.15,.03,.02,.06,.05,.09,.07h0s.07,.04,.1,.06c.02,0,.04,.02,.06,.02h.02c.09,.1,.2,.18,.32,.23,.1,.04,.21,.06,.32,.04,.75,.85,1.54,1.7,2.33,2.54l.57,.61c-.1,.16-.16,.33-.2,.5-.04,.18-.04,.36-.02,.54-.62,.01-1.25,.01-1.86-.03-.63-.04-1.24-.13-1.8-.28-.03-.12-.08-.23-.16-.34h0c-.08-.11-.2-.21-.33-.28-.12-.06-.24-.09-.35-.1-.14,0-.27,.02-.38,.09-.11,.06-.2,.15-.26,.27-.05,.09-.07,.19-.08,.29h0s0,.06,0,.09h0s0,.05,.01,.08c0,.05,0,.1,.01,.15,.01,.05,.03,.11,.06,.16h0s0,0,0,0h0c.06,.12,.17,.22,.29,.3,.13,.08,.28,.15,.44,.17,.16,.02,.32,0,.45-.07,.07-.04,.14-.1,.19-.18h0s.02-.03,.02-.03c.58,.2,1.23,.3,1.91,.34,.68,.05,1.38,.04,2.03,.02,.01,.03,.03,.06,.04,.09h0s0,0,0,0c.02,.04,.04,.08,.07,.12l.02,.07v.03c-.21,.29-1.11,1.42-1.89,2.34-.31,.36-.59,.69-.81,.93-.19,.2-.28,.35-.29,.34-.16-.14-.46-.12-.71,0-.1,.05-.2,.11-.28,.2-.08,.08-.14,.18-.18,.29-.07,.24-.01,.54,.31,.86,.17,.17,.44,.24,.68,.21,.13-.02,.25-.06,.35-.12,.11-.07,.2-.16,.25-.28,.07-.17,.08-.38-.02-.63,.19-.16,.67-.66,1.19-1.24,.79-.87,1.71-1.91,1.96-2.22,.09,.06,.19,.11,.29,.15h0c.11,.04,.22,.07,.33,.09,.05,.65,.11,1.31,.17,1.96,.06,.65,.13,1.3,.21,1.95h0s0,0,0,0c-.18,.05-.31,.17-.39,.31h0c-.08,.16-.1,.36-.07,.54,.03,.17,.11,.32,.22,.44,.1,.11,.23,.2,.36,.25,.14,.05,.29,.07,.44,.04,.14-.02,.28-.09,.4-.2,.07-.06,.12-.13,.16-.2,.09-.15,.11-.31,.08-.47-.03-.15-.11-.3-.22-.42-.07-.08-.15-.15-.25-.2-.04-.68-.08-1.37-.12-2.05-.04-.62-.08-1.3-.13-2.04,.05-.02,.09-.04,.14-.06h0s.08-.05,.12-.07c.41,.48,.83,.97,1.27,1.42,.45,.46,.92,.88,1.43,1.22-.02,.12,0,.26,.06,.37,.06,.13,.16,.24,.3,.32h0s.06,.03,.08,.04c.02,.01,.05,.02,.08,.03,.1,.06,.22,.1,.34,.1,.11,0,.22-.04,.3-.12h.01c.07-.05,.13-.1,.18-.16h0c.05-.07,.09-.15,.11-.24,.04-.2,.02-.43-.08-.63-.09-.16-.23-.29-.44-.35-.12-.03-.22-.03-.32-.01-.09,.02-.17,.05-.24,.1-.67-.47-1.27-1.15-1.83-1.79-.2-.22-.39-.44-.58-.64h0s-.1-.12-.1-.12h0s-.06-.07-.06-.07c.05-.08,.1-.17,.14-.27,.04-.09,.07-.19,.1-.29h.31c1.07-.06,2.15-.11,3.23-.11,.01,.08,.04,.16,.08,.23h0c.05,.09,.12,.16,.22,.21h0c.17,.09,.37,.11,.54,.06h0Zm-.73-.38h0s0,0,0,0h0Zm-5.44-7.09h0s0,0,0,0Z"/>
    <path class="cls-1" d="M88.18,63.9v1.48c-2.81,1.5-5.88,3.09-7.51,3.83-.68,.31-1.7,.87-1.91,.34-.28-.71,.75-1.15,1.31-1.45,2.03-1.09,5.3-2.76,8.11-4.21Zm-6.97,.44c-1.59,.63-3.2,1.16-4.77,1.85-.54,.24-.68,.52-.6,.85,.16,.65,1.03,.39,1.31,.27,2.08-.82,4.17-1.58,6.22-2.51,1-.46,2.92-1.37,4.81-2.25v-1.36c-2.5,1.17-5.45,2.55-6.97,3.15Zm1.73,9.38c-.46,.2-.73,.46-.72,.81,.01,.34,.3,.59,.65,.47,.62-.2,1.15-.42,1.74-.69-.44,.33-.89,.66-1.28,1.05-.58,.58-.54,.99-.34,1.2,.18,.19,.47,.25,.84-.05,.56-.45,1.15-.95,1.85-1.47,.84-.62,1.67-1.25,2.49-1.92v-1.69c-1.82,.67-3.54,1.54-5.24,2.27Zm.57-3.76c-.54,.39-1.43,1.08-1.98,1.66-.17,.19-.16,.53,.02,.73,.17,.19,.43,.12,.66,0,.65-.33,1.41-.91,1.9-1.26,.96-.69,2.47-1.74,4.07-2.85v-1.57c-1.64,1.13-3.31,2.3-4.67,3.29Zm2.63-10.97c-.78,.44-1.58,.85-2.38,1.24,1.05-.77,2.11-1.55,3.17-2.3,.43-.31,.85-.62,1.26-.95v-1.59c-.74,.61-1.54,1.22-2.28,1.74-2.63,1.87-5.23,3.77-7.94,5.57-.91,.34-1.81,.68-2.72,1-.31,.11-.85,.25-1.33,.44-.55,.22-.99,.56-.88,.98,.08,.34,.35,.45,.53,.43,.23-.03,.43-.1,.55-.13-.25,.39,.08,.96,.61,.86,.73-.13,3.15-2.01,3.73-2.39,3.2-1.2,6.33-2.61,9.33-4.4,.13-.08,.26-.15,.4-.23v-1.43c-.68,.39-1.37,.78-2.05,1.16Zm.25,17.55c-.25,.15-.5,.3-.75,.45-.26,.03-.58,.13-.73,.44h0c-.16,.1-.32,.2-.48,.29-.4,.25-.44,.7-.27,.99,.14,.24,.42,.37,.77,.18,.29-.16,.57-.34,.86-.51,.52-.07,1.04-.29,1.59-.36,.27-.03,.54-.07,.81-.1v-2.48c-.67,.41-1.28,.79-1.8,1.11Zm.9,4.33s0,0-.01,0c-.12,.01-1.29,.04-1.7,0-.42-.04-.68,.19-.76,.47-.09,.31,.05,.61,.47,.73,.73,.22,1.74,.28,2.91,.21v-2.16c-.29,.25-.59,.5-.89,.74Zm.89-29.28v2.61c-.7,.42-1.35,1.03-2.07,1.48-2.38,1.46-4.66,2.97-7.03,4.36-1.72,1-3.5,1.83-5.12,2.94-.17,.11-.9,.65-1.28,.09-.29-.42,.3-.92,.46-1.03,.86-.6,1.75-1.14,2.66-1.63,1.71-.91,3.4-1.87,5.05-2.9,2.05-1.29,4.14-2.52,6.12-3.97,.17-.12,.34-.25,.51-.36-.25-.31-.51-.61-.76-.91-1.71,.64-3.37,1.45-5.01,2.31-3.51,1.84-6.88,3.68-10.46,5.32-.23,.1-1.31,.61-1.57,.03-.23-.53,.74-1.03,.91-1.12,1.03-.51,2.06-1.04,3.12-1.53,3.94-1.79,7.64-4.19,11.64-5.84,.16-.07,.32-.14,.48-.2-.31-.36-.61-.71-.92-1.06-3.87,1.39-11.91,4.87-12.17,4.97-.79,.74-2.61,2.45-3.62,3.34-.36,.32-1.23,1.06-1.57,.56-.36-.53,.34-1.17,.55-1.36,.51-.49,1.26-1.08,1.45-1.25-.5,.21-.99,.45-1.5,.65-.15,.06-.96,.4-1.16-.1-.2-.49,.29-.84,.46-.95,.21-.14,.44-.26,.56-.31,1.31-.59,2.81-1.19,4.24-1.71,.07-.07,.15-.13,.22-.2,2.02-1.78,7.66-7.2,8.66-7.89-.3-.31-.59-.62-.89-.93-.1,.55-12.18,9.39-14.93,11.07-.14,.08-.96,.61-1.23,.04-.28-.59,.43-1.02,.61-1.14,2.62-1.77,14.01-9.9,14.69-10.84-.23-.23-.46-.46-.69-.69-.16,.13-.34,.26-.51,.39-1.6,1.34-3.31,2.55-5.08,3.59-1.7,1-3.36,1.97-5.04,2.87-1.18,1.08-5.25,4.35-6.08,4.47-.11,.02-.46,0-.59-.33-.12-.31,0-.71,.4-.93,.31-.16,1.23-.82,1.42-.95-.18,.07-.36,.14-.55,.21-.49,.18-.91,.42-1.45,.45-.32,.02-.49-.18-.51-.46-.02-.29,.15-.64,.54-.79,0,0,4.52-1.84,6.19-2.74,2.64-2.36,5.08-4.97,7.5-7.58,.28-.31,.55-.68,.8-1.03l-.04-.04-.07-.07c-.27,.21-3.82,2.77-5.34,3.79-2.02,1.35-3.95,2.97-6.08,4.18-1.85,1.04-3.61,2.27-5.52,3.03-.4,.16-.83,.24-1.04-.19-.21-.43,.2-.89,.8-1.08,.93-.46,1.81-.92,2.68-1.43,1.85-1.1,3.7-2.11,5.41-3.37,2.69-1.99,5.51-3.73,8.17-5.78l-.06-.05-.02-.02c-.11,.08-2.27,1.13-3.28,1.52-3.1,1.21-6.22,2.47-9.45,3.26-.41,.1-.84,.21-1.28,.32-.4,.25-.81,.5-1.21,.75-1.32,.82-2.64,1.39-3.99,2.06-.36,.18-1.21,.55-1.42-.08-.22-.65,.65-.93,1.16-1.17,.39-.18,.78-.36,1.16-.56-.92,.17-1.8,.39-2.58,.29-.36-.04-.53-.39-.52-.71,0-.28,.26-.57,.54-.58,.66-.03,4.65-.81,6.58-1.27,3.58-2.15,7.1-4.55,10.41-7.22-.74-.62-1.49-1.22-2.25-1.82-.22,.25-.45,.49-.69,.7-3.01,2.63-6.4,4.56-9.78,6.53-1.67,.97-3.31,2.01-5.07,2.76-.47,.2-.97,.43-1.36,.47-.32,.03-.49-.23-.57-.5-.14,.15-.24,.24-.24,.24-.49,.55-1.14-.2-1-.63-.21-.08-.36-.27-.41-.51-.01-.06-.01-.11-.01-.17,.02-.45,.42-.88,.47-.97-.21,.08-.8,.47-1.08,.48-.31,.02-.51-.14-.55-.46-.02-.15,.04-.32,.04-.32,.24-.65,2.06-1.36,2.4-1.57,.56-1.28,1.24-2.49,1.86-3.73,1.34-2.69,4.11-10.03,4.12-10.1-.64-.33-1.27-.65-1.92-.96-.34,.7-4.68,10.6-7.18,14.27-.21,.31-.42,.64-.81,.77-.19,.06-.38,0-.52-.3-.14-.31,.19-.88,.39-1.19,2.34-3.64,6.77-13.29,7.07-14.03-.03-.01-.06-.03-.09-.04h0c-.57,.81-5.34,6.02-7.1,7.84-1.27,1.31-2.46,2.7-3.83,3.85-.15,.12-.84,.76-1.44,1.1-.39,.23-.72,.32-.86,.1-.17-.28-.06-.61,.21-.92,.23-.28,.73-.62,1.31-1.2,.49-.49,1.03-.97,1.52-1.48,1.46-1.53,2.94-3.02,4.37-4.57,1.45-1.56,4.55-5.08,4.71-5.24-1.07-.5-2.15-1.02-3.22-1.55-.04,.04-1.17,.86-1.67,1.28-1.12,.95-2.28,1.81-3.48,2.59-2.72,1.77-5.51,3.41-8.49,4.5-.13,.05-.88,.33-1.53,.38-.5,.04-.93-.05-.95-.48-.01-.23,.23-.41,.52-.55,.33-.16,.72-.25,.84-.29,2.89-1.06,5.62-2.47,8.21-4.15,.89-.57,1.78-1.14,2.63-1.77,.83-.62,1.58-1.34,2.41-1.95,.08-.06,.17-.12,.25-.17-1.24-.61-2.48-1.21-3.73-1.8-.4,.19-.85,.27-1.28,.39-2.51,.64-4.97,1.34-7.48,1.93-.56,.13-1.13,.21-1.68,.36-1.05,.28-2.1,.4-3.16,.61-.51,.1-1,.25-1.51,.24-.26-.01-.58-.12-.59-.39,0-.36,.36-.65,.96-.8,.67-.17,5.07-1.09,6.25-1.39,2.35-.59,4.62-1.01,6.81-1.71-.95-.43-1.91-.83-2.88-1.22-2.69-1.06-5.45-1.88-8.23-2.53-.85-.23-1.07-.61-1.04-.97,.04-.47,.49-.73,.86-.65,1.65,.36,3.21,.68,4.85,1.17,3.68,1.11,7.2,2.73,10.71,4.42-.32-.5-.64-1-.96-1.52-1.95-3.16-4.42-6.17-6.85-8.69-.91-.94-1.81-1.82-2.68-2.61-.32-.35-.72-.73-.53-1.11,.24-.5,.77-.23,1.23,.17,.35,.31,1.97,1.81,2.65,2.47,2.58,2.52,4.82,5.44,6.79,8.58,.68,1.08,2.22,3.55,2.24,3.63,.24,.11,.48,.23,.71,.35-.41-1.48-.76-2.93-1.29-4.31-1.57-4.1-2.99-8.23-4.92-12.13-.09-.19-.4-.83,.07-1.13,.41-.26,.71,.15,.83,.39,1.67,3.36,2.95,6.89,4.29,10.45,.65,1.73,1.37,3.47,1.84,5.27,.05-.72,.1-1.44,.12-2.17,.01-.63,.02-1.25,.01-1.88-.46-2.22-1.02-4.39-1.69-6.54-.58-1.85-1.06-3.72-1.73-5.52-.25-.69-.43-1.25-.43-1.25-.06-.27-.21-.76,.19-.95,.42-.19,.73,.29,.8,.46,.76,2.02,1.31,4.03,1.96,6.04,.26,.8,.5,1.61,.73,2.41,.06-1.47-.57-9.24-.65-9.71-.04-.23,.04-.75,.39-.76,.26-.01,.47,.4,.54,.83,.32,1.85,1.15,14.03,.99,14.73,.45,2.08,.84,4.17,1.18,6.27,.06,.37,.12,.76,.15,1.11,.62,.28,1.23,.56,1.85,.86,.02-.11,1.1-6.16,1.38-9.14,.32-3.41,.53-6.89,.37-10.36h0c0-.15,0-.88,.5-.9,.44-.02,.62,.54,.61,.75,.1,2.15,.12,4.33-.03,6.47-.19,2.56-.39,5.11-.72,7.63-.26,1.99-1.06,5.99-1.07,6.04,.48,.23,.95,.47,1.42,.72,.77-2.5,1.32-5.08,1.77-7.7,.4-2.32,.83-5.8,.92-6.97,.02-.26,.01-.99,.62-.86,.5,.11,.49,.99,.49,1.06-.22,2.44-.49,4.72-.82,6.79-.53,3.42-1.2,6.25-1.95,8.23,.63,.34,1.25,.7,1.87,1.06,1.29-3.22,2.29-6.72,3.1-10.22,.47-2.02,.97-3.97,1.11-6.02,.01-.21,.01-.43,.04-.64,.13-.94,.22-1.53,.78-1.6,.52-.07,.68,.79,.68,.79,1.1,5.45,1.32,16.87,.49,21.76,.43,.31,.86,.62,1.28,.94,1.58-5.51,1.09-16.11,.84-20.71-.02-.36-.02-.62,.3-.77,.26-.12,.68,.22,.73,.57,.64,4.32,.72,18.09-.89,21.66,.49,.38,.83,.61,1.32,.99,1.4-3.4,3.4-13.01,3.7-17.22,.03-.37,.04-.75,.07-1.11,.08-.88,.88-.65,1.03-.32,.09,.19,.07,.47,.07,.47,0,2.13-1.48,13.71-3.82,19.06,.93,.76,1.86,1.54,2.77,2.33,.16-.79,.35-1.58,.51-2.38,1.07-5.36,.93-11.01,.95-16.59,0-.48-.04-1.13-.04-1.13,0-.52,.17-.72,.42-.76,.29-.05,.61,.19,.66,.65,.05,.43,.07,.86,.07,1.3-.01,5.17,.04,10.35-.72,15.39-.21,1.4-.85,4.26-.87,4.39,.39,.35,.79,.71,1.18,1.06,.4-.92,.68-1.9,.9-2.91,.7-3.25,1.22-6.52,1.5-9.85,.15-1.8,.31-3.65,.35-5.5,.01-.52,.03-.81,.05-1.2,.01-.18,.14-.6,.33-.72,.22-.14,.39-.1,.56,.11,.28,.38,.18,2.01,.17,2.26-.04,.98-.13,1.95-.19,2.94-.19,3.38-.61,6.84-1.25,10.19-.29,1.52-.56,3.1-1.09,4.55-.12,.32-.31,.63-.44,.95,.54,.51,1.08,1.02,1.62,1.54,.89-1.7,1.52-3.54,2.04-5.44,.99-3.65,1.8-9.35,2.08-13.2,.03-.44,.26-.57,.48-.56,.23,.01,.45,.31,.5,.76,.24,2.1-1.21,10.6-1.98,13.44-.56,2.06-1.28,4.04-2.25,5.86,.21,.21,.42,.41,.63,.62,.47-.55,5.07-14.55,5.26-15.61,.19-.79,.27-1.56,.4-2.34,.07-.4,.22-.81,.59-.76,.39,.05,.59,.44,.61,.89,.02,.42,.04,1.04,.07,1.36,.11,1.53-.57,14.31-2.63,20.96,.11,.12,.21,.23,.32,.35,1.99-5.01,3.41-14.19,3.84-18.04v7.87c-.79,4.28-1.88,8.84-2.99,11.11,.63,.7,1.25,1.42,1.87,2.14,.32-.84,.72-2.26,1.12-3.98v4.28c-.1,.26-.19,.49-.28,.68,.09,.11,.19,.23,.28,.34ZM51.54,22.39c-.08-.54-.18-1.08-.29-1.62-.03,.46-.05,.91-.09,1.37,0,.02,0,.05,0,.07,.06,.03,.12,.06,.18,.09,.07,.03,.14,.06,.2,.1Zm9.42,4.85c1.42,.86,2.81,1.77,4.18,2.73,.55-2.21,.7-13.28-.05-17.93-.03,.23-.07,.46-.12,.7-.67,3.47-1.51,7.01-2.59,10.39-.44,1.39-.89,2.77-1.42,4.11Zm-4.21,8.23c-.3,.49-.6,.97-.91,1.46,1.18-.84,2.35-1.69,3.54-2.53,1.59-1.12,3.3-1.97,4.86-3.12-1.3-.9-2.61-1.76-3.95-2.57,0,0-2.39,4.91-3.54,6.76Zm-4.39,3.79c.34-.21,.68-.43,1.02-.65v-.02c1.34-2.19,2.83-4.24,3.94-6.59,.53-1.12,1.75-3.53,1.89-3.94-.55-.32-1.11-.64-1.66-.94-.17,.63-.43,1.22-.67,1.81-.89,2.22-1.72,4.47-2.69,6.64-.56,1.27-1.22,2.47-1.83,3.68Zm-.63,1.87c-.11,.07-.22,.14-.33,.21-.05,.12-.1,.24-.15,.37-.04,.1-.08,.2-.12,.3,.2-.29,.4-.58,.6-.87Zm15.72-7.51c-.71-.54-1.43-1.07-2.15-1.59-.01,.01-.03,.02-.04,.03-.98,.77-2.04,1.38-3.09,2.02-2.43,1.47-4.65,3.28-7,4.88-.36,.25-.72,.48-1.09,.71-.83,1.27-1.68,2.54-2.52,3.81,1.17-.39,2.27-.97,3.35-1.59,3.8-2.18,7.84-4.32,11.31-7.19,.42-.35,.86-.68,1.23-1.08Zm6.13,5.08c-.65-.58-1.3-1.15-1.97-1.71-.07,.05-.14,.1-.21,.16-.02,.02-.04,.03-.06,.05-1.89,1.52-3.84,2.86-5.79,4.23-.43,.3-.86,.59-1.29,.88,2.01-.64,8.28-2.97,9.32-3.6Zm4.13,3.86c-.4-.39-.8-.77-1.2-1.16-.47,.61-.92,1.21-1.45,1.73-1.22,1.22-2.43,2.5-3.66,3.76,2.05-1.22,4.05-2.51,5.91-4.05,.12-.11,.26-.19,.39-.28Zm5.44,3.31c1.05-3.73,2.42-16.44,2.31-16.5-.07,.24-3.94,12.57-4.74,13.96,.86,.88,1.59,1.64,2.43,2.54Zm.87,3.29c-.7-.78-1.4-1.55-2.11-2.32-1,.55-5.27,4.74-6.57,5.94,2.9-1.19,5.75-2.54,8.69-3.63Z"/>
  </g>
</svg>