<?xml version="1.0" encoding="UTF-8"?>
<svg id="Layer_2" data-name="Layer 2" xmlns="http://www.w3.org/2000/svg" viewBox="0 0 522 119.54">
  <defs>
    <style>
      .cls-1 {
        fill: #579374;
      }

      .cls-1, .cls-2, .cls-3, .cls-4, .cls-5, .cls-6 {
        fill-rule: evenodd;
      }

      .cls-2 {
        fill: #e3746d;
      }

      .cls-3 {
        fill: #dba510;
      }

      .cls-4 {
        fill: #b4393e;
      }

      .cls-5 {
        fill: #92b8a3;
      }

      .cls-6 {
        fill: #fff;
      }
    </style>
  </defs>
  <g id="Layer_7" data-name="Layer 7">
    <g>
      <path class="cls-1" d="M62.05,.68c1.4,8.07,3.8,16.62,7.77,24.23-.72,6.33,.22,12.56,2.28,18.74-1.53,8.03,6.13,18.65,7.97,17.92,1.5-.6,.15-9.25-6.96-18.36-1.89-5.12-2.7-10.65-2.44-16.6,5.83,11.28,12.97,19,21.34,27.53-1.12,5.39,3.32,18.56,5.54,17.56,1.62-.73-.83-9.85-2.93-14.99l6.88,6.96c4.42,7.85,16.01,17.71,18.06,16.09,2.01-1.6-8.99-14.32-17.37-16.84l-12.99-13.25c5.11,2.45,13.91,5.52,14.46,4.15,.99-2.47-10.03-8.5-18.05-8.32-3.23-3.4-6.2-7.12-8.86-11.06,4.27,1,10.86,.99,14.96,.18,2.45,2.28,5.15,4.34,7.8,5.91,7.04,7.91,13.1,8.88,18.97,8.48-2.01-3.82-6.94-7.14-18.35-9.34-1.69-.68-4.58-2.55-7.56-5.24,1.7-.42,2.8-1,2.85-1.72,.07-.99-2.86-1.85-6.55-2.06-2.53-2.94-4.77-6.4-5.93-10.13l11.28,7.02c3.8,6.23,15.31,11.34,15.99,9.7,.95-2.3-10.94-9.79-15.52-10.59l-14.34-8.94c7.52-.35,13.91-2.79,13.16-4.84-.58-1.57-8.74-.51-14.95,3.69-4.7-2.62-10-6.98-14.43-11.51-.28-1.4-.55-2.86-.8-4.37h-1.25Zm5.79,0h10.3c3.41,2.26,5.45,4.37,4.89,5.3-.63,1.04-8.68-1.28-15.19-5.3h0ZM29.28,.68c2.12,1.24,9.03,1.58,12.74,.86l-3.84,6.62c-5.94,5.52-10.45,15.7-8.61,16.93,2.45,1.19,8.39-12.2,9.44-16.48,1.5-2.66,3.08-5.32,4.65-7.93h-14.38Zm16.43,0h.99c.48,3.57,.67,6.88,.7,10.05,7.58,3.61,10.25,9.78,9.26,10.84-.85,.9-6.61-5.37-9.26-8.43l.02,6.28c1.05,6.06-.33,16.01-2.56,15.26-2.38-.8-.28-12.39,1.48-15.25,.07-4.48,.04-8.76-.11-12.83-2.59,4.67-6.11,10.92-7.31,10.12-1.7-1.12,3.62-10.81,7.08-12.6-.05-1.11-.15-2.28-.29-3.44h0Zm.99,0c3.85,2.94,11.04,6.73,11.53,5.27,.31-.93-2.2-3.42-5.67-5.27h-5.86Zm29.46,32.88c-5.52-8.38-9.61-17.69-11.65-27.04,1.38,1.68,3.47,3.43,6.9,6.41-.68,3.79,3.8,12.53,5.67,11.37,1.17-.72-1.04-4.83-3.52-9.73l8.47,5.43c.39,3.08,2.65,6.92,5.81,10.61-4.21-.1-9.1,.65-11.68,2.95Z"/>
      <path class="cls-2" d="M90.74,.68h3.79c-.07,1.3-1.64,2.58-2.88,1.77-.61-.43-.97-1.07-.91-1.77h0Zm7.87,23.21c.91,.61,2.31,.32,2.91-.69,.5-.85,.17-2.03-.76-2.58-.8-.48-1.98-.38-2.55,.42-.36,.51-.4,1.05-.33,1.64,.05,.48,.32,.93,.73,1.21h0Zm-16.69-10.21c1.03,.69,2.72,.19,3-1.16,.26-1.27-.98-2.53-2.34-2.11-1.29,.39-2.04,2.3-.66,3.28h0Zm-23.52-1.49c.65,.43,1.53,.34,2.12-.2,.61-.56,.78-1.57,.09-2.25-.67-.66-1.92-.59-2.48,.27-.45,.69-.45,1.68,.27,2.18h0Zm9.85,8.87c1.49,.98,3.6-1.13,2.5-2.67-.31-.44-.83-.75-1.34-.77,0,0-.59-.1-1.03,.14-1.05,.57-1.34,2.2-.37,3.12,.07,.07,.1,.09,.24,.19h0Zm14.3,11.89c.98,.65,2.26,.18,2.65-.97l.15-.77c.08-.83-.37-1.73-1.17-2-1.12-.38-2.57,.57-2.59,1.85-.01,.74,.35,1.45,.96,1.88h0Zm12.98,10.57c1.38,.94,3.26-.23,3.27-1.79,0-.95-.8-1.81-1.82-1.84,0,0,0,0-.08-.02-.79-.15-1.65,.22-2.02,.98-.44,.89-.18,2.08,.65,2.66h0Zm-24.98-13.35c.76,.51,1.9,.39,2.47-.43,.63-.9,.44-2.34-.52-2.87-.36-.19-.79-.24-1.18-.15,0,0-.38,.02-.67,.18-1.1,.58-1.31,2.42-.1,3.27h0Zm3.61,8.4c1.42,.95,3.14-.19,3.05-1.72-.08-1.34-1.55-2.72-2.82-1.83,0,0-.42,.22-.68,.49-.75,.8-.61,2.22,.31,2.96,.04,.03,.04,.03,.14,.1h0Zm31.72,24.39c.5,.34,1.14,.48,1.71,.24,.39-.17,.71-.48,.92-.85,0,0,.38-.5,.47-1,.16-.93-.49-1.93-1.47-2.13-1.15-.23-2.49,.61-2.59,1.85-.06,.73,.35,1.46,.96,1.89h0ZM59.67,31.43c1.77,1.2,3.98-1.27,2.78-2.85-.25-.33-.61-.6-1.03-.68,0,0-.52-.16-.94-.13-1.76,.16-2.31,2.62-.82,3.66h0Zm-12.02-8.11c1.19,.8,2.9,0,2.58-1.81-.02-.11-.13-1.07-.94-1.34-1.23-.42-2.78,1.06-2.21,2.45,.12,.29,.32,.53,.57,.71h0Zm38.39,28.39c.99,.66,2.58,.21,2.95-1.01,.13-.43,.27-.71,.08-1.27-.4-1.21-2.07-1.84-3.11-1.04-.99,.75-1.06,2.52,.08,3.33h0Zm-21.01-13.58c.56,.39,1.33,.41,1.94,.05,.95-.57,1.36-2,.65-2.89-.49-.61-1.4-.82-2.14-.52-.12,.02-.15,.03-.22,.05-1.43,.43-1.54,2.39-.23,3.3h0Zm25.79,22.49c.94,.62,2.35,.18,2.88-.9,.38-.79,.16-1.84-.58-2.36-.09-.09-.11-.1-.16-.14-1.22-.95-3,.31-3.03,1.7-.01,.68,.34,1.32,.9,1.71h0Zm-34.35-19.39c.9,.62,2.26,.22,2.73-.98,.35-.92,.06-2.17-1.05-2.52-.32-.1-1.11-.13-1.55,.07-.77,.36-1.25,1.27-1.11,2.04,.11,.58,.51,1.07,.98,1.4h0Zm10.86,8.5c1.08,.74,2.81,.34,3.19-1.07,.36-1.35-.7-3.19-2.61-2.54,0,0-.44,.13-.75,.38-.94,.77-1.06,2.37,.16,3.23Z"/>
    </g>
    <path class="cls-1" d="M0,40.02c9.04,3.01,17.42,10.8,20.29,16.26-.13-3.68,1.64-8.63,1.62-11.68-.04-5.12-1.09-8.46,.37-8.22,.95-.09,2.39,3.47,4.28,2.41-3.35-2.41,.52-16.08-6.28-26.66,1.54,1.09,3.23,2.44,4.96,2.25-2.35-4.69-2.07-8.84-3.3-13.69H0V40.02Z"/>
    <g>
      <path class="cls-4" d="M204.58,78.73c-.24,1.72,.66,3.34,2.08,4,1.69,.79,3.82,.81,5.21-2.22,.87-1.89-.04-4.23-1.85-5.23-2.59-1.43-5.07,.81-5.44,3.45Z"/>
      <path class="cls-2" d="M211.08,78.45c-.41,.54-1.18,.27-1.91-.09-.78-.38-1.52-1.01-1.12-1.82,.44-.88,1.45-.82,2.23-.45,.79,.38,1.38,1.57,.79,2.35Z"/>
      <path class="cls-3" d="M207.91,81.55c.05,.4,.51,.69,.92,.68,.33,0,.6-.28,.48-.64-.29-.85-1.5-.86-1.4-.04Z"/>
    </g>
    <g>
      <path class="cls-4" d="M233.83,73.01c-1.15,1.3-1.28,3.16-.46,4.48,.98,1.58,2.75,2.76,5.58,.99,1.77-1.11,2.29-3.56,1.32-5.39-1.38-2.61-4.68-2.09-6.45-.08Z"/>
      <path class="cls-2" d="M239.43,76.33c-.64,.23-1.13-.41-1.55-1.12-.44-.74-.72-1.68,.06-2.13,.85-.5,1.66,.1,2.12,.85,.46,.75,.29,2.07-.63,2.4Z"/>
      <path class="cls-3" d="M235.07,77.19c-.17,.36,.05,.85,.39,1.07,.28,.17,.66,.09,.75-.27,.22-.87-.78-1.54-1.15-.8Z"/>
    </g>
    <path class="cls-5" d="M311.4,.59h2.98c.73,1.62,1.59,3.18,2.47,4.72,2.14,3.72,4.26,7.3,6.22,11.11,.13,.24,.72,1.4,.2,1.71-.48,.29-1.06-.75-1.17-.93-.59-1.1-1.22-2.19-1.8-3.32-2.14-4.2-4.83-8.1-6.84-12.38-.08-.17-.16-.34-.24-.51-.31,.35-.61,.71-.92,1.06,1.75,4.15,5.93,12.72,6.06,13,.79,.82,2.63,2.71,3.58,3.77,.34,.38,1.14,1.29,.7,1.68-.47,.43-1.15-.31-1.36-.52-.52-.53-1.17-1.31-1.35-1.52,.26,.54,.54,1.06,.78,1.6,.07,.16,.48,1.02,.03,1.27-.45,.25-.83-.27-.96-.44-.16-.22-.29-.46-.36-.59-.7-1.39-1.44-3-2.09-4.53-.07-.08-.14-.15-.21-.23-1.92-2.11-7.72-7.95-8.48-9.01-.27,.34-.53,.68-.79,1.02,.53,.08,10.29,12.77,12.19,15.68,.09,.14,.69,1.02,.17,1.34-.54,.34-1.02-.41-1.16-.6-1.98-2.76-10.97-14.73-11.95-15.43-.2,.26-.39,.53-.59,.79,.15,.17,.28,.36,.43,.53,1.46,1.67,2.79,3.46,3.98,5.34,1.14,1.8,2.25,3.56,3.28,5.34,1.16,1.23,4.73,5.49,4.93,6.38,.03,.12,.06,.5-.26,.66-.28,.15-.68,.05-.93-.38-.19-.33-.91-1.29-1.06-1.49,.09,.19,.17,.39,.26,.58,.22,.52,.5,.97,.59,1.56,.05,.34-.12,.55-.39,.58-.28,.04-.63-.13-.81-.55,0,0-2.25-4.83-3.29-6.61-2.54-2.75-5.3-5.27-8.06-7.76-.32-.29-.7-.56-1.08-.82l-.03,.05-.06,.08c.23,.29,3.06,4.01,4.2,5.62,1.51,2.13,3.26,4.15,4.65,6.4,1.2,1.96,2.56,3.81,3.49,5.86,.19,.42,.32,.89-.07,1.14-.39,.26-.87-.17-1.12-.81-.54-.98-1.07-1.92-1.66-2.84-1.25-1.96-2.41-3.92-3.81-5.72-2.19-2.82-4.17-5.81-6.4-8.59l-.04,.06v.02c.07,.11,1.31,2.42,1.79,3.5,1.49,3.32,3.03,6.65,4.13,10.13,.14,.45,.29,.91,.44,1.37,.28,.43,.56,.85,.84,1.28,.93,1.4,1.61,2.8,2.4,4.24,.21,.38,.66,1.29,.07,1.56-.6,.27-.96-.66-1.24-1.2-.21-.42-.43-.83-.66-1.23,.26,1,.56,1.94,.56,2.8,0,.39-.32,.6-.63,.61-.27,.01-.58-.25-.62-.55-.1-.72-1.27-5.03-1.92-7.11-2.44-3.79-5.11-7.49-8.03-10.96-.51,.85-1.01,1.7-1.5,2.56,.26,.22,.51,.46,.75,.71,2.84,3.14,5.05,6.73,7.3,10.31,1.11,1.77,2.28,3.5,3.18,5.37,.24,.5,.51,1.03,.6,1.46,.07,.34-.17,.55-.41,.65,.16,.14,.26,.25,.26,.25,.58,.5-.07,1.25-.5,1.13-.06,.23-.22,.41-.44,.47-.05,.01-.11,.02-.16,.02-.43,0-.89-.41-.98-.46,.1,.22,.53,.84,.58,1.15,.05,.34-.08,.56-.39,.62-.14,.03-.31-.02-.31-.02-.64-.22-1.52-2.18-1.76-2.53-1.28-.54-2.51-1.22-3.77-1.82-2.72-1.31-10.04-3.92-10.11-3.94-.25,.71-.49,1.43-.72,2.15,.71,.33,10.65,4.52,14.42,7.03,.32,.21,.66,.42,.82,.84,.08,.21,.05,.41-.23,.58-.28,.17-.86-.16-1.18-.36-3.73-2.35-13.44-6.65-14.19-6.94-.01,.03-.02,.06-.03,.1h0c.84,.59,6.34,5.5,8.27,7.32,1.39,1.31,2.85,2.53,4.1,3.96,.13,.15,.81,.88,1.21,1.51,.26,.41,.39,.77,.18,.93-.25,.2-.58,.1-.91-.18-.29-.24-.68-.77-1.29-1.36-.52-.51-1.04-1.07-1.58-1.57-1.62-1.51-3.21-3.04-4.84-4.52-1.65-1.49-5.34-4.68-5.52-4.85-.37,1.2-.75,2.4-1.14,3.6,.04,.04,.95,1.23,1.4,1.75,1.03,1.17,1.97,2.39,2.85,3.66,1.98,2.87,3.85,5.82,5.22,9.01,.06,.14,.41,.95,.53,1.64,.09,.54,.05,1.01-.35,1.06-.22,.03-.42-.23-.58-.54-.19-.35-.32-.77-.37-.9-1.32-3.1-2.96-5.99-4.85-8.73-.64-.93-1.28-1.88-1.98-2.77-.68-.87-1.45-1.65-2.13-2.52-.07-.09-.13-.18-.19-.27-.45,1.38-.9,2.77-1.32,4.17,.22,.43,.35,.91,.5,1.37,.88,2.71,1.82,5.35,2.65,8.05,.18,.6,.32,1.22,.52,1.81,.38,1.12,.61,2.27,.92,3.41,.15,.55,.35,1.08,.39,1.64,.02,.29-.05,.64-.31,.67-.35,.03-.66-.35-.87-1.01-.23-.73-1.59-5.47-2-6.75-.82-2.53-1.46-4.98-2.36-7.33-.31,1.06-.59,2.13-.86,3.21-.73,3-1.21,6.05-1.54,9.12-.13,.94-.47,1.2-.82,1.19-.45-.01-.75-.49-.71-.9,.17-1.82,.3-3.54,.6-5.36,.67-4.08,1.84-8.01,3.08-11.93-.44,.38-.89,.76-1.35,1.13-2.82,2.3-5.43,5.16-7.58,7.96-.8,1.05-1.55,2.08-2.21,3.07-.3,.36-.62,.82-1,.64-.5-.23-.3-.83,.03-1.35,.26-.4,1.52-2.25,2.08-3.03,2.13-2.96,4.69-5.56,7.48-7.88,.96-.8,3.16-2.62,3.23-2.65,.08-.27,.17-.53,.25-.8-1.37,.53-2.72,.99-3.98,1.65-3.75,1.94-7.55,3.72-11.08,6.04-.17,.11-.75,.48-1.08-.01-.29-.43,.07-.79,.28-.93,3.03-2.01,6.28-3.61,9.54-5.27,1.59-.81,3.17-1.69,4.85-2.3-.7-.02-1.39-.03-2.09-.01-.6,.02-1.2,.05-1.8,.09-2.07,.63-4.09,1.35-6.07,2.21-1.71,.74-3.44,1.37-5.09,2.2-.63,.32-1.15,.54-1.15,.54-.25,.08-.71,.27-.93-.16-.23-.44,.2-.82,.35-.9,1.85-.95,3.71-1.66,5.57-2.47,.74-.33,1.48-.64,2.23-.93-1.42,.02-8.78,1.14-9.22,1.25-.22,.05-.72,0-.77-.38-.04-.28,.34-.53,.74-.64,1.74-.45,13.31-2.04,13.99-1.9,1.94-.61,3.9-1.15,5.87-1.64,.34-.09,.71-.18,1.05-.22,.2-.69,.41-1.38,.62-2.06-.11-.01-6.01-.86-8.89-.99-3.3-.16-6.65-.19-9.95,.18h0c-.13,.01-.83,.06-.91-.5-.06-.48,.45-.71,.65-.71,2.05-.23,4.13-.38,6.19-.33,2.47,.06,4.93,.14,7.38,.36,1.93,.17,5.85,.82,5.9,.83,.17-.53,.35-1.07,.54-1.59-2.48-.7-5.01-1.16-7.56-1.5-2.27-.3-5.64-.58-6.77-.62-.25,0-.95,.04-.89-.63,.05-.56,.89-.59,.97-.59,2.36,.1,4.57,.28,6.59,.51,3.33,.39,6.11,.96,8.08,1.67,.26-.7,.53-1.4,.81-2.1-3.22-1.23-6.67-2.12-10.12-2.81-1.98-.4-3.91-.83-5.88-.88-.2,0-.41,0-.61-.01-.91-.09-1.49-.16-1.62-.76-.12-.56,.68-.79,.68-.79,5.09-1.51,16.01-2.38,20.77-1.74,.25-.49,.5-.97,.76-1.45-5.44-1.42-15.53-.29-19.91,.24-.35,.04-.59,.06-.77-.28-.15-.27,.13-.75,.47-.83,4.06-.94,17.23-1.79,20.82-.24,.31-.55,.49-.94,.81-1.49-3.41-1.34-12.82-2.98-16.87-3.08-.36,0-.72,0-1.07-.01-.85-.03-.72-.92-.42-1.1,.18-.11,.44-.11,.44-.11,2.04-.13,13.28,.85,18.65,3.1,.63-1.06,1.28-2.11,1.94-3.15-.77-.13-1.55-.29-2.33-.42-5.25-.87-10.64-.4-15.98-.11-.46,.03-1.08,.1-1.08,.1-.5,.03-.71-.15-.78-.42-.07-.32,.12-.67,.55-.76,.41-.08,.82-.13,1.24-.15,4.95-.27,9.9-.62,14.81-.07,1.36,.15,4.16,.69,4.29,.7,.29-.45,.59-.9,.89-1.34-.92-.39-1.89-.64-2.88-.82-3.18-.59-6.37-.97-9.59-1.09-1.74-.07-3.53-.13-5.3-.08-.49,.02-.77,.01-1.15,.01-.18,0-.59-.11-.73-.32-.15-.23-.14-.42,.05-.61,.33-.33,1.91-.3,2.14-.31,.94-.01,1.88,.03,2.83,.04,3.26,.02,6.61,.28,9.89,.79,1.49,.23,3.03,.44,4.47,.94,.32,.11,.64,.3,.96,.43,.43-.62,.86-1.24,1.3-1.85-1.72-.88-3.55-1.46-5.43-1.92-3.6-.87-9.14-1.44-12.85-1.54-.42-.01-.57-.26-.59-.5-.01-.25,.25-.51,.67-.59,1.98-.38,10.28,.73,13.07,1.41,2.03,.5,4.01,1.17,5.85,2.13,.17-.24,.35-.48,.53-.72-.58-.48-14.47-4.72-15.51-4.87-.77-.17-1.52-.2-2.28-.31-.39-.05-.79-.19-.79-.6,0-.43,.36-.67,.78-.72,.4-.05,.99-.1,1.3-.15,1.45-.2,13.76-.17,20.34,1.7,.1-.12,.2-.25,.3-.37-2.58-.97-6.2-1.72-9.61-2.25h6.56c1.55,.39,2.9,.82,3.86,1.28,.36-.43,.72-.85,1.08-1.28h0Zm4.62,0c1.31,1.79,2.51,3.66,3.74,5.5,1.17,1.75,2.27,3.54,3.32,5.35,.56,.97,1.18,1.91,1.85,2.82,.13,.17,.67,.79,1.04,.45,.5-.45-.09-1.22-.22-1.4-1.24-1.71-2.22-3.61-3.36-5.43-1.55-2.46-3.21-4.82-4.83-7.29h-1.53Zm2.83,0c2.07,2.77,4.17,5.49,6.18,8.35,.43,.97,.84,1.94,1.25,2.92,.14,.33,.33,.92,.57,1.42,.27,.59,.64,1.04,1.03,.91,.31-.11,.4-.4,.35-.6-.06-.25-.14-.46-.19-.59,.4,.25,.91-.14,.76-.72-.21-.79-2.26-3.32-2.69-3.94-1.16-2.65-2.42-5.24-3.88-7.75h-1.42c.42,.72,.83,1.44,1.23,2.18-.56-.72-1.11-1.45-1.67-2.18h-1.53Zm5.06,0h1.35c.5,.95,.93,1.77,1.21,2.33,1.11,2.18,2.06,4.42,3.07,6.64,.14,.3,.49,1.24-.12,1.45-.31,.11-.6-.03-.88-.61-.83-1.68-1.51-3.4-2.28-5.1-.49-1.09-1.39-2.86-2.35-4.71h0Zm2.8,0h1.5c1.14,2,2.17,3.86,2.77,5.03,.37,.73,1.02,1.81,.54,2.07-.64,.34-1.18-.75-1.53-1.35-.87-1.48-2.07-3.6-3.28-5.75h0Zm3.25,0c.5,.67,.98,1.31,1.43,1.9,.43,.56,1.18,1.5,1.8,2.06,.2,.18,.53,.14,.7-.06,.17-.2,.07-.47-.07-.72-.38-.69-1.02-1.49-1.41-2.01-.25-.33-.55-.73-.88-1.18h-1.57Zm3.92,0h2.77c.35,.42,.68,.8,.99,1.17,.32,.39,.3,.71,.14,.91-.19,.23-.58,.3-1.19-.3-.42-.4-.78-.87-1.15-1.33,.32,.64,.59,1.2,.84,1.86,.14,.37-.06,.7-.38,.73-.33,.03-.62-.25-.86-.74-.37-.76-.77-1.53-1.17-2.31h0Zm4.54,0h1.43c.13,.31,.03,.57-.15,.71-.26,.2-.7,.18-.97-.24-.1-.16-.2-.31-.3-.47h0Zm-43.33,24.17c-2.17-.48-12.79-.03-17.15,1.05,.23,.02,.45,.05,.68,.09,3.4,.54,6.87,1.26,10.22,2.24,1.37,.4,2.74,.82,4.08,1.32,.67-1.59,1.4-3.16,2.16-4.71h0Zm-5.8,15.26c-.51,.11-1.02,.26-1.52,.41,.44,0,.88,0,1.32,.02,.02,0,.05,0,.07,0,.02-.07,.04-.13,.06-.2,.02-.08,.05-.15,.07-.23h0Zm16.06-1.83c-.24-.36-.48-.72-.73-1.07h-.02c-2.24-1.34-4.36-2.86-6.73-3.93-1.13-.51-3.57-1.71-3.97-1.84-.25,.62-.49,1.24-.72,1.87,.62,.15,1.21,.4,1.8,.63,2.22,.85,4.46,1.63,6.64,2.56,1.27,.54,2.49,1.19,3.72,1.79h0Zm3.02-33.96c-3.68-.94-15.99-1.72-16.04-1.6,.24,.06,12.45,3.6,13.86,4.4,.75-.99,1.4-1.83,2.17-2.79h0Zm-5.63,30.29c-.93-1.24-1.87-2.47-2.8-3.72-1.24-1.67-2.24-3.49-3.51-5.12-.72,1.46-1.4,2.95-2.04,4.45,.01,0,4.95,2.34,6.85,3.48,.5,.3,.99,.6,1.49,.91h0Zm6.73,4.31c-.5-1.25-1.18-2.42-1.88-3.56-2.49-4.03-4.98-8.32-8.09-11.94-.38-.44-.74-.9-1.17-1.29-.44,.8-.88,1.62-1.29,2.43,.01,.01,.02,.03,.04,.04,.84,1.02,1.54,2.15,2.26,3.26,1.67,2.56,3.64,4.89,5.42,7.37,.27,.38,.54,.76,.8,1.15,1.31,.84,2.61,1.69,3.91,2.54h0Zm-2.49-13.79c-.83-2.16-3.73-8.87-4.45-9.97-.48,.74-.96,1.49-1.43,2.24,.06,.07,.11,.14,.17,.22,.02,.02,.03,.04,.05,.07,1.66,1.97,3.15,4.03,4.67,6.08,.33,.45,.66,.9,.98,1.36h0Zm3.63-8.05c-1.39-2.17-2.84-4.28-4.51-6.23-.11-.13-.21-.28-.31-.41-.33,.45-.65,.91-.98,1.37,.64,.47,1.26,.94,1.81,1.48,1.3,1.27,2.65,2.52,3.99,3.79h0Zm-2.51,22.4c-.3-.2-.6-.4-.9-.6,.08,.12,.16,.24,.23,.35,.12,.05,.24,.1,.37,.14,.1,.04,.2,.07,.3,.11h0Zm3.32-36.28c-.67,.8-1.34,1.62-1.99,2.44,.63,1.06,5.1,5.48,6.39,6.84-1.45-3.1-3.04-6.13-4.4-9.28Z"/>
    <g>
      <path class="cls-1" d="M220.36,.59c1.18,4.84,2.79,10.05,4,16.15,9.5-.4,18.56,10.78,26.09,24.67l-1.37,.95c-9.11-18.19-18.58-24.37-24.52-24.41,4.33,3.81,8.26,11.66,14.2,28.82l-1.16,.58c-5.32-15.1-9.54-23.72-13.2-27.77-.28,3.53-.42,16.91,1.19,28.55l-1.25,.19c-1.28-9.49-1.51-19.58-1.11-29.01-4.08,4.28-8.52,11.78-13.5,27.66l-1.11-.76c4.11-13.48,8.76-23.08,13.8-27.75-6.5,.95-17.67,12.5-24.6,24.48l-.71-.87c10.18-16.24,19.87-24.55,25.94-24.68-1.62-6.49-3.23-12.03-4.29-16.82h1.62Z"/>
      <path class="cls-4" d="M252.83,40.02c1.9,.59,4.29,3.73,1.36,7.49-1.07,1.38-2.97,1.52-4.06,1.21-1.83-.52-3.18-2.39-3-4.07,.47-4.4,3.44-5.33,5.7-4.64Z"/>
      <path class="cls-3" d="M254.06,47.61c.1,.22,.1,.59-.34,.88-.35,.23-.7,.11-.82-.13-.15-.31,.16-.71,.5-.9,.31-.17,.57-.02,.66,.15Z"/>
      <path class="cls-2" d="M249.26,43.17c.72-.37,1.6-.02,2.3,.83,.8,.97,.96,2.14,.11,2.66-.54,.33-1.24,.22-2.06-.55-1.01-1.18-1.2-2.28-.35-2.94Z"/>
      <path class="cls-4" d="M241.18,46.27c1.8,.97,3.56,4.44-.18,7.3-1.37,1.05-3.31,.76-4.35,.23-1.74-.89-2.72-2.94-2.19-4.47,1.39-4,4.58-4.21,6.72-3.06Z"/>
      <path class="cls-3" d="M240.85,53.63c.06,.22-.02,.57-.53,.75-.4,.14-.73-.05-.8-.31-.09-.33,.3-.62,.69-.73,.34-.09,.58,.11,.63,.29Z"/>
      <path class="cls-2" d="M236.29,49.19c.81-.18,1.62,.34,2.15,1.29,.61,1.08,.53,2.21-.44,2.51-.61,.19-1.29-.07-1.97-.98-.78-1.32-.73-2.4,.26-2.83Z"/>
      <path class="cls-4" d="M209.62,45.52c2.11,.79,2.81,3.31,2.27,5.28-.53,1.96-2.25,3.49-5.27,2.59-.88-.26-3.33-1.63-2.46-5.05,.32-1.26,1.2-2.19,2.27-2.68,.99-.45,2.15-.53,3.19-.14Z"/>
      <path class="cls-3" d="M208.36,53.62c-.06,.23-.3,.51-.83,.46-.41-.05-.61-.37-.54-.63,.08-.34,.58-.44,.97-.37,.34,.07,.45,.35,.41,.54Z"/>
      <path class="cls-4" d="M199.43,42.6c1.11,1.71,.64,6.23-3.67,7.06-1.76,.34-3.48-1-3.92-2.18-.64-1.68,.03-3.67,1.08-5.06,2.26-2.98,5.19-1.85,6.51,.18Z"/>
      <path class="cls-3" d="M193.44,49.32c-.21,.13-.59,.18-.95-.23-.28-.32-.21-.7,.03-.85,.3-.2,.74,.07,.99,.39,.22,.29,.09,.57-.07,.69Z"/>
      <path class="cls-2" d="M195.47,42.37c.67,.5,.74,1.46,.27,2.49-.53,1.18-1.55,1.86-2.42,1.31-.55-.34-.76-1.04-.42-2.14,.63-1.47,1.58-2.14,2.57-1.66Z"/>
      <path class="cls-2" d="M206.45,47.61c.79,.18,1.24,1.01,1.23,2.11-.01,1.25-.64,2.26-1.64,2.11-.62-.09-1.09-.63-1.22-1.75-.02-1.55,.56-2.52,1.63-2.48Z"/>
      <path class="cls-4" d="M225.18,46.48c2.26-.11,3.77,2.14,3.77,4.48,0,2.47-1.55,3.59-3.77,4.06-1.66,.35-3.97-1.25-4.17-3.5-.24-2.69,1.01-4.9,4.17-5.05Z"/>
      <path class="cls-3" d="M226.68,54.82c.02,.27-.14,.68-.71,.82-.45,.12-.76-.15-.79-.46-.03-.4,.45-.71,.88-.78,.38-.07,.59,.2,.61,.42Z"/>
      <path class="cls-2" d="M223.14,49.15c.81-.01,1.43,.69,1.67,1.78,.27,1.23-.12,2.36-1.11,2.46-.63,.06-1.2-.35-1.58-1.42-.37-1.51-.03-2.6,1.03-2.82Z"/>
    </g>
    <g>
      <path class="cls-4" d="M196.28,17.91c.24,1.72-.66,3.34-2.08,4-1.69,.79-3.82,.81-5.21-2.22-.87-1.89,.04-4.23,1.85-5.23,2.59-1.43,5.07,.81,5.44,3.45Z"/>
      <path class="cls-2" d="M189.78,17.63c.41,.54,1.18,.27,1.91-.09,.78-.38,1.52-1.01,1.12-1.82-.44-.88-1.45-.82-2.23-.45-.79,.38-1.38,1.57-.79,2.35Z"/>
      <path class="cls-3" d="M192.95,20.73c-.05,.4-.51,.69-.92,.68-.33,0-.6-.28-.48-.64,.29-.85,1.5-.86,1.4-.04Z"/>
    </g>
    <path class="cls-1" d="M234.27,.59c1.19,5.66,7.97,13.65,11.84,16.97,4.46,3.7,8.06,6.68,12.51,10.37,1.46,1.21,2.61,2.46,3.22,2.25,.74-.26,.63-1.34,.27-2.96-1.11-4.95-3.12-10.19-6.47-15.49-.65-1.02-4.62-7.1-10.1-11.14h-11.26Z"/>
    <path class="cls-1" d="M483.53,27.48c-2.4-7.45-.71-18.95,3.2-26.88h35.27V8.88c-11.43,0-10.22,10.07-9.89,13.4-6.3-4.83-18.09-6.05-28.57,5.2Z"/>
    <path class="cls-1" d="M501.29,109.69c1.51-10.22,4.86-17.6,10.1-20.01-5.19-5.77-4.15-11.6,1.61-14.51l5.05-1.46c-7.19-18.49-17.9-27.11-24.94-28.86-7.17,8.68-10.79,18.76-11.11,27.27,9.3,1.8,12.3,13.49,5.84,19.59,8.89,3.43,11.92,10.91,13.44,17.98Z"/>
    <g>
      <path class="cls-6" d="M432.28,3.09c1.7-.34,3.35-.67,4.97-1.02h.05c1.01-.23,2.35-.67,3.47-1.47h-35.22c-8.64,4.32-17.21,10.01-23.88,16.45-6.98,6.74-11.91,14.33-12.73,22.09v.04c-.33,2.85-.14,5.79,.68,8.53,.75,2.51,2.03,4.85,3.93,6.8,2.24,2.3,4.96,3.67,7.86,4.24,3.12,.61,6.44,.29,9.6-.78,2.05-.7,7.02-3.05,10.03-5.89,.94-.88,1.7-1.82,2.15-2.79,.49-1.05,.64-2.12,.29-3.2l-.02-.06c-.2-.59-.56-1.17-1.08-1.73-.62-.66-1.27-1.06-1.95-1.27-.69-.22-1.39-.22-2.08-.08-1.81,.39-3.55,1.82-5.22,3.21-.97,.8-1.92,1.59-2.78,2.07-1.67,.94-3.42,1.55-5.1,1.51-1.63-.04-3.24-.7-4.72-2.31-1.63-1.76-2.17-4.05-2.06-6.41,.15-3.13,1.43-6.39,2.94-8.86,3.07-5.02,8.12-9.71,13.62-13.68,7.44-5.38,15.69-9.45,21-11.3,5.51-1.92,11.15-3.05,16.26-4.07h0Zm-62.33,35.29h-.01s.01,0,.01,0Z"/>
      <path class="cls-4" d="M426,4.39c-.75-1.35-1.6-2.63-2.52-3.8h-1.64c1.06,1.23,2.03,2.61,2.87,4.09,.43-.1,.86-.2,1.29-.29h0Zm-20.46-3.8h5.95c2.3,1.65,4.31,3.73,5.95,6.08-.48,.16-.96,.32-1.44,.48-.66,.23-1.37,.5-2.11,.79-1.48-1.93-3.25-3.62-5.25-4.93-1.26-.82-2.6-1.49-4.02-1.97,.3-.16,.61-.31,.92-.46h0Zm27.44,0h4.37c.26,.42,.52,.84,.76,1.25-.29,.09-.56,.15-.81,.21h-.05c-.94,.22-1.9,.41-2.86,.61h0c-.43-.69-.9-1.39-1.4-2.07h0Zm-35.7,4.57c-.5,.31-.99,.61-1.49,.93,1.34,.28,2.69,.76,4.01,1.41,2.1,1.02,4.15,2.47,6,4.25,.4-.21,.79-.42,1.18-.62-2.03-2-4.29-3.62-6.63-4.76-1.02-.5-2.05-.9-3.08-1.2h0Zm-8.5,5.8h0c.79,.19,1.57,.42,2.33,.7,2.71,.98,5.25,2.47,7.49,4.34-1.05,.68-2.09,1.39-3.12,2.13-1.72-1.3-3.61-2.36-5.6-3.07-1.58-.57-3.22-.93-4.89-1.03,1.22-1.05,2.49-2.07,3.79-3.06h0Zm-10.16,9.21c1.18-.13,2.34-.09,3.5,.11,2.29,.4,4.53,1.46,6.71,3.16-.32,.29-.63,.58-.94,.87-1.97-1.5-3.97-2.43-6-2.79-1.5-.26-3.03-.22-4.59,.15,.43-.51,.86-1.01,1.31-1.5h0Zm-6.39,8.85c-.77,1.42-1.42,2.87-1.95,4.32,1.07-.41,2.19-.7,3.32-.9,2.54-.44,5.15-.38,7.53,.12,.08-.14,.17-.28,.25-.42,.57-.93,1.21-1.86,1.91-2.77-3.2-.89-6.82-1.1-10.32-.49-.25,.04-.5,.09-.75,.14h0Zm-3.45,13.43c.02,.53,.05,1.07,.1,1.6,1.04-.98,2.23-1.83,3.51-2.5,1.87-.98,3.97-1.6,6.16-1.76,.06-.43,.13-.85,.23-1.28-2.48,.13-4.86,.81-6.97,1.92-1.09,.57-2.1,1.25-3.03,2.03h0Zm3.93,11.13c.26,.32,.54,.62,.83,.92,.63,.65,1.3,1.22,2,1.73,.59-1.64,1.43-3.26,2.43-4.79,.87-1.31,1.86-2.54,2.93-3.63-.13-.13-.26-.26-.39-.4-.74-.81-1.26-1.72-1.59-2.7-1.47,1.39-2.82,3.01-3.96,4.74-.87,1.32-1.63,2.71-2.25,4.13h0Zm15.11,5.18c.47-.08,.94-.18,1.4-.29-.51-.58-.95-1.2-1.33-1.87-1.08-1.93-1.64-4.24-1.65-6.94-.34,.04-.68,.06-1.01,.05-.08,0-.17,0-.25-.01,.02,2.9,.63,5.41,1.81,7.51,.31,.54,.65,1.06,1.03,1.55h0Zm10.12-4.33c1.11-.73,2.18-1.53,3.08-2.38l.21-.2c-1.03-.3-1.99-.76-2.89-1.36-1.77-1.18-3.31-2.89-4.55-4.93-.23,.19-.46,.37-.68,.56-.75,.62-1.48,1.23-2.17,1.69,1.47,2.31,3.29,4.27,5.4,5.67,.52,.35,1.06,.66,1.61,.94Z"/>
    </g>
    <g>
      <path class="cls-4" d="M440.91,83.38c-.87-3.36-.8-7.69,1.34-12.79,1.88-4.47,6.2-14.69,7.48-14.29,1.57,.49,1.69,9.72,.31,15.33-.98,3.95-2.68,8.04-5.18,12.5,7.61-4.7,31.83-7.11,33.02-3.2,1,3.27-18.31,10.72-32.41,7.31,11.16,10.49,14.55,28.97,9.46,31.15-4.36,1.87-13.48-15.84-13.53-27.94-2.98,12.56-10.86,22.43-13.59,21.38-2.35-.9-.33-19.76,11.59-26.7-6.71,.76-12.46-.43-17.88-3-3.88-1.83-7.1-2.89-7.13-3.83-.08-2.15,16.68-5.6,26.51,4.06Z"/>
      <path class="cls-3" d="M440.97,90.29c-.31,.28-.83,.36-1.09-.09-.14-.17-.19-.42-.11-.63,.09-.23,.26-.38,.52-.47,.39-.12,.84,.17,.91,.57,.14-.18,.34-.32,.56-.39,.66-.21,1.53,.06,1.71,.82,.06,.26,.03,.56-.11,.79,0,0-.2,.41-.55,.57-.76,.34-1.84-.25-1.84-1.15,0,0,0,0,0,0h0Zm2.98-1.48c.04,.59,.73,.84,.73,.84,.5,.2,1.06,0,1.32-.51,.44-.88-.59-1.73-1.36-1.5-.01,0-.02,0-.04,.01-.11,.04-.2,.1-.28,.18-.14-.42-.64-.71-1.06-.58-.14,.05-.22,.11-.31,.2-.03,.04-.06,.07-.09,.11-.23,.26-.34,.67-.18,.99,.15,.3,.57,.43,.93,.38,.12-.02,.23-.06,.33-.13h0Zm-5.63-.72c-.34,.11-.56,.36-.63,.68-.09,.36,.12,.77,.12,.77,.19,.41,.89,.68,1.35,.42,.21-.12,.33-.36,.33-.36,.12-.15,.2-.34,.2-.53,0-.69-.75-1.17-1.37-.97h0Zm2.2-2.88c-.6-.04-1.18-.47-1.03-1.19,.07-.33,.32-.6,.66-.72t.03-.01c.48-.14,1.03,.01,1.31,.46,.09,.15,.15,.33,.11,.51,.01,.16-.02,.32-.09,.46,.17,0,.35,.03,.51,.08-.04-.11-.06-.22-.05-.34,.02-.19,.14-.36,.3-.47,0,0,.14-.18,.35-.24,.32-.1,.71-.02,.95,.29,0,0,.01,.02,.02,.03,.15,.19,.19,.43,.14,.65,.57-.03,1.23,.32,1.2,1.03,0,.14-.07,.27-.1,.41-.09,.29-.29,.53-.56,.67-.41,.21-.96,.14-1.34-.11,0,0-.01,.01-.02,.02-.02,.06-.03,.06-.04,.09-.17,.35-.56,.55-.96,.58,.05,.03,.09,.05,.13,.09,.24,.2,.35,.49,.29,.8-.09,.48-.46,.66-.83,.64-.31-.02-.63-.12-.76-.43-.18-.42,.07-.96,.53-1.14,0,0,.02,0,.03-.01-.11-.02-.24-.05-.34-.1-.02-.01-.04-.02-.06-.03-.17,.48-.69,.84-1.16,.76-.79-.13-1.27-1.19-.81-1.84,.13-.19,.31-.31,.54-.39,.28-.09,.59-.05,.84,.1,0-.22,.08-.43,.2-.61h0Zm5.24-.74c.6-.19,1.36,.57,.92,1.17-.26,.35-.85,.39-1.18,.07,0,0-.19-.15-.24-.35-.1-.36,.14-.77,.5-.89h0Zm-7.51-.22c-.1,.03-.15,.07-.2,.13-.19,.12-.27,.38-.18,.58,.22,.48,.84,.2,.84,.2,.11-.07,.2-.17,.24-.29,.11-.37-.34-.73-.69-.62h0Zm3.44-2.09c-.2,.07-.31,.18-.37,.34-.26,.67,.7,1.04,1.03,.72,.23-.14,.34-.46,.23-.71-.14-.31-.55-.46-.88-.35Z"/>
    </g>
    <g>
      <path class="cls-4" d="M466.41,9.5c1.58,3.29,6.61,4.89,9.68,3.09,1.81-1.07,2.82-3.05,3.2-4.7,.32-1.38,.39-3.06-.71-4.68-1.69-2.5-3.67-2.87-5.76-3.15-1.65-.23-5.34,.34-6.78,3.74-.8,1.88-.46,4,.37,5.71Z"/>
      <path class="cls-2" d="M478.28,7.12c.18-.9,.2-1.74-.35-2.88-.42-.88-1.34-.85-1.76-.56-.64,.44-.33,2.56-.35,3.85-.02,1.45,2.07,1.59,2.46-.4Z"/>
      <path class="cls-3" d="M471.07,5.42c.16,.36,.94,.24,1.64,0,.72-.25,1.36-.69,1.2-1.05-.15-.34-.89-.27-1.58-.03-.72,.25-1.41,.75-1.26,1.08h0Zm1.47,3.43c.33-.2,.03-.91-.43-1.54-.48-.66-1.14-1.23-1.44-1.05-.28,.17,.1,.97,.61,1.64,.45,.6,1,1.1,1.26,.94h0Zm-2.92-6.99c.65-.09,1.37,2.91,.68,3.01-.34,.05-.64-.55-.84-1.22-.24-.81-.31-1.72,.16-1.79h0Zm-1.67,6.84c.31,.28,1.06-.36,1.55-1.07,.39-.56,.61-1.17,.35-1.41-.24-.22-.84,.32-1.31,.95-.46,.62-.81,1.34-.6,1.53h0Zm-1.6-4.25c-.13,.39,.7,.84,1.55,1.07,.8,.22,1.62,.25,1.73-.11,.09-.32-.61-.71-1.39-.96-.84-.27-1.77-.36-1.89,0Z"/>
    </g>
    <g>
      <path class="cls-3" d="M468.44,50.45c-1.09,.43-3.28,.89-3.04,1.57,.15,.72,1.72,.06,2.57-.2-.92,.75-2.52,2-2.12,2.64,.36,.58,1.82-.8,2.59-1.47-.61,.94-1.74,2.66-1.08,2.95,.76,.34,1.97-2.17,2.84-3.55-.36,1.49-1.49,3.81-.33,4.05,.88,.18,1.38-2.54,1.4-3.33l-2.83-2.67Z"/>
      <path class="cls-4" d="M477.07,43.22c-1.16-1.04-2.29-1.72-3.48-1.87-1.37-.17-2.81,.37-4.46,1.9-1.83,1.7-3.06,3.47-2.01,6.19,.71,1.85,1.91,3.93,4.32,4.84,3.47,.93,4.93-.46,6.59-2.41,2.66-3.11,1.77-6.09-.96-8.66Z"/>
      <path class="cls-2" d="M473.36,43.78c-.98-1.04-2.72-.21-3.91,1.12-1.13,1.26-1.69,3.22-.57,4,.79,.55,2.25,.03,3.33-1.36,1.1-1.43,1.91-2.96,1.16-3.76Z"/>
    </g>
    <g>
      <path class="cls-4" d="M502.22,29.23c-3.39,1.4-5.83,4.24-3.16,9.45,1.22,2.38,3.74,3.91,7.74,3,2.93-.67,4.5-3.31,4.47-6.23-.3-5.71-4.52-8.09-9.05-6.22Z"/>
      <path class="cls-2" d="M505.05,37.65c-1.15-.15-1.62,.32-1.94,1.06-.33,.76,.1,1.74,.99,2.1,.81,.34,1.91,.15,2.35-.7,.72-1.38,0-2.29-1.39-2.47Z"/>
      <path class="cls-3" d="M504.19,35.06c-.3-.23-.82,.13-1.35,.74-.6,.69-1.12,1.65-.76,1.88,.31,.21,1.03-.43,1.58-1.12,.53-.66,.77-1.32,.54-1.5h0Zm.84-.03c.2-.39,1.09-.07,1.68,.28,.79,.47,1.45,1.07,1.15,1.49-.21,.31-1.02-.07-1.72-.48-.85-.5-1.28-.98-1.12-1.29h0Zm-1.18-.73c.1-.27-.68-.69-1.42-.96-.82-.3-1.68-.35-1.75-.02-.09,.45,.68,.85,1.55,1.05,.78,.19,1.49,.31,1.62-.07h0Zm4.07-2.48c-.23-.29-1.24,.15-1.83,.63-.52,.42-1.1,1.17-.87,1.5,.18,.25,.98-.1,1.56-.53,.84-.61,1.45-1.22,1.14-1.61h0Zm-3.73-1.73c.44-.06,.69,.87,.72,1.79,.02,.82-.13,1.62-.5,1.67-.4,.06-.71-.77-.77-1.7-.05-.79,.05-1.69,.55-1.76Z"/>
    </g>
    <path class="cls-1" d="M474.53,27.75c-5.81,11.44-20.31,20.2-30.13,19.14-.93-7.43-7.7-11.81-15.5-7.18-3.8-7.67-10.98-10.37-20.28-12.34,9.04-1.33,15.47-3.86,17.55-11.99,8.44,9.25,19.8,5.62,21.8-4.07,10.78,2.65,21.57,9.23,26.56,16.44Z"/>
    <path class="cls-6" d="M429.38,57.63c.18-.05,.33-.15,.42-.32h0c.06-.11,.08-.22,.07-.32h0c-.01-.12-.06-.22-.13-.31-.03-.07-.08-.14-.14-.2-.09-.09-.21-.15-.33-.18-.12-.03-.26-.02-.38,.03-.06,.02-.11,.06-.16,.1-1.05,0-2.1,.04-3.14,.1l-.54,.03c-.01-.16-.05-.32-.1-.48-.05-.16-.13-.31-.22-.45l.26-.28c1.01-1.08,2.03-2.17,2.77-3.43,.05,0,.09-.02,.14-.04,.05-.02,.1-.06,.14-.11h0s0,0,0,0c0,0,.01-.01,.02-.02,.15-.12,.25-.3,.29-.47,.02-.08,.02-.17,0-.25-.02-.08-.05-.16-.1-.22h0s0,0,0,0c-.09-.11-.22-.19-.41-.23-.14-.03-.26,0-.37,.06-.1,.06-.17,.14-.22,.24-.04,.01-.09,.02-.13,.04-.06,.03-.11,.07-.15,.13-.06,.08-.08,.18-.07,.28h0c0,.09,.04,.18,.09,.26-.62,.94-1.41,1.75-2.19,2.56-.27,.28-.55,.57-.81,.85-.04-.02-.08-.04-.12-.05-.04-.02-.08-.03-.13-.04-.05-.65-.09-1.3-.15-1.94-.05-.65-.11-1.3-.16-1.95,.05-.04,.08-.1,.1-.16,.02-.06,.02-.14,0-.21,.02-.26-.14-.48-.35-.62h0c-.08-.05-.17-.09-.26-.12-.09-.02-.18-.03-.27-.01-.15,.03-.26,.12-.32,.29-.06,.04-.11,.08-.14,.14-.04,.06-.07,.14-.08,.23-.02,.17,.03,.31,.13,.41h0c.09,.1,.22,.17,.36,.2,.05,.63,.09,1.25,.14,1.87,.04,.64,.08,1.25,.12,1.86-.02,0-.04,.01-.07,.02-.04,.01-.09,.03-.13,.05-.06,.02-.13,.05-.18,.08h0s-.08,.04-.12,.07c-.57-.62-1.16-1.22-1.75-1.83-.39-.4-.78-.8-1.18-1.22,.02-.06,.04-.12,.04-.18,0-.08,0-.16-.03-.24-.05-.13-.14-.23-.24-.3-.11-.07-.25-.11-.39-.11-.1-.03-.21-.04-.31-.03-.1,.01-.19,.05-.27,.12h0s0,0,0,0c-.02,.02-.03,.04-.05,.06h0c-.06,.05-.12,.09-.16,.14h0c-.05,.06-.08,.12-.11,.18h0s0,0,0,0c-.02,.05-.01,.11,0,.16h0c.02,.06,.06,.11,.1,.15,.03,.02,.06,.05,.09,.07h0s.07,.04,.1,.06c.02,0,.04,.02,.06,.02h.02c.09,.1,.2,.18,.32,.23,.1,.04,.21,.06,.32,.04,.75,.85,1.54,1.7,2.33,2.54l.57,.61c-.1,.16-.16,.33-.2,.5-.04,.18-.04,.36-.02,.54-.62,.01-1.25,.01-1.86-.03-.63-.04-1.24-.13-1.8-.28-.03-.12-.08-.23-.16-.34h0c-.08-.11-.2-.21-.33-.28-.12-.06-.24-.09-.35-.1-.14,0-.27,.02-.38,.09-.11,.06-.2,.15-.26,.27-.05,.09-.07,.19-.08,.29h0s0,.06,0,.09h0s0,.05,.02,.08c0,.05,0,.1,.01,.15,.01,.05,.03,.11,.06,.16h0s0,0,0,0h0c.06,.12,.17,.22,.29,.3,.13,.08,.28,.15,.44,.17,.16,.02,.32,0,.45-.07,.07-.04,.14-.1,.19-.18h0s.02-.03,.02-.03c.58,.2,1.23,.3,1.91,.34,.68,.05,1.38,.04,2.03,.02,.01,.03,.03,.06,.04,.09h0s0,0,0,0c.02,.04,.04,.08,.07,.12l.02,.07v.03c-.21,.29-1.11,1.42-1.89,2.34-.31,.36-.59,.69-.81,.93-.19,.2-.28,.35-.29,.34-.16-.14-.46-.12-.71,0-.1,.05-.2,.11-.28,.2-.08,.08-.14,.18-.18,.29-.07,.24-.01,.54,.31,.86,.17,.17,.44,.24,.68,.21,.13-.02,.25-.06,.35-.12,.11-.07,.2-.16,.25-.28,.07-.17,.08-.38-.02-.63,.19-.16,.67-.66,1.19-1.24,.79-.87,1.71-1.91,1.96-2.22,.09,.06,.19,.11,.29,.15h0c.11,.04,.22,.07,.33,.09,.05,.65,.11,1.31,.17,1.96,.06,.65,.13,1.3,.21,1.95h0s0,0,0,0c-.18,.05-.31,.17-.39,.31h0c-.08,.16-.1,.36-.07,.54,.03,.17,.11,.32,.22,.44,.1,.11,.23,.2,.36,.25,.14,.05,.29,.07,.44,.04,.14-.02,.28-.09,.4-.2,.07-.06,.12-.13,.16-.2,.09-.15,.11-.31,.08-.47-.03-.15-.11-.3-.22-.42-.07-.08-.15-.15-.25-.2-.04-.68-.08-1.37-.12-2.05-.04-.62-.08-1.3-.13-2.04,.05-.02,.09-.04,.14-.06h0s.08-.05,.12-.07c.41,.48,.83,.97,1.27,1.42,.45,.46,.92,.88,1.43,1.22-.02,.12,0,.26,.06,.37,.06,.13,.16,.24,.3,.32h0s.06,.03,.08,.04c.02,.01,.05,.02,.08,.03,.1,.06,.22,.1,.34,.1,.11,0,.22-.04,.3-.12h.01c.07-.05,.13-.1,.18-.16h0c.05-.07,.09-.15,.11-.24,.04-.2,.02-.43-.08-.63-.09-.16-.23-.29-.44-.35-.11-.03-.22-.03-.32-.01-.09,.02-.17,.05-.24,.1-.67-.47-1.27-1.15-1.83-1.79-.2-.22-.39-.44-.58-.64h0s-.1-.12-.1-.12h0s-.06-.07-.06-.07c.05-.08,.1-.17,.14-.27,.04-.09,.07-.19,.1-.29h.31c1.07-.06,2.15-.11,3.23-.11,.01,.08,.04,.16,.08,.23h0c.05,.09,.12,.16,.22,.21h0c.17,.09,.37,.11,.54,.06h0Zm-.73-.38h0s0,0,0,0h0Zm-5.44-7.09h0s0,0,0,0Z"/>
    <path class="cls-6" d="M151.22,31.5c-1.91-1.37-4.45-2.57-4.29-3.45,.75-1.34,3.77,.91,6.58,2.4-.56-2.34-2.45-6.02-1.13-6.63,1.42-.31,2.08,2.53,2.75,3.98,1.22-2.08,3.23-5.3,3.98-4.8,.89,.59-1.39,3.48-2.7,6.18,2.45-1.13,5.82-2.45,6.35-1.38,.55,1.1-3.72,2.71-6.47,3.94,3.03,1.78,8.68,4.76,7.96,5.99-.8,1.01-4.11-1.11-6.61-2.31,.54,1.94,1.5,5.01,.58,5.42-1.4,.17-2.72-4.54-3.56-6.71-1.38,2.93-3.01,6.64-3.82,6.31-.88-.37,.9-4.4,2.45-7.63-2.42,1.01-6.19,2.87-6.83,2.13-.72-.83,1.7-2.21,4.78-3.45Z"/>
  </g>
</svg>