<?xml version="1.0" encoding="UTF-8"?>
<svg id="Layer_2" data-name="Layer 2" xmlns="http://www.w3.org/2000/svg" viewBox="0 0 138.73 23.26">
  <defs>
    <style>
      .cls-1 {
        fill: #fff;
      }

      .cls-2 {
        fill: #04a7e0;
      }

      .cls-3 {
        fill: #78bd43;
      }
    </style>
  </defs>
  <g id="Layer_7" data-name="Layer 7">
    <g>
      <g>
        <path class="cls-1" d="M32.63,14.06h-3.46v5.42h-3.06V2.86h6.86c4.05,0,6.61,2.17,6.61,5.54,0,3.72-3.13,5.66-6.96,5.66Zm.1-8.56h-3.56v5.94h3.56c2.31,0,3.75-1.2,3.75-2.97,0-1.96-1.47-2.97-3.75-2.97Z"/>
        <path class="cls-1" d="M43.52,19.48h-3.01V7.04h3.01v2.8c.82-1.86,2.34-3.14,4.65-3.04v3.02h-.17c-2.64,0-4.48,1.63-4.48,4.93v4.74Z"/>
        <path class="cls-1" d="M54.71,19.77c-4,0-6.96-2.9-6.96-6.46s2.99-6.53,7.01-6.53,6.99,2.9,6.99,6.48-2.98,6.51-7.04,6.51Zm0-10.49c-2.41,0-3.95,1.79-3.95,3.99s1.67,4.03,4,4.03,3.98-1.79,3.98-3.98-1.67-4.03-4.03-4.03Z"/>
        <g>
          <path class="cls-3" d="M78.8,19.48h-3.23l-1.77-3.98h-8.23l-1.79,3.98h-3.13l7.66-16.62h2.83l7.66,16.62Zm-9.13-13.16l-2.98,6.6h5.99l-3.01-6.6Z"/>
          <path class="cls-3" d="M93.79,6.78c2.86,0,4.6,1.72,4.6,4.76v7.95h-3.01v-7.07c0-1.98-.97-3.04-2.66-3.04s-2.81,1.08-2.81,3.09v7.02h-3.01v-7.1c0-1.93-1-3.02-2.66-3.02s-2.81,1.18-2.81,3.11v7h-3.01V7.04h3.01v1.88c.85-1.11,1.99-2.14,4-2.14,1.89,0,3.21,.87,3.9,2.19,1.07-1.32,2.46-2.19,4.45-2.19Z"/>
          <path class="cls-3" d="M107.06,19.74c-2.16,0-3.53-1.04-4.45-2.19v5.71h-3.01V7.04h3.01v2.07c.97-1.3,2.34-2.33,4.45-2.33,3.11,0,6.12,2.33,6.12,6.48s-2.98,6.48-6.12,6.48Zm-.7-10.49c-2.04,0-3.83,1.58-3.83,4.01s1.79,4.01,3.83,4.01,3.75-1.53,3.75-4.01-1.72-4.01-3.75-4.01Z"/>
          <path class="cls-3" d="M122.7,19.48v-1.53c-.9,1.01-2.26,1.79-4.25,1.79-2.49,0-4.68-1.34-4.68-3.84v-.05c0-2.69,2.26-4.01,5.32-4.01,1.59,0,2.61,.21,3.63,.52v-.31c0-1.72-1.14-2.67-3.23-2.67-1.47,0-2.56,.31-3.75,.78l-.82-2.29c1.44-.61,2.86-1.04,5-1.04,3.88,0,5.77,1.93,5.77,5.26v7.38h-2.98Zm.07-5.28c-.77-.28-1.84-.5-3.01-.5-1.89,0-3.01,.73-3.01,2.01v.05c0,1.18,1.12,1.84,2.54,1.84,1.99,0,3.48-1.06,3.48-2.62v-.78Z"/>
          <path class="cls-3" d="M133.36,19.77c-3.9,0-6.79-2.9-6.79-6.46s2.88-6.53,6.81-6.53c2.49,0,4.03,.87,5.25,2.14l-1.87,1.91c-.92-.92-1.89-1.56-3.41-1.56-2.19,0-3.78,1.79-3.78,3.99s1.62,4.03,3.93,4.03c1.42,0,2.46-.64,3.41-1.55l1.82,1.7c-1.29,1.37-2.81,2.33-5.37,2.33Z"/>
        </g>
      </g>
      <g>
        <path class="cls-3" d="M11.68,1.16s0,0,0,0c-.64-.64-1.79-1.16-3.51-1.16H.85C-.06,0-.27,.52,.37,1.16L10.52,11.32l5.66-5.66L11.68,1.16Z"/>
        <path class="cls-2" d="M21.25,10.74l-5.07-5.07h0S.37,21.47,.37,21.47c-.64,.64-.42,1.16,.48,1.16h7.33c1.7,0,2.85-.51,3.49-1.15l7.44-7.44,2.15-2.15c.32-.32,.32-.84,0-1.16Z"/>
      </g>
    </g>
  </g>
</svg>