<?xml version="1.0" encoding="utf-8"?>
<!-- Generator: Adobe Illustrator 27.0.0, SVG Export Plug-In . SVG Version: 6.00 Build 0)  -->
<svg version="1.1" id="Layer_2_00000134210799629916607090000016906144711354591115_"
	 xmlns="http://www.w3.org/2000/svg" xmlns:xlink="http://www.w3.org/1999/xlink" x="0px" y="0px" viewBox="0 0 256.6 162.6"
	 style="enable-background:new 0 0 256.6 162.6;" xml:space="preserve">
<style type="text/css">
	.st0{fill:#FFFFFF;}
	.st1{enable-background:new    ;}
	.st2{fill:#DBA510;}
</style>
<g id="Layer_7">
	<path class="st0" d="M62.3,127.2L62.3,127.2C62.3,127.2,62.3,127.2,62.3,127.2C62.3,127.2,62.3,127.2,62.3,127.2z"/>
	<g>
		<path class="st0" d="M79.1,22.2c-0.4-1-0.5-1.9-0.6-2.6c0-0.5,0.1-1.8,0.3-2.9c0.4-2,1.7-4.4,2.6-5.3c0.2-0.1,0.3-0.1,0.4-0.1h0.1
			c0.5-0.5,1.3-1,2.1-1.2c-0.1-0.1-0.1-0.2-0.1-0.3V9.7l0-0.4c0-1.2,0.7-1.5,1.2-1.7c0.1,0,0.2,0,0.2-0.1c0.3-0.1,0.8-0.3,1.2-0.3
			c0.1,0,0.1,0,0.2,0c0.2,0,0.6,0.2,0.8,0.2c0.3,0,1.6,0.2,1.6,0.5C89,8,89,8,89,8c0.7,0.2,1.1,0.4,1.5,0.7c0.2,0.1,0.4,0.3,0.6,0.4
			c0.2,0.1,0.5,0.4,0.6,0.6c0.1,0.2,0.2,0.5,0.3,0.7c0.3,0.6,0.7,1.5,0.7,2c0,0.1,0,0.1,0,0.1c0,0.2,0,0.3,0,0.5
			c0,1-0.2,2.2-0.4,3.3c0,0,0,0.1-0.1,0.2c-0.1,0.2-0.1,0.4-0.3,0.8l-0.1,0.5l-0.2,0.9c0.5,0.2,1.5,0.5,2.3,0.5
			c1.2,0,1.1-0.1,1.9-0.6c0.3-0.5,0.3-1.3,0.6-1.3c0.9,0,0.8,0.2,0.8,0.7c0,0-0.1,0.2-0.2,0.3l-0.2,0.1c0,0,0,0-0.1,0.1l-0.7,0.7
			l-0.6,0.3L94.8,20c-0.3,0,0.2,0.1-1.3,0.1c-0.3,0-0.8-0.2-1.2-0.3l-1-0.3l-0.1,0.2c0,0.2-0.5,0.9-0.5,1S90.7,21,90.7,21v0
			c0,0.1,0,0.2-0.1,0.2c0,0.1-0.6,1.4-0.9,1.8c-0.1,0.3-0.3,0.5-1,1.3c-0.3,0.4-0.7,0.8-0.8,0.8c-0.1,0.3-0.6,0.5-0.9,0.5l-0.1,0
			L86.6,26c-0.4,0.2-0.8,0.3-1.3,0.3c-0.1,0-0.3,0.1-0.5,0.1h-0.6C81.6,26.1,80,24.2,79.1,22.2L79.1,22.2z M83.2,21.2l0.1,0.5
			c0,0.7,0.8,2.1,1.3,2.7c0.1,0,0.1,0.1,0.2,0.2c0.3,0.3,0.7,0.5,1.1,0.5c1.4,0,2.7-1.7,3.6-3.8c0.4-0.7,0.8-1.8,0.9-2.2
			c-0.1,0-0.2-0.2-0.4-0.3c-0.3-0.2-0.9-0.5-1.4-1L88,17.3l-0.4-0.5c-0.2-0.3-0.5-0.7-0.7-1.1L86.5,15c-0.3-0.6-0.5-1.2-0.9-1.9
			c-0.1-0.1-0.2-0.3-0.3-0.6l-0.2,0.8c-0.2,0.6-0.2,0.8-0.6,1.6l-0.3,0.5c0,0.1-0.2,0.4-0.2,0.6l-0.2,0.6c-0.3,0.7-0.6,2.5-0.6,3.5
			C83.2,20.4,83.2,20.8,83.2,21.2L83.2,21.2z M87,12.8c0.1,0.3,0.1,0.4,0.1,0.5c0,0,0,0.1,0,0.1c0,0,0,0,0,0v0c0,0.1,0,0.1,0.1,0.3
			c0,0,0,0-0.1,0c-0.1,0-0.1,0-0.1,0c0,0,0,0,0,0.1l0.1,0.1v0c0.1,0.2,0,0.5,0.1,0.5c0,0.1,0.2,0.4,0.3,0.5h0.1v0.1
			c0,0.1,0.1,0.4,0.2,0.6c0.1,0.1,0.2,0.4,0.4,0.4l0,0c0,0.1,0.1,0.2,0.2,0.2h0c0,0.1,0,0.1,0,0.1c0,0,0,0-0.1,0h0
			c0.1,0.2,0.3,0.4,0.5,0.5c0.4,0.3,0.9,0.8,1.6,1.3c0.1,0.2,0.3,0.2,0.3,0.3l0-0.1c0,0,0,0,0-0.1c0.1-0.2,0.7-2.8,0.7-3.5v-0.3
			c0-0.2,0-0.3,0-0.5v-0.2c0-0.1,0-0.2,0-0.3c0-1-0.1-1.5-0.2-1.8c-0.1-0.3-0.2-0.8-0.4-1.1l-0.1-0.2l-0.1-0.1
			c-0.1-0.1-0.2-0.2-0.3-0.3c-0.5-0.4-1.4-0.6-1.6-1c-0.1-0.1-0.1-0.2-0.1-0.2c-0.1,0-0.2,0-0.2,0c-0.2,0-0.3,0-0.5,0.2l-0.1,0.1
			c-0.2,0.2-0.3,0.4-0.5,0.8c0,0.5-0.2,1.2-0.3,1.3c-0.1,0.1-0.1,0.3-0.1,0.5C86.8,11.7,86.9,12.3,87,12.8L87,12.8z"/>
		<path class="st0" d="M93.9,25.2l-0.1-0.1V25c0-0.3,0.1-0.6,0.1-0.9c0-0.2-0.1-0.5-0.1-0.6c0-0.6,0.2-1,0.3-1.6
			c-0.2-0.6,0.3-1.7,0.5-2.2c0,0-0.1-0.2,0-0.2c0.3-0.8,1.1-2.6,1.1-3.6c0-0.2,0-0.4,0.2-0.4c0.6,0,1.4,0.4,1.6,1.1l0.3,0
			c0.1,0.3,0.1,0.5,0.1,0.8c0.3,0.2,0.4,0.9,0.4,1.2L98.1,19v0c0.7-0.7,2.6-2.9,3.6-2.9c0.8,0,1.5,1.2,1.5,1.9c0,0.2,0,0.4,0,0.6
			c0.2,0.2,0.3,0.4,0.4,0.6c-0.5,1.5-1,3-1.6,4.5v0.1c-0.2,0.4-0.5,1.2-0.5,1.6c0,0.1,0,0.1,0,0.2c2.8-0.5,4.8-6.9,5.7-6.9
			c0.2,0,0.3,0.2,0.3,0.4c0,0.1,0,0.2-0.1,0.3h0c-0.8,1.5-1.5,2.8-2.4,4.2v0c-0.3,0.8-1,1.5-1.7,2c-0.3,0.2-1.2,1-1.4,1
			c-0.1,0-0.2,0-0.3-0.1c-1.9,0.3-2.8-1.1-2.8-2.9c0-0.9,0.6-3,1-3.8c0.2-0.3,0.8-1.2,0.8-1.5v-0.1c0.1-0.1,0.2-0.3,0.2-0.4
			c-0.1,0.1-0.2,0.2-0.3,0.3c-0.5,0-1.3,1-1.4,1.4c-0.8,1.1-1.4,2.5-1.9,3.7c0,0.3,0.1,0.5,0.1,0.8c0,0,0,0.1,0,0.1v0
			c-0.2,0.4-0.9,2.5-1.2,2.5c-0.1,0-0.3-0.1-0.4-0.1c0,0.2-0.1,0.3-0.3,0.3C94.6,26.8,94,25.7,93.9,25.2L93.9,25.2z"/>
		<path class="st0" d="M64.5,43c0-0.7,0.2-1.6,0.4-2.3c0.5-1.4,2.3-5.2,4.1-5.2c0.4,0,0.8,0.1,0.9,0.5c0.2-0.2,0.4-0.3,0.7-0.5
			c0.4,0,0.8,1.5,0.8,1.9c0,0.8-0.6,1.3-0.6,2c0,0.3-0.1,0.4-0.4,0.4c-0.7,0-1.1-0.8-1.3-1.4l-0.1,0.1l-0.1,0.3v0
			c-0.1,0.5-0.4,0.9-0.6,1.3c-0.7,1.4-1.3,2.5-1.3,4.1c0,0.8,0.4,2.2,1.3,2.2c0.1,0,0.2,0,0.3-0.1c1.2,0.2,3.3-3,3.9-3.9
			c0.4-0.5,1.4-2.8,2-2.8c0.2,0,0.3,0.1,0.3,0.3c0,0.8-2.2,3.8-2.8,4.5c-0.3,0.4-0.6,0.9-0.9,1.3c-0.7,0.9-1.9,1.7-3.1,1.7
			C65.9,47.6,64.5,45.1,64.5,43L64.5,43z"/>
		<path class="st0" d="M75.9,46.4c-0.2,0-0.3,0-0.5-0.1c-1.3-0.5-2.1-1.9-2.1-3.2c0-2.5,0.2-4.3,2.1-6.2c0.7-0.8,2.1-1.7,3.2-1.7
			s3,1.2,3,2.4c0,0.2-0.4,0.3-0.5,0.3c-1.1,0-2.7,0.8-3.4,1.7c-0.9,1.1-1.1,2.3-1.3,3.7c-0.1,0.4-0.2,0.8-0.2,1.2
			c0,0.8,0.5,1.2,1.2,1.2c0.3,0,0.6-0.1,0.9-0.2c0.3-0.1,0.4-0.5,0.7-0.7c0.4-0.3,0.8-0.8,0.9-1.3c-0.6-0.3-1.2-1.7-1.2-2.3
			c0-0.8,0.2-1.8,1.2-1.8c0.4,0,1,0.2,1.1,0.7h0.1c0.1,0.1,0.1,0.6,0.1,0.7v0.2c0.1,0.1,0.2,0.3,0.2,0.4c0,0.2-0.1,0.3-0.1,0.5
			c0,0.2,0.1,0.4,0.1,0.6c0,0.1-0.4,0.8-0.5,1c0.1,0,0.3,0,0.4,0c0.7,0,2.1-1.7,2.5-2.3c0.2-0.3,1.1-1.8,1.2-2
			c0.1,0,0.2-0.1,0.3-0.1c0.2,0,0.3,0.1,0.3,0.3c0,0.1-0.1,0.3-0.1,0.4c-0.4,1.3-2.7,4.6-4.2,4.6c-0.2,0-0.4,0-0.6-0.1
			c-0.2,0.3-0.6,0.5-0.7,0.8c-0.2,0.5-1.5,1.4-2,1.5c-0.3,0.1-0.7,0.2-1,0.2C76.4,46.7,76.3,46.5,75.9,46.4L75.9,46.4z M79.9,42.5
			l0.3,0.4c0.2-0.3,0.3-0.7,0.4-1c-0.1-0.3-0.2-1.3-0.7-1.3l-0.1,0l-0.1,0.2c0,0.1-0.1,0.5-0.1,0.6C79.7,41.7,79.9,42.1,79.9,42.5
			L79.9,42.5z"/>
		<path class="st0" d="M83.5,45.4l-0.1-0.1v-0.1c0-0.3,0.1-0.6,0.1-0.9c0-0.2-0.1-0.5-0.1-0.6c0-0.6,0.2-1,0.3-1.6
			c-0.2-0.6,0.3-1.7,0.5-2.2c0,0-0.1-0.2,0-0.2c0.3-0.8,1.1-2.6,1.1-3.6c0-0.2,0-0.4,0.2-0.4c0.6,0,1.4,0.5,1.6,1.1l0.3,0
			c0.1,0.3,0.1,0.5,0.1,0.8c0.3,0.2,0.4,0.9,0.4,1.2l-0.1,0.3v0c0.7-0.7,2.6-2.9,3.6-2.9c0.8,0,1.5,1.2,1.5,1.9c0,0.2,0,0.4,0,0.6
			c0.2,0.2,0.3,0.4,0.4,0.6c-0.5,1.5-1,3-1.6,4.5V44c-0.2,0.4-0.5,1.2-0.5,1.6c0,0.1,0,0.1,0,0.2c2.8-0.5,4.8-6.9,5.7-6.9
			c0.2,0,0.3,0.2,0.3,0.4c0,0.1,0,0.2-0.1,0.3h0c-0.8,1.5-1.5,2.8-2.4,4.2v0c-0.3,0.8-1,1.5-1.7,2c-0.3,0.2-1.2,1-1.4,1
			c-0.1,0-0.2,0-0.3-0.1c-1.9,0.3-2.8-1.1-2.8-2.9c0-0.9,0.6-3,1-3.8c0.2-0.3,0.8-1.2,0.8-1.5v-0.1c0.1-0.1,0.2-0.3,0.2-0.4
			c-0.1,0.1-0.2,0.2-0.3,0.3c-0.5,0-1.3,1-1.4,1.4c-0.8,1.1-1.4,2.5-1.9,3.7c0,0.3,0.1,0.5,0.1,0.8c0,0,0,0.1,0,0.1v0
			c-0.2,0.4-0.9,2.5-1.2,2.5c-0.1,0-0.3-0.1-0.4-0.1c0,0.2-0.1,0.3-0.3,0.3C84.2,47,83.6,45.8,83.5,45.4L83.5,45.4z"/>
		<path class="st0" d="M97.3,46.1c-0.4,0-1-0.2-1.4-0.4c-0.4-0.2-0.8-0.7-0.8-1.2c0-1.1,2-1.8,2.9-1.8c0.1,0,0.2,0,0.3,0
			c0.2-0.1,0.3-0.6,0.3-0.8c0-0.4,0.2-0.7,0.2-1c0-0.1,0-0.2-0.1-0.3l0.2-1.2c-0.2-0.4-0.1-0.8-0.3-1.2l-0.4-1.2
			c-0.2,0-2,3.7-2.4,3.9c-0.1,0-0.1-0.2-0.1-0.3c0-0.8,1.7-3.4,2.1-4.4l-0.2-3c0-0.3,0.9-1.2,1-1.5c0.2-0.2,0.6-0.6,0.8-0.6
			c0.2,0,0.3,0.1,0.4,0.2c0.9,0.6,1.2,0.9,1.5,2c0.1,0.2,0.1,0.3,0.1,0.5c0,0.6-0.9,1.6-1.2,2.2c0.5,0.8,0.9,1.8,1.2,2.7l0.3,0.3
			l0.3,0.8c0,0,0.1,0.1,0.1,0.1c0,0.1-0.1,0.2-0.1,0.3c0.1,0.3,0.2,0.7,0.2,1c0,0.1,0,0.2-0.1,0.2c-0.1,0.4-0.5,0.7-0.6,1.1
			c0.5-0.2,0.9-0.3,1.4-0.6c0.9-0.6,1.5-1.4,2.1-2.3c0.1-0.2,0.2-0.5,0.3-0.6c0.1-0.1,0.2-0.2,0.3-0.2c0.2,0,0.3,0.2,0.3,0.3
			c0,0.3-0.2,0.5-0.4,0.8c-0.2,0.3-0.3,0.6-0.5,0.9c-0.1,0.2-0.3,0.3-0.4,0.5c-0.6,1-1.7,1.5-2.8,1.9c-0.3,0.1-0.3,0.2-0.7,0.2
			c0,0.5-0.4,1.4-0.7,1.8c-0.3,0.5-1.9,1-2.5,1C97.8,46.4,97.6,46.2,97.3,46.1L97.3,46.1z M96.6,45.1c0.8,0,1.4-0.7,1.6-1.5h0
			c-0.5,0-2.2,0.6-2.2,1.1C95.9,44.9,96.4,45.1,96.6,45.1L96.6,45.1z"/>
		<path class="st0" d="M106.1,45.1c-0.6-0.5-1.4-1.2-1.4-2c0-1.3,0.6-3.1,1-4.3l0-0.3c0.4-1.6,0.7-3.1,1-4.7
			c-0.8-0.1-5.8-0.5-5.8-1.9c0-0.1,0.1-0.2,0.2-0.2c0.1,0,0.1,0,0.2,0.1l0.4-0.1c1.8,0.7,3.5,0.7,5.3,0.9l0,0.2
			c0.3-0.8,0.9-2.1,1.1-3c0.1-0.5,0.2-3.8,0.8-3.8c0.9,0,1.9,1.2,1.9,2c0,0.2,0,0.3,0,0.5c0.2,0.3,0.2,1,0.4,1.3
			c-0.2,1-0.6,2.1-0.8,3.1l2.2,0.1c0.2,0,0.3,0,0.5,0c1,0,4.2,0.7,4.2,2.2c0,0.2-0.2,0.3-0.3,0.2h-0.2c-0.2-0.8-3.2-1.5-3.9-1.5
			c-0.9,0-1.8-0.1-2.7-0.1c-0.3,1.2-0.3,2.4-0.7,3.5l0.1,0.6c-0.5,1.5-1.8,4.6-1.8,6.1c0,0.3,0,0.5,0.2,0.7c0.9-0.3,3.6-3.6,4-4.5
			c0.2-0.3,1.3-2.5,1.6-2.5c0.1,0,0.2,0.1,0.2,0.2s-0.1,0.2-0.1,0.2c0.6,0.8-4.4,7.7-6.1,7.7C106.8,46,106.4,45.7,106.1,45.1
			L106.1,45.1z"/>
		<path class="st0" d="M92,49.5c1.9-0.6,2.5-0.7,2.7-0.7c0.1,0,0.5,0,1.1-0.1c1.4-0.2,3.3-0.3,5.2-0.3c0.6,0,1.2,0,1.8,0
			c1.6-0.2,2.8-0.3,4-0.3c3,0,4.9,0.7,6.9,1.5c2.6,0.2,3.7,1.5,4.2,2.5l-0.4,0.4c-1.1,1.3-1.7,1.8-2,1.8c-0.3,0-0.5-0.5-0.9-1.1
			c-0.5-0.9-2.8-1.5-4.9-2.1c-0.8-0.2-1.5-0.4-2.2-0.6c-2.4-0.7-4.6-0.8-7.3-1h-0.3c0,0,0,0-0.1,0c-0.1,0-0.1-0.1-0.2,0
			c-0.4,0.1-1,0.1-1.6,0.2c-0.8,0-1.6,0.1-2.1,0.2c-0.4,0.1-1.3,0.1-2,0.1c-0.6,0-1.1,0-1.4,0.1c-0.1,0-0.2,0-0.3,0L91,50L92,49.5
			L92,49.5z M114.5,44.1c0-0.3,0.1-0.7,0.2-1.2c0.1-0.4,0.2-0.9,0.2-1.3c0-0.9,0.4-1.8,0.8-2.5c0.3-0.5,0.6-1.1,0.5-1.5c0,0,0,0,0,0
			l0-0.2c0,0,0-0.1,0-0.2v0c0,0-0.1,0-0.1,0c-0.1,0-0.2,0.1-0.3,0.1s-0.1,0-0.1,0c-0.1,0-0.1,0-0.1,0c-0.2,0-0.3,0-0.5-0.1
			c-0.2,0-0.6-0.3-0.7-0.1c-0.1,0.2-0.3,0.4-0.4,0.8c-0.1,0.3,0,0.3-0.2,0.5v0l-0.2,0.3l-0.2,0.5c-0.2,0.4-1.3,2-1.4,2
			c-0.1,0-0.2-0.2-0.3-0.7c0,0,0.8-1.5,1-1.8c0.4-0.7,0.9-1.7,0.8-2c0-0.1-0.3-0.5-0.6-0.9c-0.3-0.4-0.6-0.8-0.6-1l0-0.1
			c-0.1-0.1-0.1-0.2-0.1-0.3c-0.1-1.8,1-4.5,2.7-4.5c0.7,0,1.4,0.5,1.4,1.3c0.1,1.3-0.8,3.2-1.3,4.3c-0.2,0.4-0.3,0.5-0.3,0.7
			c0,0,0,0,0.1,0c0.1,0,0.2,0.2,0.4,0.2l0.1,0.2v0l0,0c0.1,0,0.2,0,0.3-0.1h0l1.1-0.6c0.8-0.5,1.4-0.7,1.5-0.7c0.4,0,1.9,1.1,2,2
			c0,0.3-0.2,0.8-0.6,1.5c-0.4,0.7-0.8,1.5-1.2,2.6l-0.6,1.3c-0.2,0.6-0.2,1.2-0.2,1.7v0.4l0.1,0.5c0,0.1,0,0.1,0,0.2l0,0.2
			c0.1,1,0.3,2.3,1,1.7c0.1,0,0.1,0,0.2,0c1,0,3.1-2.8,4-5.2c0.2-0.5,0.3-0.8,0.4-1.2c0.2-0.5,0.3-1,0.6-1.4
			c0.2-0.2,0.2-0.1,0.2,0.1c0,0,0,0.1,0,0.2l0.1,0h0c0.2,0.1,0.2,0.4-0.4,2l-0.2,0.5l-0.2,0.4c-0.3,0.6-0.7,1.5-0.9,1.7l-0.3,0.4
			c-0.3,0.5-0.6,1.1-0.9,1.6c-1.2,1.6-2.3,1.9-3.2,1.9C115.9,48.2,114.7,46.4,114.5,44.1L114.5,44.1z M114.3,35.4l0,0.1
			c0.6-1.3,1.1-2.7,1.1-3.3c0-0.1-0.1-0.2-0.1-0.2c-0.5,0.2-1.3,1.6-1.3,2.4C114,34.7,114.2,35.1,114.3,35.4L114.3,35.4z"/>
		<path class="st0" d="M128.5,43.5c0-0.2,0-0.5,0.1-0.7c-0.1-0.2,0.2-1.6,0.2-1.9c0,0,0,0-0.1,0c-0.1,0-0.4,0.7-0.5,0.7L128,42
			c-0.3,0.5-0.4,1-0.8,1.5c-0.6,0.7-1.6,2-2.6,2s-1.6-0.8-1.6-1.7c0-0.2,0-0.4,0.1-0.6c-0.3-0.4-0.3-1-0.3-1.4
			c0-0.1,0.5-1.2,0.5-1.2c0-0.2-0.1-0.5-0.1-0.7c0-0.3,0.4-2.5,0.4-3c0.1-0.4,0.3-0.8,0.3-1.2l0,0c-0.1-0.2-0.1-0.3,0.2-0.3
			c1.3,0,0.8,0.8,1.7,1.3c0.6,0.3,0.9,0.9,1,1.6c-0.2,0.8-0.4,1.5-0.5,2.2c-0.2,1.1-1.1,2.5-1.1,3.6c0,0.1,0,0.2,0.1,0.3
			c0.8-0.5,4.2-5.5,4.2-6.7c0-0.1,0-0.2,0-0.2c0.2-0.4,0.7-2.3,1-2.3c0.9,0,1.5,1.1,1.5,1.9c0,0.1,0,0.2,0,0.3
			c0.3,0.3,0.6,0.5,0.6,1c0,0.7-0.4,1.5-0.5,2.2L132,41c-0.2,0.3-0.7,1.4-0.7,1.8c0,0.1,0,0.2,0,0.4c-0.1,0.3-0.5,1.2-0.5,1.5
			l0.1,0.2c0.8-0.1,3.4-4,3.8-5c0.2-0.4,0.5-1.8,1.1-1.8c0.1,0,0.3,0.2,0.3,0.3c0,0.5-0.6,1-0.6,1.6v0c-0.2,0.5-0.4,0.8-0.7,1.2
			c-0.2,0.9-0.9,1.6-1.4,2.3v0c-0.1,0.2-0.2,0.3-0.3,0.5c-0.4,0.7-1.6,1.7-2.5,1.7C129.5,45.7,128.5,44.5,128.5,43.5L128.5,43.5z"/>
		<path class="st0" d="M134,42.3c0-0.8,0.1-1.8,0.3-2.7l0.4-1.3c0.2-0.8,0.8-1.6,0.8-2.4c0-0.3,0.2-0.6,0.5-0.8
			c0.2-0.1,0.2-0.1,0.4-0.1c1,0,1.8,1.3,1.8,2.2c0,0.4-0.1,0.7-0.2,1c0.2,0.3,0.1,0.8,0.1,1c-0.2,0.5-0.3,1-0.6,1.5V41
			c-0.3,0.7-0.5,1.4-0.6,2.1l0,0c0.1,0.1,0,0.2-0.1,0.2c-0.2,0.2-0.4,0.7-0.4,1c0,0.2,0.2,0.3,0.3,0.4c0.4-0.2,0.6-0.5,0.9-0.7
			c1.4-1.1,2.3-2.8,3.2-4.3c0.2-0.3,0.4-0.8,0.6-1.1c0.1-0.1,0.3-0.2,0.4-0.2s0.2,0.1,0.2,0.3c0,0.1,0,0.2-0.1,0.2l0,0.2v0
			c-0.6,0.8-1.1,1.9-1.8,3v0c-0.3,0.6-1.8,2.5-2.3,2.8h0c-0.3,0.2-0.6,0.5-1,0.6v0c-0.3,0.2-0.6,0.2-0.9,0.2
			C134.7,45.8,134,43.7,134,42.3L134,42.3z M138.9,28.7c0.5,0,1.9,0.6,1.9,1.2c0,0.2-0.1,0.5-0.2,0.6c-0.3,0.5-0.9,1.9-1.6,1.9
			c-1.2,0-1.8-1.1-1.8-2.1C137.3,29.4,138,28.7,138.9,28.7L138.9,28.7z"/>
		<path class="st0" d="M142,45.1c-0.6-0.5-1.4-1.2-1.4-2c0-1.3,0.6-3.1,1-4.3l0-0.3c0.4-1.6,0.7-3.1,1-4.7c-0.8-0.1-5.8-0.5-5.8-1.9
			c0-0.1,0.1-0.2,0.2-0.2c0.1,0,0.1,0,0.2,0.1l0.4-0.1c1.8,0.7,3.5,0.7,5.4,0.9l0,0.2c0.3-0.8,0.9-2.1,1.1-3
			c0.1-0.5,0.2-3.8,0.8-3.8c0.9,0,1.9,1.2,1.9,2c0,0.2,0,0.3,0,0.5c0.2,0.3,0.2,1,0.4,1.3c-0.2,1-0.6,2.1-0.8,3.1l2.2,0.1
			c0.2,0,0.3,0,0.5,0c1,0,4.2,0.7,4.2,2.2c0,0.2-0.2,0.3-0.3,0.2h-0.2c-0.2-0.8-3.2-1.5-3.9-1.5c-0.9,0-1.8-0.1-2.7-0.1
			c-0.3,1.2-0.3,2.4-0.7,3.5l0.1,0.6c-0.5,1.5-1.8,4.6-1.8,6.1c0,0.3,0,0.5,0.2,0.7c0.9-0.3,3.6-3.6,4-4.5c0.2-0.3,1.3-2.5,1.6-2.5
			c0.1,0,0.2,0.1,0.2,0.2s-0.1,0.2-0.1,0.2c0.6,0.8-4.4,7.7-6.1,7.7C142.7,46,142.3,45.7,142,45.1L142,45.1z"/>
		<path class="st0" d="M155.1,55.9c-0.4,0-1-0.2-1.4-0.4l0,0c-0.5-0.3-0.8-0.7-0.8-1.3c0-1.1,2.1-1.7,2.9-1.7c0.1,0,0.2,0,0.3,0
			c0.2-0.1,0.3-0.6,0.3-0.8c0-0.3,0.2-0.7,0.2-1c0-0.1,0-0.2-0.1-0.3l0.2-1.2v0c-0.2-0.3-0.1-0.8-0.3-1.2s-0.2-0.7-0.4-1.1
			c-0.6,0.7-0.8,2.8-1.8,2.8c-0.1,0-0.3,0-0.3-0.2c0-0.1,1.4-3.1,1.5-3.5l-0.6-3.1c0.2-0.6,1-1.2,1.2-1.6c0.2-0.3,0.5-0.5,0.9-0.5
			c0.2,0,1.1,0.6,1.3,0.7c0.4,0.1,0.6,0.5,0.6,0.9c0,0.8-0.6,1.8-1.2,2.3c0.7,1.1,1.1,2.5,1.6,3.7l0.3,0.3l0.3,0.8
			c0,0,0.1,0.1,0.1,0.1c0,0.1-0.1,0.2-0.1,0.3c0.1,0.3,0.2,0.7,0.2,1c0,0,0,0.1-0.1,0.2c-0.1,0.4-0.5,0.7-0.6,1.1
			c0.5-0.1,0.9-0.3,1.4-0.6h0c1.1-0.7,2-1.8,2.5-3c0.1-0.1,0.2-0.1,0.3-0.1c0.2,0,0.3,0.2,0.3,0.3c0,0.3-0.2,0.6-0.4,0.8v0
			c-0.3,0.5-0.6,1-0.9,1.4v0c-0.5,1.1-2.2,1.6-3.2,2.1h-0.3c0,0.5-0.4,1.4-0.7,1.8c-0.3,0.4-2,1-2.5,1
			C155.7,56.1,155.3,56,155.1,55.9L155.1,55.9z M154.4,54.8c0.8,0,1.4-0.7,1.6-1.5h0c-0.6,0-1.9,0.5-2.2,1v0.1
			C153.8,54.7,154.2,54.8,154.4,54.8L154.4,54.8z"/>
		<path class="st0" d="M167.9,54.9c-0.2-0.6-0.1-1.2-0.2-1.8c0,0,0.1-0.2,0.1-0.2l-0.4,0.5c-0.2,0.4-1.1,2.3-1.7,2.3
			c-0.2,0.2-0.7,0.6-1,0.6c-1.7,0-3.2-1.1-3.2-2.8c0-2.2,2.2-6.2,4.3-7.1c0.6-0.4,1.7-0.8,2.4-0.8c0.6,0,2.2,1.1,2.2,1.7
			c0,0.2-0.1,0.3-0.3,0.4c-1.6-0.3-3.6,1.4-4.2,2.8l-0.6,1.2c-0.2,0.3-0.7,1.5-0.8,1.8c-0.1,0.2-0.1,0.4-0.1,0.5l0,0
			c0.1,0.4,0,1.2,0.6,1.2c0.4,0,0.8-0.4,1-0.7c0.6-0.7,2.1-3.7,2.3-4.6c0.1-0.4,0.4-0.6,0.5-1c0-0.4,1.2-0.4,1.5-0.4
			c0.4,0,0.7,0.1,1.1,0.4c0,0,0,0.1,0,0.1c0.2,0.1,0.3,0.3,0.3,0.5c0,0.3-0.4,1-0.4,1.4c-0.1,0.5-0.2,0.8-0.2,1.3
			c0,0.4-0.1,0.7-0.3,1c-0.1,0.3-0.8,2.2-0.8,2.2c0,0.2,0.3,0.2,0.4,0.2c1.7,0,4.1-6.3,4.9-6.3c0.1,0,0.3,0.1,0.3,0.3
			c0,0.1,0,0.2,0,0.3c0,0.1-2.9,4.6-3.2,5.1c-0.5,0.8-1.6,1.8-2.6,1.8C168.9,56.7,168.1,55.7,167.9,54.9L167.9,54.9z"/>
	</g>
	<g class="st1">
		<path class="st2" d="M86.5,118.3L64,76.6c-1.6-3.1-2.8-4.1-6-3.4L57.7,72l23.7-5.1l0.3,1.2c-3.8,0.8-4.8,1.9-2.9,4.5L99,100.4
			l1.9-31.4c0.3-4-1-4.7-4.3-4l-0.3-1.2l10.5-2.2l0.3,1.2c-3.5,0.7-4.3,1.5-4.4,5.9l-2.1,46.7L86.5,118.3z"/>
	</g>
	<g class="st1">
		<path class="st2" d="M112.6,113.5l0-1.3c2.4,0,3.2-0.7,3.3-3.7l1.2-24.4c0.2-3.5-1-4.3-3.9-4.3l0-1.2l19.5-0.2l0,0.3
			c-0.7,0.3-0.9,1.6-0.6,5.3l1.6,24.4c0.2,3,0.8,3.7,3.3,3.6l0,1.3L112.6,113.5z M124.3,75.8c-4.4,0-7.8-2.9-7.9-7.3
			c0-4.4,3.4-7.4,7.8-7.4c4.4,0,7.9,2.9,8,7.3S128.6,75.7,124.3,75.8z"/>
	</g>
	<g class="st1">
		<path class="st2" d="M183.5,110.2c-4.3,6.9-9.5,10.1-22.5,7.5c-12.8-2.5-20.9-8.2-18.6-19.8c2.3-11.6,12.8-18.3,25.7-15.8
			c12.3,2.4,18.3,11.7,16.5,22.6l-25.1-4.9c-1.4,7.7-1.4,7-1.6,9c-0.5,4.8,1.5,6.7,6.7,7.7c9.1,1.8,14.6-1.4,17.7-7L183.5,110.2z
			 M170,93c0.9-5.8,1.3-8.5-2.8-9.3c-2.5-0.5-4.3,0.5-5.5,5.8c-0.6,2.5-1,4.4-1.8,8.6l6.5,1.3c1.9,0.4,2.6,0.3,3-2.7L170,93z"/>
	</g>
	<g>
		<g>
			<path class="st0" d="M119.3,129.2l-0.1-0.1c-0.3-0.5-0.7-0.8-1.3-1.1l-0.4-0.2c-0.2-0.1-0.4-0.2-0.6-0.3
				c-0.3-0.1-0.5-0.3-0.8-0.4c-0.2-0.1-0.3-0.2-0.4-0.4c-0.1-0.1-0.1-0.2,0-0.3c0-0.2,0.1-0.3,0.1-0.4c0.1-0.1,0.1-0.1,0.1-0.2
				c0.1,0,0.1-0.1,0.2-0.1c0.1,0,0.2-0.1,0.4-0.1l0.4-0.1c0.1,0,0.2,0,0.2,0c0.1,0,0.1,0,0.1,0.1c0.1,0.1,0.2,0.1,0.3,0.1
				c0.1,0,0.1,0.1,0.2,0.1c0.1,0.1,0.2,0.2,0.3,0.2c0.2,0.1,0.4,0.1,0.6,0c0.2-0.1,0.2-0.3,0.2-0.4l0-0.1c0-0.2,0-0.3,0-0.4
				c-0.1-0.2-0.2-0.4-0.3-0.5c-0.2-0.2-0.5-0.3-0.8-0.4c-0.2-0.1-0.5-0.1-0.7-0.1c-0.3,0-0.6,0-0.8,0.1l0,0l-0.4,0.1
				c-0.1,0-0.2,0.1-0.3,0.1c-0.2,0.1-0.4,0.3-0.6,0.6c-0.1,0.1-0.2,0.2-0.3,0.4c-0.3,0.4-0.4,0.9-0.4,1.5c0,0.3,0.1,0.5,0.3,0.7
				c0.5,0.7,0.6,0.8,1.3,1.3c0.1,0.1,0.2,0.1,0.4,0.2c0.1,0,0.1,0,0.1,0c0.1,0.1,0.2,0.1,0.2,0.1l0.2,0.1c0.1,0,0.2,0.1,0.2,0.1
				c0,0,0.1,0,0.1,0.1c0.1,0.1,0.2,0.1,0.3,0.1l0.4,0.3l0,0c0.1,0.1,0.2,0.2,0.2,0.4c0,0.1,0,0.2,0.1,0.3c0.1,0.2,0.1,0.5,0,0.7
				l0,0.1c0,0-0.1,0-0.1,0c-0.1,0-0.2,0.1-0.2,0.1c-0.1,0.1-0.3,0.1-0.5,0.2c-0.2,0-0.4,0-0.6,0c-0.4-0.1-0.8-0.2-1.3-0.4
				c0,0-0.1,0-0.1-0.1c-0.1-0.1-0.1-0.1-0.2-0.2c-0.1-0.2-0.4-0.3-0.6-0.2l-0.2,0.1c-0.3,0.1-0.4,0.4-0.4,0.6c-0.1,0.1,0,0.3,0,0.3
				c0,0.1,0.1,0.2,0.1,0.2c0.2,0.2,0.4,0.4,0.6,0.6c0.2,0.1,0.4,0.2,0.6,0.3c0.6,0.2,1.2,0.4,1.7,0.4c0.2,0,0.4,0,0.6-0.1
				c0.1,0,0.1,0,0.2,0l0.2,0l0.3-0.2c0.2-0.1,0.4-0.2,0.6-0.4c0.1-0.1,0.3-0.3,0.3-0.5c0-0.1,0.1-0.1,0.2-0.2
				c0.1-0.2,0.2-0.4,0.2-0.7c0-0.1,0-0.2,0-0.3c0-0.1,0-0.3,0-0.4C119.6,130,119.5,129.6,119.3,129.2L119.3,129.2z"/>
			<path class="st0" d="M126.5,127.1v-1l-0.1-0.3v-0.3c0-0.7,0-1.2-0.1-1.9c0-0.2-0.1-0.4-0.1-0.6c0-0.1,0-0.2-0.1-0.2
				c-0.1-0.2-0.3-0.3-0.5-0.3c-0.2,0-0.3,0.1-0.4,0.1c-0.1,0.1-0.2,0.2-0.3,0.5c0,0.1,0,0.1,0,0.2c0,0.1,0,0.2,0,0.3
				c0,0.1,0,0.2,0,0.3l0,0c0,0.2,0,0.3,0,0.4l0,0.5c0,0.2,0,0.4,0,0.7v0.2c0,0.3,0,0.7,0,1c0,0.1,0,0.3,0,0.4c0,0.1,0,0.2,0,0.2
				c0,0.1,0,0.2,0,0.3c0,0.4-0.1,0.7-0.3,1.2c-0.1,0.1-0.1,0.2-0.2,0.4l-0.1,0.2l-0.1,0.1c-0.1,0.1-0.3,0.2-0.4,0.3
				c-0.2,0.1-0.4,0.1-0.6,0.1c-0.3-0.1-0.6-0.2-0.8-0.5c-0.3-0.3-0.3-0.3-0.4-0.6c-0.2-0.4-0.3-0.9-0.4-1.3c0-0.4-0.1-0.7-0.1-1.1
				c0-0.4,0-0.7,0-1.1c0-0.1,0-0.2,0-0.3v-0.1c0-0.1,0-0.2,0-0.3c0-0.3,0.1-0.6,0-1v-0.2c0-0.1,0-0.1,0-0.2c0-0.1-0.1-0.3-0.2-0.4
				c-0.2-0.1-0.4-0.1-0.6-0.1c-0.1,0-0.2,0.1-0.2,0.1c-0.2,0.1-0.3,0.3-0.3,0.5c0,0.1,0,0.2,0,0.3c0,0.1,0,0.1,0,0.2
				c0,0.2,0,0.3,0,0.5c0,0.2-0.1,0.4-0.1,0.7c-0.1,0.3-0.1,0.7,0,0.9c0,0.2,0,0.3,0,0.5c0,0.2,0,0.5,0.1,0.7l0.1,0.3
				c0,0.2,0.1,0.4,0.1,0.6c0,0.1,0,0.2,0.1,0.2l0.1,0.2c0,0.1,0.1,0.2,0.1,0.3c0.2,0.4,0.4,0.8,0.6,1.2c0.1,0.1,0.1,0.2,0.2,0.3
				l0.5,0.5c0.3,0.2,0.6,0.3,0.9,0.4c0.2,0.1,0.5,0.1,0.7,0.1c0.1,0,0.2,0,0.4,0c0.2,0,0.4-0.1,0.5-0.1l0.4-0.2
				c0.2-0.1,0.3-0.2,0.4-0.3l0.1-0.1c0.1-0.1,0.2-0.2,0.2-0.3l0-0.1c0.3-0.6,0.3-0.7,0.6-1.4c0-0.1,0-0.2,0.1-0.3c0-0.1,0-0.1,0-0.2
				c0-0.1,0-0.2,0.1-0.3v-0.1c0-0.1,0-0.3,0-0.4C126.6,127.2,126.6,127.2,126.5,127.1L126.5,127.1z"/>
			<path class="st0" d="M133.4,127.9c-0.1-0.1-0.2-0.2-0.3-0.4l-0.1-0.1c-0.1-0.1-0.1-0.2-0.2-0.2c-0.1-0.1-0.1-0.2-0.2-0.3
				c-0.1-0.2-0.2-0.3-0.4-0.5l0,0c-0.1-0.2-0.2-0.4-0.3-0.5c-0.1-0.2-0.2-0.3-0.4-0.5l0.5-0.2c0.2-0.1,0.4-0.3,0.6-0.4
				c0.2-0.2,0.4-0.5,0.5-0.7c0.1-0.3,0.1-0.6,0.2-0.8c0.1-0.4-0.1-0.9-0.3-1.4c0-0.1-0.1-0.1-0.1-0.2c-0.3-0.4-0.7-0.7-1.1-0.8
				c-0.4-0.2-0.7-0.2-1.1-0.2c-0.1,0-0.1,0-0.2,0h-0.1c-0.3-0.1-0.7-0.1-1.1,0c-0.1,0-0.2,0.1-0.4,0.1c-0.6,0.2-0.9,0.8-0.8,1.3
				c0,0.1,0,0.2,0,0.3v0.1c0,0.1,0,0.2,0,0.3c0,0.2,0,0.3,0,0.4c0,0.1,0,0.2,0,0.4c0,0.1,0,0.1,0,0.2c0,0.1,0,0.1,0,0.2s0,0.1,0,0.2
				c0,0.1,0,0.2,0,0.2v0.3c0,0.4,0,0.9,0,1.3v1.1c0,0.3,0,0.7,0.1,1.1c0,0.2,0.1,0.4,0.1,0.7c0,0.3,0.2,0.6,0.6,0.6
				c0.2,0,0.3,0,0.5-0.1c0.1-0.1,0.2-0.2,0.2-0.4c0-0.1,0-0.1,0-0.2c0-0.1,0-0.2,0-0.3c0-0.1,0-0.2,0-0.3c0-0.2,0-0.3-0.1-0.5
				c0-0.1-0.1-0.2,0-0.3c0-0.1,0-0.2,0-0.2v-0.1c0-0.2,0-0.4,0-0.6v-0.1c0,0,0-0.1,0-0.1h0.1c0.1,0,0.1,0,0.2,0
				c0.1,0,0.2-0.1,0.4-0.1c0.1,0,0.1,0,0.1,0c0,0,0,0,0,0c0.1,0.1,0.1,0.2,0.2,0.3c0,0,0,0,0.1,0.1c0,0.1,0.1,0.2,0.2,0.4
				c0.1,0.1,0.1,0.1,0.2,0.2c0.1,0.1,0.1,0.1,0.1,0.2c0.1,0.2,0.2,0.3,0.4,0.5c0.1,0.1,0.2,0.3,0.3,0.4c0.1,0.1,0.1,0.2,0.1,0.2
				c0.1,0.2,0.2,0.4,0.4,0.6c0.1,0.1,0.1,0.2,0.3,0.3c0.1,0.1,0.2,0.1,0.3,0.1c0.1,0,0.2,0,0.3-0.1c0.2-0.1,0.3-0.4,0.4-0.6
				C133.5,128.1,133.5,128,133.4,127.9L133.4,127.9z M129.3,123.6c0,0,0-0.1,0-0.1c0-0.1,0-0.3,0-0.4v-0.2c0-0.2,0-0.4-0.1-0.5
				c0-0.1,0-0.2,0-0.4l0,0c0,0,0.1,0,0.1,0c0.1,0,0.2,0,0.3,0c0.1,0,0.2,0,0.2,0c0.1,0,0.1,0,0.2,0c0.1,0,0.2,0,0.3,0l0,0
				c0.4,0,0.7,0.1,1,0.2c0.1,0,0.2,0.1,0.3,0.2c0.2,0.2,0.3,0.4,0.3,0.7v0c0,0.2-0.1,0.3-0.3,0.5c-0.2,0.1-0.3,0.2-0.5,0.3
				c-0.1,0-0.2,0.1-0.3,0.1l-0.1,0c-0.2,0.1-0.4,0.1-0.6,0.2l-0.3,0.1c0,0-0.1,0-0.1,0c-0.2,0-0.4,0-0.6,0.1c0,0,0-0.1,0-0.1
				C129.3,124.1,129.3,123.8,129.3,123.6L129.3,123.6z"/>
		</g>
		<path class="st0" d="M113.4,124.1c0.9-1.1,2.1-2,3.4-2.4c0.7-0.2,1.5-0.3,2.2-0.3c0.8,0,1.6,0,2.4-0.2c0.9-0.2,1.7-0.9,2.3-1.6
			c0.5-0.5-0.3-1.3-0.8-0.8c-0.6,0.6-1.1,1.1-1.9,1.3s-1.6,0.1-2.4,0.2c-1.6,0.1-3.1,0.6-4.4,1.4c-0.8,0.5-1.4,1.1-1.9,1.9
			c-0.2,0.2,0,0.6,0.2,0.8C112.9,124.5,113.2,124.4,113.4,124.1L113.4,124.1L113.4,124.1z"/>
		<path class="st0" d="M134.4,129c-0.9,1.1-2.1,2-3.4,2.4c-0.7,0.2-1.5,0.3-2.2,0.3c-0.8,0-1.6,0-2.4,0.2c-0.9,0.2-1.7,0.9-2.3,1.6
			c-0.5,0.5,0.3,1.4,0.8,0.8c0.6-0.6,1.1-1.1,1.9-1.3s1.6-0.1,2.4-0.2c1.6-0.1,3.1-0.6,4.4-1.4c0.8-0.5,1.4-1.1,1.9-1.9
			c0.2-0.2,0-0.6-0.2-0.8C134.9,128.6,134.6,128.8,134.4,129L134.4,129L134.4,129z"/>
	</g>
</g>
</svg>
