<?xml version="1.0" encoding="utf-8"?>
<!-- Generator: Adobe Illustrator 27.0.0, SVG Export Plug-In . SVG Version: 6.00 Build 0)  -->
<svg version="1.1" id="Layer_2_00000015314832291921203140000014052663944106707622_"
	 xmlns="http://www.w3.org/2000/svg" xmlns:xlink="http://www.w3.org/1999/xlink" x="0px" y="0px" viewBox="0 0 230.9 131.8"
	 style="enable-background:new 0 0 230.9 131.8;" xml:space="preserve">
<style type="text/css">
	.st0{enable-background:new    ;}
	.st1{fill:#FFFFFF;}
	.st2{fill:#6AA39F;}
</style>
<g id="Layer_7">
	<g>
		<g class="st0">
			<path class="st1" d="M112.3,29.4c-0.3-0.1-0.5-0.3-0.5-0.4c-0.4-0.4-0.4-0.6-0.6-1l-0.1-0.3c-0.1-0.3-0.3-0.6-0.5-0.9l-0.3-0.5
				c-0.1-0.3-0.3-0.7-0.4-1.1c-0.1-0.5-0.2-1.1-0.2-1.7V23l-0.1-0.5c0-0.1,0-0.2-0.1-0.2c0-0.1,0-0.1,0-0.1c0,0,0-0.1,0-0.1
				c0-0.1,0-0.1-0.1-0.2c0-0.1-0.1-0.2-0.1-0.2c-0.2,0.2-0.5,0.7-0.6,1l0,0.1v0l0,0l-0.2,0.4c-0.1,0.4-0.5,0.7-0.7,1.1
				c-0.1,0.1-0.1,0.1-0.1,0.2c0,0.1-0.1,0.2-0.1,0.3l0,0.1c0,0,0,0.1,0,0.1h0l-1.2,1.6c-0.4,0.6-0.9,1.3-1.5,1.7
				c-0.3,0.3-0.4,0.3-0.6,0.3c-0.2,0.1-0.4,0.1-0.5,0.1c-0.3,0-0.6-0.1-0.8-0.1c-0.3-0.1-0.5-0.2-0.6-0.3c-0.3-0.2-0.4-0.3-0.5-0.5
				c-0.1-0.1-0.1-0.2-0.1-0.3l-0.2-0.2c-0.1-0.2-0.2-0.3-0.3-0.6c-0.1-0.1-0.2-0.3-0.3-0.5c-0.1-0.2-0.2-0.4-0.2-0.7
				c-0.1-0.4-0.2-0.9-0.3-1.5c-0.1-0.4-0.1-0.8-0.1-1.3c0-0.2,0-0.3,0-0.5c0-0.3,0-0.7,0-1.1l0.1-1.3l0.1-1c0-0.3,0.1-0.5,0.1-0.7
				c0-0.1,0-0.2,0-0.3c0-0.1,0-0.2,0-0.3c0,0,0-0.1,0-0.1c0-0.1,0-0.2,0-0.3v-0.5l0-0.7c0-0.2,0-0.3,0-0.5L101,14
				c0-0.3,0.1-0.5,0.1-0.8c0.1-0.7,0.1-1.4,0.2-2.1c0-0.1,0-0.3,0-0.5l0.1-0.8v0c0-0.3,0-0.5,0-0.8l0-0.3V8.1c0-0.3,0-0.5,0-0.7
				c0-0.1,0-0.3,0-0.3l-0.1-0.6l0-0.2L101.3,6c0-0.1-0.1-0.2-0.1-0.3c0-0.1,0-0.1,0-0.2V5.3c0-0.1,0.1-0.3,0.3-0.5
				c0.1-0.1,0.3-0.1,0.5-0.1h0.1c0.2-0.1,0.3-0.2,0.5-0.3c0.2-0.1,0.4-0.1,0.7-0.2c0.1,0,0.1,0,0.2,0c0.1,0,0.1,0,0.1,0.1l0.1,0.1
				l0.7,0l0.3,0.3l0.2,0.2c0.1,0.1,0.2,0.3,0.3,0.4l0.2,0.4c0.1,0.2,0.1,0.3,0.2,0.5l0.1,0.2c0.1,0.3,0.1,0.6,0.2,0.9
				c0,0.3,0,0.5,0.1,0.7l0,0.5v2l-0.1,1.6v0.5c0,0.1-0.1,0.3-0.1,0.4l-0.1,1.1c0,0.1,0,0.2,0,0.3l-0.1,0.6c0,0.4-0.1,0.9-0.2,1.6
				l-0.1,0.9l-0.1,0.7l0,0.1l0,0.2l-0.1,0.5c-0.1,0.2-0.1,0.5-0.1,0.7c0,0.5,0.1,1,0.1,1.4v1.1l0,0.9c0,0.6,0,1.1,0.1,1.2
				c0,0.1,0,0.1,0,0.2c0,0.4,0.1,0.8,0.4,0.8c0.3,0,0.8-0.6,1.6-1.5l0.1-0.1c0,0,0,0,0-0.1l0.3-0.5l0.4-0.6l0.4-0.6
				c0.1-0.2,0.2-0.4,0.3-0.6c0,0,0,0,0-0.1l0.4-0.8c0.1-0.2,0.2-0.5,0.3-0.7l0.2-0.8c0.1-0.3,0.1-0.5,0.2-0.8l0-0.2V18
				c0-0.1,0-0.2,0.1-0.3l0.1-0.3c0.2-0.6,0.4-1.1,0.6-1.4c0.1-0.1,0.2-0.3,0.3-0.3l0.3-0.4c0.1-0.1,0.3-0.2,0.5-0.3l0.1-0.1
				c0.1-0.1,0.1-0.1,0.3,0c0.2,0,0.4,0.1,0.5,0.2c0.2,0.1,0.3,0.2,0.5,0.4c0.1,0.2,0.3,0.3,0.4,0.5c0.2,0.4,0.4,0.9,0.5,1.3
				c0.1,0.3,0.1,0.6,0.1,0.8c0,0.1,0.1,0.1,0.1,0.2l0,0.2l-0.1,0.9c0,0.1,0,0.2,0,0.3l0.1,0.7l0.1,1l0.1,1.5c0,0.7,0,1.3,0.1,1.6
				l0,0.3c0,0.1,0.1,0.3,0.1,0.4l0,0.1c0,0.1,0,0.2,0,0.3c0.1,0.2,0.2,0.4,0.4,0.4c0.3-0.1,0.7-0.4,1.3-1.1c0.2-0.2,0.3-0.5,0.5-0.7
				c0.1-0.2,0.3-0.4,0.4-0.6l0.4-0.7c0,0,0.1-0.1,0.1-0.1l0.2-0.3c0.1-0.2,0.2-0.4,0.3-0.6l0-0.1l0.1-0.1l0.2-0.4
				c0.1-0.3,0.2-0.5,0.3-0.7l0.6-1.3c0.2-0.5,0.4-1,0.6-1.5c0.1-0.3,0.2-0.5,0.3-0.7l0.1-0.2l0.2-0.7c0-0.1,0.1-0.1,0.1-0.2
				c0.1-0.3,0.2-0.5,0.3-0.8l0.2-0.8l0.2-0.8c0.1-0.4,0.1-0.7,0.2-1.1c0.1-0.1,0.1-0.2,0.1-0.3l0-0.1l0-0.1l0.1-0.3l0.1-0.4
				c0.1-0.6,0.2-1.2,0.2-1.7c0-0.1,0-0.2,0-0.2l0.1-0.6l0.1-0.3c0-0.1,0-0.2,0.1-0.3V7.7c0,0,0,0,0-0.1c0-0.5-0.1-0.8-0.2-1.1
				l-0.2-0.5l-0.1-0.5c-0.3-0.3-0.3-0.3-0.3-0.4c0-0.1,0-0.1,0-0.2c0-0.1,0.1-0.1,0.1-0.2l0.1-0.2h0.1c0,0,0,0,0.1,0
				c-0.2-0.4-0.2-0.4-0.2-0.6v0l0.1-0.1h0l0.2-0.1c0.1,0,0.1-0.1,0.2-0.1c0.2,0,0.5,0.3,0.7,0.8c0.2,0.1,0.3,0.3,0.4,0.4
				c0.1,0.1,0.3,0.3,0.4,0.5c0.1,0.1,0.2,0.3,0.3,0.6l0.2,0.4c0,0,0,0.1,0,0.1l0.2,0.6c0,0.1,0.1,0.3,0.1,0.5v0.7l-0.1,0.1L124,8.9
				v0.2l-0.1,0.5l0,0.2V10c0,0.3,0,0.5-0.1,0.7c0,0.2-0.1,0.4-0.1,0.7c0,0.2-0.1,0.4-0.1,0.7c-0.1,0.4-0.2,0.7-0.4,1.1
				c-0.1,0.3-0.2,0.5-0.3,0.7l-0.3,0.5l-0.1,0.4c-0.1,0.3-0.3,0.6-0.5,1c-0.1,0.2-0.2,0.4-0.3,0.6l-0.1,0.3l-0.4,0.9
				c-0.3,0.7-0.7,1.5-1.1,2.2v0l-0.4,0.8c-0.3,0.7-0.6,1.3-0.9,1.8v0.3l-0.3,0.4l-0.1,0.4l-0.4,0.6c0,0.2-0.2,0.4-0.3,0.6
				c0,0.3-0.4,0.5-0.5,0.9c-0.3,0.4-0.6,0.9-0.9,1.3l-0.4,0.6l-0.4,0.6c-0.1,0.1-0.1,0.1-0.1,0.2c-0.1,0.1-0.3,0.3-0.4,0.5
				c-0.3,0.3-0.4,0.6-0.8,0.8c0,0-0.1,0-0.1,0c-0.3,0.2-0.6,0.3-0.9,0.2l-0.4-0.1C112.6,29.5,112.5,29.5,112.3,29.4z"/>
			<path class="st1" d="M122.7,29L122.7,29c-0.8-0.3-1.2-1.2-1.4-2c-0.1-0.2-0.3-0.5-0.3-0.7l-0.1-0.1V26c0-0.8,0.4-3.2,0.9-3.9
				c0.1-0.1,0.3-0.4,0.3-0.5v0c0.5-0.9,1.7-2.6,2.8-2.8c0-0.1-0.1-0.3,0-0.4c0.5-0.5,1.2-0.9,1.9-0.9c0.1,0,0.2,0,0.3,0.1
				c1.2-0.2,2.9,1,2.9,2.3c0,2.4-3.4,5.4-5.4,6.4c-0.2,0.2-0.3,0.4-0.3,0.7c0,0.9,0.2,1.3,1.2,1.3c1.4,0,4-2,4.8-3.1
				c0.3-0.3,0.5-0.7,0.7-1.1c0.4-0.6,1.8-2.4,1.8-3.1l0-0.1c0.1,0,0.2-0.1,0.3-0.1c0.3,0,0.4,0.2,0.4,0.4c0,0.3-1.5,2.5-1.7,2.8
				c-0.1,0.2-0.3,0.4-0.3,0.6c-0.6,0.8-2.3,3-2.9,3.5c-1,0.7-2.1,1.5-3.3,1.5C124.5,29.6,123.4,29.4,122.7,29z M129.1,20.4l-0.3-0.2
				c-0.7,0.2-1,1.1-1.6,1.4c-0.7,1.1-1.7,2.3-2.2,3.6C126.4,24.4,128.8,22.1,129.1,20.4z"/>
		</g>
		<g class="st0">
			<path class="st1" d="M95.8,55.1l-0.2-0.1c-0.4,0-2.8-2.1-3.2-2.6c-0.2-0.3-0.4-0.8-0.5-1.3c0,0-0.2-0.4-0.3-1.1v0
				c-0.1-0.6,0.2-2.4,0.4-3.4l0-0.1c0.1-0.3,0.1-0.5,0.2-0.6l0,0c0.1,0,0.1-0.1,0.1-0.2c0.1-0.2,0.1-0.5,0.1-0.7
				c0-0.4,0-0.9,0.1-1.2c0.3-0.6,0.4-1.6,0.6-2.5c-0.2,0.1-0.4,0.2-0.4,0.3l-1.1,1.1c-0.5,0.7-0.2,0.7-1.1,1.5
				c-0.2,0.2-0.7,1.9-0.8,2.2l-0.3,0.5c0,0.4-1.6,3.3-2,3.3c-0.4,0-1.2-0.2-1.3-1.3c-0.1-1.2,0.6-3,1.2-4.5c0.1-0.6,0.2-1.1,0.3-1.7
				c0.3-1.2,0.7-2.3,0.7-2.7c0,0,0-0.7,0-0.8c-0.7,0.7-1.9,2.3-2.9,3.9c-1.5,1.8-1.8,4.9-2,6.3c-0.1,0.6-0.6,1-0.7,1.5
				c-0.1,0.4,0.1,0.9-0.4,0.9c-0.6,0-1.1-0.7-1.2-1.8c0-0.1-0.1-0.3,0-0.5v-0.1c-0.1-1.5,0.2-3.1,0.6-4.7c0.3-1.7,0.9-3.3,1.4-4.7
				c0-0.1,0-0.2,0-0.2v-0.3c0-0.2,0-0.5,0.1-0.6c0.1-1.1,0.3-2.1,0.5-3.1v-0.1c0-0.1,0-0.2,0-0.2v-0.1c-0.1,0-0.2,0-0.3,0.1
				l-0.2,0.1c-0.2,0.1-0.4,0.2-0.4-0.1c0.2-0.7,0.6-1.3,1.6-1.3c0.7,0,1.2,0.9,1.5,1.5l0.3,0.8c0,0.2,0.1,0.4,0.1,0.6
				c0.1,0.9-0.2,2.2-0.4,3.2c-0.2,0.6-0.5,1.1-0.8,1.6l-0.4,1.3c1.1-1.9,2.9-4.8,4.3-4.8c0.7,0,1.5,0.9,1.5,1.3
				c0.1,0.7-0.4,2.6-0.4,2.8v0C89.7,43.4,89.2,45,89,46c0.4-0.5,0.9-2.1,1.8-3.2c2.6-2.8,2.1-3.7,3.1-3.7c1,0,2,0.9,2.1,1.8
				c0,0.2,0,0.4,0,0.6c0,0.4,0.2,0.9,0.2,1.4c0,0.2-0.1,0.4-0.1,0.6c0,0.1,0,0.1,0,0.2l0,0.1v0c0,0,0,0.1-0.1,0.2l-0.3,0.8l-0.1,0.3
				c-0.1,0.3-0.1,0.6-0.2,0.7l0,0.1c-0.3,0.5-0.4,2-0.6,2.2c-0.2,0.2-0.1,0.7-0.2,1c-0.1,0,0,1.2,0,1.4c0,0.4,0.1,1.1,0.1,1.2l0.9,2
				c0,0.1,0.7,0.7,1.2,1.1c0.2,0.1,0.5,0.2,0.7,0.2c1.9,0.1,1.8-1.2,2.1-1.2c0.2,0,0.5,0.2,0.5,0.5c0,0.2,0,0.3-0.1,0.3l-0.1,0.1
				c-0.1,0.3-1.2,0.6-1.4,0.8C98.4,55.8,96.3,55.2,95.8,55.1z"/>
		</g>
		<g class="st0">
			<path class="st1" d="M103.5,49.8c-0.2-0.7-0.1-1.3-0.2-2c0-0.1,0.1-0.2,0.1-0.2l-0.4,0.6c-0.2,0.4-1.2,2.5-1.9,2.5
				c-0.3,0.2-0.7,0.6-1.1,0.6c-1.8,0-3.5-1.2-3.5-3.1c0-2.3,2.4-6.7,4.7-7.7c0.6-0.4,1.9-0.9,2.7-0.9c0.6,0,2.4,1.2,2.4,1.9
				c0,0.2-0.1,0.4-0.3,0.4c-1.8-0.3-4,1.5-4.6,3l-0.6,1.3c-0.2,0.4-0.8,1.6-0.8,1.9c-0.1,0.2-0.1,0.4-0.1,0.6l0,0
				c0.1,0.5,0,1.3,0.7,1.3c0.4,0,0.9-0.4,1.1-0.7c0.6-0.7,2.2-4.1,2.5-5c0.1-0.4,0.4-0.7,0.5-1.1c0-0.4,1.3-0.4,1.6-0.4
				c0.4,0,0.8,0.1,1.1,0.4c0,0,0,0.1,0,0.1c0.2,0.1,0.3,0.3,0.3,0.5c0,0.3-0.5,1.1-0.5,1.5c-0.1,0.5-0.2,0.9-0.3,1.4
				c0,0.4-0.1,0.8-0.3,1.1c-0.1,0.3-0.8,2.4-0.8,2.4c0,0.2,0.3,0.2,0.4,0.2c1.8,0,4.4-6.9,5.3-6.9c0.1,0,0.3,0.1,0.3,0.3
				c0,0.1,0,0.2,0,0.3c0,0.1-3.2,5-3.5,5.6c-0.5,0.9-1.8,1.9-2.9,1.9C104.6,51.7,103.7,50.6,103.5,49.8z"/>
		</g>
		<g class="st0">
			<path class="st1" d="M119.3,53.3L119.3,53.3c-1-0.2-2-1.3-2.7-2c-0.1-0.1-0.3-0.4-0.4-0.4c-1.1-1.1-1.8-2.5-2.3-3.9
				c-0.1,0.1-0.1,0.1-0.2,0.2c-0.1,0.4-0.1,0.8-0.2,1c-0.1,1,0.2,3.6-1.3,3.6c-0.3,0-0.6-0.1-0.7-0.3c-0.2-0.1-0.3-0.3-0.4-0.4
				c-0.6-0.5-0.5-2.4-0.5-4c0-2.2,0.2-4,0.3-5.2c0.3-2.4,0.7-3,0.8-3.7l-0.1-0.1c0-0.4,0.5-1.4,0.9-1.4c0.5,0,1.4,1.5,1.4,2.8
				c0,0.9-0.4,2.6-0.4,4.3c0,0.1,0,0.2,0,0.3c0.2-0.1,0.4-0.3,0.5-0.4l0.1-0.1h0.1c0.8-0.9,1.6-1.7,2.3-2.4c0.7-0.8,1.2-1.5,1.6-1.9
				c0.4-0.5,0.7-0.7,1-1c0.1-0.2,0.3-0.4,0.4-0.5c0.1-0.1,0.3-0.2,0.4-0.2h0.2c0.4,0.2,0.8,0.4,0.8,0.9c0,0.7-0.7,1.5-0.9,1.7
				c-0.2,0.3-0.3,0.3-0.3,0.4c-0.1,0.1-0.5,0.5-0.6,0.7c-0.9,1-1.8,2-2.5,2.5c-0.9,0.8-1.6,1.3-2.1,1.9c0.8,1,1.4,2,2.4,2.8
				c0.1,0.2,0.3,0.3,0.4,0.4c0,0,0,0.1,0.1,0.1c0.5,0.9,1.4,1.5,2.1,2.1c0.2,0,0.3,0.1,0.5,0.2c0.3,0.1,0.6,0.2,0.6,0.6
				c0,0.5-0.5,1.1-0.9,1.2c-0.1,0.2-0.2,0.2-0.4,0.2C119.6,53.4,119.5,53.3,119.3,53.3z"/>
		</g>
		<g class="st0">
			<path class="st1" d="M121.4,50.8c-0.8-0.5-1-1.4-1-2.2c-0.1-0.2-0.2-0.5-0.1-0.8c0.6-3.3,1.3-5.4,4.1-7.5
				c0.3-0.2,1.2-0.9,1.4-0.9c0.4-0.2,0.5-0.3,0.9-0.2l0.4,0.1c0.2,0,0.8-0.3,0.9-0.1c0.2,0,0.3,0,0.4,0c1.1,0.2,2.4,1.2,2.1,2.5
				c-0.5,2.4-4.4,4.7-6.6,5.2c-0.4,0.3-0.5,1.1-0.6,1.6c-0.2,1-0.5,1.9,0.8,2.1c1.3,0.3,4.2-1.5,5.1-2.3c0.5-0.5,1.1-1,1.6-1.5
				c0.3-0.3,1.4-1.6,1.7-1.6c0.2,0,0.3,0,0.4,0l0.1,0c0.1,0,0,0.2,0,0.3c-0.1,0.4-0.6,0.8-0.9,1c-0.4,0.4-0.9,0.8-1.2,1.3
				c-0.1,0.1-0.1,0.3-0.2,0.4c-0.6,0.6-1.4,1.2-2.1,1.8c-1.1,0.9-3.7,2.4-5.1,2.1C123,51.7,122,51.4,121.4,50.8z M129.3,41.9
				l-0.2-0.3c-1,0.1-3.5,3.1-3.9,4C126.5,45.3,129,43.3,129.3,41.9z"/>
		</g>
		<g class="st0">
			<path class="st1" d="M149.6,51.7c0-1.2-0.6-2-0.4-3.5c0.1-0.5,0.2-1.2,0.3-1.9c0-0.2,0-0.4,0-0.7c-1,0.3-2.1,0.3-3.1,0.5
				c-0.6,0.9-1.4,1.7-1.9,2.7l0,0l-0.9,1.7c-0.2,0.2-0.3,0.5-0.6,0.6l-0.2,0l-0.5,0.2c-0.2,0-0.2-0.2-0.3-0.3l0-0.1
				c0-0.3,0.2-0.7,0.3-1c0.3-0.2,0.6-0.9,0.7-1.3l0.2-0.3c0.4-1.2,1-2.4,1.7-3.4l-0.3,0c-0.2-0.1-0.2-0.3-0.2-0.5
				c0.1-0.5,1.1-1.4,1.5-1.8c0.5-1.4,1.4-2.6,1.8-3.2c0.7-1,1.8-3.3,1.9-3.5l0.1-0.2l0.4-0.2c1,0.7,2.7,1.4,2.5,2.8
				c0,0.3-0.2,0.6-0.2,0.9c-0.1,0.6,0.3,1.2,0.3,1.7l-0.2,1.7c0,0,0,0.1,0.1,0.1c0.1,0,0.2-0.1,0.2-0.1l0.1,0c0.3,0,0.4,0.1,0.4,0.4
				c-0.3,0.3-0.5,0.5-0.8,0.8c-0.1,0.2-0.1,0.4-0.1,0.4c-0.1,1.1,0,2.1,0,3c0,1.4-0.2,2.9-0.4,4.3c0.1,0.2,0.1,0.6,0.1,0.8
				c-0.1,0.8-0.6,0.9-1,0.9C150.2,53.3,149.9,52.2,149.6,51.7z M149.6,44.3c0-0.4,0-0.7,0.1-1.2c0.1-0.7,0.2-1.5,0.3-2.3
				c0.1-0.5,0.1-0.9,0-1.3c-0.2,0.2-0.5,0.3-0.7,0.4l0,0l-0.3,0.2c-0.2,0.2-1.8,4.2-2,4.7C147.9,44.8,148.8,44.6,149.6,44.3z"/>
		</g>
		<g class="st0">
			<path class="st2" d="M46.6,103.2l-0.3-0.7c1.4-0.6,1.6-1.1,1-2.8l-7.8-23.5c-0.7-2-1.6-2.2-3.3-1.5L35.9,74l13.2-5.3l0.3,0.7
				c-2.3,0.9-2.2,1.5-1.3,3.4l10.5,22.1c0.8,1.6,1.3,1.9,2.7,1.3l1.9-0.8c4.2-1.7,5.2-6.4,3.2-11.4l0.8-0.3l4.4,9.5L46.6,103.2z"/>
		</g>
		<g class="st0">
			<path class="st2" d="M72.9,93.2l-0.2-0.8c1.4-0.3,1.8-0.9,1.4-2.6l-2.6-14.6c-0.4-2.1-1.2-2.4-2.9-2l-0.2-0.7l11.5-2.8l0,0.2
				c-0.4,0.3-0.3,1.1,0.4,3.2l4.3,14.2c0.5,1.7,1,2.1,2.4,1.7l0.2,0.8L72.9,93.2z M74.6,69.3c-2.6,0.6-5-0.7-5.7-3.2
				c-0.6-2.6,1-4.8,3.6-5.4s5.1,0.6,5.7,3.2C78.9,66.4,77.2,68.7,74.6,69.3z"/>
		</g>
		<g class="st0">
			<path class="st2" d="M95.1,88.7l-7.1-17.6c-0.8-2-1.5-2.1-2.8-2L85,68.3l12.1-1.1l0,0.1c0,0.2,0,0.5,0,0.8c0,0.5,0.2,1.1,0.5,1.7
				l6.8,12.9l3.2-13c0.6-2.4-0.2-2.7-2.3-2.5l-0.1-0.8l6-0.6l0.1,0.8c-2.1,0.2-2.2,0.4-2.8,3.2l-3.5,17.9L95.1,88.7z"/>
		</g>
		<g class="st0">
			<path class="st2" d="M113.6,87.4l0-0.8c1.5,0.1,2-0.3,2.1-2.1l1.6-14.7c0.2-2.1-0.4-2.7-2.2-2.8l0-0.7l11.8,0.6l0,0.2
				c-0.4,0.1-0.6,1-0.6,3.2l0.1,14.8c0,1.8,0.3,2.2,1.9,2.3l0,0.8L113.6,87.4z M122,65c-2.6-0.1-4.6-2-4.5-4.7
				c0.1-2.6,2.3-4.3,5-4.2s4.7,2,4.6,4.7S124.6,65.1,122,65z"/>
		</g>
		<g class="st0">
			<path class="st2" d="M145.5,90.9l0.2-0.8c1,0.1,1.5,0.1,2.1-2.2l3.1-12.1c0.8-3-1-3.9-2.2-4.1c-1.9-0.4-3.8,0.9-4.1,3.6l-1.7,12
				c-0.2,1.7,0,2.1,1.1,2.5l-0.2,0.8l-14.1-2.8l0.2-0.8c1.5,0.3,2,0,2.4-1.8l3.7-14.3c0.5-2-0.1-2.7-1.8-3l0.1-0.7l11.6,2.3l0,0.2
				c-0.4,0-0.7,0.6-0.9,2.2c2.7-1.6,6.2-1.7,8.6-1.2c3.4,0.7,6.9,3.1,6.3,7.7l-1.7,12.2c-0.3,2.1,0.2,2.2,1.5,2.6l-0.2,0.8
				L145.5,90.9z"/>
		</g>
		<g class="st0">
			<path class="st2" d="M162.3,91.4c0.5-1.6,2.2-2.6,4.9-2.6c-1.8-1.8-2.4-3.9-1.6-6.1c1.2-3.5,5.6-7.5,12.6-5.1
				c1.5,0.5,2.7,1.2,3.7,2c1.2,0.1,3.1,0,3.7-2c0.3-1,0.2-1.9-0.4-2.5c0.1,0.6,0,1.1-0.1,1.3c-0.5,1.6-2.4,2-3.8,1.5
				c-1.6-0.6-2.4-2.3-1.9-4c0.6-1.8,2.5-2.5,4.3-1.8c2.3,0.8,3.7,3.5,3,5.7c-0.4,1.2-1.4,2.4-3.9,2.6c2.7,2.8,2.9,6.6,2.1,8.9
				c-1.3,3.9-5.6,4.9-11.7,2.8c-1.8-0.6-3.4-1.3-4.7-2.2c-2-0.1-2.9,0.4-3.2,1.3c-0.3,0.9,0.3,1.5,1.3,1.9c2.5,0.8,5.4-0.9,9.3,0.5
				c4.3,1.5,7.5,5.9,6.2,9.9c-1.8,5.2-9.4,3.4-14.3,1.7c-8.3-2.8-9.4-5.5-8.7-7.7c0.5-1.4,1.6-2.2,3.8-2.6
				C162,93.8,161.9,92.4,162.3,91.4z M161.3,97.8c-0.9,2.7,1.6,4.8,4.4,5.7c3.7,1.3,6.5,0.1,7.3-2.4c0.6-1.7,0-3.1-2.1-3.8
				c-2.1-0.7-3.8-0.1-5.8-0.8c-0.6-0.2-1.1-0.5-1.6-0.8C162.7,96,161.8,96.5,161.3,97.8z M178.1,85.8c1.7-4.8,2.1-6.5-0.2-7.3
				c-2.4-0.8-3,0.8-4.6,5.6c-1.7,4.8-2.1,6.3,0.3,7.1C175.8,92,176.4,90.6,178.1,85.8z"/>
		</g>
	</g>
</g>
</svg>
