<?xml version="1.0" encoding="utf-8"?>
<!-- Generator: Adobe Illustrator 27.0.0, SVG Export Plug-In . SVG Version: 6.00 Build 0)  -->
<svg version="1.1" id="Layer_2_00000010992002385120661070000003202790525932799660_"
	 xmlns="http://www.w3.org/2000/svg" xmlns:xlink="http://www.w3.org/1999/xlink" x="0px" y="0px" viewBox="0 0 139.5 100.8"
	 style="enable-background:new 0 0 139.5 100.8;" xml:space="preserve">
<style type="text/css">
	.st0{enable-background:new    ;}
	.st1{fill:#E3746D;}
	.st2{fill:#FFFFFF;}
</style>
<g id="Layer_7">
	<g>
		<g class="st0">
			<path class="st1" d="M0.7,62.7v-0.6c1.2,0,1.5-0.3,1.6-1.7l1.2-19.2c0.1-1.6-0.5-2-2-2v-0.6H17c7.4,0,11.1,7.3,11.1,13.9
				c0,6.5-3.7,10.3-9.2,10.3H0.7z M15.5,61.9c2.5,0,2.9-1.3,2.9-12.3c0-8.6-0.2-10.2-3.5-10.2h-2.5c-1.9,0-2,0.4-1.9,2l1.2,18.8
				c0.1,1.4,0.4,1.7,1.5,1.7H15.5z"/>
			<path class="st1" d="M43.5,63c-8.2,0-13-2.9-13-10.6c0-6.7,3.6-14.2,13.1-14.2c9.5,0,12.9,7.7,12.9,14.2
				C56.5,60.1,51.8,63,43.5,63z M46.8,50.6c0-8.8-0.1-11.6-3.3-11.6c-3.2,0-3.3,2.8-3.3,11.6c0,8.9,0.1,11.6,3.3,11.6
				C46.7,62.2,46.8,59.5,46.8,50.6z"/>
			<path class="st1" d="M72.9,62.7L61.2,40.5h-0.1l0.1,19.7c0,1.6,0,1.9,1.4,1.9v0.6h-4v-0.6c1.2,0,1.3-0.2,1.3-1.7l0.4-20.1
				c0-0.7-0.6-1.1-1.5-1.1v-0.6h10v0.1c0,0.5,0.4,1.2,0.7,1.8l9.1,13.4h0.1L78.8,41c0-1.6-0.6-1.9-2.1-1.9v-0.6h4.8v0.6
				c-1.2,0-2,0.2-2,1.7l0.4,21.8H72.9z"/>
			<path class="st1" d="M97.3,62.7L85.6,40.5h-0.1l0.1,19.7c0,1.6,0,1.9,1.4,1.9v0.6h-4v-0.6c1.2,0,1.3-0.2,1.3-1.7l0.4-20.1
				c0-0.7-0.6-1.1-1.5-1.1v-0.6h10v0.1c0,0.5,0.4,1.2,0.7,1.8l9.1,13.4h0.1l0.2-12.7c0-1.6-0.6-1.9-2.1-1.9v-0.6h4.8v0.6
				c-1.2,0-2,0.2-2,1.7l0.4,21.8H97.3z"/>
			<path class="st1" d="M107.2,62.7v-0.6c1.2,0,1.5-0.3,1.6-1.7l1.2-19.2c0.1-1.6-0.5-2-2-2v-0.6h19.7l0.5,7.8l-0.7,0
				c-0.1-5-2.7-7.1-6.3-7.1H119c-1.9,0-2,0.4-2,2l0.5,8.3h2.6c1.4,0,3-0.8,3-4.1c0-0.5,0-1.1,0-1.1h0.6c0.1,3.6,0.3,7.3,0.4,10.9
				h-0.6c0-0.7-0.1-1.3-0.2-2c-0.3-1.8-1-2.9-3.2-2.9h-2.5l0.5,9.9c0.1,1.4,0.4,1.7,1.6,1.7h2.3c3.6,0,5.6-3.1,5.6-7.3h0.6l0.4,8.1
				H107.2z"/>
		</g>
		<path class="st1" d="M4.3,87.7c15.4-5.4,31.5-8.3,47.7-10s33.3-2.1,49.9-2.4c8.9-0.2,17.7-0.3,26.6-0.6c3.2-0.1,3.2-5.1,0-5
			c-16.2,0.5-32.4,0.5-48.6,1.1s-33.7,1.9-50.3,5c-9,1.7-18,3.9-26.7,7c-1.3,0.4-2.1,1.7-1.8,3.1C1.6,87.2,3,88.2,4.3,87.7L4.3,87.7
			L4.3,87.7z"/>
		<g class="st0">
			<path class="st2" d="M62.3,87.6C62.3,87.7,62.2,87.6,62.3,87.6c-0.8,0.1-1.6,0.2-2.4,0.2c-0.6,0.1-1.1,0.1-1.7,0.2
				c-0.3,0-0.4,0-0.5-0.3c0.8-0.1,1.5-0.1,2.3-0.2c0.7-0.1,1.4-0.1,2.2-0.2C62.2,87.4,62.3,87.5,62.3,87.6z"/>
		</g>
		<g class="st0">
			<path class="st2" d="M67.2,85.2l0.2,2.1c0,0.4,0.1,0.8,0.2,1.2c0,0.2,0.1,0.4,0.1,0.6c0,0.2,0.1,0.5-0.1,0.5
				c-0.1,0-0.2,0-0.3-0.1c0-0.2,0-0.5,0-0.7c0-0.6-0.2-1.2-0.3-1.9c0-0.1,0-0.2-0.1-0.3c-0.3-0.2-0.6-0.5-0.8-0.8
				c-0.6-0.6-1.3-1.1-1.8-1.8c0,0.2,0,0.5,0,0.7c0.1,1.1,0.2,2.2,0.3,3.3c0.1,0.7,0.2,1.1,0.2,1.3c0,0.2,0,0.3-0.2,0.4
				c-0.1,0-0.1,0-0.1-0.1c0-0.1,0-0.3,0-0.5c0-0.4-0.1-0.9-0.1-1.3c-0.1-0.8-0.2-1.6-0.2-2.4c-0.1-0.7-0.1-1.5-0.2-2.2
				c0,0,0.1,0,0.1,0c0.1,0,0.3,0.1,0.4,0.2c0.1,0.1,0.1,0.2,0.1,0.2c0.2,0.2,0.5,0.7,0.7,0.8c0.6,0.4,1.3,1.2,1.9,1.7l-0.3-2.9
				c0-0.2,0.1-0.3,0.2-0.3c0.1,0,0.1,0.1,0.2,0.1C67.1,83.5,67.2,84.9,67.2,85.2z"/>
		</g>
		<g class="st0">
			<path class="st2" d="M72.8,82.9c0.4,0.1,0.8,0.4,1,0.8c0.5,1,0.5,1.7,0.6,2.8c0.1,0.9-0.3,1.9-1,2.5c-0.5,0.3-0.8,0.5-1.4,0.6
				c-2,0.1-2.8-1.6-2.9-3.3c0-0.8,0.2-2,0.6-2.6c0.4-0.6,1.2-0.8,1.8-0.9C71.9,82.7,72.4,82.8,72.8,82.9z M69.7,87.6
				c0.1,0.5,0.4,0.8,0.8,1.1c0.2,0.2,0.4,0.3,0.7,0.3c0.2,0,0.4,0,0.7,0c0.7,0,1-0.2,1.5-0.7c0.6-0.6,0.6-1.7,0.6-2.5
				c0-0.5-0.1-1-0.3-1.4c-0.2-0.6-0.5-1.1-1.1-1.3c-0.3-0.1-0.6-0.1-0.9-0.1c-1.1,0.1-1.9,0.7-2.1,1.8c0,0.3-0.1,1.1-0.1,1.4
				C69.5,86.8,69.6,87.2,69.7,87.6z"/>
		</g>
		<g class="st0">
			<path class="st2" d="M78.3,83c0.4,0.4,0.5,0.9,0.5,1.4c0,0.3,0,0.6,0,0.9c0,0.5-0.3,1-0.7,1.2c0,0-0.1,0-0.1,0.1
				c0.2,0.5,1.3,2.1,1.3,2.4c0,0.1,0,0.2-0.2,0.2c-0.1,0-0.1,0-0.2,0c-0.4-0.9-1-1.6-1.4-2.5c-0.2,0.1-0.8,0-1.1,0l0.1,1.4
				c0,0.3,0.1,0.6,0.1,0.8c0,0.1,0,0.3-0.1,0.4c-0.1,0-0.3,0-0.3-0.1c0-0.1-0.1-1.1-0.1-1.3c0-0.3,0-0.7-0.1-1c0-0.1,0-0.3-0.1-0.4
				l0-0.7c0-0.7,0-1.4-0.1-2.1c0-0.2,0-0.4-0.1-0.6c0-0.1,0.1-0.3,0.2-0.3c0.3,0,1.8-0.1,1.9,0.1C78.1,82.8,78.2,82.9,78.3,83z
				 M76.4,85.5c0,0.2,0,0.4,0.1,0.7c0.2,0,0.4,0,0.6,0l0.2,0c0.9,0,1.2-0.4,1.1-1.3c0-0.6,0-1.6-0.8-1.8c-0.1,0-0.3-0.1-0.4-0.1
				c-0.2,0-0.5,0-0.7,0c-0.1,0-0.2,0-0.3,0.1c0,0.4,0,0.9,0.1,1.3C76.4,84.7,76.4,85.1,76.4,85.5z"/>
		</g>
		<g class="st0">
			<path class="st2" d="M84.4,83.5c0,0.4,0,0.8,0,1.2c0,0.4,0.1,0.9,0.1,1.3l0,1.2c0,0.9,0.1,1.2,0.1,1.3c0,0.1,0,0.2-0.1,0.2
				c-0.1,0-0.2,0-0.3-0.1c0,0-0.2-1.9-0.2-2l-0.1-1.3c0-0.2,0-0.5,0-0.7c0-0.5,0-1,0-1.5c-0.2,0.4-0.3,0.8-0.5,1.3
				c-0.2,0.5-0.3,1.3-0.7,1.6c-0.3-0.1-0.4-0.4-0.5-0.6c-0.1-0.2-0.2-0.4-0.4-0.6c-0.1-0.3-0.2-0.5-0.4-0.8
				c-0.1-0.3-0.3-0.6-0.5-0.9c0.1,1.2,0.2,2.4,0.2,3.7c0,0.5,0,1,0,1.5c0,0.2,0.1,0.4,0.1,0.6c0,0.1-0.1,0.2-0.2,0.2
				c-0.1,0-0.1,0-0.2-0.1c0-0.1-0.1-0.7-0.1-0.8c0-0.5,0-0.9,0-1.4L81,84.8c0-0.2,0-0.5,0-0.7c0-0.3-0.1-0.5-0.1-0.8
				c0-0.1-0.1-0.3-0.1-0.4c0-0.6,0-0.4,0.3-0.6c0,0,0.1,0,0.1,0c0.1,0,0.3,0.3,0.4,0.4c0.1,0.2,0.5,0.9,0.5,1c0.2,0.5,0.5,1,0.8,1.5
				c0.3-0.6,0.4-1.1,0.6-1.7c0.1-0.3,0.2-0.5,0.3-0.8c0.1-0.1,0.2-0.3,0.2-0.5c0-0.1,0-0.2,0.1-0.2c0.1,0,0.2,0,0.3,0.1
				C84.4,82.7,84.4,83.1,84.4,83.5z"/>
		</g>
		<g class="st0">
			<path class="st2" d="M86.7,85c0-0.3,0.1-0.6,0.2-0.9c0.1-0.5,0.2-1.4,0.5-1.9c0-0.1,0.1-0.1,0.2-0.1c0.4,0,0.7,1.2,0.8,1.5
				c0.2,0.6,0.3,1.3,0.4,1.9c0.1,0.3,0.1,0.7,0.2,1l0.6,1.9c0,0.1-0.1,0.1-0.2,0.1c0,0-0.1-0.1-0.1-0.1c-0.3-0.8-0.5-1.6-0.8-2.4
				c-0.4,0-0.8,0-1.3,0c-0.1,0-0.2,0-0.4,0c-0.1,0.8-0.3,1.6-0.4,2.4c0,0.1-0.1,0.2-0.2,0.2c-0.1,0-0.2-0.1-0.2-0.2l0,0
				C86.4,87.4,86.6,86.2,86.7,85z M87.4,85.8c0.4,0,0.7,0,1.1-0.1c-0.2-1-0.4-2.2-0.9-3.1c0,0.2-0.2,0.6-0.2,0.9
				c-0.2,1.1-0.4,2.1-0.4,2.3C87.1,85.8,87.2,85.8,87.4,85.8z"/>
		</g>
		<g class="st0">
			<path class="st2" d="M94.2,84.1l0.1,2.1c0,0.4,0,0.8,0.1,1.2c0,0.2,0.1,0.4,0.1,0.6c0,0.2,0,0.5-0.1,0.5c-0.1,0-0.2,0-0.3-0.1
				c0-0.2,0-0.5,0-0.7c0-0.6-0.2-1.2-0.2-1.9c0-0.1,0-0.2-0.1-0.3c-0.3-0.3-0.5-0.5-0.8-0.8c-0.6-0.6-1.2-1.2-1.7-1.9
				c0,0.2,0,0.5,0,0.7c0,1.1,0.1,2.2,0.1,3.3c0,0.7,0.1,1.1,0.1,1.3c0,0.2-0.1,0.3-0.3,0.3c-0.1,0-0.1,0-0.1-0.1c0-0.1,0-0.3,0-0.5
				c0-0.4,0-0.9-0.1-1.3c0-0.8-0.1-1.6-0.1-2.4c0-0.7,0-1.5-0.1-2.2c0,0,0.1,0,0.1,0c0.1,0,0.3,0.1,0.4,0.2c0,0.1,0.1,0.2,0.1,0.3
				c0.1,0.2,0.4,0.7,0.7,0.8c0.6,0.5,1.3,1.3,1.8,1.8l-0.2-2.9c0-0.2,0.1-0.3,0.2-0.2c0.1,0,0.1,0.1,0.2,0.1
				C94.1,82.4,94.2,83.7,94.2,84.1z"/>
		</g>
		<g class="st0">
			<path class="st2" d="M102.7,83.1c0,0.4,0,0.8,0,1.2c0,0.4,0.1,0.9,0.1,1.3l0,1.2c0,0.9,0.1,1.2,0.1,1.3c0,0.1,0,0.2-0.1,0.2
				c-0.1,0-0.2,0-0.3-0.1c0,0-0.1-1.9-0.1-2l0-1.3c0-0.2,0-0.5,0-0.7c0-0.5,0-1,0-1.5c-0.2,0.4-0.3,0.8-0.5,1.2
				c-0.2,0.5-0.3,1.2-0.7,1.6c-0.3-0.1-0.4-0.4-0.5-0.7c-0.1-0.2-0.2-0.4-0.4-0.6c-0.1-0.3-0.2-0.5-0.4-0.8
				c-0.1-0.3-0.3-0.6-0.4-0.9c0.1,1.2,0.1,2.4,0.1,3.7c0,0.5,0,1,0,1.5c0,0.2,0.1,0.4,0.1,0.6c0,0.1-0.1,0.2-0.2,0.2
				c-0.1,0-0.1-0.1-0.2-0.1c0-0.1-0.1-0.7-0.1-0.8c0-0.5,0-0.9,0-1.4l0-1.7c0-0.2,0-0.5,0-0.7c0-0.3,0-0.5-0.1-0.8
				c0-0.1-0.1-0.3-0.1-0.4c0-0.6,0-0.4,0.3-0.6c0,0,0.1,0,0.1,0c0.1,0,0.3,0.3,0.3,0.4c0.1,0.2,0.5,0.9,0.5,1c0.2,0.5,0.5,1,0.7,1.6
				c0.3-0.6,0.5-1.1,0.7-1.7c0.1-0.3,0.2-0.5,0.3-0.8c0.1-0.1,0.2-0.3,0.2-0.5c0-0.1,0-0.2,0.1-0.2c0.1,0,0.2,0,0.3,0.1
				C102.6,82.2,102.7,82.7,102.7,83.1z"/>
		</g>
		<g class="st0">
			<path class="st2" d="M104.7,85.5c0-0.2,0.1-0.5,0.2-0.7c0.1-0.4,0.2-1.1,0.4-1.5c0-0.1,0.1-0.1,0.1-0.1c0.3,0,0.5,1,0.6,1.2
				c0.2,0.5,0.2,1,0.3,1.5c0.1,0.3,0.1,0.5,0.2,0.8l0.4,1.5c0,0.1-0.1,0.1-0.1,0.1c0,0-0.1,0-0.1-0.1c-0.2-0.6-0.4-1.3-0.6-1.9
				c-0.3,0-0.6,0-1,0c-0.1,0-0.2,0-0.3,0c-0.1,0.6-0.2,1.2-0.3,1.8c0,0.1,0,0.2-0.2,0.2c-0.1,0-0.2-0.1-0.2-0.2l0,0
				C104.4,87.3,104.6,86.4,104.7,85.5z M105.2,86c0.3,0,0.6,0,0.8-0.1c-0.2-0.8-0.3-1.7-0.6-2.4c0,0.2-0.1,0.5-0.2,0.7
				c-0.2,0.8-0.3,1.6-0.3,1.8C105,86,105.1,86,105.2,86z"/>
		</g>
		<g class="st0">
			<path class="st2" d="M107.9,87c0-0.2,0-0.5,0-0.7c0-0.4,0-0.8-0.1-1.2c0-0.4,0-0.7,0-1.1c0-0.5,0.4-0.9,0.9-0.9
				c0.2,0,0.4,0,0.5,0.1c0.3,0.1,0.7,0.6,0.7,0.9c0,0.1,0,0.2-0.1,0.3c-0.3,0-0.2-1-1-1c-0.3,0-0.7,0.2-0.7,0.5
				c-0.1,0.6,0,1.5,0,2.1c0,0.4,0,1.3,0.2,1.7c0.1,0.3,0.3,0.4,0.6,0.4c0.3,0,0.6-0.1,0.8-0.4c0.1-0.1,0.1-0.6,0.2-0.6
				c0.2,0,0.2,0.2,0.2,0.3c0,0.6-0.5,0.9-1.1,1C108.3,88.3,107.9,87.7,107.9,87z"/>
		</g>
		<g class="st0">
			<path class="st2" d="M112.2,88.2l-0.3,0c-0.3,0-0.4,0-0.4-0.3c0-0.4,0-0.8,0-1.2c0-0.6,0-1.2-0.1-1.7c0-0.5,0-0.9,0-1.3
				c0-0.5-0.1-1.1-0.1-1.6c0-0.2,0.2-0.2,0.4-0.2c0.2,0,0.4,0,0.6,0c0.3,0,0.6-0.1,1-0.1c0.1,0,0.2,0,0.3,0c0.1,0,0.2,0.1,0.3,0.2
				c0,0.1-0.1,0.1-0.2,0.1c-0.3,0-0.5,0-0.8,0c-0.4,0-0.8,0-1.2,0.1l0,2.5c0.4,0,0.8,0,1.1,0c0.1,0,0.2,0.1,0.2,0.2
				c0,0.1,0,0.2-0.2,0.2c-0.4,0-0.8,0-1.2,0c0,0.2,0,0.3,0,0.5c0,0.5,0,1,0,1.5c0,0.3,0,0.6,0,0.9c0.2,0,0.4,0,0.6,0
				c0.3,0,0.5,0,0.8,0c0.2,0,0.3,0,0.3,0.2c0,0,0,0.1,0,0.1c-0.4,0-0.8,0-1.2,0C112.4,88.2,112.3,88.2,112.2,88.2z"/>
		</g>
		<g class="st0">
			<path class="st2" d="M119.7,87.9c-0.2-0.6-0.4-1.2-0.5-1.9c-0.1-0.5-0.3-1-0.4-1.5l-0.5-1.7c-0.3,1.2-0.6,2.5-0.9,3.7
				c-0.1,0.3-0.4,1.7-0.7,1.8c-0.3,0-0.4-0.7-0.5-0.9c-0.6-1.7-1-3.5-1.3-5.3c0-0.1,0-0.1,0-0.2c0-0.1,0-0.1,0.1-0.1
				c0.1,0,0.2,0,0.2,0.1c0,0,0.2,0.8,0.2,0.9c0.3,1.1,0.4,2.2,0.8,3.3c0.2,0.5,0.3,1,0.5,1.5c0.3-0.9,0.5-1.9,0.7-2.9
				c0.2-0.7,0.3-1.4,0.5-2.2c0.1-0.2,0.1-0.5,0.3-0.5l0.2,0c0.1,0,0.2,0.5,0.2,0.6c0.2,0.8,0.4,1.5,0.6,2.3c0.3,0.8,0.4,1.7,0.7,2.5
				c0.5-1.7,0.8-3.5,1.3-5.2c0-0.2,0-0.4,0.1-0.5c0.1-0.1,0.1-0.1,0.2-0.1c0.1,0,0.1,0,0.1,0.1c0,0.1-0.2,0.9-0.2,1
				c-0.1,0.5-0.2,1-0.3,1.5c-0.1,0.5-0.3,1-0.4,1.6c-0.1,0.5-0.2,0.9-0.4,1.4l0,0.1c-0.2,0.5-0.2,0.7-0.2,0.7
				c-0.1,0-0.1,0.1-0.2,0.1C119.8,88.2,119.7,87.9,119.7,87.9z"/>
		</g>
		<g class="st0">
			<path class="st2" d="M123.9,88l-0.3,0c-0.3,0-0.4,0-0.4-0.3c0-0.4,0-0.8,0-1.2c0-0.6-0.1-1.2-0.1-1.7c0-0.5,0-0.9,0-1.3
				c0-0.5-0.1-1.1-0.1-1.6c0-0.2,0.2-0.2,0.4-0.2c0.2,0,0.4,0,0.6,0c0.3,0,0.6-0.1,1-0.1c0.1,0,0.2,0,0.3,0c0.1,0,0.2,0.1,0.3,0.2
				c0,0.1-0.1,0.1-0.2,0.1c-0.3,0-0.5,0-0.8,0c-0.4,0-0.8,0-1.2,0.1l0,2.5c0.4,0,0.8,0,1.1,0c0.1,0,0.2,0.1,0.2,0.2
				c0,0.1,0,0.2-0.2,0.2c-0.4,0-0.8,0-1.2,0c0,0.2,0,0.3,0,0.5c0,0.5,0,1,0,1.5c0,0.3,0,0.6,0,0.9c0.2,0,0.4,0,0.6,0
				c0.3,0,0.5,0,0.8-0.1c0.2,0,0.3,0,0.3,0.2c0,0,0,0.1,0,0.1c-0.4,0-0.8,0-1.2,0C124.1,88,124,88,123.9,88z"/>
		</g>
		<g class="st0">
			<path class="st2" d="M130.5,83.4l0.1,2.1c0,0.4,0,0.8,0.1,1.2c0,0.2,0.1,0.4,0.1,0.6c0,0.2,0,0.5-0.1,0.5c-0.1,0-0.2,0-0.3-0.1
				c0-0.2,0-0.5,0-0.7c0-0.6-0.2-1.2-0.2-1.9c0-0.1,0-0.2-0.1-0.3c-0.3-0.3-0.5-0.5-0.8-0.8c-0.6-0.6-1.2-1.2-1.7-1.9
				c0,0.2,0,0.5,0,0.7c0,1.1,0.1,2.2,0.1,3.3c0,0.7,0.1,1.2,0.1,1.3c0,0.2-0.1,0.3-0.3,0.3c-0.1,0-0.1,0-0.1-0.1c0-0.1,0-0.3,0-0.5
				c0-0.4,0-0.9-0.1-1.3c0-0.8-0.1-1.6-0.1-2.4c0-0.7,0-1.5-0.1-2.2c0,0,0.1,0,0.1,0c0.1,0,0.3,0.1,0.4,0.2c0,0.1,0.1,0.2,0.1,0.3
				c0.1,0.2,0.5,0.7,0.7,0.8c0.6,0.5,1.3,1.3,1.8,1.8l-0.2-2.9c0-0.2,0.1-0.3,0.2-0.2c0.1,0,0.1,0.1,0.2,0.1
				C130.5,81.7,130.5,83,130.5,83.4z"/>
		</g>
		<g class="st0">
			<path class="st2" d="M1.7,26.3c0-0.9,0.2-2,0.5-2.8c0.7-1.9,3.3-6.4,5.7-6.4c0.4,0,1,0.1,1.2,0.6c0.3-0.2,0.6-0.4,0.9-0.6
				c0.6,0.1,1,1.8,1,2.2c0,1.3-0.7,1.5-0.7,2.5c0,0.5,0,0.6-0.6,0.6c-0.9,0-1.4-1-1.6-1.7c-0.2,0.2-0.3,0.6-0.4,0.9
				c-0.1,0.4-0.4,0.8-0.6,1.1c-0.8,1.7-1.6,3.1-1.6,5c0,1,0.4,2.8,1.7,2.8c0.1,0,0.3-0.1,0.4-0.2c1.3,0.6,5-5,5.6-6.1
				c0.2-0.4,1.1-2,1.6-2c0.2,0,0.4,0.1,0.4,0.4c0,0.7-1.6,3-2,3.5c-0.4,0.7-1,1.4-1.5,2c-0.4,0.5-0.7,1.1-1.1,1.6
				c-0.9,1.1-2.4,2.1-3.9,2.1C3.9,31.9,1.7,28.9,1.7,26.3z"/>
		</g>
		<g class="st0">
			<path class="st2" d="M12.4,32.9L12.4,32.9c-0.9-0.4-1.4-1.3-1.6-2.3c-0.2-0.2-0.3-0.5-0.3-0.8l-0.1-0.1v-0.2c0-0.9,0.5-3.7,1-4.4
				c0.1-0.2,0.3-0.4,0.4-0.6v0c0.5-1,2-3,3.1-3.2c0-0.1-0.1-0.3,0-0.4c0.5-0.6,1.4-1,2.2-1c0.1,0,0.2,0,0.3,0.1
				c1.4-0.3,3.2,1.1,3.2,2.6c0,2.7-3.9,6.1-6.1,7.2c-0.2,0.2-0.4,0.5-0.4,0.8c0,1,0.2,1.5,1.3,1.5c1.6,0,4.5-2.3,5.4-3.5
				c0.3-0.4,0.6-0.8,0.8-1.3c0.5-0.7,2-2.7,2-3.5l0-0.1c0.1,0,0.2-0.1,0.3-0.1c0.3,0,0.5,0.2,0.5,0.5c0,0.3-1.7,2.9-2,3.2
				c-0.1,0.3-0.3,0.5-0.4,0.7c-0.6,0.9-2.6,3.4-3.3,3.9c-1.1,0.7-2.4,1.7-3.8,1.7C14.4,33.5,13.2,33.4,12.4,32.9z M19.6,23.1
				l-0.3-0.3c-0.8,0.3-1.2,1.2-1.9,1.6c-0.8,1.3-1.9,2.6-2.5,4.1C16.6,27.7,19.3,25.1,19.6,23.1z"/>
		</g>
		<g class="st0">
			<path class="st2" d="M39,39.6c0-1.6,1.7-5.4,2.2-6.9c0.1-0.4-0.1-1.8-0.1-2.4l0-0.1c0,0,0.8-2.4,0.9-3c-0.8,1.3-2.9,4-4.5,4
				c-1.5,0-2.9-2.3-2.9-3.7c0-2.1,1.9-5.1,3.3-6.6h0c0.2-0.7,2.8-3.1,3.6-3.1c0.3,0,0.5,0.5,0.6,0.7v0l0.3,0.4
				c1-0.2,2.2,0.4,2.2,1.4c0,0.1,0,0.3-0.2,0.3c-0.3,0-0.7-0.1-1-0.1c-0.2,0-0.4,0-0.6,0c0,0.3-0.1,0.6-0.2,0.8
				c-0.6,0.5-1,1-1.5,1.6v0c-0.6,1.6-3.2,3.4-3.2,5.6c0,0.3,0.1,0.7,0.5,0.7c0.3,0,1.2-1.2,1.5-1.4c0.9-0.9,3.1-2.9,3.1-4.3
				c0-0.2-0.1-0.4,0.3-0.4c0.9,0,1.5,1.2,1.4,1.9c0.9,0.4,1,1.6,1,2.4c0,0.7-0.4,1.5-0.4,2.3c0,0.5,0.1,0.9,0.1,1.3
				c0,0.7-0.3,1.4-0.6,2c1.4-1.3,2.6-2.8,3.7-4.3c0.3-0.5,0.6-1,1-1.4c0.1-0.1,0.2-0.2,0.4-0.2c0.2,0,0.3,0.1,0.3,0.3L50,27.5
				c-0.5,1.6-1.9,3.5-2.9,4.7c-0.5,0.6-2.8,3.7-3.5,3.8c-1,1.6-1.8,3.2-2.6,4.9c-0.1,0.2-0.3,0.8-0.6,0.8C39.7,41.6,39,40.3,39,39.6
				z"/>
		</g>
		<g class="st0">
			<path class="st2" d="M55.2,29.2c-0.1-0.3,0.1-0.4,0.3-2.3c0,0,0,0-0.1,0c-0.1,0-0.6,0.8-0.6,0.9c-0.4,0.7-0.8,1.8-1.2,2.3
				c-0.7,0.8-1.9,2.5-3.1,2.5c-1,0-1.9-0.9-1.9-1.9c0-0.3,0-0.6,0.1-1c-0.4-0.7-0.4-1.8-0.5-2.5c0-0.1,0.6-1.4,0.6-1.5
				c0-0.3-0.1-0.6-0.1-0.8c0.1-0.6,0.5-1.2,0.6-1.9l0.1-0.9c0.1-0.5,0.3-1,0.3-1.5c0-0.2-0.2-0.4,0.2-0.4c0.7,0,1,0.2,1.3,0.8
				c0.7,1.3,1.7,0.7,2,2.8c-0.3,0.9-0.5,1.8-0.6,2.8c-0.2,1.2-1.4,3.4-1.4,4.4c0,0.1,0,0.3,0.1,0.3c1-0.6,5.2-6.9,5.2-8.1
				c0-0.1,0-0.2,0-0.4c0.2-0.5,0.9-2.9,1.2-2.9c1.1,0,1.8,1.4,1.8,2.3c0,0.1,0,0.3,0,0.4c0.4,0.3,0.7,0.6,0.7,1.2
				c0,0.8-0.6,1.9-0.6,2.7c0,0.2,0,0.4,0,0.6c-0.1,0.3-0.2,0.5-0.3,0.7c-0.2,0.4-0.5,1-0.5,1.5c0.1,0.2,0,0.4,0,0.6
				c-0.2,0.5-0.6,1.2-0.6,1.7l0.2,0.2c1.1-0.2,3.8-4.6,4.5-5.9c0.2-0.6,0.7-2.5,1.4-2.5c0.2,0,0.4,0.2,0.4,0.4c0,0.1,0,0.3-0.1,0.4
				c-0.3,0.4-0.7,1-0.7,1.6c-0.2,0.6-0.6,1.1-0.9,1.5c-0.3,1.1-1.1,2-1.8,2.9l0,0c-0.1,0.2-0.3,0.4-0.4,0.6c-0.6,0.8-2,2.1-3.1,2.1
				C56,32.8,54.8,30.8,55.2,29.2z"/>
			<path class="st2" d="M64.3,32.7c-0.9-0.4-1.4-1.3-1.6-2.3c-0.2-0.2-0.3-0.5-0.3-0.8c0-3.8,0.3-6.3,3-9.3c0.3-0.3,1.1-1.3,1.4-1.3
				c0.4-0.3,0.5-0.5,1-0.5l0.5,0c0.3,0,0.8-0.5,1-0.3c0.2-0.1,0.3-0.1,0.5-0.1c1.3,0,2.9,0.8,2.9,2.3c0,2.7-3.9,6.2-6.2,7.2
				c-0.4,0.4-0.4,1.4-0.4,1.9c0,1.1-0.2,2.2,1.3,2.2c1.6,0,4.4-2.5,5.2-3.7c0.5-0.6,1-1.3,1.4-2c0.3-0.4,1.2-2,1.6-2.2
				c0.2-0.1,0.3-0.1,0.5-0.1l0.1-0.1c0.1,0,0.1,0.3,0.1,0.3c0,0.4-0.5,1-0.7,1.3c-0.4,0.5-0.8,1.1-1.1,1.7c-0.1,0.1-0.1,0.3-0.2,0.5
				c-0.6,0.8-1.3,1.6-1.9,2.4c-1,1.3-3.6,3.4-5.2,3.4C66.3,33.4,65.1,33.2,64.3,32.7z M71.2,21.1l-0.3-0.3c-1.1,0.3-3.2,4.3-3.5,5.3
				C68.8,25.5,71.1,22.8,71.2,21.1z"/>
			<path class="st2" d="M86.5,25.4c0-0.9,0.1-1.9,0.3-2.8c0.1-0.4,0.2-0.8,0.2-1.2c0-1.6,0.4-3.2,0.6-4.7c0.1-0.8,0.2-1.6,0.4-2.5
				c0.2-0.7,0.3-1.3,0.4-2c0-0.3,0.1-0.6,0.2-0.9L88.5,11c0.2-0.7,0.4-5.3,1.4-5.3c0.8,0,1.9,1,2.3,1.7c0.8,0.5,1.6,1.6,1.6,2.5
				c0,1.1-0.8,2.7-0.8,3.2c0,0.2,0.1,0.6,0.1,0.7l-0.9,3c0,0.2,0.2,2.1,0.2,2.1l-0.9,2.9l0.2,1.6c-0.3,0.8-0.5,1.6-0.7,2.3l0.2,1.1
				c-0.2,0.5-0.4,1.1-0.4,1.7c0,0.1,0.1,0.3,0.2,0.3c0.6,0,2.5-2.7,3.8-5.1l0.2-0.7v0c0.2-0.4,0.9-2.1,1.3-2.1
				c0.1-0.1,0.2-0.2,0.4-0.2c0.2,0,0.3,0.1,0.3,0.2c0,0.5-0.6,1.5-0.8,1.9h0c-0.5,1.2-3.4,6.9-4.6,6.9c-0.6,0.3-1.2,0.6-1.8,0.6
				C87.4,30.4,86.5,27.1,86.5,25.4z"/>
			<path class="st2" d="M97.6,14c0-0.9,0.6-2.1,0.8-3c0.4-0.3,0.8-0.6,1.3-0.6c0.8,0,1.2,0.8,1.3,1.5c-0.3,1-0.7,1.9-0.9,2.9
				c0,0.2-0.2,0.3-0.5,0.3C99,15.1,97.6,14.9,97.6,14z"/>
			<path class="st2" d="M105,32.3c-0.2-0.1-0.4,0-0.6-0.1c-1.6-0.6-2.6-2.3-2.6-3.9c0-3.1,0.3-5.4,2.6-7.6c0.9-1,2.6-2.1,3.9-2.1
				c1.4,0,3.7,1.5,3.7,3c0,0.3-0.5,0.4-0.6,0.4c-1.4,0-3.3,1-4.2,2.1c-1.2,1.4-1.4,2.8-1.6,4.5c-0.1,0.5-0.2,1-0.2,1.5
				c0,0.9,0.6,1.5,1.5,1.5c0.4,0,0.8-0.1,1.1-0.2c0.4-0.1,0.6-0.7,0.9-0.9c0.5-0.4,1-1,1.1-1.6c-0.7-0.4-1.5-2-1.5-2.8
				c0-0.9,0.3-2.3,1.4-2.3c0.6,0,1.2,0.2,1.4,0.8h0.1c0.1,0.1,0.2,0.7,0.2,0.8v0.2c0.1,0.1,0.3,0.4,0.3,0.5c0,0.2-0.1,0.4-0.2,0.6
				c0,0.2,0.1,0.5,0.1,0.7c0,0.1-0.5,1-0.6,1.2c0.2,0,0.4,0,0.5,0c0.9,0,2.6-2.1,3.1-2.9c0.3-0.4,1.3-2.3,1.5-2.4
				c0.1-0.1,0.2-0.1,0.3-0.1c0.2,0,0.4,0.1,0.4,0.3c0,0.2-0.1,0.3-0.2,0.5c-0.5,1.6-3.3,5.7-5.2,5.7c-0.3,0-0.6,0-0.8-0.1
				c-0.2,0.3-0.7,0.7-0.8,1c-0.3,0.7-1.8,1.7-2.5,1.9c-0.4,0.1-0.8,0.2-1.3,0.2C105.6,32.7,105.5,32.5,105,32.3z M110,27.5l0.4,0.5
				c0.2-0.4,0.3-0.8,0.5-1.3c-0.1-0.4-0.2-1.6-0.9-1.6l-0.1,0.1l-0.1,0.3c0,0.1-0.1,0.6-0.1,0.7C109.7,26.6,110,27.1,110,27.5z"/>
			<path class="st2" d="M114.7,29.5l-0.1-0.1c0-0.5,0.1-0.9,0.1-1.3c0-0.2,0-0.5-0.1-0.8c0.1-0.6,0.2-1.3,0.4-1.9
				c-0.2-1,0.3-1.8,0.6-2.7c0-0.1-0.1-0.2-0.1-0.3c0.3-0.9,1.3-3.1,1.3-4.3c0-0.3-0.1-0.6,0.3-0.6c0.7,0,1.9,0.8,2.3,1.3
				c0.1,0.8,0.6,1.8,0.6,2.5c0,0-0.1,0.4-0.1,0.5c0.8-0.9,3.3-3.6,4.4-3.6c1.1,0,1.8,1.7,1.8,2.7c0,0.2,0,0.3-0.1,0.5
				c0.2,0.2,0.3,0.5,0.5,0.7c-0.1,0.6-0.9,2.7-0.9,2.9l-1,2.7l0,0.2c-0.3,0.5-0.6,1.4-0.7,2l0.1,0.2c1.5-0.3,3.3-2.5,4-3.8
				c0.4-0.7,1.9-4.1,2.5-4.1c0.2,0,0.3,0.3,0.3,0.5c0,0.7-2.3,4.4-2.6,4.9c-0.3,0.8-1.3,1.9-2.1,2.4c-0.2,0.2-1.5,1.2-1.8,1.2
				c-0.2,0-0.3-0.1-0.5-0.1c-0.6,0-1,0.1-1.5-0.1c-1.3-0.5-1.9-2.3-1.9-3.6c0-1.3,0.7-3.5,1.3-4.6c0.2-0.5,0.9-1.4,0.9-1.9v-0.1
				c0.1-0.1,0.3-0.4,0.3-0.5c-0.2,0.1-0.3,0.3-0.5,0.4c-0.6,0-1.6,1.2-1.8,1.7c-1.1,1.4-1.6,3.1-2.3,4.6c0.1,0.5-0.3,0.9-0.3,1.3
				c0,0.1,0.1,0.2,0,0.2c-0.4,0.6-0.5,1.3-0.6,2c0,0.2,0,0.7-0.4,0.7c-0.2,0-0.4-0.1-0.6-0.2c0,0.2-0.2,0.4-0.4,0.4
				C115.6,31.4,114.9,30.1,114.7,29.5z"/>
		</g>
	</g>
</g>
</svg>
