<?xml version="1.0" encoding="UTF-8"?>
<svg id="Layer_2" data-name="Layer 2" xmlns="http://www.w3.org/2000/svg" viewBox="0 0 555.95 129.57">
  <g id="Layer_5" data-name="Layer 5">
    <path d="m554.94,37.75c-1.11-.82-2.67-.59-3.5.52-.09.13-9.57,12.68-29.55,22.63-18.45,9.18-49.91,17.95-95.04,7.62-9.04-2.07-16.68-.61-22.67,4.34-10.12,8.36-12.94,24.65-13.7,34.52-2.78-4.82-6.36-12.08-8.94-21.04-6.03-20.95-4.15-41.35,5.58-60.69l10.99-19.88c.25-.45.48-.87.68-1.27.21-.38.34-.6.38-.67l-.05-.03c.63-1.45.66-2.59-.88-3.44-1.65-.91-2.73.08-3.41,1.06h-.03s-.08.14-.18.31c-.13.21-.24.41-.33.58l-1.77,3.18c-1.63,2.92-4.19,7.53-7.92,14.25-.66,1.18-1.28,2.35-1.87,3.53-.15.28-.31.55-.46.82-.92,1.65-1.82,3.29-2.68,4.85-2.64-1.73-7.57-4.34-12.76-3.76-3.58.4-6.61,2.21-9.03,5.37,0,0,0,0-.01.01-.09.11-9.15,11.37-18.05,10.63-.79-.07-1.27-.34-1.64-.94-2.23-3.56.55-14.89,3.23-21.8.5-1.28-.13-2.72-1.41-3.23-1.28-.51-2.72.11-3.24,1.39l-.86,2.14c-2.1-2.27-4.48-3.16-6.32-3.5-4.08-.74-8.74.74-12.47,3.97-.29.25-.62.61-.96,1.02,0,0-.02.01-.03.02-7.92,8.85-23.15,22.55-30.29,21.62-1.32-.17-2.23-.87-2.95-2.26-.89-1.74-1.49-3.43-1.84-5.05.15-.07.31-.14.46-.2.49-.16.99-.33,1.5-.49,6.11-1.99,14.49-4.72,13.67-13.28-.52-5.37-3.44-7.06-5.14-7.59-3.49-1.08-7.88.77-11.21,4.73-2.77,3.3-4.89,8.24-4.66,14.03-4.55,2.78-9.36,7.1-13.73,11.02-3,2.69-6.93,6.23-9,7.38.01-.75.13-2.02.58-4.09.64-2.94,1.67-5.99,3.36-9.88l4.76-10.94c.54-1.23,0-2.67-1.21-3.25-1.21-.58-2.67-.1-3.29,1.09-.77,1.47-1.51,1.28-1.9,1.19-1.06-.26-2.49-1.86-3.92-4.06.06-.16.1-.26.11-.3.6-1.53,2.35-6.73-.38-9.3-1.64-1.54-4.11-1.57-7.33-.08-1.2.55-1.76,1.94-1.28,3.17,1.09,2.82,2.2,5.12,3.28,7.01-1.75,4.11-5.62,12.37-10.99,18.83-2.35,2.82-4.84,5.28-7.22,7.36.38-.68.72-1.35,1.01-1.99,1.87-4.18,2.26-10.59-.6-14.73-1.85-2.67-4.8-4.04-8.32-3.84-5.06.29-9.36,5.06-12.46,11.11.1-5.84.2-10.22.2-10.32.03-1.31-.95-2.41-2.26-2.54-1.31-.12-2.48.77-2.71,2.06,0,.04-.74,4.11-4.33,12.51-1.72,4.03-5.26,9.62-8.51,14.4-.73-3.88-2.89-8.34-7.31-13.37-2.08-2.36-3.85-4.54-5.41-6.67-.5-.68-.98-1.35-1.43-2,3.11-4.64,4.77-7.69,5.81-11.32.98-3.43,0-6.67-2.63-8.67-2.84-2.16-6.93-2.38-9.96-.53-1.56.96-5.06,3.92-3.82,10.82.43,2.38,1.96,5.62,4.56,9.67-1.08,1.55-2.31,3.29-3.72,5.29l-1.63,2.32c-6.74,9.55-46.15,55.96-160.85,31.02-1.34-.3-2.68.56-2.97,1.91-.29,1.35.56,2.68,1.91,2.97,24.05,5.23,44.9,7.36,62.93,7.36,70.24,0,97.46-32.42,103.07-40.38l1.63-2.31c.96-1.36,1.84-2.61,2.66-3.77.14.19.28.38.42.58,1.65,2.25,3.51,4.54,5.69,7.02,6.82,7.75,8.16,14.22,4.11,19.79-5.21,7.16-10.97,4.12-12.61,3.01-3.37-2.26-5.71-6.79-3.63-10.15.73-1.17.36-2.71-.81-3.44-1.17-.73-2.71-.36-3.44.81-3.7,5.97-.31,13.3,5.09,16.93,5.06,3.4,13.17,4.34,19.39-4.16,0,0,.01,0,.01-.02.47-.62,11.12-14.68,15.47-23.84-.07,4.74-.13,9.85-.14,14.23,0,.32,0,.63,0,.93,0,1.94,0,3.72.03,5.22.38,24.82-16.03,39.28-16.2,39.42-1.05.9-1.17,2.48-.27,3.52.5.58,1.2.87,1.9.87.58,0,1.15-.2,1.63-.6.75-.64,18.35-16.05,17.94-43.29-.03-1.79-.03-3.97-.03-6.36.29-11.34,7.91-24.76,12.96-25.04,1.77-.1,3.07.45,3.92,1.69,1.55,2.24,1.61,6.57.15,9.86-2.37,5.32-9.25,13.04-9.32,13.12,0,0,0,.01-.02.02-.07.08-.13.17-.19.26-.03.05-.07.1-.1.15-.04.08-.08.16-.11.24-.03.07-.07.13-.09.2-.03.09-.04.17-.06.26-.01.07-.04.13-.05.2-.01.11-.01.22-.01.33,0,.05,0,.1,0,.15,0,.09.03.18.04.28.01.07.02.14.03.2.02.07.05.13.07.2.03.09.06.18.1.27,0,0,0,.02,0,.03.01.02.03.04.04.06.08.16.19.3.31.44.04.05.08.09.13.14.03.03.06.07.09.1.1.09.21.16.31.23.03.02.05.04.07.05.18.11.37.18.56.24.05.01.09.02.14.03.16.04.32.06.48.07.03,0,.07.01.1.01.02,0,.04,0,.06,0,.13,0,.25-.02.38-.04.05,0,.1-.01.14-.02.17-.04.34-.1.51-.18,0,0,.01,0,.02,0,.47-.23,11.58-5.88,20.95-17.14,4.75-5.71,8.34-12.53,10.5-17.22,2.47,2.8,4.39,3.46,4.96,3.61.15.04.29.07.44.09l-2.16,4.97c-1.8,4.14-2.97,7.58-3.67,10.81-.91,4.23-1.37,8.37,1.44,10,3.48,2.02,7.9-1.94,15.21-8.51,3.64-3.27,7.61-6.83,11.28-9.36.45,1.56,1.05,3.15,1.89,4.77.63,1.23,1.44,2.24,2.38,3.03.15.26.34.5.58.71.24.2,24.22,20.32,24.2,40.85-.01,19.91-7.42,39.47-7.5,39.67-.49,1.29.15,2.73,1.44,3.23.29.11.6.17.89.17,1,0,1.95-.61,2.33-1.6.32-.83,7.81-20.6,7.83-41.45.01-16.76-13.35-32.45-20.94-40.01,6.37-1.58,13.89-7.26,19.85-12.6-1.26,5.65.12,8.74,1.66,10.38,1.44,1.53,3.48,2.32,5.85,2.32,1.02,0,2.11-.15,3.22-.45,4.99-1.35,9.13-4.85,12.23-8.92.23,3.4,1.12,5.13,1.46,5.68,1.21,1.94,3.11,3.07,5.47,3.27.41.03.82.05,1.23.05,4.34,0,8.46-1.85,11.89-4.13-.23,2.28.22,4.06.86,5.39,1.54,3.2,4.95,5.17,9.12,5.27,4.57.12,9.02-1.88,12.13-5.29-2.88,15.9-.78,29.99,2.25,40.44,5.09,17.55,13.61,28.61,13.97,29.07.02.03.06.05.08.08.08.09.17.18.26.26.05.04.1.09.16.12.09.07.19.12.28.18.06.03.11.06.17.09.11.05.23.09.35.12.05.01.09.03.14.04.17.04.34.06.52.06h0s0,0,0,0c.03,0,.06,0,.08,0,.03,0,.06-.01.1-.01.11,0,.22-.02.33-.04.06-.01.11-.03.17-.04.09-.03.18-.06.27-.09.06-.02.11-.04.17-.07.08-.04.16-.09.23-.14.05-.03.11-.07.16-.1.01,0,.02-.01.03-.02.04-.03.07-.07.11-.1.08-.07.15-.13.22-.21.05-.05.09-.11.13-.17.05-.07.11-.15.16-.22.04-.06.06-.12.09-.19.04-.08.08-.17.11-.25.02-.06.04-.13.05-.2.02-.09.05-.18.06-.27.01-.07.01-.15.02-.22,0-.07.02-.14.01-.21,0-.28-.78-28.01,12.13-38.66,4.8-3.96,10.81-5.05,18.37-3.32,46.73,10.7,79.44,1.47,98.65-8.16,20.95-10.5,30.67-23.45,31.07-24,.82-1.11.58-2.67-.52-3.49Zm-382.63-10.79c-1.52-2.55-2.46-4.63-2.71-6.01-.5-2.76.04-4.77,1.51-5.67.57-.35,1.25-.52,1.95-.52.85,0,1.71.26,2.37.76.98.75,1.27,1.86.86,3.32-.74,2.58-1.88,4.87-3.97,8.12Zm111.76-5.99c1.87-2.23,3.93-3.25,5.28-3.25.23,0,.43.03.62.09,1.2.37,1.55,2.22,1.65,3.29.41,4.27-3.6,5.89-10.24,8.05-.25.08-.49.16-.74.24.32-3.45,1.71-6.36,3.44-8.42Zm48.4,6.07c-2.21,5.49-7.11,12.52-13.62,14.28-.88.24-3.05.67-4.12-.47-1.17-1.25-1.07-4.36.27-8.34,1.29-3.81,4.29-8.64,5.29-9.49,2.19-1.89,4.74-2.94,7.04-2.94.43,0,.85.04,1.26.11,2.05.37,3.69,1.68,4.9,3.9.03.06.06.11.1.17l-1.12,2.79Zm39.96,14.87c-2.27,4.16-6.64,5.94-9.88,5.86-1.08-.03-3.72-.32-4.74-2.44-1.22-2.52.22-6.79,3.93-11.69,1.58-2.09,3.42-3.22,5.63-3.48.33-.04.66-.06.99-.06,3.53,0,7.03,2.03,8.8,3.23-2.48,4.49-4.34,7.85-4.73,8.57Z" style="fill: #2d7f5b; stroke-width: 0px;"/>
  </g>
</svg>